%FSLAX46Y46*%
%MOMM*%
%AMPS34*
1,1,0.240000,0.180000,-0.430000*
1,1,0.240000,0.180000,0.430000*
21,1,0.600000,0.860000,0.000000,0.000000,360.000000*
21,1,0.360000,1.100000,0.000000,0.000000,360.000000*
1,1,0.240000,-0.180000,-0.430000*
1,1,0.240000,-0.180000,0.430000*
%
%ADD34PS34*%
%AMPS33*
1,1,0.240000,-0.180000,0.430000*
1,1,0.240000,-0.180000,-0.430000*
21,1,0.600000,0.860000,0.000000,0.000000,180.000000*
21,1,0.360000,1.100000,0.000000,0.000000,180.000000*
1,1,0.240000,0.180000,0.430000*
1,1,0.240000,0.180000,-0.430000*
%
%ADD33PS33*%
%AMPS17*
1,1,0.160000,0.145000,-0.520000*
1,1,0.160000,0.145000,0.520000*
21,1,0.450000,1.040000,0.000000,0.000000,360.000000*
21,1,0.290000,1.200000,0.000000,0.000000,360.000000*
1,1,0.160000,-0.145000,-0.520000*
1,1,0.160000,-0.145000,0.520000*
%
%ADD17PS17*%
%AMPS16*
1,1,0.160000,-0.145000,0.520000*
1,1,0.160000,-0.145000,-0.520000*
21,1,0.450000,1.040000,0.000000,0.000000,180.000000*
21,1,0.290000,1.200000,0.000000,0.000000,180.000000*
1,1,0.160000,0.145000,0.520000*
1,1,0.160000,0.145000,-0.520000*
%
%ADD16PS16*%
%AMPS39*
1,1,0.200000,0.300000,-0.275000*
1,1,0.200000,0.300000,0.275000*
21,1,0.800000,0.550000,0.000000,0.000000,360.000000*
21,1,0.600000,0.750000,0.000000,0.000000,360.000000*
1,1,0.200000,-0.300000,-0.275000*
1,1,0.200000,-0.300000,0.275000*
%
%ADD39PS39*%
%AMPS26*
1,1,0.200000,-0.275000,-0.300000*
1,1,0.200000,0.275000,-0.300000*
21,1,0.800000,0.550000,0.000000,0.000000,270.000000*
21,1,0.600000,0.750000,0.000000,0.000000,270.000000*
1,1,0.200000,-0.275000,0.300000*
1,1,0.200000,0.275000,0.300000*
%
%ADD26PS26*%
%AMPS28*
1,1,0.200000,0.275000,0.300000*
1,1,0.200000,-0.275000,0.300000*
21,1,0.800000,0.550000,0.000000,0.000000,90.000000*
21,1,0.600000,0.750000,0.000000,0.000000,90.000000*
1,1,0.200000,0.275000,-0.300000*
1,1,0.200000,-0.275000,-0.300000*
%
%ADD28PS28*%
%AMPS37*
1,1,0.400000,0.275000,-0.425000*
1,1,0.400000,0.275000,0.425000*
21,1,0.950000,0.850000,0.000000,0.000000,360.000000*
21,1,0.550000,1.250000,0.000000,0.000000,360.000000*
1,1,0.400000,-0.275000,-0.425000*
1,1,0.400000,-0.275000,0.425000*
%
%ADD37PS37*%
%AMPS20*
1,1,0.400000,-0.425000,-0.275000*
1,1,0.400000,0.425000,-0.275000*
21,1,0.950000,0.850000,0.000000,0.000000,270.000000*
21,1,0.550000,1.250000,0.000000,0.000000,270.000000*
1,1,0.400000,-0.425000,0.275000*
1,1,0.400000,0.425000,0.275000*
%
%ADD20PS20*%
%AMPS32*
1,1,0.200000,-0.750000,1.550000*
1,1,0.200000,-0.750000,-1.550000*
21,1,1.700000,3.100000,0.000000,0.000000,180.000000*
21,1,1.500000,3.300000,0.000000,0.000000,180.000000*
1,1,0.200000,0.750000,1.550000*
1,1,0.200000,0.750000,-1.550000*
%
%ADD32PS32*%
%AMPS18*
1,1,0.200000,0.525000,0.400000*
1,1,0.200000,-0.525000,0.400000*
21,1,1.000000,1.050000,0.000000,0.000000,90.000000*
21,1,0.800000,1.250000,0.000000,0.000000,90.000000*
1,1,0.200000,0.525000,-0.400000*
1,1,0.200000,-0.525000,-0.400000*
%
%ADD18PS18*%
%AMPS14*
1,1,0.200000,-0.325000,0.325000*
1,1,0.200000,-0.325000,-0.325000*
21,1,0.850000,0.650000,0.000000,0.000000,180.000000*
21,1,0.650000,0.850000,0.000000,0.000000,180.000000*
1,1,0.200000,0.325000,0.325000*
1,1,0.200000,0.325000,-0.325000*
%
%ADD14PS14*%
%AMPS24*
1,1,0.200000,-0.700000,-0.400000*
1,1,0.200000,0.700000,-0.400000*
21,1,1.000000,1.400000,0.000000,0.000000,270.000000*
21,1,0.800000,1.600000,0.000000,0.000000,270.000000*
1,1,0.200000,-0.700000,0.400000*
1,1,0.200000,0.700000,0.400000*
%
%ADD24PS24*%
%AMPS43*
1,1,0.200000,0.700000,0.400000*
1,1,0.200000,-0.700000,0.400000*
21,1,1.000000,1.400000,0.000000,0.000000,90.000000*
21,1,0.800000,1.600000,0.000000,0.000000,90.000000*
1,1,0.200000,0.700000,-0.400000*
1,1,0.200000,-0.700000,-0.400000*
%
%ADD43PS43*%
%AMPS15*
1,1,0.200000,-1.450000,-1.200000*
1,1,0.200000,1.450000,-1.200000*
21,1,2.600000,2.900000,0.000000,0.000000,270.000000*
21,1,2.400000,3.100000,0.000000,0.000000,270.000000*
1,1,0.200000,-1.450000,1.200000*
1,1,0.200000,1.450000,1.200000*
%
%ADD15PS15*%
%AMPS23*
1,1,0.200000,0.200000,-0.150000*
1,1,0.200000,0.200000,0.150000*
21,1,0.600000,0.300000,0.000000,0.000000,360.000000*
21,1,0.400000,0.500000,0.000000,0.000000,360.000000*
1,1,0.200000,-0.200000,-0.150000*
1,1,0.200000,-0.200000,0.150000*
%
%ADD23PS23*%
%AMPS11*
1,1,0.200000,-0.150000,-0.200000*
1,1,0.200000,0.150000,-0.200000*
21,1,0.600000,0.300000,0.000000,0.000000,270.000000*
21,1,0.400000,0.500000,0.000000,0.000000,270.000000*
1,1,0.200000,-0.150000,0.200000*
1,1,0.200000,0.150000,0.200000*
%
%ADD11PS11*%
%AMPS29*
1,1,0.200000,-0.200000,0.150000*
1,1,0.200000,-0.200000,-0.150000*
21,1,0.600000,0.300000,0.000000,0.000000,180.000000*
21,1,0.400000,0.500000,0.000000,0.000000,180.000000*
1,1,0.200000,0.200000,0.150000*
1,1,0.200000,0.200000,-0.150000*
%
%ADD29PS29*%
%AMPS13*
1,1,0.200000,0.150000,0.200000*
1,1,0.200000,-0.150000,0.200000*
21,1,0.600000,0.300000,0.000000,0.000000,90.000000*
21,1,0.400000,0.500000,0.000000,0.000000,90.000000*
1,1,0.200000,0.150000,-0.200000*
1,1,0.200000,-0.150000,-0.200000*
%
%ADD13PS13*%
%AMPS36*
1,1,0.500000,-1.350000,0.375000*
1,1,0.500000,-1.350000,-0.375000*
21,1,3.200000,0.750000,0.000000,0.000000,180.000000*
21,1,2.700000,1.250000,0.000000,0.000000,180.000000*
1,1,0.500000,1.350000,0.375000*
1,1,0.500000,1.350000,-0.375000*
%
%ADD36PS36*%
%AMPS19*
1,1,0.500000,0.375000,1.350000*
1,1,0.500000,-0.375000,1.350000*
21,1,3.200000,0.750000,0.000000,0.000000,90.000000*
21,1,2.700000,1.250000,0.000000,0.000000,90.000000*
1,1,0.500000,0.375000,-1.350000*
1,1,0.500000,-0.375000,-1.350000*
%
%ADD19PS19*%
%AMPS31*
1,1,0.100000,-0.500000,-0.075000*
1,1,0.100000,0.500000,-0.075000*
21,1,0.250000,1.000000,0.000000,0.000000,270.000000*
21,1,0.150000,1.100000,0.000000,0.000000,270.000000*
1,1,0.100000,-0.500000,0.075000*
1,1,0.100000,0.500000,0.075000*
%
%ADD31PS31*%
%AMPS30*
1,1,0.100000,0.500000,0.075000*
1,1,0.100000,-0.500000,0.075000*
21,1,0.250000,1.000000,0.000000,0.000000,90.000000*
21,1,0.150000,1.100000,0.000000,0.000000,90.000000*
1,1,0.100000,0.500000,-0.075000*
1,1,0.100000,-0.500000,-0.075000*
%
%ADD30PS30*%
%AMPS25*
1,1,0.200000,0.150000,-0.350000*
1,1,0.200000,0.150000,0.350000*
21,1,0.500000,0.700000,0.000000,0.000000,360.000000*
21,1,0.300000,0.900000,0.000000,0.000000,360.000000*
1,1,0.200000,-0.150000,-0.350000*
1,1,0.200000,-0.150000,0.350000*
%
%ADD25PS25*%
%AMPS12*
1,1,0.200000,-0.350000,-0.150000*
1,1,0.200000,0.350000,-0.150000*
21,1,0.500000,0.700000,0.000000,0.000000,270.000000*
21,1,0.300000,0.900000,0.000000,0.000000,270.000000*
1,1,0.200000,-0.350000,0.150000*
1,1,0.200000,0.350000,0.150000*
%
%ADD12PS12*%
%AMPS40*
1,1,0.200000,-0.150000,0.350000*
1,1,0.200000,-0.150000,-0.350000*
21,1,0.500000,0.700000,0.000000,0.000000,180.000000*
21,1,0.300000,0.900000,0.000000,0.000000,180.000000*
1,1,0.200000,0.150000,0.350000*
1,1,0.200000,0.150000,-0.350000*
%
%ADD40PS40*%
%AMPS38*
1,1,0.200000,0.350000,0.150000*
1,1,0.200000,-0.350000,0.150000*
21,1,0.500000,0.700000,0.000000,0.000000,90.000000*
21,1,0.300000,0.900000,0.000000,0.000000,90.000000*
1,1,0.200000,0.350000,-0.150000*
1,1,0.200000,-0.350000,-0.150000*
%
%ADD38PS38*%
%AMPS41*
1,1,0.180000,0.125000,-0.525000*
1,1,0.180000,0.125000,0.525000*
21,1,0.430000,1.050000,0.000000,0.000000,360.000000*
21,1,0.250000,1.230000,0.000000,0.000000,360.000000*
1,1,0.180000,-0.125000,-0.525000*
1,1,0.180000,-0.125000,0.525000*
%
%ADD41PS41*%
%AMPS42*
1,1,0.180000,-0.125000,0.525000*
1,1,0.180000,-0.125000,-0.525000*
21,1,0.430000,1.050000,0.000000,0.000000,180.000000*
21,1,0.250000,1.230000,0.000000,0.000000,180.000000*
1,1,0.180000,0.125000,0.525000*
1,1,0.180000,0.125000,-0.525000*
%
%ADD42PS42*%
%AMPS22*
1,1,0.500000,1.440000,-0.940000*
1,1,0.500000,1.440000,0.940000*
21,1,3.380000,1.880000,0.000000,0.000000,360.000000*
21,1,2.880000,2.380000,0.000000,0.000000,360.000000*
1,1,0.500000,-1.440000,-0.940000*
1,1,0.500000,-1.440000,0.940000*
%
%ADD22PS22*%
%AMPS21*
1,1,0.500000,-1.440000,0.940000*
1,1,0.500000,-1.440000,-0.940000*
21,1,3.380000,1.880000,0.000000,0.000000,180.000000*
21,1,2.880000,2.380000,0.000000,0.000000,180.000000*
1,1,0.500000,1.440000,0.940000*
1,1,0.500000,1.440000,-0.940000*
%
%ADD21PS21*%
%AMPS35*
1,1,0.200000,-0.200000,-0.100000*
1,1,0.200000,0.200000,-0.100000*
21,1,0.400000,0.400000,0.000000,0.000000,270.000000*
21,1,0.200000,0.600000,0.000000,0.000000,270.000000*
1,1,0.200000,-0.200000,0.100000*
1,1,0.200000,0.200000,0.100000*
%
%ADD35PS35*%
%AMPS10*
1,1,0.200000,-0.100000,0.200000*
1,1,0.200000,-0.100000,-0.200000*
21,1,0.400000,0.400000,0.000000,0.000000,180.000000*
21,1,0.200000,0.600000,0.000000,0.000000,180.000000*
1,1,0.200000,0.100000,0.200000*
1,1,0.200000,0.100000,-0.200000*
%
%ADD10PS10*%
%AMPS27*
1,1,0.200000,0.200000,0.100000*
1,1,0.200000,-0.200000,0.100000*
21,1,0.400000,0.400000,0.000000,0.000000,90.000000*
21,1,0.200000,0.600000,0.000000,0.000000,90.000000*
1,1,0.200000,0.200000,-0.100000*
1,1,0.200000,-0.200000,-0.100000*
%
%ADD27PS27*%
G01*
G01*
%LPD*%
G75*
D10*
X6650000Y70550000D03*
D10*
X7550000Y70550000D03*
D10*
X4958331Y12008333D03*
D10*
X5858331Y12008333D03*
D11*
X28425000Y79100000D03*
D11*
X28425000Y78000000D03*
D12*
X13400000Y15400000D03*
D12*
X13400000Y16900000D03*
D11*
X38300000Y79100000D03*
D11*
X38300000Y78000000D03*
D13*
X8558331Y10458333D03*
D13*
X8558331Y11558333D03*
D14*
X31929998Y29100000D03*
D14*
X30979998Y31100000D03*
D14*
X30029998Y29100000D03*
D15*
X7250000Y74300000D03*
D16*
X8670000Y76550000D03*
D17*
X6770000Y71950000D03*
D17*
X5830000Y71950000D03*
D17*
X8670000Y71950000D03*
D16*
X7730000Y76550000D03*
D17*
X7730000Y71950000D03*
D16*
X5830000Y76550000D03*
D16*
X6770000Y76550000D03*
D14*
X35929998Y29100000D03*
D14*
X34979998Y31100000D03*
D14*
X34029998Y29100000D03*
D18*
X8900008Y70349944D03*
D18*
X8900008Y68349944D03*
D19*
X27754165Y38154165D03*
D20*
X20954165Y40454165D03*
D20*
X20954165Y35854165D03*
D20*
X20954165Y38154165D03*
D21*
X32000000Y74860000D03*
D22*
X32000000Y70040000D03*
D23*
X31050000Y46500000D03*
D23*
X32150000Y46500000D03*
D24*
X11650000Y15500000D03*
D24*
X11650000Y18500000D03*
D23*
X29050000Y40100000D03*
D23*
X30150000Y40100000D03*
D25*
X19554165Y38154165D03*
D25*
X18054165Y38154165D03*
D23*
X16250000Y69450000D03*
D23*
X17350000Y69450000D03*
D21*
X22125000Y74860000D03*
D22*
X22125000Y70040000D03*
D26*
X30045832Y54254162D03*
D26*
X30045832Y52754162D03*
D23*
X6350000Y69450000D03*
D23*
X7450000Y69450000D03*
D27*
X23199984Y48910000D03*
D27*
X23199984Y48010000D03*
D18*
X18800008Y70349944D03*
D18*
X18800008Y68349944D03*
D15*
X36900000Y74300000D03*
D16*
X38320000Y76550000D03*
D17*
X36420000Y71950000D03*
D17*
X35480000Y71950000D03*
D17*
X38320000Y71950000D03*
D16*
X37380000Y76550000D03*
D17*
X37380000Y71950000D03*
D16*
X35480000Y76550000D03*
D16*
X36420000Y76550000D03*
D12*
X5350000Y17050000D03*
D12*
X5350000Y18550000D03*
D13*
X24249984Y47710000D03*
D13*
X24249984Y48810000D03*
D28*
X32845832Y49754162D03*
D28*
X32845832Y51254162D03*
D29*
X6200000Y2550000D03*
D29*
X5100000Y2550000D03*
D30*
X9850000Y14850000D03*
D31*
X6650000Y15350000D03*
D30*
X9850000Y16850000D03*
D31*
X6650000Y16350000D03*
D31*
X6650000Y16850000D03*
D30*
X9850000Y16350000D03*
D32*
X8250000Y16100000D03*
D31*
X6650000Y17350000D03*
D31*
X6650000Y15850000D03*
D30*
X9850000Y17350000D03*
D30*
X9850000Y15350000D03*
D30*
X9850000Y15850000D03*
D31*
X6650000Y14850000D03*
D10*
X16550000Y70550000D03*
D10*
X17450000Y70550000D03*
D33*
X31200000Y44600000D03*
D34*
X30250000Y42000000D03*
D34*
X32150000Y42000000D03*
D33*
X30250000Y44600000D03*
D33*
X32150000Y44600000D03*
D23*
X36000000Y69450000D03*
D23*
X37100000Y69450000D03*
D11*
X8650000Y79100000D03*
D11*
X8650000Y78000000D03*
D35*
X8608331Y8558333D03*
D35*
X8608331Y9458333D03*
D10*
X36300000Y70550000D03*
D10*
X37200000Y70550000D03*
D36*
X34345832Y59604162D03*
D37*
X32045832Y52804162D03*
D37*
X36645832Y52804162D03*
D37*
X34345832Y52804162D03*
D14*
X28029998Y29100000D03*
D14*
X27079998Y31100000D03*
D14*
X26129998Y29100000D03*
D11*
X18550000Y79100000D03*
D11*
X18550000Y78000000D03*
D26*
X19504165Y42504165D03*
D26*
X19504165Y41004165D03*
D14*
X24229998Y29100000D03*
D14*
X23279998Y31100000D03*
D14*
X22329998Y29100000D03*
D38*
X34345832Y51404162D03*
D38*
X34345832Y49904162D03*
D12*
X5250000Y14900000D03*
D12*
X5250000Y16400000D03*
D27*
X24249984Y50710000D03*
D27*
X24249984Y49810000D03*
D15*
X17150000Y74300000D03*
D16*
X18570000Y76550000D03*
D17*
X16670000Y71950000D03*
D17*
X15730000Y71950000D03*
D17*
X18570000Y71950000D03*
D16*
X17630000Y76550000D03*
D17*
X17630000Y71950000D03*
D16*
X15730000Y76550000D03*
D16*
X16670000Y76550000D03*
D15*
X27025000Y74300000D03*
D16*
X28445000Y76550000D03*
D17*
X26545000Y71950000D03*
D17*
X25605000Y71950000D03*
D17*
X28445000Y71950000D03*
D16*
X27505000Y76550000D03*
D17*
X27505000Y71950000D03*
D16*
X25605000Y76550000D03*
D16*
X26545000Y76550000D03*
D39*
X17904165Y39654165D03*
D39*
X19404165Y39654165D03*
D40*
X34145832Y48704162D03*
D40*
X35645832Y48704162D03*
D10*
X26425000Y70550000D03*
D10*
X27325000Y70550000D03*
D41*
X7038331Y4208333D03*
D42*
X7038331Y10308333D03*
D41*
X6388331Y4208333D03*
D41*
X5728331Y4208333D03*
D42*
X6388331Y10308333D03*
D42*
X5728331Y10308333D03*
D42*
X5078331Y10308333D03*
D41*
X5078331Y4208333D03*
D39*
X17904165Y35729165D03*
D39*
X19404165Y35729165D03*
D21*
X12250000Y74860000D03*
D22*
X12250000Y70040000D03*
D18*
X28675008Y70349944D03*
D18*
X28675008Y68349944D03*
D21*
X2350000Y74860000D03*
D22*
X2350000Y70040000D03*
D18*
X38550008Y70349944D03*
D18*
X38550008Y68349944D03*
D27*
X23200000Y47100000D03*
D27*
X23200000Y46200000D03*
D43*
X3550000Y18150000D03*
D43*
X3550000Y15150000D03*
D10*
X6758331Y12008333D03*
D10*
X7658331Y12008333D03*
D23*
X26125000Y69450000D03*
D23*
X27225000Y69450000D03*
D28*
X36770832Y49754162D03*
D28*
X36770832Y51254162D03*
D38*
X16854165Y38354165D03*
D38*
X16854165Y36854165D03*
M02*
