%FSLAX46Y46*%
%MOMM*%
%AMPS27*
1,1,0.987000,0.000000,0.000000*
%
%ADD27PS27*%
%AMPS13*
1,1,1.650000,0.000000,0.000000*
%
%ADD13PS13*%
%AMPS16*
1,1,1.650000,0.000000,0.000000*
%
%ADD16PS16*%
%AMPS41*
1,1,1.650000,0.000000,0.000000*
%
%ADD41PS41*%
%AMPS11*
1,1,8.200000,0.000000,0.000000*
%
%ADD11PS11*%
%AMPS42*
1,1,8.200000,0.000000,0.000000*
%
%ADD42PS42*%
%AMPS15*
1,1,1.650000,0.000000,0.000000*
%
%ADD15PS15*%
%AMPS20*
1,1,8.200000,0.000000,0.000000*
%
%ADD20PS20*%
%AMPS53*
1,1,8.200000,0.000000,0.000000*
%
%ADD53PS53*%
%AMPS14*
1,1,1.650000,0.000000,0.000000*
%
%ADD14PS14*%
%AMPS12*
1,1,1.650000,0.000000,0.000000*
%
%ADD12PS12*%
%AMPS35*
21,1,1.700000,0.800000,0.000000,0.000000,270.000000*
%
%ADD35PS35*%
%AMPS34*
21,1,3.340000,1.700000,0.000000,0.000000,180.000000*
%
%ADD34PS34*%
%AMPS33*
21,1,5.100000,4.610000,0.000000,0.000000,270.000000*
%
%ADD33PS33*%
%AMPS56*
1,1,0.454000,0.000000,0.000000*
%
%ADD56PS56*%
%AMPS29*
1,1,2.575000,0.000000,0.000000*
%
%ADD29PS29*%
%AMPS28*
1,1,1.200000,0.000000,0.000000*
%
%ADD28PS28*%
%AMPS52*
1,1,0.400000,0.350000,-0.400000*
1,1,0.400000,-0.350000,0.400000*
1,1,0.400000,-0.350000,-0.400000*
1,1,0.400000,0.350000,0.400000*
21,1,1.100000,0.800000,0.000000,0.000000,180.000000*
21,1,0.700000,1.200000,0.000000,0.000000,180.000000*
%
%ADD52PS52*%
%AMPS54*
1,1,0.360000,-0.315000,-0.070000*
1,1,0.360000,0.315000,0.070000*
1,1,0.360000,-0.315000,0.070000*
1,1,0.360000,0.315000,-0.070000*
21,1,0.500000,0.630000,0.000000,0.000000,90.000000*
21,1,0.140000,0.990000,0.000000,0.000000,90.000000*
%
%ADD54PS54*%
%AMPS55*
1,1,0.360000,0.315000,0.070000*
1,1,0.360000,-0.315000,-0.070000*
1,1,0.360000,0.315000,-0.070000*
1,1,0.360000,-0.315000,0.070000*
21,1,0.500000,0.630000,0.000000,0.000000,270.000000*
21,1,0.140000,0.990000,0.000000,0.000000,270.000000*
%
%ADD55PS55*%
%AMPS24*
1,1,0.400000,-0.100000,0.200000*
1,1,0.400000,0.100000,-0.200000*
1,1,0.400000,0.100000,0.200000*
1,1,0.400000,-0.100000,-0.200000*
21,1,0.600000,0.400000,0.000000,0.000000,0.000000*
21,1,0.200000,0.800000,0.000000,0.000000,0.000000*
%
%ADD24PS24*%
%AMPS10*
1,1,0.400000,-0.200000,-0.100000*
1,1,0.400000,0.200000,0.100000*
1,1,0.400000,-0.200000,0.100000*
1,1,0.400000,0.200000,-0.100000*
21,1,0.600000,0.400000,0.000000,0.000000,90.000000*
21,1,0.200000,0.800000,0.000000,0.000000,90.000000*
%
%ADD10PS10*%
%AMPS40*
1,1,0.400000,0.100000,-0.200000*
1,1,0.400000,-0.100000,0.200000*
1,1,0.400000,-0.100000,-0.200000*
1,1,0.400000,0.100000,0.200000*
21,1,0.600000,0.400000,0.000000,0.000000,180.000000*
21,1,0.200000,0.800000,0.000000,0.000000,180.000000*
%
%ADD40PS40*%
%AMPS17*
1,1,0.400000,0.200000,0.100000*
1,1,0.400000,-0.200000,-0.100000*
1,1,0.400000,0.200000,-0.100000*
1,1,0.400000,-0.200000,0.100000*
21,1,0.600000,0.400000,0.000000,0.000000,270.000000*
21,1,0.200000,0.800000,0.000000,0.000000,270.000000*
%
%ADD17PS17*%
%AMPS23*
1,1,0.400000,-0.700000,0.400000*
1,1,0.400000,0.700000,-0.400000*
1,1,0.400000,0.700000,0.400000*
1,1,0.400000,-0.700000,-0.400000*
21,1,1.800000,0.800000,0.000000,0.000000,0.000000*
21,1,1.400000,1.200000,0.000000,0.000000,0.000000*
%
%ADD23PS23*%
%AMPS45*
1,1,0.400000,-0.125000,0.625000*
1,1,0.400000,0.125000,-0.625000*
1,1,0.400000,0.125000,0.625000*
1,1,0.400000,-0.125000,-0.625000*
21,1,0.650000,1.250000,0.000000,0.000000,0.000000*
21,1,0.250000,1.650000,0.000000,0.000000,0.000000*
%
%ADD45PS45*%
%AMPS46*
1,1,0.400000,0.125000,-0.625000*
1,1,0.400000,-0.125000,0.625000*
1,1,0.400000,-0.125000,-0.625000*
1,1,0.400000,0.125000,0.625000*
21,1,0.650000,1.250000,0.000000,0.000000,180.000000*
21,1,0.250000,1.650000,0.000000,0.000000,180.000000*
%
%ADD46PS46*%
%AMPS44*
1,1,0.380000,-0.125000,0.525000*
1,1,0.380000,0.125000,-0.525000*
1,1,0.380000,0.125000,0.525000*
1,1,0.380000,-0.125000,-0.525000*
21,1,0.630000,1.050000,0.000000,0.000000,0.000000*
21,1,0.250000,1.430000,0.000000,0.000000,0.000000*
%
%ADD44PS44*%
%AMPS31*
1,1,0.380000,-0.525000,-0.125000*
1,1,0.380000,0.525000,0.125000*
1,1,0.380000,-0.525000,0.125000*
1,1,0.380000,0.525000,-0.125000*
21,1,0.630000,1.050000,0.000000,0.000000,90.000000*
21,1,0.250000,1.430000,0.000000,0.000000,90.000000*
%
%ADD31PS31*%
%AMPS43*
1,1,0.380000,0.125000,-0.525000*
1,1,0.380000,-0.125000,0.525000*
1,1,0.380000,-0.125000,-0.525000*
1,1,0.380000,0.125000,0.525000*
21,1,0.630000,1.050000,0.000000,0.000000,180.000000*
21,1,0.250000,1.430000,0.000000,0.000000,180.000000*
%
%ADD43PS43*%
%AMPS30*
1,1,0.380000,0.525000,0.125000*
1,1,0.380000,-0.525000,-0.125000*
1,1,0.380000,0.525000,-0.125000*
1,1,0.380000,-0.525000,0.125000*
21,1,0.630000,1.050000,0.000000,0.000000,270.000000*
21,1,0.250000,1.430000,0.000000,0.000000,270.000000*
%
%ADD30PS30*%
%AMPS21*
1,1,0.400000,-0.200000,0.150000*
1,1,0.400000,0.200000,-0.150000*
1,1,0.400000,0.200000,0.150000*
1,1,0.400000,-0.200000,-0.150000*
21,1,0.800000,0.300000,0.000000,0.000000,0.000000*
21,1,0.400000,0.700000,0.000000,0.000000,0.000000*
%
%ADD21PS21*%
%AMPS26*
1,1,0.400000,-0.150000,-0.200000*
1,1,0.400000,0.150000,0.200000*
1,1,0.400000,-0.150000,0.200000*
1,1,0.400000,0.150000,-0.200000*
21,1,0.800000,0.300000,0.000000,0.000000,90.000000*
21,1,0.400000,0.700000,0.000000,0.000000,90.000000*
%
%ADD26PS26*%
%AMPS25*
1,1,0.400000,0.200000,-0.150000*
1,1,0.400000,-0.200000,0.150000*
1,1,0.400000,-0.200000,-0.150000*
1,1,0.400000,0.200000,0.150000*
21,1,0.800000,0.300000,0.000000,0.000000,180.000000*
21,1,0.400000,0.700000,0.000000,0.000000,180.000000*
%
%ADD25PS25*%
%AMPS18*
1,1,0.400000,0.150000,0.200000*
1,1,0.400000,-0.150000,-0.200000*
1,1,0.400000,0.150000,-0.200000*
1,1,0.400000,-0.150000,0.200000*
21,1,0.800000,0.300000,0.000000,0.000000,270.000000*
21,1,0.400000,0.700000,0.000000,0.000000,270.000000*
%
%ADD18PS18*%
%AMPS38*
1,1,0.700000,-0.940000,-1.440000*
1,1,0.700000,0.940000,1.440000*
1,1,0.700000,-0.940000,1.440000*
1,1,0.700000,0.940000,-1.440000*
21,1,3.580000,1.880000,0.000000,0.000000,90.000000*
21,1,2.880000,2.580000,0.000000,0.000000,90.000000*
%
%ADD38PS38*%
%AMPS39*
1,1,0.700000,0.940000,1.440000*
1,1,0.700000,-0.940000,-1.440000*
1,1,0.700000,0.940000,-1.440000*
1,1,0.700000,-0.940000,1.440000*
21,1,3.580000,1.880000,0.000000,0.000000,270.000000*
21,1,2.880000,2.580000,0.000000,0.000000,270.000000*
%
%ADD39PS39*%
%AMPS36*
1,1,0.720000,-0.410000,-0.380000*
1,1,0.720000,0.410000,0.380000*
1,1,0.720000,-0.410000,0.380000*
1,1,0.720000,0.410000,-0.380000*
21,1,1.480000,0.820000,0.000000,0.000000,90.000000*
21,1,0.760000,1.540000,0.000000,0.000000,90.000000*
%
%ADD36PS36*%
%AMPS37*
1,1,0.720000,0.410000,0.380000*
1,1,0.720000,-0.410000,-0.380000*
1,1,0.720000,0.410000,-0.380000*
1,1,0.720000,-0.410000,0.380000*
21,1,1.480000,0.820000,0.000000,0.000000,270.000000*
21,1,0.760000,1.540000,0.000000,0.000000,270.000000*
%
%ADD37PS37*%
%AMPS19*
1,1,0.400000,0.700000,0.400000*
1,1,0.400000,-0.700000,-0.400000*
1,1,0.400000,0.700000,-0.400000*
1,1,0.400000,-0.700000,0.400000*
21,1,1.200000,1.400000,0.000000,0.000000,270.000000*
21,1,0.800000,1.800000,0.000000,0.000000,270.000000*
%
%ADD19PS19*%
%AMPS49*
1,1,0.300000,-0.085000,0.375000*
1,1,0.300000,0.085000,-0.375000*
1,1,0.300000,0.085000,0.375000*
1,1,0.300000,-0.085000,-0.375000*
21,1,0.470000,0.750000,0.000000,0.000000,0.000000*
21,1,0.170000,1.050000,0.000000,0.000000,0.000000*
%
%ADD49PS49*%
%AMPS47*
1,1,0.300000,-0.375000,-0.085000*
1,1,0.300000,0.375000,0.085000*
1,1,0.300000,-0.375000,0.085000*
1,1,0.300000,0.375000,-0.085000*
21,1,0.470000,0.750000,0.000000,0.000000,90.000000*
21,1,0.170000,1.050000,0.000000,0.000000,90.000000*
%
%ADD47PS47*%
%AMPS50*
1,1,0.300000,0.085000,-0.375000*
1,1,0.300000,-0.085000,0.375000*
1,1,0.300000,-0.085000,-0.375000*
1,1,0.300000,0.085000,0.375000*
21,1,0.470000,0.750000,0.000000,0.000000,180.000000*
21,1,0.170000,1.050000,0.000000,0.000000,180.000000*
%
%ADD50PS50*%
%AMPS48*
1,1,0.300000,0.375000,0.085000*
1,1,0.300000,-0.375000,-0.085000*
1,1,0.300000,0.375000,-0.085000*
1,1,0.300000,-0.375000,0.085000*
21,1,0.470000,0.750000,0.000000,0.000000,270.000000*
21,1,0.170000,1.050000,0.000000,0.000000,270.000000*
%
%ADD48PS48*%
%AMPS51*
1,1,0.400000,-1.400000,1.400000*
1,1,0.400000,1.400000,-1.400000*
1,1,0.400000,1.400000,1.400000*
1,1,0.400000,-1.400000,-1.400000*
21,1,3.200000,2.800000,0.000000,0.000000,0.000000*
21,1,2.800000,3.200000,0.000000,0.000000,0.000000*
%
%ADD51PS51*%
%AMPS22*
1,1,0.400000,0.150000,-0.350000*
1,1,0.400000,-0.150000,0.350000*
1,1,0.400000,-0.150000,-0.350000*
1,1,0.400000,0.150000,0.350000*
21,1,0.700000,0.700000,0.000000,0.000000,180.000000*
21,1,0.300000,1.100000,0.000000,0.000000,180.000000*
%
%ADD22PS22*%
%AMPS32*
1,1,0.400000,0.350000,0.150000*
1,1,0.400000,-0.350000,-0.150000*
1,1,0.400000,0.350000,-0.150000*
1,1,0.400000,-0.350000,0.150000*
21,1,0.700000,0.700000,0.000000,0.000000,270.000000*
21,1,0.300000,1.100000,0.000000,0.000000,270.000000*
%
%ADD32PS32*%
G01*
G01*
%LPD*%
G75*
D10*
X13900000Y29900000D03*
D10*
X13900000Y30800000D03*
D10*
X25900000Y41350000D03*
D10*
X25900000Y42250000D03*
D11*
X14750000Y4700000D03*
D12*
X21550000Y22250000D03*
D12*
X29050000Y22250000D03*
D12*
X24050000Y22250000D03*
D13*
X26550000Y22250000D03*
D14*
X3199999Y22150001D03*
D15*
X13359999Y22150001D03*
D13*
X8279999Y22150001D03*
D16*
X15899999Y22150001D03*
D15*
X5739999Y22150001D03*
D13*
X10819999Y22150001D03*
D10*
X24700000Y35550000D03*
D10*
X24700000Y36450000D03*
D17*
X10100000Y52600000D03*
D17*
X10100000Y51700000D03*
D18*
X9050000Y53200000D03*
D18*
X9050000Y54300000D03*
D17*
X14750000Y64400000D03*
D17*
X14750000Y63500000D03*
D19*
X2400000Y18800000D03*
D19*
X2400000Y15800000D03*
D20*
X34000000Y15150000D03*
D21*
X19606669Y48413329D03*
D21*
X18506669Y48413329D03*
D17*
X3750000Y64400000D03*
D17*
X3750000Y63500000D03*
D21*
X28100000Y43200000D03*
D21*
X27000000Y43200000D03*
D21*
X13670000Y62550000D03*
D21*
X12570000Y62550000D03*
D22*
X23550000Y31850000D03*
D22*
X22050000Y31850000D03*
D23*
X38400000Y26150000D03*
D24*
X34029998Y31900000D03*
D24*
X34929998Y31900000D03*
D25*
X13670000Y61550000D03*
D25*
X14770000Y61550000D03*
D17*
X13350000Y56750000D03*
D17*
X13350000Y55850000D03*
D21*
X9800000Y36250000D03*
D21*
X8700000Y36250000D03*
D18*
X24700000Y38550000D03*
D18*
X24700000Y39650000D03*
D26*
X16100000Y55550000D03*
D26*
X16100000Y54450000D03*
D22*
X13300000Y40150000D03*
D22*
X11800000Y40150000D03*
D15*
X3199999Y26850001D03*
D14*
X13359999Y26850001D03*
D12*
X8279999Y26850001D03*
D14*
X15899999Y26850001D03*
D13*
X5739999Y26850001D03*
D13*
X10819999Y26850001D03*
D18*
X20400000Y56600000D03*
D18*
X20400000Y57700000D03*
D17*
X33300000Y64400000D03*
D17*
X33300000Y63500000D03*
D25*
X3750000Y61550000D03*
D25*
X4850000Y61550000D03*
D18*
X4800000Y51000000D03*
D18*
X4800000Y52100000D03*
D21*
X36200000Y43200000D03*
D21*
X35100000Y43200000D03*
D18*
X12150000Y37700000D03*
D18*
X12150000Y38800000D03*
D21*
X35500000Y62550000D03*
D21*
X34400000Y62550000D03*
D24*
X35829998Y31900000D03*
D24*
X36729998Y31900000D03*
D10*
X24150000Y51000000D03*
D10*
X24150000Y51900000D03*
D27*
X4726669Y43678329D03*
D27*
X5996669Y43678329D03*
D27*
X5996669Y44948329D03*
D28*
X8536669Y45329329D03*
D28*
X8536669Y43297329D03*
D29*
X6631669Y41773329D03*
D27*
X4726669Y44948329D03*
D29*
X3456669Y46853329D03*
D29*
X3456669Y41773329D03*
D28*
X3456669Y44313329D03*
D29*
X6631669Y46853329D03*
D27*
X7266669Y43678329D03*
D27*
X7266669Y44948329D03*
D30*
X22050000Y59800000D03*
D31*
X28150000Y57200000D03*
D31*
X28150000Y55900000D03*
D30*
X22050000Y56550000D03*
D31*
X28150000Y59800000D03*
D30*
X22050000Y57850000D03*
D31*
X28150000Y56550000D03*
D30*
X22050000Y59150000D03*
D31*
X28150000Y59150000D03*
D30*
X22050000Y55900000D03*
D31*
X28150000Y57850000D03*
D31*
X28150000Y58500000D03*
D30*
X22050000Y58500000D03*
D30*
X22050000Y57200000D03*
D30*
X3880001Y30413327D03*
D30*
X3880001Y34323327D03*
D31*
X9980001Y34323327D03*
D31*
X9980001Y32363327D03*
D30*
X3880001Y34973327D03*
D31*
X9980001Y33023327D03*
D31*
X9980001Y31713327D03*
D30*
X3880001Y33023327D03*
D31*
X9980001Y33673327D03*
D30*
X3880001Y33673327D03*
D30*
X3880001Y31063327D03*
D31*
X9980001Y31063327D03*
D31*
X9980001Y34973327D03*
D31*
X9980001Y30413327D03*
D30*
X3880001Y31713327D03*
D30*
X3880001Y32363327D03*
D32*
X7850000Y54350000D03*
D32*
X7850000Y52850000D03*
D17*
X22050000Y52600000D03*
D17*
X22050000Y51700000D03*
D21*
X25695000Y62550000D03*
D21*
X24595000Y62550000D03*
D24*
X38400000Y50833330D03*
D24*
X39300000Y50833330D03*
D10*
X24700000Y33750000D03*
D10*
X24700000Y34650000D03*
D33*
X3400002Y74319992D03*
D34*
X2765002Y69979992D03*
D35*
X5305002Y69979992D03*
D21*
X5950000Y62550000D03*
D21*
X4850000Y62550000D03*
D10*
X34000000Y43150000D03*
D10*
X34000000Y44050000D03*
D33*
X23175002Y74319992D03*
D34*
X22540002Y69979992D03*
D35*
X25080002Y69979992D03*
D10*
X25900000Y43150000D03*
D10*
X25900000Y44050000D03*
D18*
X27350000Y51000000D03*
D18*
X27350000Y52100000D03*
D21*
X14450000Y54900000D03*
D21*
X13350000Y54900000D03*
D21*
X3750000Y62550000D03*
D21*
X2650000Y62550000D03*
D18*
X9050000Y51000000D03*
D18*
X9050000Y52100000D03*
D21*
X6606669Y38213329D03*
D21*
X5506669Y38213329D03*
D36*
X36300000Y55800000D03*
D37*
X34500000Y55800000D03*
D21*
X19606669Y47313329D03*
D21*
X18506669Y47313329D03*
D25*
X29850000Y50900000D03*
D25*
X30950000Y50900000D03*
D21*
X6200000Y36243327D03*
D21*
X5100000Y36243327D03*
D38*
X6710000Y66950000D03*
D39*
X1890000Y66950000D03*
D26*
X29150000Y43150000D03*
D26*
X29150000Y42050000D03*
D26*
X37250000Y43150000D03*
D26*
X37250000Y42050000D03*
D24*
X3506669Y38213329D03*
D24*
X4406669Y38213329D03*
D10*
X14350000Y39900000D03*
D10*
X14350000Y40800000D03*
D17*
X23495000Y64400000D03*
D17*
X23495000Y63500000D03*
D10*
X10100000Y53500000D03*
D10*
X10100000Y54400000D03*
D38*
X26485000Y66950000D03*
D39*
X21665000Y66950000D03*
D24*
X38400000Y51933330D03*
D24*
X39300000Y51933330D03*
D40*
X17950000Y54450000D03*
D40*
X17050000Y54450000D03*
D25*
X23495000Y61550000D03*
D25*
X24595000Y61550000D03*
D10*
X900000Y44950000D03*
D10*
X900000Y45850000D03*
D38*
X16610000Y66950000D03*
D39*
X11790000Y66950000D03*
D21*
X19606669Y46213329D03*
D21*
X18506669Y46213329D03*
D41*
X3349999Y81150001D03*
D13*
X13509999Y81150001D03*
D12*
X8429999Y81150001D03*
D14*
X16049999Y81150001D03*
D16*
X5889999Y81150001D03*
D13*
X10969999Y81150001D03*
D17*
X4850000Y64400000D03*
D17*
X4850000Y63500000D03*
D23*
X38400000Y22550000D03*
D14*
X21550000Y26850000D03*
D13*
X29050000Y26850000D03*
D15*
X24050000Y26850000D03*
D13*
X26550000Y26850000D03*
D42*
X24300000Y15150000D03*
D30*
X3750000Y59800000D03*
D31*
X9850000Y57200000D03*
D31*
X9850000Y55900000D03*
D30*
X3750000Y56550000D03*
D31*
X9850000Y59800000D03*
D30*
X3750000Y57850000D03*
D31*
X9850000Y56550000D03*
D30*
X3750000Y59150000D03*
D31*
X9850000Y59150000D03*
D30*
X3750000Y55900000D03*
D31*
X9850000Y57850000D03*
D31*
X9850000Y58500000D03*
D30*
X3750000Y58500000D03*
D30*
X3750000Y57200000D03*
D26*
X16800000Y52850000D03*
D26*
X16800000Y51750000D03*
D20*
X24300000Y4700000D03*
D43*
X36380000Y39750000D03*
D44*
X36380000Y33650000D03*
D43*
X35730000Y39750000D03*
D43*
X35070000Y39750000D03*
D44*
X35730000Y33650000D03*
D44*
X35070000Y33650000D03*
D44*
X34420000Y33650000D03*
D43*
X34420000Y39750000D03*
D10*
X35929998Y30000000D03*
D10*
X35929998Y30900000D03*
D17*
X34400000Y64400000D03*
D17*
X34400000Y63500000D03*
D17*
X10100000Y47900000D03*
D17*
X10100000Y47000000D03*
D10*
X34000000Y41350000D03*
D10*
X34000000Y42250000D03*
D17*
X24595000Y64400000D03*
D17*
X24595000Y63500000D03*
D17*
X3750000Y52600000D03*
D17*
X3750000Y51700000D03*
D17*
X28100000Y42250000D03*
D17*
X28100000Y41350000D03*
D10*
X8000000Y51000000D03*
D10*
X8000000Y51900000D03*
D33*
X13300002Y74319992D03*
D34*
X12665002Y69979992D03*
D35*
X15205002Y69979992D03*
D25*
X15000000Y32750000D03*
D25*
X16100000Y32750000D03*
D10*
X11850000Y41300000D03*
D10*
X11850000Y42200000D03*
D10*
X32800000Y33750000D03*
D10*
X32800000Y34650000D03*
D45*
X14875000Y34150000D03*
D45*
X15525000Y34150000D03*
D46*
X14225000Y38550000D03*
D45*
X13575000Y34150000D03*
D46*
X15525000Y38550000D03*
D46*
X14875000Y38550000D03*
D45*
X14225000Y34150000D03*
D46*
X13575000Y38550000D03*
D32*
X24300000Y54350000D03*
D32*
X24300000Y52850000D03*
D25*
X33300000Y61550000D03*
D25*
X34400000Y61550000D03*
D32*
X6000000Y54350000D03*
D32*
X6000000Y52850000D03*
D43*
X28280000Y39750000D03*
D44*
X28280000Y33650000D03*
D43*
X27630000Y39750000D03*
D43*
X26970000Y39750000D03*
D44*
X27630000Y33650000D03*
D44*
X26970000Y33650000D03*
D44*
X26320000Y33650000D03*
D43*
X26320000Y39750000D03*
D18*
X2230001Y32043327D03*
D18*
X2230001Y33143327D03*
D32*
X26150000Y54350000D03*
D32*
X26150000Y52850000D03*
D10*
X34829998Y30000000D03*
D10*
X34829998Y30900000D03*
D47*
X17111669Y47563329D03*
D47*
X17111669Y46563329D03*
D48*
X12001669Y48563329D03*
D49*
X15806669Y45258329D03*
D47*
X17111669Y47063329D03*
D50*
X12806669Y50368329D03*
D49*
X13306669Y45258329D03*
D49*
X12806669Y45258329D03*
D50*
X15306669Y50368329D03*
D48*
X12001669Y47563329D03*
D51*
X14556669Y47813329D03*
D48*
X12001669Y46563329D03*
D50*
X13806669Y50368329D03*
D50*
X16306669Y50368329D03*
D48*
X12001669Y48063329D03*
D50*
X14806669Y50368329D03*
D47*
X17111669Y48063329D03*
D48*
X12001669Y49063329D03*
D49*
X14306669Y45258329D03*
D50*
X14306669Y50368329D03*
D50*
X15806669Y50368329D03*
D49*
X15306669Y45258329D03*
D49*
X14806669Y45258329D03*
D47*
X17111669Y49063329D03*
D47*
X17111669Y46063329D03*
D48*
X12001669Y47063329D03*
D47*
X17111669Y49563329D03*
D49*
X13806669Y45258329D03*
D50*
X13306669Y50368329D03*
D48*
X12001669Y46063329D03*
D48*
X12001669Y49563329D03*
D47*
X17111669Y48563329D03*
D49*
X16306669Y45258329D03*
D10*
X35100000Y41350000D03*
D10*
X35100000Y42250000D03*
D24*
X38400000Y49733330D03*
D24*
X39300000Y49733330D03*
D24*
X25979998Y31900000D03*
D24*
X26879998Y31900000D03*
D52*
X20450000Y44700000D03*
D52*
X18850000Y42500000D03*
D52*
X18850000Y44700000D03*
D52*
X20450000Y42500000D03*
D21*
X16600000Y39950000D03*
D21*
X15500000Y39950000D03*
D38*
X36260000Y66950000D03*
D39*
X31440000Y66950000D03*
D17*
X17000000Y35900000D03*
D17*
X17000000Y35000000D03*
D17*
X28400000Y52600000D03*
D17*
X28400000Y51700000D03*
D15*
X21749999Y81150001D03*
D13*
X31909999Y81150001D03*
D41*
X26829999Y81150001D03*
D13*
X34449999Y81150001D03*
D41*
X24289999Y81150001D03*
D13*
X29369999Y81150001D03*
D18*
X23100000Y53200000D03*
D18*
X23100000Y54300000D03*
D25*
X1080001Y34193327D03*
D25*
X2180001Y34193327D03*
D10*
X26300000Y51000000D03*
D10*
X26300000Y51900000D03*
D21*
X15870000Y62550000D03*
D21*
X14770000Y62550000D03*
D26*
X12250000Y53500000D03*
D26*
X12250000Y52400000D03*
D25*
X19850000Y33250000D03*
D25*
X20950000Y33250000D03*
D18*
X4800000Y53200000D03*
D18*
X4800000Y54300000D03*
D10*
X22050000Y53500000D03*
D10*
X22050000Y54400000D03*
D21*
X23495000Y62550000D03*
D21*
X22395000Y62550000D03*
D21*
X33300000Y62550000D03*
D21*
X32200000Y62550000D03*
D10*
X15000000Y29900000D03*
D10*
X15000000Y30800000D03*
D18*
X2230001Y29843327D03*
D18*
X2230001Y30943327D03*
D18*
X2100000Y56600000D03*
D18*
X2100000Y57700000D03*
D25*
X19350000Y41000000D03*
D25*
X20450000Y41000000D03*
D10*
X28400000Y53500000D03*
D10*
X28400000Y54400000D03*
D53*
X34000000Y4700000D03*
D10*
X26779998Y30000000D03*
D10*
X26779998Y30900000D03*
D17*
X36200000Y42250000D03*
D17*
X36200000Y41350000D03*
D10*
X32800000Y35550000D03*
D10*
X32800000Y36450000D03*
D36*
X36300000Y53800000D03*
D37*
X34500000Y53800000D03*
D18*
X23100000Y51000000D03*
D18*
X23100000Y52100000D03*
D19*
X6600000Y18800000D03*
D19*
X6600000Y15800000D03*
D54*
X30950000Y49150000D03*
D55*
X27850000Y49150000D03*
D54*
X30950000Y49650000D03*
D54*
X30950000Y48150000D03*
D54*
X30950000Y48650000D03*
D55*
X27850000Y48150000D03*
D55*
X27850000Y48650000D03*
D55*
X27850000Y49650000D03*
D19*
X8800000Y18800000D03*
D19*
X8800000Y15800000D03*
D10*
X27879998Y30000000D03*
D10*
X27879998Y30900000D03*
D26*
X20700000Y49200000D03*
D18*
X19700000Y49200000D03*
D33*
X33050002Y74319992D03*
D34*
X32415002Y69979992D03*
D35*
X34955002Y69979992D03*
D22*
X20850000Y31850000D03*
D22*
X19350000Y31850000D03*
D10*
X27000000Y41350000D03*
D10*
X27000000Y42250000D03*
D24*
X38400000Y48633330D03*
D24*
X39300000Y48633330D03*
D17*
X32900000Y44050000D03*
D17*
X32900000Y43150000D03*
D23*
X38400000Y24350000D03*
D36*
X36300000Y57800000D03*
D37*
X34500000Y57800000D03*
D18*
X27350000Y53200000D03*
D18*
X27350000Y54300000D03*
D10*
X5850000Y51000000D03*
D10*
X5850000Y51900000D03*
D40*
X18650000Y51750000D03*
D40*
X17750000Y51750000D03*
D18*
X32800000Y38550000D03*
D18*
X32800000Y39650000D03*
D24*
X27779998Y31900000D03*
D24*
X28679998Y31900000D03*
D19*
X4500000Y18800000D03*
D19*
X4500000Y15800000D03*
D10*
X3750000Y53500000D03*
D10*
X3750000Y54400000D03*
D21*
X15000000Y31750000D03*
D21*
X13900000Y31750000D03*
D10*
X11500000Y51750000D03*
D10*
X11500000Y52650000D03*
D17*
X13650000Y64400000D03*
D17*
X13650000Y63500000D03*
D36*
X36300000Y59800000D03*
D37*
X34500000Y59800000D03*
D17*
X24800000Y44050000D03*
D17*
X24800000Y43150000D03*
D25*
X12800000Y32750000D03*
D25*
X13900000Y32750000D03*
D56*
X14556669Y47813329D03*
D56*
X13700000Y48650000D03*
D56*
X15500000Y48650000D03*
M02*
