%FSLAX46Y46*%
%MOMM*%
%ADD11C,0.190000*%
%ADD10C,0.200000*%
%ADD12C,1.500000*%
%ADD13C,2.000000*%
%AMPS31*
1,1,0.787000,0.000000,0.000000*
%
%ADD31PS31*%
%AMPS17*
1,1,1.450000,0.000000,0.000000*
%
%ADD17PS17*%
%AMPS20*
1,1,1.450000,0.000000,0.000000*
%
%ADD20PS20*%
%AMPS43*
1,1,1.450000,0.000000,0.000000*
%
%ADD43PS43*%
%AMPS15*
1,1,8.000000,0.000000,0.000000*
%
%ADD15PS15*%
%AMPS44*
1,1,8.000000,0.000000,0.000000*
%
%ADD44PS44*%
%AMPS19*
1,1,1.450000,0.000000,0.000000*
%
%ADD19PS19*%
%AMPS24*
1,1,8.000000,0.000000,0.000000*
%
%ADD24PS24*%
%AMPS55*
1,1,8.000000,0.000000,0.000000*
%
%ADD55PS55*%
%AMPS18*
1,1,1.450000,0.000000,0.000000*
%
%ADD18PS18*%
%AMPS16*
1,1,1.450000,0.000000,0.000000*
%
%ADD16PS16*%
%AMPS37*
21,1,1.500000,0.600000,0.000000,0.000000,270.000000*
%
%ADD37PS37*%
%AMPS36*
21,1,3.140000,1.500000,0.000000,0.000000,180.000000*
%
%ADD36PS36*%
%AMPS35*
21,1,4.900000,4.410000,0.000000,0.000000,270.000000*
%
%ADD35PS35*%
%AMPS62*
1,1,0.500000,0.000000,0.000000*
%
%ADD62PS62*%
%AMPS60*
1,1,0.500000,0.000000,0.000000*
%
%ADD60PS60*%
%AMPS58*
1,1,0.500000,0.000000,0.000000*
%
%ADD58PS58*%
%AMPS61*
1,1,0.500000,0.000000,0.000000*
%
%ADD61PS61*%
%AMPS59*
1,1,0.500000,0.000000,0.000000*
%
%ADD59PS59*%
%AMPS54*
1,1,0.200000,-0.350000,0.400000*
1,1,0.200000,0.350000,-0.400000*
1,1,0.200000,-0.350000,-0.400000*
21,1,0.900000,0.800000,0.000000,0.000000,180.000000*
21,1,0.700000,1.000000,0.000000,0.000000,180.000000*
1,1,0.200000,0.350000,0.400000*
%
%ADD54PS54*%
%AMPS56*
1,1,0.160000,0.315000,0.070000*
1,1,0.160000,-0.315000,-0.070000*
1,1,0.160000,-0.315000,0.070000*
21,1,0.300000,0.630000,0.000000,0.000000,90.000000*
21,1,0.140000,0.790000,0.000000,0.000000,90.000000*
1,1,0.160000,0.315000,-0.070000*
%
%ADD56PS56*%
%AMPS57*
1,1,0.160000,-0.315000,-0.070000*
1,1,0.160000,0.315000,0.070000*
1,1,0.160000,0.315000,-0.070000*
21,1,0.300000,0.630000,0.000000,0.000000,270.000000*
21,1,0.140000,0.790000,0.000000,0.000000,270.000000*
1,1,0.160000,-0.315000,0.070000*
%
%ADD57PS57*%
%AMPS28*
1,1,0.200000,0.100000,-0.200000*
1,1,0.200000,-0.100000,0.200000*
1,1,0.200000,0.100000,0.200000*
21,1,0.400000,0.400000,0.000000,0.000000,0.000000*
21,1,0.200000,0.600000,0.000000,0.000000,0.000000*
1,1,0.200000,-0.100000,-0.200000*
%
%ADD28PS28*%
%AMPS14*
1,1,0.200000,0.200000,0.100000*
1,1,0.200000,-0.200000,-0.100000*
1,1,0.200000,-0.200000,0.100000*
21,1,0.400000,0.400000,0.000000,0.000000,90.000000*
21,1,0.200000,0.600000,0.000000,0.000000,90.000000*
1,1,0.200000,0.200000,-0.100000*
%
%ADD14PS14*%
%AMPS42*
1,1,0.200000,-0.100000,0.200000*
1,1,0.200000,0.100000,-0.200000*
1,1,0.200000,-0.100000,-0.200000*
21,1,0.400000,0.400000,0.000000,0.000000,180.000000*
21,1,0.200000,0.600000,0.000000,0.000000,180.000000*
1,1,0.200000,0.100000,0.200000*
%
%ADD42PS42*%
%AMPS21*
1,1,0.200000,-0.200000,-0.100000*
1,1,0.200000,0.200000,0.100000*
1,1,0.200000,0.200000,-0.100000*
21,1,0.400000,0.400000,0.000000,0.000000,270.000000*
21,1,0.200000,0.600000,0.000000,0.000000,270.000000*
1,1,0.200000,-0.200000,0.100000*
%
%ADD21PS21*%
%AMPS27*
1,1,0.200000,0.700000,-0.400000*
1,1,0.200000,-0.700000,0.400000*
1,1,0.200000,0.700000,0.400000*
21,1,1.600000,0.800000,0.000000,0.000000,0.000000*
21,1,1.400000,1.000000,0.000000,0.000000,0.000000*
1,1,0.200000,-0.700000,-0.400000*
%
%ADD27PS27*%
%AMPS47*
1,1,0.200000,0.125000,-0.625000*
1,1,0.200000,-0.125000,0.625000*
1,1,0.200000,0.125000,0.625000*
21,1,0.450000,1.250000,0.000000,0.000000,0.000000*
21,1,0.250000,1.450000,0.000000,0.000000,0.000000*
1,1,0.200000,-0.125000,-0.625000*
%
%ADD47PS47*%
%AMPS48*
1,1,0.200000,-0.125000,0.625000*
1,1,0.200000,0.125000,-0.625000*
1,1,0.200000,-0.125000,-0.625000*
21,1,0.450000,1.250000,0.000000,0.000000,180.000000*
21,1,0.250000,1.450000,0.000000,0.000000,180.000000*
1,1,0.200000,0.125000,0.625000*
%
%ADD48PS48*%
%AMPS46*
1,1,0.180000,0.125000,-0.525000*
1,1,0.180000,-0.125000,0.525000*
1,1,0.180000,0.125000,0.525000*
21,1,0.430000,1.050000,0.000000,0.000000,0.000000*
21,1,0.250000,1.230000,0.000000,0.000000,0.000000*
1,1,0.180000,-0.125000,-0.525000*
%
%ADD46PS46*%
%AMPS33*
1,1,0.180000,0.525000,0.125000*
1,1,0.180000,-0.525000,-0.125000*
1,1,0.180000,-0.525000,0.125000*
21,1,0.430000,1.050000,0.000000,0.000000,90.000000*
21,1,0.250000,1.230000,0.000000,0.000000,90.000000*
1,1,0.180000,0.525000,-0.125000*
%
%ADD33PS33*%
%AMPS45*
1,1,0.180000,-0.125000,0.525000*
1,1,0.180000,0.125000,-0.525000*
1,1,0.180000,-0.125000,-0.525000*
21,1,0.430000,1.050000,0.000000,0.000000,180.000000*
21,1,0.250000,1.230000,0.000000,0.000000,180.000000*
1,1,0.180000,0.125000,0.525000*
%
%ADD45PS45*%
%AMPS32*
1,1,0.180000,-0.525000,-0.125000*
1,1,0.180000,0.525000,0.125000*
1,1,0.180000,0.525000,-0.125000*
21,1,0.430000,1.050000,0.000000,0.000000,270.000000*
21,1,0.250000,1.230000,0.000000,0.000000,270.000000*
1,1,0.180000,-0.525000,0.125000*
%
%ADD32PS32*%
%AMPS25*
1,1,0.200000,0.200000,-0.150000*
1,1,0.200000,-0.200000,0.150000*
1,1,0.200000,0.200000,0.150000*
21,1,0.600000,0.300000,0.000000,0.000000,0.000000*
21,1,0.400000,0.500000,0.000000,0.000000,0.000000*
1,1,0.200000,-0.200000,-0.150000*
%
%ADD25PS25*%
%AMPS30*
1,1,0.200000,0.150000,0.200000*
1,1,0.200000,-0.150000,-0.200000*
1,1,0.200000,-0.150000,0.200000*
21,1,0.600000,0.300000,0.000000,0.000000,90.000000*
21,1,0.400000,0.500000,0.000000,0.000000,90.000000*
1,1,0.200000,0.150000,-0.200000*
%
%ADD30PS30*%
%AMPS29*
1,1,0.200000,-0.200000,0.150000*
1,1,0.200000,0.200000,-0.150000*
1,1,0.200000,-0.200000,-0.150000*
21,1,0.600000,0.300000,0.000000,0.000000,180.000000*
21,1,0.400000,0.500000,0.000000,0.000000,180.000000*
1,1,0.200000,0.200000,0.150000*
%
%ADD29PS29*%
%AMPS22*
1,1,0.200000,-0.150000,-0.200000*
1,1,0.200000,0.150000,0.200000*
1,1,0.200000,0.150000,-0.200000*
21,1,0.600000,0.300000,0.000000,0.000000,270.000000*
21,1,0.400000,0.500000,0.000000,0.000000,270.000000*
1,1,0.200000,-0.150000,0.200000*
%
%ADD22PS22*%
%AMPS40*
1,1,0.500000,0.940000,1.440000*
1,1,0.500000,-0.940000,-1.440000*
1,1,0.500000,-0.940000,1.440000*
21,1,3.380000,1.880000,0.000000,0.000000,90.000000*
21,1,2.880000,2.380000,0.000000,0.000000,90.000000*
1,1,0.500000,0.940000,-1.440000*
%
%ADD40PS40*%
%AMPS41*
1,1,0.500000,-0.940000,-1.440000*
1,1,0.500000,0.940000,1.440000*
1,1,0.500000,0.940000,-1.440000*
21,1,3.380000,1.880000,0.000000,0.000000,270.000000*
21,1,2.880000,2.380000,0.000000,0.000000,270.000000*
1,1,0.500000,-0.940000,1.440000*
%
%ADD41PS41*%
%AMPS38*
1,1,0.520000,0.410000,0.380000*
1,1,0.520000,-0.410000,-0.380000*
1,1,0.520000,-0.410000,0.380000*
21,1,1.280000,0.820000,0.000000,0.000000,90.000000*
21,1,0.760000,1.340000,0.000000,0.000000,90.000000*
1,1,0.520000,0.410000,-0.380000*
%
%ADD38PS38*%
%AMPS39*
1,1,0.520000,-0.410000,-0.380000*
1,1,0.520000,0.410000,0.380000*
1,1,0.520000,0.410000,-0.380000*
21,1,1.280000,0.820000,0.000000,0.000000,270.000000*
21,1,0.760000,1.340000,0.000000,0.000000,270.000000*
1,1,0.520000,-0.410000,0.380000*
%
%ADD39PS39*%
%AMPS23*
1,1,0.200000,-0.700000,-0.400000*
1,1,0.200000,0.700000,0.400000*
1,1,0.200000,0.700000,-0.400000*
21,1,1.000000,1.400000,0.000000,0.000000,270.000000*
21,1,0.800000,1.600000,0.000000,0.000000,270.000000*
1,1,0.200000,-0.700000,0.400000*
%
%ADD23PS23*%
%AMPS51*
1,1,0.100000,0.085000,-0.375000*
1,1,0.100000,-0.085000,0.375000*
1,1,0.100000,0.085000,0.375000*
21,1,0.270000,0.750000,0.000000,0.000000,0.000000*
21,1,0.170000,0.850000,0.000000,0.000000,0.000000*
1,1,0.100000,-0.085000,-0.375000*
%
%ADD51PS51*%
%AMPS49*
1,1,0.100000,0.375000,0.085000*
1,1,0.100000,-0.375000,-0.085000*
1,1,0.100000,-0.375000,0.085000*
21,1,0.270000,0.750000,0.000000,0.000000,90.000000*
21,1,0.170000,0.850000,0.000000,0.000000,90.000000*
1,1,0.100000,0.375000,-0.085000*
%
%ADD49PS49*%
%AMPS52*
1,1,0.100000,-0.085000,0.375000*
1,1,0.100000,0.085000,-0.375000*
1,1,0.100000,-0.085000,-0.375000*
21,1,0.270000,0.750000,0.000000,0.000000,180.000000*
21,1,0.170000,0.850000,0.000000,0.000000,180.000000*
1,1,0.100000,0.085000,0.375000*
%
%ADD52PS52*%
%AMPS50*
1,1,0.100000,-0.375000,-0.085000*
1,1,0.100000,0.375000,0.085000*
1,1,0.100000,0.375000,-0.085000*
21,1,0.270000,0.750000,0.000000,0.000000,270.000000*
21,1,0.170000,0.850000,0.000000,0.000000,270.000000*
1,1,0.100000,-0.375000,0.085000*
%
%ADD50PS50*%
%AMPS53*
1,1,0.200000,1.400000,-1.400000*
1,1,0.200000,-1.400000,1.400000*
1,1,0.200000,1.400000,1.400000*
21,1,3.000000,2.800000,0.000000,0.000000,0.000000*
21,1,2.800000,3.000000,0.000000,0.000000,0.000000*
1,1,0.200000,-1.400000,-1.400000*
%
%ADD53PS53*%
%AMPS26*
1,1,0.200000,-0.150000,0.350000*
1,1,0.200000,0.150000,-0.350000*
1,1,0.200000,-0.150000,-0.350000*
21,1,0.500000,0.700000,0.000000,0.000000,180.000000*
21,1,0.300000,0.900000,0.000000,0.000000,180.000000*
1,1,0.200000,0.150000,0.350000*
%
%ADD26PS26*%
%AMPS34*
1,1,0.200000,-0.350000,-0.150000*
1,1,0.200000,0.350000,0.150000*
1,1,0.200000,0.350000,-0.150000*
21,1,0.500000,0.700000,0.000000,0.000000,270.000000*
21,1,0.300000,0.900000,0.000000,0.000000,270.000000*
1,1,0.200000,-0.350000,0.150000*
%
%ADD34PS34*%
G01*
%LPD*%
G36*
X30645002Y71850000D02*
X30684006Y71857920D01*
X30716831Y71880425D01*
X30738279Y71913952D01*
X30745002Y71950000D01*
X30745002Y74069992D01*
X35355002Y74069992D01*
X35355002Y71950000D01*
X35362922Y71910996D01*
X35385427Y71878171D01*
X35418954Y71856723D01*
X35455002Y71850000D01*
X35550000Y71850000D01*
X35589004Y71857920D01*
X35621829Y71880425D01*
X35643277Y71913952D01*
X35650000Y71950000D01*
X35650000Y83250000D01*
X35642080Y83289004D01*
X35619575Y83321829D01*
X35586048Y83343277D01*
X35550000Y83350000D01*
X28209000Y83350000D01*
X28169996Y83342080D01*
X28137171Y83319575D01*
X28115723Y83286048D01*
X28109000Y83250000D01*
X28109000Y78950000D01*
X28116920Y78910996D01*
X28139425Y78878171D01*
X28172952Y78856723D01*
X28209000Y78850000D01*
X30389949Y78850000D01*
X30398603Y78848243D01*
X30400000Y78840754D01*
X30400000Y71950000D01*
X30407920Y71910996D01*
X30430425Y71878171D01*
X30463952Y71856723D01*
X30500000Y71850000D01*
X30645002Y71850000D01*
D02*
G37*
%LPC*%
G36*
X29119999Y81400001D02*
X28584158Y81400001D01*
X28607685Y81465754D01*
X28642310Y81538962D01*
X28683938Y81608415D01*
X28732170Y81673450D01*
X28786551Y81733449D01*
X28846550Y81787830D01*
X28911585Y81836062D01*
X28981038Y81877690D01*
X29054246Y81912315D01*
X29119999Y81935842D01*
X29119999Y81400001D01*
D02*
G37*
%LPC*%
G36*
X30155840Y81400001D02*
X29619999Y81400001D01*
X29619999Y81935842D01*
X29685752Y81912315D01*
X29758960Y81877690D01*
X29828413Y81836062D01*
X29893448Y81787830D01*
X29953447Y81733449D01*
X30007828Y81673450D01*
X30056060Y81608415D01*
X30097688Y81538962D01*
X30132313Y81465754D01*
X30155840Y81400001D01*
D02*
G37*
%LPC*%
G36*
X31659999Y81400001D02*
X31124158Y81400001D01*
X31147685Y81465754D01*
X31182310Y81538962D01*
X31223938Y81608415D01*
X31272170Y81673450D01*
X31326551Y81733449D01*
X31386550Y81787830D01*
X31451585Y81836062D01*
X31521038Y81877690D01*
X31594246Y81912315D01*
X31659999Y81935842D01*
X31659999Y81400001D01*
D02*
G37*
%LPC*%
G36*
X32695840Y81400001D02*
X32159999Y81400001D01*
X32159999Y81935842D01*
X32225752Y81912315D01*
X32298960Y81877690D01*
X32368413Y81836062D01*
X32433448Y81787830D01*
X32493447Y81733449D01*
X32547828Y81673450D01*
X32596060Y81608415D01*
X32637688Y81538962D01*
X32672313Y81465754D01*
X32695840Y81400001D01*
D02*
G37*
%LPC*%
G36*
X34199999Y81400001D02*
X33664158Y81400001D01*
X33687685Y81465754D01*
X33722310Y81538962D01*
X33763938Y81608415D01*
X33812170Y81673450D01*
X33866551Y81733449D01*
X33926550Y81787830D01*
X33991585Y81836062D01*
X34061038Y81877690D01*
X34134246Y81912315D01*
X34199999Y81935842D01*
X34199999Y81400001D01*
D02*
G37*
%LPC*%
G36*
X35235840Y81400001D02*
X34699999Y81400001D01*
X34699999Y81935842D01*
X34765752Y81912315D01*
X34838960Y81877690D01*
X34908413Y81836062D01*
X34973448Y81787830D01*
X35033447Y81733449D01*
X35087828Y81673450D01*
X35136060Y81608415D01*
X35177688Y81538962D01*
X35212313Y81465754D01*
X35235840Y81400001D01*
D02*
G37*
%LPC*%
G36*
X34699999Y80364160D02*
X34699999Y80900001D01*
X35235840Y80900001D01*
X35212313Y80834248D01*
X35177688Y80761040D01*
X35136060Y80691587D01*
X35087828Y80626552D01*
X35033447Y80566553D01*
X34973448Y80512172D01*
X34908413Y80463940D01*
X34838960Y80422312D01*
X34765752Y80387687D01*
X34699999Y80364160D01*
D02*
G37*
%LPC*%
G36*
X34199999Y80364160D02*
X34134246Y80387687D01*
X34061038Y80422312D01*
X33991585Y80463940D01*
X33926550Y80512172D01*
X33866551Y80566553D01*
X33812170Y80626552D01*
X33763938Y80691587D01*
X33722310Y80761040D01*
X33687685Y80834248D01*
X33664158Y80900001D01*
X34199999Y80900001D01*
X34199999Y80364160D01*
D02*
G37*
%LPC*%
G36*
X32159999Y80364160D02*
X32159999Y80900001D01*
X32695840Y80900001D01*
X32672313Y80834248D01*
X32637688Y80761040D01*
X32596060Y80691587D01*
X32547828Y80626552D01*
X32493447Y80566553D01*
X32433448Y80512172D01*
X32368413Y80463940D01*
X32298960Y80422312D01*
X32225752Y80387687D01*
X32159999Y80364160D01*
D02*
G37*
%LPC*%
G36*
X31659999Y80364160D02*
X31594246Y80387687D01*
X31521038Y80422312D01*
X31451585Y80463940D01*
X31386550Y80512172D01*
X31326551Y80566553D01*
X31272170Y80626552D01*
X31223938Y80691587D01*
X31182310Y80761040D01*
X31147685Y80834248D01*
X31124158Y80900001D01*
X31659999Y80900001D01*
X31659999Y80364160D01*
D02*
G37*
%LPC*%
G36*
X29619999Y80364160D02*
X29619999Y80900001D01*
X30155840Y80900001D01*
X30132313Y80834248D01*
X30097688Y80761040D01*
X30056060Y80691587D01*
X30007828Y80626552D01*
X29953447Y80566553D01*
X29893448Y80512172D01*
X29828413Y80463940D01*
X29758960Y80422312D01*
X29685752Y80387687D01*
X29619999Y80364160D01*
D02*
G37*
%LPC*%
G36*
X29119999Y80364160D02*
X29054246Y80387687D01*
X28981038Y80422312D01*
X28911585Y80463940D01*
X28846550Y80512172D01*
X28786551Y80566553D01*
X28732170Y80626552D01*
X28683938Y80691587D01*
X28642310Y80761040D01*
X28607685Y80834248D01*
X28584158Y80900001D01*
X29119999Y80900001D01*
X29119999Y80364160D01*
D02*
G37*
%LPC*%
G36*
X35355002Y74569992D02*
X33300002Y74569992D01*
X33300002Y76869992D01*
X35355002Y76869992D01*
X35355002Y74569992D01*
D02*
G37*
%LPC*%
G36*
X32800002Y74569992D02*
X30745002Y74569992D01*
X30745002Y76869992D01*
X32800002Y76869992D01*
X32800002Y74569992D01*
D02*
G37*
%LPD*%
G36*
X10895002Y71850000D02*
X10934006Y71857920D01*
X10966831Y71880425D01*
X10988279Y71913952D01*
X10995002Y71950000D01*
X10995002Y74069992D01*
X15605002Y74069992D01*
X15605002Y71950000D01*
X15612922Y71910996D01*
X15635427Y71878171D01*
X15668954Y71856723D01*
X15705002Y71850000D01*
X15900000Y71850000D01*
X15939004Y71857920D01*
X15971829Y71880425D01*
X15993277Y71913952D01*
X16000000Y71950000D01*
X16000000Y78839949D01*
X16001757Y78848603D01*
X16009246Y78850000D01*
X17100000Y78850000D01*
X17139004Y78857920D01*
X17171829Y78880425D01*
X17193277Y78913952D01*
X17200000Y78950000D01*
X17200000Y83250000D01*
X17192080Y83289004D01*
X17169575Y83321829D01*
X17136048Y83343277D01*
X17100000Y83350000D01*
X9859000Y83350000D01*
X9819996Y83342080D01*
X9787171Y83319575D01*
X9765723Y83286048D01*
X9759000Y83250000D01*
X9759000Y78950000D01*
X9766920Y78910996D01*
X9789425Y78878171D01*
X9822952Y78856723D01*
X9859000Y78850000D01*
X10689949Y78850000D01*
X10698603Y78848243D01*
X10700000Y78840754D01*
X10700000Y71950000D01*
X10707920Y71910996D01*
X10730425Y71878171D01*
X10763952Y71856723D01*
X10800000Y71850000D01*
X10895002Y71850000D01*
D02*
G37*
%LPC*%
G36*
X10719999Y81400001D02*
X10184158Y81400001D01*
X10207685Y81465754D01*
X10242310Y81538962D01*
X10283938Y81608415D01*
X10332170Y81673450D01*
X10386551Y81733449D01*
X10446550Y81787830D01*
X10511585Y81836062D01*
X10581038Y81877690D01*
X10654246Y81912315D01*
X10719999Y81935842D01*
X10719999Y81400001D01*
D02*
G37*
%LPC*%
G36*
X11755840Y81400001D02*
X11219999Y81400001D01*
X11219999Y81935842D01*
X11285752Y81912315D01*
X11358960Y81877690D01*
X11428413Y81836062D01*
X11493448Y81787830D01*
X11553447Y81733449D01*
X11607828Y81673450D01*
X11656060Y81608415D01*
X11697688Y81538962D01*
X11732313Y81465754D01*
X11755840Y81400001D01*
D02*
G37*
%LPC*%
G36*
X13259999Y81400001D02*
X12724158Y81400001D01*
X12747685Y81465754D01*
X12782310Y81538962D01*
X12823938Y81608415D01*
X12872170Y81673450D01*
X12926551Y81733449D01*
X12986550Y81787830D01*
X13051585Y81836062D01*
X13121038Y81877690D01*
X13194246Y81912315D01*
X13259999Y81935842D01*
X13259999Y81400001D01*
D02*
G37*
%LPC*%
G36*
X14295840Y81400001D02*
X13759999Y81400001D01*
X13759999Y81935842D01*
X13825752Y81912315D01*
X13898960Y81877690D01*
X13968413Y81836062D01*
X14033448Y81787830D01*
X14093447Y81733449D01*
X14147828Y81673450D01*
X14196060Y81608415D01*
X14237688Y81538962D01*
X14272313Y81465754D01*
X14295840Y81400001D01*
D02*
G37*
%LPC*%
G36*
X15799999Y81400001D02*
X15264158Y81400001D01*
X15287685Y81465754D01*
X15322310Y81538962D01*
X15363938Y81608415D01*
X15412170Y81673450D01*
X15466551Y81733449D01*
X15526550Y81787830D01*
X15591585Y81836062D01*
X15661038Y81877690D01*
X15734246Y81912315D01*
X15799999Y81935842D01*
X15799999Y81400001D01*
D02*
G37*
%LPC*%
G36*
X16835840Y81400001D02*
X16299999Y81400001D01*
X16299999Y81935842D01*
X16365752Y81912315D01*
X16438960Y81877690D01*
X16508413Y81836062D01*
X16573448Y81787830D01*
X16633447Y81733449D01*
X16687828Y81673450D01*
X16736060Y81608415D01*
X16777688Y81538962D01*
X16812313Y81465754D01*
X16835840Y81400001D01*
D02*
G37*
%LPC*%
G36*
X16299999Y80364160D02*
X16299999Y80900001D01*
X16835840Y80900001D01*
X16812313Y80834248D01*
X16777688Y80761040D01*
X16736060Y80691587D01*
X16687828Y80626552D01*
X16633447Y80566553D01*
X16573448Y80512172D01*
X16508413Y80463940D01*
X16438960Y80422312D01*
X16365752Y80387687D01*
X16299999Y80364160D01*
D02*
G37*
%LPC*%
G36*
X15799999Y80364160D02*
X15734246Y80387687D01*
X15661038Y80422312D01*
X15591585Y80463940D01*
X15526550Y80512172D01*
X15466551Y80566553D01*
X15412170Y80626552D01*
X15363938Y80691587D01*
X15322310Y80761040D01*
X15287685Y80834248D01*
X15264158Y80900001D01*
X15799999Y80900001D01*
X15799999Y80364160D01*
D02*
G37*
%LPC*%
G36*
X13759999Y80364160D02*
X13759999Y80900001D01*
X14295840Y80900001D01*
X14272313Y80834248D01*
X14237688Y80761040D01*
X14196060Y80691587D01*
X14147828Y80626552D01*
X14093447Y80566553D01*
X14033448Y80512172D01*
X13968413Y80463940D01*
X13898960Y80422312D01*
X13825752Y80387687D01*
X13759999Y80364160D01*
D02*
G37*
%LPC*%
G36*
X13259999Y80364160D02*
X13194246Y80387687D01*
X13121038Y80422312D01*
X13051585Y80463940D01*
X12986550Y80512172D01*
X12926551Y80566553D01*
X12872170Y80626552D01*
X12823938Y80691587D01*
X12782310Y80761040D01*
X12747685Y80834248D01*
X12724158Y80900001D01*
X13259999Y80900001D01*
X13259999Y80364160D01*
D02*
G37*
%LPC*%
G36*
X11219999Y80364160D02*
X11219999Y80900001D01*
X11755840Y80900001D01*
X11732313Y80834248D01*
X11697688Y80761040D01*
X11656060Y80691587D01*
X11607828Y80626552D01*
X11553447Y80566553D01*
X11493448Y80512172D01*
X11428413Y80463940D01*
X11358960Y80422312D01*
X11285752Y80387687D01*
X11219999Y80364160D01*
D02*
G37*
%LPC*%
G36*
X10719999Y80364160D02*
X10654246Y80387687D01*
X10581038Y80422312D01*
X10511585Y80463940D01*
X10446550Y80512172D01*
X10386551Y80566553D01*
X10332170Y80626552D01*
X10283938Y80691587D01*
X10242310Y80761040D01*
X10207685Y80834248D01*
X10184158Y80900001D01*
X10719999Y80900001D01*
X10719999Y80364160D01*
D02*
G37*
%LPC*%
G36*
X15605002Y74569992D02*
X13550002Y74569992D01*
X13550002Y76869992D01*
X15605002Y76869992D01*
X15605002Y74569992D01*
D02*
G37*
%LPC*%
G36*
X13050002Y74569992D02*
X10995002Y74569992D01*
X10995002Y76869992D01*
X13050002Y76869992D01*
X13050002Y74569992D01*
D02*
G37*
%LPD*%
G36*
X21815000Y66700000D02*
X21854004Y66707920D01*
X21886829Y66730425D01*
X21908277Y66763952D01*
X21915000Y66800000D01*
X21915000Y68740000D01*
X22607446Y68740000D01*
X22639320Y68738434D01*
X22673309Y68733392D01*
X22706637Y68725044D01*
X22741308Y68712637D01*
X22780699Y68706953D01*
X22819188Y68717083D01*
X22850677Y68741422D01*
X22870179Y68776116D01*
X22875000Y68806790D01*
X22875000Y69029992D01*
X22867080Y69068996D01*
X22844575Y69101821D01*
X22811048Y69123269D01*
X22790002Y69127194D01*
X22790002Y70129992D01*
X22782082Y70168996D01*
X22759577Y70201821D01*
X22726050Y70223269D01*
X22690002Y70229992D01*
X20870002Y70229992D01*
X20870002Y70750000D01*
X20862082Y70789004D01*
X20839577Y70821829D01*
X20806050Y70843277D01*
X20770002Y70850000D01*
X20575000Y70850000D01*
X20535996Y70842080D01*
X20503171Y70819575D01*
X20481723Y70786048D01*
X20475000Y70750000D01*
X20475000Y68813947D01*
X20482920Y68774943D01*
X20505425Y68742118D01*
X20538952Y68720670D01*
X20578188Y68713998D01*
X20608692Y68719794D01*
X20623362Y68725044D01*
X20656691Y68733392D01*
X20690680Y68738434D01*
X20722554Y68740000D01*
X21415000Y68740000D01*
X21415000Y66800000D01*
X21422920Y66760996D01*
X21445425Y66728171D01*
X21478952Y66706723D01*
X21515000Y66700000D01*
X21815000Y66700000D01*
D02*
G37*
%LPC*%
G36*
X22290002Y69129992D02*
X20870002Y69129992D01*
X20870002Y69729992D01*
X22290002Y69729992D01*
X22290002Y69129992D01*
D02*
G37*
%LPD*%
G36*
X37550000Y63650000D02*
X37589004Y63657920D01*
X37621829Y63680425D01*
X37643277Y63713952D01*
X37650000Y63750000D01*
X37650000Y65227012D01*
X37642080Y65266016D01*
X37619575Y65298841D01*
X37586048Y65320289D01*
X37546812Y65326961D01*
X37508081Y65317802D01*
X37474805Y65290747D01*
X37473946Y65291526D01*
X37447572Y65262428D01*
X37422117Y65239356D01*
X37394515Y65218885D01*
X37365044Y65201221D01*
X37333983Y65186531D01*
X37301638Y65174956D01*
X37268309Y65166608D01*
X37234320Y65161566D01*
X37202446Y65160000D01*
X36410000Y65160000D01*
X36410000Y67000000D01*
X36402080Y67039004D01*
X36379575Y67071829D01*
X36346048Y67093277D01*
X36310000Y67100000D01*
X36210000Y67100000D01*
X36170996Y67092080D01*
X36138171Y67069575D01*
X36116723Y67036048D01*
X36110000Y67000000D01*
X36110000Y65160000D01*
X35317554Y65160000D01*
X35285680Y65161566D01*
X35251697Y65166607D01*
X35224300Y65173470D01*
X35184541Y65175265D01*
X35147230Y65161410D01*
X35118279Y65134101D01*
X35102272Y65097662D01*
X35100000Y65076467D01*
X35100000Y63750000D01*
X35107920Y63710996D01*
X35130425Y63678171D01*
X35163952Y63656723D01*
X35200000Y63650000D01*
X37550000Y63650000D01*
D02*
G37*
%LPD*%
G36*
X27775000Y63650000D02*
X27814004Y63657920D01*
X27846829Y63680425D01*
X27868277Y63713952D01*
X27875000Y63750000D01*
X27875000Y65227012D01*
X27867080Y65266016D01*
X27844575Y65298841D01*
X27811048Y65320289D01*
X27771812Y65326961D01*
X27733081Y65317802D01*
X27699805Y65290747D01*
X27698946Y65291526D01*
X27672572Y65262428D01*
X27647117Y65239356D01*
X27619515Y65218885D01*
X27590044Y65201221D01*
X27558983Y65186531D01*
X27526638Y65174956D01*
X27493309Y65166608D01*
X27459320Y65161566D01*
X27427446Y65160000D01*
X26635000Y65160000D01*
X26635000Y67000000D01*
X26627080Y67039004D01*
X26604575Y67071829D01*
X26571048Y67093277D01*
X26535000Y67100000D01*
X26435000Y67100000D01*
X26395996Y67092080D01*
X26363171Y67069575D01*
X26341723Y67036048D01*
X26335000Y67000000D01*
X26335000Y65160000D01*
X25542554Y65160000D01*
X25510680Y65161566D01*
X25476697Y65166607D01*
X25449300Y65173470D01*
X25409541Y65175265D01*
X25372230Y65161410D01*
X25343279Y65134101D01*
X25327272Y65097662D01*
X25325000Y65076467D01*
X25325000Y63750000D01*
X25332920Y63710996D01*
X25355425Y63678171D01*
X25388952Y63656723D01*
X25425000Y63650000D01*
X27775000Y63650000D01*
D02*
G37*
%LPD*%
G36*
X31590000Y66700000D02*
X31629004Y66707920D01*
X31661829Y66730425D01*
X31683277Y66763952D01*
X31690000Y66800000D01*
X31690000Y68740000D01*
X32382446Y68740000D01*
X32414320Y68738434D01*
X32448309Y68733392D01*
X32481637Y68725044D01*
X32516308Y68712637D01*
X32555699Y68706953D01*
X32594188Y68717083D01*
X32625677Y68741422D01*
X32645179Y68776116D01*
X32650000Y68806790D01*
X32650000Y69139949D01*
X32655920Y69169104D01*
X32655651Y69169159D01*
X32665002Y69199334D01*
X32665002Y70129992D01*
X32657082Y70168996D01*
X32634577Y70201821D01*
X32601050Y70223269D01*
X32565002Y70229992D01*
X30745002Y70229992D01*
X30745002Y70750000D01*
X30737082Y70789004D01*
X30714577Y70821829D01*
X30681050Y70843277D01*
X30645002Y70850000D01*
X30350000Y70850000D01*
X30310996Y70842080D01*
X30278171Y70819575D01*
X30256723Y70786048D01*
X30250000Y70750000D01*
X30250000Y68813947D01*
X30257920Y68774943D01*
X30280425Y68742118D01*
X30313952Y68720670D01*
X30353188Y68713998D01*
X30383692Y68719794D01*
X30398362Y68725044D01*
X30431691Y68733392D01*
X30465680Y68738434D01*
X30497554Y68740000D01*
X31190000Y68740000D01*
X31190000Y66800000D01*
X31197920Y66760996D01*
X31220425Y66728171D01*
X31253952Y66706723D01*
X31290000Y66700000D01*
X31590000Y66700000D01*
D02*
G37*
%LPC*%
G36*
X32165002Y69129992D02*
X30745002Y69129992D01*
X30745002Y69729992D01*
X32165002Y69729992D01*
X32165002Y69129992D01*
D02*
G37*
%LPD*%
G36*
X10150000Y13600000D02*
X10189004Y13607920D01*
X10221829Y13630425D01*
X10243277Y13663952D01*
X10250000Y13700000D01*
X10250000Y16550000D01*
X10242080Y16589004D01*
X10219575Y16621829D01*
X10186048Y16643277D01*
X10150000Y16650000D01*
X1500000Y16650000D01*
X1460996Y16642080D01*
X1428171Y16619575D01*
X1406723Y16586048D01*
X1400000Y16550000D01*
X1400000Y16423452D01*
X1407920Y16384448D01*
X1430425Y16351623D01*
X1463952Y16330175D01*
X1503188Y16323503D01*
X1541919Y16332662D01*
X1567162Y16349362D01*
X1573050Y16354699D01*
X1588818Y16366393D01*
X1605664Y16376490D01*
X1623422Y16384888D01*
X1641904Y16391503D01*
X1660953Y16396273D01*
X1680389Y16399156D01*
X1697538Y16400000D01*
X2250000Y16400000D01*
X2250000Y15200000D01*
X1697538Y15200000D01*
X1680389Y15200844D01*
X1660953Y15203727D01*
X1641904Y15208497D01*
X1623422Y15215112D01*
X1605664Y15223510D01*
X1588818Y15233607D01*
X1573050Y15245301D01*
X1567162Y15250638D01*
X1532945Y15270965D01*
X1493509Y15276337D01*
X1455102Y15265902D01*
X1423807Y15241314D01*
X1404580Y15206466D01*
X1400000Y15176548D01*
X1400000Y15050000D01*
X1407920Y15010996D01*
X1430425Y14978171D01*
X1463952Y14956723D01*
X1500000Y14950000D01*
X4889949Y14950000D01*
X4898603Y14948243D01*
X4900000Y14940754D01*
X4900000Y13700000D01*
X4907920Y13660996D01*
X4930425Y13628171D01*
X4963952Y13606723D01*
X5000000Y13600000D01*
X10150000Y13600000D01*
D02*
G37*
%LPC*%
G36*
X9700000Y15950000D02*
X8950000Y15950000D01*
X8950000Y16400000D01*
X9502462Y16400000D01*
X9519611Y16399156D01*
X9539047Y16396273D01*
X9558096Y16391503D01*
X9576578Y16384888D01*
X9594336Y16376490D01*
X9611182Y16366393D01*
X9626956Y16354695D01*
X9641506Y16341506D01*
X9654695Y16326956D01*
X9666393Y16311182D01*
X9676490Y16294336D01*
X9684888Y16276578D01*
X9691503Y16258096D01*
X9696274Y16239046D01*
X9699156Y16219612D01*
X9700000Y16202460D01*
X9700000Y15950000D01*
D02*
G37*
%LPC*%
G36*
X8650000Y15950000D02*
X7900000Y15950000D01*
X7900000Y16202462D01*
X7900844Y16219611D01*
X7903727Y16239047D01*
X7908497Y16258096D01*
X7915112Y16276578D01*
X7923510Y16294336D01*
X7933607Y16311182D01*
X7945305Y16326956D01*
X7958494Y16341506D01*
X7973044Y16354695D01*
X7988818Y16366393D01*
X8005664Y16376490D01*
X8023422Y16384888D01*
X8041904Y16391503D01*
X8060953Y16396273D01*
X8080389Y16399156D01*
X8097538Y16400000D01*
X8650000Y16400000D01*
X8650000Y15950000D01*
D02*
G37*
%LPC*%
G36*
X7500000Y15950000D02*
X6750000Y15950000D01*
X6750000Y16400000D01*
X7302462Y16400000D01*
X7319611Y16399156D01*
X7339047Y16396273D01*
X7358096Y16391503D01*
X7376578Y16384888D01*
X7394336Y16376490D01*
X7411182Y16366393D01*
X7426956Y16354695D01*
X7441506Y16341506D01*
X7454695Y16326956D01*
X7466393Y16311182D01*
X7476490Y16294336D01*
X7484888Y16276578D01*
X7491503Y16258096D01*
X7496274Y16239046D01*
X7499156Y16219612D01*
X7500000Y16202460D01*
X7500000Y15950000D01*
D02*
G37*
%LPC*%
G36*
X6450000Y15950000D02*
X5700000Y15950000D01*
X5700000Y16202462D01*
X5700844Y16219611D01*
X5703727Y16239047D01*
X5708497Y16258096D01*
X5715112Y16276578D01*
X5723510Y16294336D01*
X5733607Y16311182D01*
X5745305Y16326956D01*
X5758494Y16341506D01*
X5773044Y16354695D01*
X5788818Y16366393D01*
X5805664Y16376490D01*
X5823422Y16384888D01*
X5841904Y16391503D01*
X5860953Y16396273D01*
X5880389Y16399156D01*
X5897538Y16400000D01*
X6450000Y16400000D01*
X6450000Y15950000D01*
D02*
G37*
%LPC*%
G36*
X5400000Y15950000D02*
X4650000Y15950000D01*
X4650000Y16400000D01*
X5202462Y16400000D01*
X5219611Y16399156D01*
X5239047Y16396273D01*
X5258096Y16391503D01*
X5276578Y16384888D01*
X5294336Y16376490D01*
X5311182Y16366393D01*
X5326956Y16354695D01*
X5341506Y16341506D01*
X5354695Y16326956D01*
X5366393Y16311182D01*
X5376490Y16294336D01*
X5384888Y16276578D01*
X5391503Y16258096D01*
X5396274Y16239046D01*
X5399156Y16219612D01*
X5400000Y16202460D01*
X5400000Y15950000D01*
D02*
G37*
%LPC*%
G36*
X4350000Y15950000D02*
X3600000Y15950000D01*
X3600000Y16202462D01*
X3600844Y16219611D01*
X3603727Y16239047D01*
X3608497Y16258096D01*
X3615112Y16276578D01*
X3623510Y16294336D01*
X3633607Y16311182D01*
X3645305Y16326956D01*
X3658494Y16341506D01*
X3673044Y16354695D01*
X3688818Y16366393D01*
X3705664Y16376490D01*
X3723422Y16384888D01*
X3741904Y16391503D01*
X3760953Y16396273D01*
X3780389Y16399156D01*
X3797538Y16400000D01*
X4350000Y16400000D01*
X4350000Y15950000D01*
D02*
G37*
%LPC*%
G36*
X3300000Y15950000D02*
X2550000Y15950000D01*
X2550000Y16400000D01*
X3102462Y16400000D01*
X3119611Y16399156D01*
X3139047Y16396273D01*
X3158096Y16391503D01*
X3176578Y16384888D01*
X3194336Y16376490D01*
X3211182Y16366393D01*
X3226956Y16354695D01*
X3241506Y16341506D01*
X3254695Y16326956D01*
X3266393Y16311182D01*
X3276490Y16294336D01*
X3284888Y16276578D01*
X3291503Y16258096D01*
X3296274Y16239046D01*
X3299156Y16219612D01*
X3300000Y16202460D01*
X3300000Y15950000D01*
D02*
G37*
%LPC*%
G36*
X9502462Y15200000D02*
X8950000Y15200000D01*
X8950000Y15650000D01*
X9700000Y15650000D01*
X9700000Y15397538D01*
X9699156Y15380389D01*
X9696273Y15360953D01*
X9691503Y15341904D01*
X9684888Y15323422D01*
X9676490Y15305664D01*
X9666393Y15288818D01*
X9654695Y15273044D01*
X9641506Y15258494D01*
X9626956Y15245305D01*
X9611182Y15233607D01*
X9594336Y15223510D01*
X9576578Y15215112D01*
X9558096Y15208497D01*
X9539047Y15203727D01*
X9519611Y15200844D01*
X9502462Y15200000D01*
D02*
G37*
%LPC*%
G36*
X8650000Y15200000D02*
X8097538Y15200000D01*
X8080389Y15200844D01*
X8060953Y15203727D01*
X8041904Y15208497D01*
X8023422Y15215112D01*
X8005664Y15223510D01*
X7988818Y15233607D01*
X7973044Y15245305D01*
X7958494Y15258494D01*
X7945305Y15273044D01*
X7933607Y15288818D01*
X7923510Y15305664D01*
X7915112Y15323422D01*
X7908497Y15341904D01*
X7903727Y15360953D01*
X7900844Y15380389D01*
X7900000Y15397538D01*
X7900000Y15650000D01*
X8650000Y15650000D01*
X8650000Y15200000D01*
D02*
G37*
%LPC*%
G36*
X7302462Y15200000D02*
X6750000Y15200000D01*
X6750000Y15650000D01*
X7500000Y15650000D01*
X7500000Y15397538D01*
X7499156Y15380389D01*
X7496273Y15360953D01*
X7491503Y15341904D01*
X7484888Y15323422D01*
X7476490Y15305664D01*
X7466393Y15288818D01*
X7454695Y15273044D01*
X7441506Y15258494D01*
X7426956Y15245305D01*
X7411182Y15233607D01*
X7394336Y15223510D01*
X7376578Y15215112D01*
X7358096Y15208497D01*
X7339047Y15203727D01*
X7319611Y15200844D01*
X7302462Y15200000D01*
D02*
G37*
%LPC*%
G36*
X6450000Y15200000D02*
X5897538Y15200000D01*
X5880389Y15200844D01*
X5860953Y15203727D01*
X5841904Y15208497D01*
X5823422Y15215112D01*
X5805664Y15223510D01*
X5788818Y15233607D01*
X5773044Y15245305D01*
X5758494Y15258494D01*
X5745305Y15273044D01*
X5733607Y15288818D01*
X5723510Y15305664D01*
X5715112Y15323422D01*
X5708497Y15341904D01*
X5703727Y15360953D01*
X5700844Y15380389D01*
X5700000Y15397538D01*
X5700000Y15650000D01*
X6450000Y15650000D01*
X6450000Y15200000D01*
D02*
G37*
%LPC*%
G36*
X5202462Y15200000D02*
X4650000Y15200000D01*
X4650000Y15650000D01*
X5400000Y15650000D01*
X5400000Y15397538D01*
X5399156Y15380389D01*
X5396273Y15360953D01*
X5391503Y15341904D01*
X5384888Y15323422D01*
X5376490Y15305664D01*
X5366393Y15288818D01*
X5354695Y15273044D01*
X5341506Y15258494D01*
X5326956Y15245305D01*
X5311182Y15233607D01*
X5294336Y15223510D01*
X5276578Y15215112D01*
X5258096Y15208497D01*
X5239047Y15203727D01*
X5219611Y15200844D01*
X5202462Y15200000D01*
D02*
G37*
%LPC*%
G36*
X4350000Y15200000D02*
X3797538Y15200000D01*
X3780389Y15200844D01*
X3760953Y15203727D01*
X3741904Y15208497D01*
X3723422Y15215112D01*
X3705664Y15223510D01*
X3688818Y15233607D01*
X3673044Y15245305D01*
X3658494Y15258494D01*
X3645305Y15273044D01*
X3633607Y15288818D01*
X3623510Y15305664D01*
X3615112Y15323422D01*
X3608497Y15341904D01*
X3603727Y15360953D01*
X3600844Y15380389D01*
X3600000Y15397538D01*
X3600000Y15650000D01*
X4350000Y15650000D01*
X4350000Y15200000D01*
D02*
G37*
%LPC*%
G36*
X3102462Y15200000D02*
X2550000Y15200000D01*
X2550000Y15650000D01*
X3300000Y15650000D01*
X3300000Y15397538D01*
X3299156Y15380389D01*
X3296273Y15360953D01*
X3291503Y15341904D01*
X3284888Y15323422D01*
X3276490Y15305664D01*
X3266393Y15288818D01*
X3254695Y15273044D01*
X3241506Y15258494D01*
X3226956Y15245305D01*
X3211182Y15233607D01*
X3194336Y15223510D01*
X3176578Y15215112D01*
X3158096Y15208497D01*
X3139047Y15203727D01*
X3119611Y15200844D01*
X3102462Y15200000D01*
D02*
G37*
%LPD*%
G36*
X8000000Y63650000D02*
X8039004Y63657920D01*
X8071829Y63680425D01*
X8093277Y63713952D01*
X8100000Y63750000D01*
X8100000Y65227012D01*
X8092080Y65266016D01*
X8069575Y65298841D01*
X8036048Y65320289D01*
X7996812Y65326961D01*
X7958081Y65317802D01*
X7924805Y65290747D01*
X7923946Y65291526D01*
X7897572Y65262428D01*
X7872117Y65239356D01*
X7844515Y65218885D01*
X7815044Y65201221D01*
X7783983Y65186531D01*
X7751638Y65174956D01*
X7718309Y65166608D01*
X7684320Y65161566D01*
X7652446Y65160000D01*
X6860000Y65160000D01*
X6860000Y67000000D01*
X6852080Y67039004D01*
X6829575Y67071829D01*
X6796048Y67093277D01*
X6760000Y67100000D01*
X6660000Y67100000D01*
X6620996Y67092080D01*
X6588171Y67069575D01*
X6566723Y67036048D01*
X6560000Y67000000D01*
X6560000Y65160000D01*
X5767554Y65160000D01*
X5735680Y65161566D01*
X5701697Y65166607D01*
X5674300Y65173470D01*
X5634541Y65175265D01*
X5597230Y65161410D01*
X5568279Y65134101D01*
X5552272Y65097662D01*
X5550000Y65076467D01*
X5550000Y63750000D01*
X5557920Y63710996D01*
X5580425Y63678171D01*
X5613952Y63656723D01*
X5650000Y63650000D01*
X8000000Y63650000D01*
D02*
G37*
%LPD*%
G36*
X2040000Y66700000D02*
X2079004Y66707920D01*
X2111829Y66730425D01*
X2133277Y66763952D01*
X2140000Y66800000D01*
X2140000Y68740000D01*
X2832446Y68740000D01*
X2864320Y68738434D01*
X2898309Y68733392D01*
X2931637Y68725044D01*
X2966308Y68712637D01*
X3005699Y68706953D01*
X3044188Y68717083D01*
X3075677Y68741422D01*
X3095179Y68776116D01*
X3100000Y68806790D01*
X3100000Y69029992D01*
X3092080Y69068996D01*
X3069575Y69101821D01*
X3036048Y69123269D01*
X3015002Y69127194D01*
X3015002Y70129992D01*
X3007082Y70168996D01*
X2984577Y70201821D01*
X2951050Y70223269D01*
X2915002Y70229992D01*
X1095002Y70229992D01*
X1095002Y70750000D01*
X1087082Y70789004D01*
X1064577Y70821829D01*
X1031050Y70843277D01*
X995002Y70850000D01*
X800000Y70850000D01*
X760996Y70842080D01*
X728171Y70819575D01*
X706723Y70786048D01*
X700000Y70750000D01*
X700000Y68813947D01*
X707920Y68774943D01*
X730425Y68742118D01*
X763952Y68720670D01*
X803188Y68713998D01*
X833692Y68719794D01*
X848362Y68725044D01*
X881691Y68733392D01*
X915680Y68738434D01*
X947554Y68740000D01*
X1640000Y68740000D01*
X1640000Y66800000D01*
X1647920Y66760996D01*
X1670425Y66728171D01*
X1703952Y66706723D01*
X1740000Y66700000D01*
X2040000Y66700000D01*
D02*
G37*
%LPC*%
G36*
X2515002Y69129992D02*
X1095002Y69129992D01*
X1095002Y69729992D01*
X2515002Y69729992D01*
X2515002Y69129992D01*
D02*
G37*
%LPD*%
G36*
X20770002Y71850000D02*
X20809006Y71857920D01*
X20841831Y71880425D01*
X20863279Y71913952D01*
X20870002Y71950000D01*
X20870002Y74069992D01*
X25480002Y74069992D01*
X25480002Y71950000D01*
X25487922Y71910996D01*
X25510427Y71878171D01*
X25543954Y71856723D01*
X25580002Y71850000D01*
X25675000Y71850000D01*
X25714004Y71857920D01*
X25746829Y71880425D01*
X25768277Y71913952D01*
X25775000Y71950000D01*
X25775000Y78839949D01*
X25776757Y78848603D01*
X25784246Y78850000D01*
X27750000Y78850000D01*
X27789004Y78857920D01*
X27821829Y78880425D01*
X27843277Y78913952D01*
X27850000Y78950000D01*
X27850000Y83250000D01*
X27842080Y83289004D01*
X27819575Y83321829D01*
X27786048Y83343277D01*
X27750000Y83350000D01*
X20525000Y83350000D01*
X20485996Y83342080D01*
X20453171Y83319575D01*
X20431723Y83286048D01*
X20425000Y83250000D01*
X20425000Y71950000D01*
X20432920Y71910996D01*
X20455425Y71878171D01*
X20488952Y71856723D01*
X20525000Y71850000D01*
X20770002Y71850000D01*
D02*
G37*
%LPC*%
G36*
X21499999Y81400001D02*
X20964158Y81400001D01*
X20987685Y81465754D01*
X21022310Y81538962D01*
X21063938Y81608415D01*
X21112170Y81673450D01*
X21166551Y81733449D01*
X21226550Y81787830D01*
X21291585Y81836062D01*
X21361038Y81877690D01*
X21434246Y81912315D01*
X21499999Y81935842D01*
X21499999Y81400001D01*
D02*
G37*
%LPC*%
G36*
X22535840Y81400001D02*
X21999999Y81400001D01*
X21999999Y81935842D01*
X22065752Y81912315D01*
X22138960Y81877690D01*
X22208413Y81836062D01*
X22273448Y81787830D01*
X22333447Y81733449D01*
X22387828Y81673450D01*
X22436060Y81608415D01*
X22477688Y81538962D01*
X22512313Y81465754D01*
X22535840Y81400001D01*
D02*
G37*
%LPC*%
G36*
X24039999Y81400001D02*
X23504158Y81400001D01*
X23527685Y81465754D01*
X23562310Y81538962D01*
X23603938Y81608415D01*
X23652170Y81673450D01*
X23706551Y81733449D01*
X23766550Y81787830D01*
X23831585Y81836062D01*
X23901038Y81877690D01*
X23974246Y81912315D01*
X24039999Y81935842D01*
X24039999Y81400001D01*
D02*
G37*
%LPC*%
G36*
X25075840Y81400001D02*
X24539999Y81400001D01*
X24539999Y81935842D01*
X24605752Y81912315D01*
X24678960Y81877690D01*
X24748413Y81836062D01*
X24813448Y81787830D01*
X24873447Y81733449D01*
X24927828Y81673450D01*
X24976060Y81608415D01*
X25017688Y81538962D01*
X25052313Y81465754D01*
X25075840Y81400001D01*
D02*
G37*
%LPC*%
G36*
X26579999Y81400001D02*
X26044158Y81400001D01*
X26067685Y81465754D01*
X26102310Y81538962D01*
X26143938Y81608415D01*
X26192170Y81673450D01*
X26246551Y81733449D01*
X26306550Y81787830D01*
X26371585Y81836062D01*
X26441038Y81877690D01*
X26514246Y81912315D01*
X26579999Y81935842D01*
X26579999Y81400001D01*
D02*
G37*
%LPC*%
G36*
X27615840Y81400001D02*
X27079999Y81400001D01*
X27079999Y81935842D01*
X27145752Y81912315D01*
X27218960Y81877690D01*
X27288413Y81836062D01*
X27353448Y81787830D01*
X27413447Y81733449D01*
X27467828Y81673450D01*
X27516060Y81608415D01*
X27557688Y81538962D01*
X27592313Y81465754D01*
X27615840Y81400001D01*
D02*
G37*
%LPC*%
G36*
X27079999Y80364160D02*
X27079999Y80900001D01*
X27615840Y80900001D01*
X27592313Y80834248D01*
X27557688Y80761040D01*
X27516060Y80691587D01*
X27467828Y80626552D01*
X27413447Y80566553D01*
X27353448Y80512172D01*
X27288413Y80463940D01*
X27218960Y80422312D01*
X27145752Y80387687D01*
X27079999Y80364160D01*
D02*
G37*
%LPC*%
G36*
X26579999Y80364160D02*
X26514246Y80387687D01*
X26441038Y80422312D01*
X26371585Y80463940D01*
X26306550Y80512172D01*
X26246551Y80566553D01*
X26192170Y80626552D01*
X26143938Y80691587D01*
X26102310Y80761040D01*
X26067685Y80834248D01*
X26044158Y80900001D01*
X26579999Y80900001D01*
X26579999Y80364160D01*
D02*
G37*
%LPC*%
G36*
X24539999Y80364160D02*
X24539999Y80900001D01*
X25075840Y80900001D01*
X25052313Y80834248D01*
X25017688Y80761040D01*
X24976060Y80691587D01*
X24927828Y80626552D01*
X24873447Y80566553D01*
X24813448Y80512172D01*
X24748413Y80463940D01*
X24678960Y80422312D01*
X24605752Y80387687D01*
X24539999Y80364160D01*
D02*
G37*
%LPC*%
G36*
X24039999Y80364160D02*
X23974246Y80387687D01*
X23901038Y80422312D01*
X23831585Y80463940D01*
X23766550Y80512172D01*
X23706551Y80566553D01*
X23652170Y80626552D01*
X23603938Y80691587D01*
X23562310Y80761040D01*
X23527685Y80834248D01*
X23504158Y80900001D01*
X24039999Y80900001D01*
X24039999Y80364160D01*
D02*
G37*
%LPC*%
G36*
X21999999Y80364160D02*
X21999999Y80900001D01*
X22535840Y80900001D01*
X22512313Y80834248D01*
X22477688Y80761040D01*
X22436060Y80691587D01*
X22387828Y80626552D01*
X22333447Y80566553D01*
X22273448Y80512172D01*
X22208413Y80463940D01*
X22138960Y80422312D01*
X22065752Y80387687D01*
X21999999Y80364160D01*
D02*
G37*
%LPC*%
G36*
X21499999Y80364160D02*
X21434246Y80387687D01*
X21361038Y80422312D01*
X21291585Y80463940D01*
X21226550Y80512172D01*
X21166551Y80566553D01*
X21112170Y80626552D01*
X21063938Y80691587D01*
X21022310Y80761040D01*
X20987685Y80834248D01*
X20964158Y80900001D01*
X21499999Y80900001D01*
X21499999Y80364160D01*
D02*
G37*
%LPC*%
G36*
X25480002Y74569992D02*
X23425002Y74569992D01*
X23425002Y76869992D01*
X25480002Y76869992D01*
X25480002Y74569992D01*
D02*
G37*
%LPC*%
G36*
X22925002Y74569992D02*
X20870002Y74569992D01*
X20870002Y76869992D01*
X22925002Y76869992D01*
X22925002Y74569992D01*
D02*
G37*
%LPD*%
G36*
X995002Y71850000D02*
X1034006Y71857920D01*
X1066831Y71880425D01*
X1088279Y71913952D01*
X1095002Y71950000D01*
X1095002Y74069992D01*
X3550002Y74069992D01*
X3589006Y74077912D01*
X3621831Y74100417D01*
X3643279Y74133944D01*
X3650002Y74169992D01*
X3650002Y76869992D01*
X5800000Y76869992D01*
X5839004Y76877912D01*
X5871829Y76900417D01*
X5893277Y76933944D01*
X5900000Y76969992D01*
X5900000Y78839949D01*
X5901757Y78848603D01*
X5909246Y78850000D01*
X9400000Y78850000D01*
X9439004Y78857920D01*
X9471829Y78880425D01*
X9493277Y78913952D01*
X9500000Y78950000D01*
X9500000Y83250000D01*
X9492080Y83289004D01*
X9469575Y83321829D01*
X9436048Y83343277D01*
X9400000Y83350000D01*
X700000Y83350000D01*
X660996Y83342080D01*
X628171Y83319575D01*
X606723Y83286048D01*
X600000Y83250000D01*
X600000Y71950000D01*
X607920Y71910996D01*
X630425Y71878171D01*
X663952Y71856723D01*
X700000Y71850000D01*
X995002Y71850000D01*
D02*
G37*
%LPC*%
G36*
X3099999Y81400001D02*
X2564158Y81400001D01*
X2587685Y81465754D01*
X2622310Y81538962D01*
X2663938Y81608415D01*
X2712170Y81673450D01*
X2766551Y81733449D01*
X2826550Y81787830D01*
X2891585Y81836062D01*
X2961038Y81877690D01*
X3034246Y81912315D01*
X3099999Y81935842D01*
X3099999Y81400001D01*
D02*
G37*
%LPC*%
G36*
X4135840Y81400001D02*
X3599999Y81400001D01*
X3599999Y81935842D01*
X3665752Y81912315D01*
X3738960Y81877690D01*
X3808413Y81836062D01*
X3873448Y81787830D01*
X3933447Y81733449D01*
X3987828Y81673450D01*
X4036060Y81608415D01*
X4077688Y81538962D01*
X4112313Y81465754D01*
X4135840Y81400001D01*
D02*
G37*
%LPC*%
G36*
X5639999Y81400001D02*
X5104158Y81400001D01*
X5127685Y81465754D01*
X5162310Y81538962D01*
X5203938Y81608415D01*
X5252170Y81673450D01*
X5306551Y81733449D01*
X5366550Y81787830D01*
X5431585Y81836062D01*
X5501038Y81877690D01*
X5574246Y81912315D01*
X5639999Y81935842D01*
X5639999Y81400001D01*
D02*
G37*
%LPC*%
G36*
X6675840Y81400001D02*
X6139999Y81400001D01*
X6139999Y81935842D01*
X6205752Y81912315D01*
X6278960Y81877690D01*
X6348413Y81836062D01*
X6413448Y81787830D01*
X6473447Y81733449D01*
X6527828Y81673450D01*
X6576060Y81608415D01*
X6617688Y81538962D01*
X6652313Y81465754D01*
X6675840Y81400001D01*
D02*
G37*
%LPC*%
G36*
X8179999Y81400001D02*
X7644158Y81400001D01*
X7667685Y81465754D01*
X7702310Y81538962D01*
X7743938Y81608415D01*
X7792170Y81673450D01*
X7846551Y81733449D01*
X7906550Y81787830D01*
X7971585Y81836062D01*
X8041038Y81877690D01*
X8114246Y81912315D01*
X8179999Y81935842D01*
X8179999Y81400001D01*
D02*
G37*
%LPC*%
G36*
X9215840Y81400001D02*
X8679999Y81400001D01*
X8679999Y81935842D01*
X8745752Y81912315D01*
X8818960Y81877690D01*
X8888413Y81836062D01*
X8953448Y81787830D01*
X9013447Y81733449D01*
X9067828Y81673450D01*
X9116060Y81608415D01*
X9157688Y81538962D01*
X9192313Y81465754D01*
X9215840Y81400001D01*
D02*
G37*
%LPC*%
G36*
X8679999Y80364160D02*
X8679999Y80900001D01*
X9215840Y80900001D01*
X9192313Y80834248D01*
X9157688Y80761040D01*
X9116060Y80691587D01*
X9067828Y80626552D01*
X9013447Y80566553D01*
X8953448Y80512172D01*
X8888413Y80463940D01*
X8818960Y80422312D01*
X8745752Y80387687D01*
X8679999Y80364160D01*
D02*
G37*
%LPC*%
G36*
X8179999Y80364160D02*
X8114246Y80387687D01*
X8041038Y80422312D01*
X7971585Y80463940D01*
X7906550Y80512172D01*
X7846551Y80566553D01*
X7792170Y80626552D01*
X7743938Y80691587D01*
X7702310Y80761040D01*
X7667685Y80834248D01*
X7644158Y80900001D01*
X8179999Y80900001D01*
X8179999Y80364160D01*
D02*
G37*
%LPC*%
G36*
X6139999Y80364160D02*
X6139999Y80900001D01*
X6675840Y80900001D01*
X6652313Y80834248D01*
X6617688Y80761040D01*
X6576060Y80691587D01*
X6527828Y80626552D01*
X6473447Y80566553D01*
X6413448Y80512172D01*
X6348413Y80463940D01*
X6278960Y80422312D01*
X6205752Y80387687D01*
X6139999Y80364160D01*
D02*
G37*
%LPC*%
G36*
X5639999Y80364160D02*
X5574246Y80387687D01*
X5501038Y80422312D01*
X5431585Y80463940D01*
X5366550Y80512172D01*
X5306551Y80566553D01*
X5252170Y80626552D01*
X5203938Y80691587D01*
X5162310Y80761040D01*
X5127685Y80834248D01*
X5104158Y80900001D01*
X5639999Y80900001D01*
X5639999Y80364160D01*
D02*
G37*
%LPC*%
G36*
X3599999Y80364160D02*
X3599999Y80900001D01*
X4135840Y80900001D01*
X4112313Y80834248D01*
X4077688Y80761040D01*
X4036060Y80691587D01*
X3987828Y80626552D01*
X3933447Y80566553D01*
X3873448Y80512172D01*
X3808413Y80463940D01*
X3738960Y80422312D01*
X3665752Y80387687D01*
X3599999Y80364160D01*
D02*
G37*
%LPC*%
G36*
X3099999Y80364160D02*
X3034246Y80387687D01*
X2961038Y80422312D01*
X2891585Y80463940D01*
X2826550Y80512172D01*
X2766551Y80566553D01*
X2712170Y80626552D01*
X2663938Y80691587D01*
X2622310Y80761040D01*
X2587685Y80834248D01*
X2564158Y80900001D01*
X3099999Y80900001D01*
X3099999Y80364160D01*
D02*
G37*
%LPC*%
G36*
X3150002Y74569992D02*
X1095002Y74569992D01*
X1095002Y76869992D01*
X3150002Y76869992D01*
X3150002Y74569992D01*
D02*
G37*
%LPD*%
G36*
X17900000Y63650000D02*
X17939004Y63657920D01*
X17971829Y63680425D01*
X17993277Y63713952D01*
X18000000Y63750000D01*
X18000000Y65227012D01*
X17992080Y65266016D01*
X17969575Y65298841D01*
X17936048Y65320289D01*
X17896812Y65326961D01*
X17858081Y65317802D01*
X17824805Y65290747D01*
X17823946Y65291526D01*
X17797572Y65262428D01*
X17772117Y65239356D01*
X17744515Y65218885D01*
X17715044Y65201221D01*
X17683983Y65186531D01*
X17651638Y65174956D01*
X17618309Y65166608D01*
X17584320Y65161566D01*
X17552446Y65160000D01*
X16760000Y65160000D01*
X16760000Y67000000D01*
X16752080Y67039004D01*
X16729575Y67071829D01*
X16696048Y67093277D01*
X16660000Y67100000D01*
X16560000Y67100000D01*
X16520996Y67092080D01*
X16488171Y67069575D01*
X16466723Y67036048D01*
X16460000Y67000000D01*
X16460000Y65160000D01*
X15667554Y65160000D01*
X15635680Y65161566D01*
X15601697Y65166607D01*
X15574300Y65173470D01*
X15534541Y65175265D01*
X15497230Y65161410D01*
X15468279Y65134101D01*
X15452272Y65097662D01*
X15450000Y65076467D01*
X15450000Y63750000D01*
X15457920Y63710996D01*
X15480425Y63678171D01*
X15513952Y63656723D01*
X15550000Y63650000D01*
X17900000Y63650000D01*
D02*
G37*
%LPD*%
G36*
X11940000Y66700000D02*
X11979004Y66707920D01*
X12011829Y66730425D01*
X12033277Y66763952D01*
X12040000Y66800000D01*
X12040000Y68740000D01*
X12732446Y68740000D01*
X12764320Y68738434D01*
X12798309Y68733392D01*
X12831637Y68725044D01*
X12866308Y68712637D01*
X12905699Y68706953D01*
X12944188Y68717083D01*
X12975677Y68741422D01*
X12995179Y68776116D01*
X13000000Y68806790D01*
X13000000Y69029992D01*
X12992080Y69068996D01*
X12969575Y69101821D01*
X12936048Y69123269D01*
X12915002Y69127194D01*
X12915002Y70129992D01*
X12907082Y70168996D01*
X12884577Y70201821D01*
X12851050Y70223269D01*
X12815002Y70229992D01*
X10995002Y70229992D01*
X10995002Y70750000D01*
X10987082Y70789004D01*
X10964577Y70821829D01*
X10931050Y70843277D01*
X10895002Y70850000D01*
X10700000Y70850000D01*
X10660996Y70842080D01*
X10628171Y70819575D01*
X10606723Y70786048D01*
X10600000Y70750000D01*
X10600000Y68813947D01*
X10607920Y68774943D01*
X10630425Y68742118D01*
X10663952Y68720670D01*
X10703188Y68713998D01*
X10733692Y68719794D01*
X10748362Y68725044D01*
X10781691Y68733392D01*
X10815680Y68738434D01*
X10847554Y68740000D01*
X11540000Y68740000D01*
X11540000Y66800000D01*
X11547920Y66760996D01*
X11570425Y66728171D01*
X11603952Y66706723D01*
X11640000Y66700000D01*
X11940000Y66700000D01*
D02*
G37*
%LPC*%
G36*
X12415002Y69129992D02*
X10995002Y69129992D01*
X10995002Y69729992D01*
X12415002Y69729992D01*
X12415002Y69129992D01*
D02*
G37*
G01*
%LPD*%
D10*
X13670000Y60405000D02*
X13670000Y61550000D01*
D11*
X7850000Y52850000D02*
X7850000Y53400000D01*
D11*
X30400000Y50250000D02*
X30350000Y50200000D01*
D10*
X11409730Y48563329D02*
X10790027Y49183032D01*
D11*
X18156669Y46563329D02*
X17111669Y46563329D01*
D10*
X36750000Y53800000D02*
X36300000Y53800000D01*
D11*
X35829998Y31000000D02*
X35929998Y30900000D01*
D10*
X11349991Y43149991D02*
X12130049Y43149991D01*
D11*
X5150000Y59850000D02*
X3800000Y59850000D01*
D11*
X25080002Y69979992D02*
X25080002Y70644998D01*
D11*
X6000000Y55602466D02*
X6411312Y56013778D01*
D11*
X28400000Y51050000D02*
X28500000Y50950000D01*
D11*
X3750000Y64400000D02*
X3750000Y66400000D01*
D11*
X9850000Y52600000D02*
X9350000Y52100000D01*
D11*
X16847990Y35152010D02*
X17000000Y35000000D01*
D10*
X7650000Y48800000D02*
X2350000Y48800000D01*
D11*
X5195999Y55895999D02*
X6000000Y56700000D01*
D11*
X20450000Y41000000D02*
X20450000Y42500000D01*
D11*
X7850000Y52850000D02*
X8700000Y52850000D01*
D11*
X35100000Y43200000D02*
X34050000Y43200000D01*
D11*
X22050000Y59150000D02*
X23095990Y59150000D01*
D10*
X12357989Y27257989D02*
X12357989Y27265049D01*
D11*
X23100000Y54300000D02*
X24250000Y54300000D01*
D10*
X12952011Y27852011D02*
X14182842Y29082842D01*
D11*
X23800000Y43950000D02*
X23800000Y47650000D01*
D11*
X23495000Y63500000D02*
X23495000Y62550000D01*
D11*
X14875000Y37475000D02*
X15150000Y37200000D01*
D11*
X24150000Y51000000D02*
X25150000Y51000000D01*
D11*
X27000000Y41350000D02*
X25900000Y41350000D01*
D11*
X23095990Y59150000D02*
X23100000Y59145990D01*
D11*
X24679998Y37400000D02*
X24679998Y38529998D01*
D11*
X9500000Y54300000D02*
X9850000Y54650000D01*
D11*
X14875000Y34150000D02*
X14875000Y35125000D01*
D11*
X23450000Y52850000D02*
X23100000Y53200000D01*
D11*
X16306669Y45258329D02*
X16891671Y45258329D01*
D10*
X1000000Y45850000D02*
X1600000Y46450000D01*
D11*
X7600000Y59150000D02*
X9850000Y59150000D01*
D11*
X29050000Y54150000D02*
X29050000Y55050000D01*
D10*
X12570000Y62550000D02*
X11904010Y62550000D01*
D11*
X9850000Y56550000D02*
X10465000Y56550000D01*
D11*
X22050000Y57200000D02*
X25359920Y57200000D01*
D10*
X12250000Y53500000D02*
X12200000Y53450000D01*
D11*
X34400000Y66400000D02*
X34950000Y66950000D01*
D11*
X14806669Y45258329D02*
X14806669Y43281580D01*
D11*
X12001669Y49063329D02*
X11479673Y49063329D01*
D10*
X23495000Y61550000D02*
X23495000Y60825000D01*
D10*
X17703553Y49063329D02*
X18600000Y49959776D01*
D11*
X7916546Y56798624D02*
X7916546Y57426466D01*
D11*
X29850000Y50900000D02*
X28550000Y50900000D01*
D11*
X10800000Y54200000D02*
X10800000Y54700000D01*
D11*
X34955002Y70544998D02*
X34450000Y71050000D01*
D11*
X37200000Y43200000D02*
X37250000Y43150000D01*
D11*
X4800000Y52100000D02*
X4650000Y52250000D01*
D10*
X12001669Y47563329D02*
X11269845Y47563329D01*
D10*
X11339787Y48063329D02*
X10623096Y48780021D01*
D11*
X20450000Y46100000D02*
X20400000Y46150000D01*
D11*
X8000000Y50733337D02*
X7826695Y50560032D01*
D11*
X32779998Y38529998D02*
X32800000Y38550000D01*
D11*
X28100000Y42250000D02*
X28950000Y42250000D01*
D11*
X38400000Y24350000D02*
X36800000Y24350000D01*
D11*
X35829998Y33550002D02*
X35730000Y33650000D01*
D10*
X12001669Y48563329D02*
X11409730Y48563329D01*
D11*
X23800000Y47650000D02*
X25150000Y49000000D01*
D10*
X29050000Y27600000D02*
X27879998Y28770002D01*
D11*
X4850000Y61550000D02*
X4850000Y62550000D01*
D10*
X28730058Y57200000D02*
X33080058Y61550000D01*
D11*
X3800000Y59850000D02*
X3750000Y59800000D01*
D11*
X19350000Y41200000D02*
X19350000Y41000000D01*
D11*
X28950000Y42250000D02*
X29150000Y42050000D01*
D11*
X4850000Y66400000D02*
X5400000Y66950000D01*
D11*
X25539996Y33750000D02*
X25979998Y33309998D01*
D11*
X8000000Y51000000D02*
X8000000Y50733337D01*
D10*
X14225000Y39775000D02*
X14225000Y38550000D01*
D11*
X30980000Y50250000D02*
X30400000Y50250000D01*
D12*
X13359999Y20159999D02*
X13359999Y22150001D01*
D10*
X33250000Y60900000D02*
X28900000Y56550000D01*
D10*
X26050000Y56850000D02*
X25746000Y56546000D01*
D10*
X7266669Y44948329D02*
X7266669Y45261425D01*
D11*
X28150000Y43150000D02*
X28100000Y43200000D01*
D11*
X13806669Y50368329D02*
X13806669Y51843331D01*
D11*
X9850000Y54650000D02*
X10100000Y54400000D01*
D11*
X19750000Y57700000D02*
X19700000Y57750000D01*
D11*
X24595000Y60355000D02*
X24595000Y61550000D01*
D10*
X37100000Y49933330D02*
X37100000Y53450000D01*
D11*
X36200000Y41350000D02*
X36000000Y41350000D01*
D11*
X33579998Y39750000D02*
X32900000Y39750000D01*
D11*
X34400000Y64400000D02*
X34400000Y66400000D01*
D11*
X24700000Y34650000D02*
X24700000Y35550000D01*
D11*
X15205002Y70794998D02*
X14800000Y71200000D01*
D11*
X33300000Y62550000D02*
X33300000Y61550000D01*
D11*
X32800000Y34650000D02*
X32800000Y35550000D01*
D11*
X32779998Y37300000D02*
X32779998Y38529998D01*
D11*
X32900000Y42579998D02*
X33079998Y42400000D01*
D11*
X2000000Y43450000D02*
X2000000Y43850000D01*
D11*
X7576466Y56458544D02*
X7916546Y56798624D01*
D11*
X7916546Y57426466D02*
X7443012Y57900000D01*
D11*
X25359920Y57200000D02*
X25395999Y57236079D01*
D11*
X25800000Y59150000D02*
X24595000Y60355000D01*
D10*
X12357989Y27265049D02*
X12944951Y27852011D01*
D11*
X14700000Y41650000D02*
X15550000Y40800000D01*
D11*
X5305002Y69979992D02*
X5305002Y70644998D01*
D11*
X23000000Y54400000D02*
X23100000Y54300000D01*
D11*
X22395000Y62550000D02*
X21675000Y62550000D01*
D10*
X38400000Y58370000D02*
X36970000Y59800000D01*
D11*
X7550000Y58500000D02*
X5141448Y60908552D01*
D11*
X5000000Y51900000D02*
X4800000Y52100000D01*
D11*
X33300000Y63500000D02*
X33300000Y62550000D01*
D11*
X26779998Y30000000D02*
X26779998Y27079998D01*
D11*
X28150000Y54650000D02*
X28400000Y54400000D01*
D11*
X3851937Y51000000D02*
X3837662Y51014275D01*
D11*
X9365001Y34323327D02*
X8700000Y34988328D01*
D11*
X22100000Y50950000D02*
X22100000Y51650000D01*
D11*
X26300000Y51000000D02*
X26300000Y50350000D01*
D11*
X3506669Y37456669D02*
X3500000Y37450000D01*
D11*
X15525000Y37575000D02*
X15150000Y37200000D01*
D11*
X24700000Y36450000D02*
X24700000Y37379998D01*
D11*
X2100000Y56600000D02*
X2100000Y55650000D01*
D11*
X15870000Y62550000D02*
X16600000Y62550000D01*
D11*
X17111669Y48563329D02*
X17773495Y48563329D01*
D11*
X18850000Y44700000D02*
X18850000Y45869998D01*
D11*
X34029998Y33259998D02*
X34420000Y33650000D01*
D11*
X20850000Y31850000D02*
X22050000Y31850000D01*
D11*
X25900000Y42250000D02*
X25900000Y43150000D01*
D11*
X18850000Y42500000D02*
X18850000Y41700000D01*
D11*
X32900000Y39750000D02*
X32800000Y39650000D01*
D11*
X2230001Y32043327D02*
X2560001Y31713327D01*
D11*
X36380000Y32249998D02*
X36729998Y31900000D01*
D11*
X12150000Y36900000D02*
X12250000Y36800000D01*
D10*
X5000000Y40150000D02*
X7500000Y40150000D01*
D11*
X28400000Y52600000D02*
X27850000Y52600000D01*
D11*
X32900000Y43150000D02*
X32900000Y42579998D01*
D11*
X9250000Y50100000D02*
X9050000Y49900000D01*
D11*
X19606669Y47313329D02*
X20463329Y47313329D01*
D11*
X18650000Y51750000D02*
X19900000Y51750000D01*
D11*
X14806669Y52156669D02*
X15100000Y52450000D01*
D11*
X13100000Y56750000D02*
X13350000Y56750000D01*
D10*
X37519979Y55580021D02*
X37519979Y50613351D01*
D11*
X22050000Y56550000D02*
X23000000Y56550000D01*
D11*
X5000000Y40150000D02*
X5000000Y38719998D01*
D11*
X19900000Y51750000D02*
X20800000Y52650000D01*
D11*
X34400000Y62550000D02*
X34400000Y61550000D01*
D10*
X36850000Y26150000D02*
X38400000Y26150000D01*
D11*
X34500000Y59800000D02*
X35750000Y61050000D01*
D11*
X18506669Y46213329D02*
X18156669Y46563329D01*
D11*
X9373325Y51000000D02*
X9726787Y51353462D01*
D10*
X37922990Y51310340D02*
X37922990Y56177010D01*
D11*
X5141448Y60908552D02*
X4141448Y60908552D01*
D10*
X37300000Y55800000D02*
X37519979Y55580021D01*
D11*
X4726669Y43678329D02*
X4511659Y43463319D01*
D11*
X20450000Y43300000D02*
X20450000Y42500000D01*
D11*
X2250000Y57850000D02*
X2100000Y57700000D01*
D11*
X24595000Y62550000D02*
X24595000Y61550000D01*
D11*
X23950000Y52100000D02*
X24150000Y51900000D01*
D11*
X15306669Y51556669D02*
X15500000Y51750000D01*
D10*
X28679998Y31900000D02*
X28280000Y32370000D01*
D11*
X14556669Y47813329D02*
X14806669Y47563329D01*
D10*
X32502010Y23252010D02*
X35929998Y26679998D01*
D11*
X37250000Y42050000D02*
X37250000Y41229998D01*
D11*
X16100000Y32750000D02*
X16100000Y32000000D01*
D11*
X14306669Y50368329D02*
X14306669Y52756669D01*
D11*
X27350000Y51000000D02*
X28450000Y51000000D01*
D10*
X12950000Y51149998D02*
X12950000Y54500000D01*
D11*
X14806669Y50368329D02*
X14806669Y52156669D01*
D10*
X37922990Y56177010D02*
X36300000Y57800000D01*
D11*
X18506669Y47313329D02*
X18506669Y48413329D01*
D10*
X14225000Y35225000D02*
X14650000Y35650000D01*
D10*
X2350000Y48800000D02*
X2050000Y49100000D01*
D11*
X9800000Y36630001D02*
X9545990Y36884011D01*
D11*
X34929998Y31000000D02*
X34829998Y30900000D01*
D11*
X13575000Y33075000D02*
X13900000Y32750000D01*
D11*
X13650000Y62570000D02*
X13670000Y62550000D01*
D11*
X28150000Y58500000D02*
X25820000Y58500000D01*
D11*
X25479998Y39750000D02*
X24800000Y39750000D01*
D11*
X22100000Y51650000D02*
X22050000Y51700000D01*
D10*
X7750000Y47900000D02*
X7300000Y48350000D01*
D11*
X9850000Y57850000D02*
X8900000Y57850000D01*
D11*
X10100000Y53500000D02*
X10800000Y54200000D01*
D10*
X34829998Y30000000D02*
X34829998Y26329998D01*
D11*
X33300000Y66400000D02*
X32750000Y66950000D01*
D11*
X6650000Y56700000D02*
X6891456Y56458544D01*
D11*
X15806669Y50368329D02*
X15806669Y51096147D01*
D11*
X5950000Y54300000D02*
X6000000Y54350000D01*
D11*
X14806669Y43281580D02*
X14236313Y42711224D01*
D11*
X3750000Y57200000D02*
X7175090Y57200000D01*
D10*
X9500000Y45050000D02*
X9500000Y45747709D01*
D10*
X7850000Y29750000D02*
X11150000Y29750000D01*
D11*
X8700000Y52850000D02*
X9050000Y53200000D01*
D11*
X6891456Y56458544D02*
X7576466Y56458544D01*
D11*
X9980001Y33673327D02*
X8926673Y33673327D01*
D11*
X11800000Y40150000D02*
X11800000Y41250000D01*
D11*
X36400000Y42050000D02*
X36200000Y42250000D01*
D11*
X5100000Y34928326D02*
X5100000Y36243327D01*
D11*
X24250000Y54300000D02*
X24300000Y54350000D01*
D11*
X3880001Y32363327D02*
X3010001Y32363327D01*
D10*
X38400000Y48633330D02*
X37100000Y49933330D01*
D10*
X2634181Y45315819D02*
X4359179Y45315819D01*
D10*
X13892954Y29365686D02*
X13900000Y29365686D01*
D10*
X10800000Y41919942D02*
X10800000Y42600000D01*
D11*
X34429998Y35550000D02*
X36380000Y37500002D01*
D11*
X7100000Y57900000D02*
X5150000Y59850000D01*
D11*
X11850000Y42200000D02*
X12442970Y42200000D01*
D11*
X22050000Y57850000D02*
X20550000Y57850000D01*
D11*
X12806669Y44706669D02*
X12356843Y44256843D01*
D10*
X14450000Y55705706D02*
X14450990Y55706696D01*
D11*
X14750000Y64400000D02*
X14750000Y66400000D01*
D11*
X32200000Y62550000D02*
X31550000Y62550000D01*
D10*
X7150000Y32628328D02*
X7150000Y37873486D01*
D10*
X10100000Y47900000D02*
X7750000Y47900000D01*
D11*
X15806669Y45258329D02*
X15806669Y44343331D01*
D10*
X10136410Y47900000D02*
X10973081Y47063329D01*
D11*
X20750000Y58500000D02*
X20700000Y58550000D01*
D11*
X36000000Y41350000D02*
X35100000Y42250000D01*
D11*
X26150000Y53400000D02*
X26100000Y53450000D01*
D11*
X28400000Y51700000D02*
X28400000Y51050000D01*
D11*
X28100000Y43200000D02*
X28100000Y43979998D01*
D11*
X18156669Y48063329D02*
X18506669Y48413329D01*
D10*
X25161167Y56546000D02*
X24907167Y56800000D01*
D10*
X1080001Y33621231D02*
X695990Y33237220D01*
D10*
X26050000Y57550000D02*
X26050000Y56850000D01*
D10*
X9802941Y27250001D02*
X10404951Y27852011D01*
D11*
X3506669Y38213329D02*
X3506669Y37456669D01*
D11*
X29150000Y42050000D02*
X31200000Y42050000D01*
D11*
X22050000Y52600000D02*
X22050000Y53500000D01*
D11*
X34050000Y43200000D02*
X34000000Y43150000D01*
D11*
X12001669Y46563329D02*
X11343311Y46563329D01*
D11*
X8700000Y34988328D02*
X8700000Y36250000D01*
D11*
X26879998Y31000000D02*
X26779998Y30900000D01*
D11*
X20400000Y56600000D02*
X20400000Y56087077D01*
D11*
X37250000Y43150000D02*
X37250000Y43929998D01*
D11*
X18506669Y48413329D02*
X19293340Y49200000D01*
D11*
X4386079Y55895999D02*
X5195999Y55895999D01*
D10*
X17111669Y49563329D02*
X17111669Y50571182D01*
D10*
X10800000Y42600000D02*
X11349991Y43149991D01*
D10*
X25052010Y23252010D02*
X32502010Y23252010D01*
D11*
X11479673Y49063329D02*
X10956960Y49586043D01*
D10*
X10819999Y26850001D02*
X11950001Y26850001D01*
D10*
X8650000Y44200000D02*
X9500000Y45050000D01*
D10*
X24800000Y43150000D02*
X24800000Y42600000D01*
D11*
X9850000Y59800000D02*
X8050000Y59800000D01*
D11*
X18256669Y47063329D02*
X17111669Y47063329D01*
D11*
X3750000Y52600000D02*
X3750000Y53500000D01*
D10*
X1600000Y48395989D02*
X1604010Y48399999D01*
D10*
X37519979Y50613351D02*
X38400000Y49733330D01*
D11*
X24300000Y54350000D02*
X24300000Y55925090D01*
D11*
X26970000Y39750000D02*
X26970000Y41320000D01*
D11*
X3750000Y59150000D02*
X4675090Y59150000D01*
D11*
X22050000Y54400000D02*
X23000000Y54400000D01*
D11*
X11800000Y41250000D02*
X11850000Y41300000D01*
D11*
X26970000Y31990002D02*
X26879998Y31900000D01*
D11*
X4100000Y52250000D02*
X3750000Y52600000D01*
D10*
X12806669Y50368329D02*
X12424998Y50750000D01*
D11*
X39300000Y50833330D02*
X39300000Y49733330D01*
D10*
X10973081Y47063329D02*
X12001669Y47063329D01*
D11*
X6000000Y54350000D02*
X6000000Y55602466D01*
D11*
X24800000Y44050000D02*
X25900000Y44050000D01*
D11*
X39300000Y51933330D02*
X39300000Y50833330D01*
D10*
X11957998Y27423684D02*
X11957999Y27430731D01*
D10*
X4406669Y38213329D02*
X4493331Y38213329D01*
D11*
X4057021Y49900000D02*
X3800000Y50157021D01*
D11*
X27300000Y54350000D02*
X27350000Y54300000D01*
D11*
X11407238Y38800000D02*
X11407021Y38800217D01*
D10*
X11203011Y42416932D02*
X11203011Y41753010D01*
D11*
X16800000Y51750000D02*
X17750000Y51750000D01*
D11*
X2560001Y31713327D02*
X3880001Y31713327D01*
D11*
X14875000Y35125000D02*
X14902010Y35152010D01*
D11*
X12150000Y37700000D02*
X12150000Y36900000D01*
D10*
X24907167Y56800000D02*
X24250000Y56800000D01*
D11*
X37250000Y43929998D02*
X37179998Y44000000D01*
D11*
X2650000Y62550000D02*
X2000000Y62550000D01*
D11*
X15525000Y33275000D02*
X15525000Y34150000D01*
D11*
X27779998Y31900000D02*
X27779998Y31000000D01*
D11*
X34929998Y31900000D02*
X34929998Y31000000D01*
D11*
X34000000Y41350000D02*
X35100000Y41350000D01*
D11*
X20700000Y49200000D02*
X21306660Y49200000D01*
D11*
X13650000Y66400000D02*
X13100000Y66950000D01*
D11*
X10956960Y49586043D02*
X10613957Y49586043D01*
D11*
X18850000Y45869998D02*
X18506669Y46213329D01*
D11*
X24300000Y53450000D02*
X24300000Y52850000D01*
D11*
X28150000Y54650000D02*
X28150000Y55900000D01*
D11*
X25175000Y66950000D02*
X26485000Y66950000D01*
D11*
X19293340Y49200000D02*
X19700000Y49200000D01*
D10*
X16750000Y35650000D02*
X17000000Y35900000D01*
D10*
X12000000Y53450000D02*
X11050000Y53450000D01*
D11*
X26970000Y41320000D02*
X27000000Y41350000D01*
D10*
X29050000Y26850000D02*
X29050000Y27600000D01*
D11*
X34500000Y53800000D02*
X33550000Y53800000D01*
D10*
X1600000Y46350000D02*
X2634181Y45315819D01*
D10*
X12424998Y51725002D02*
X12250000Y51900000D01*
D11*
X8050000Y59800000D02*
X8000000Y59850000D01*
D11*
X24300000Y52850000D02*
X23450000Y52850000D01*
D10*
X1080001Y34193327D02*
X1080001Y33621231D01*
D11*
X6000000Y56700000D02*
X6650000Y56700000D01*
D10*
X38400000Y51933330D02*
X38400000Y58370000D01*
D11*
X8656615Y32363327D02*
X8053011Y32966931D01*
D11*
X4800000Y51000000D02*
X3851937Y51000000D01*
D10*
X12200000Y53450000D02*
X12000000Y53450000D01*
D11*
X5000000Y38719998D02*
X5506669Y38213329D01*
D11*
X11336673Y31063327D02*
X11350000Y31050000D01*
D10*
X11957999Y27430731D02*
X13892954Y29365686D01*
D11*
X9753462Y51353462D02*
X9726787Y51353462D01*
D11*
X6200000Y36243327D02*
X6200000Y34728326D01*
D10*
X9450000Y40173486D02*
X9450000Y40569942D01*
D10*
X3880001Y27850000D02*
X3880001Y30413327D01*
D10*
X5094159Y45850839D02*
X5996669Y44948329D01*
D10*
X12424998Y50750000D02*
X12424998Y51725002D01*
D11*
X6200000Y34728326D02*
X4495001Y33023327D01*
D11*
X33500000Y57800000D02*
X33550000Y57800000D01*
D10*
X12050000Y30650000D02*
X12050000Y31568328D01*
D10*
X23345999Y55895999D02*
X22686079Y55895999D01*
D11*
X12300000Y57450000D02*
X11500000Y56650000D01*
D10*
X12130049Y43149991D02*
X13306669Y44326611D01*
D11*
X13575000Y38550000D02*
X12400000Y38550000D01*
D11*
X3880001Y34973327D02*
X3880001Y36230001D01*
D11*
X20550000Y57850000D02*
X20400000Y57700000D01*
D11*
X3750000Y51700000D02*
X3750000Y51101937D01*
D11*
X15000000Y32750000D02*
X15525000Y33275000D01*
D11*
X6000000Y52850000D02*
X5150000Y52850000D01*
D10*
X3195990Y49250000D02*
X2650000Y49795990D01*
D13*
X13359999Y22150001D02*
X15899999Y22150001D01*
D10*
X33080058Y61550000D02*
X33300000Y61550000D01*
D11*
X27879998Y30000000D02*
X28600000Y30000000D01*
D11*
X8700000Y36250000D02*
X8700000Y36992979D01*
D10*
X33750000Y60900000D02*
X33250000Y60900000D01*
D11*
X36200000Y43200000D02*
X37200000Y43200000D01*
D11*
X15306669Y50368329D02*
X15306669Y51556669D01*
D10*
X11269845Y47563329D02*
X10456164Y48377010D01*
D11*
X27800000Y54300000D02*
X27350000Y54300000D01*
D10*
X10623096Y48780021D02*
X8459865Y48780021D01*
D11*
X5850000Y51900000D02*
X5000000Y51900000D01*
D11*
X20850000Y31850000D02*
X20850000Y29100000D01*
D11*
X5305002Y70644998D02*
X4900000Y71050000D01*
D11*
X34000000Y44050000D02*
X32900000Y44050000D01*
D11*
X4650000Y52250000D02*
X4100000Y52250000D01*
D10*
X17111669Y49063329D02*
X17703553Y49063329D01*
D11*
X27630000Y33650000D02*
X27630000Y32049998D01*
D11*
X10100000Y52600000D02*
X9850000Y52600000D01*
D10*
X11750000Y52400000D02*
X11500000Y52650000D01*
D11*
X13575000Y34150000D02*
X13575000Y33075000D01*
D10*
X10595001Y33023327D02*
X9980001Y33023327D01*
D11*
X26300000Y50350000D02*
X26200000Y50250000D01*
D11*
X27000000Y52850000D02*
X27350000Y53200000D01*
D10*
X10404951Y27852011D02*
X11529671Y27852011D01*
D10*
X12250000Y51900000D02*
X12250000Y52400000D01*
D11*
X14806669Y47563329D02*
X17111669Y47563329D01*
D10*
X9500000Y45747709D02*
X10100000Y46347709D01*
D11*
X28400000Y53500000D02*
X29050000Y54150000D01*
D11*
X33300000Y30000000D02*
X32250000Y31050000D01*
D11*
X1450000Y57700000D02*
X1400000Y57750000D01*
D10*
X18600000Y49959776D02*
X18600000Y50700000D01*
D11*
X7443012Y57900000D02*
X7100000Y57900000D01*
D10*
X24050000Y22250000D02*
X25052010Y23252010D01*
D11*
X18450000Y43750000D02*
X20000000Y43750000D01*
D11*
X35730000Y39750000D02*
X35730000Y40880000D01*
D11*
X13900000Y32750000D02*
X13900000Y31750000D01*
D11*
X26970000Y33650000D02*
X26970000Y31990002D01*
D11*
X12100000Y55750000D02*
X13100000Y56750000D01*
D11*
X5850000Y50772117D02*
X5637915Y50560032D01*
D11*
X32800000Y37279998D02*
X32779998Y37300000D01*
D10*
X7266669Y43678329D02*
X7788340Y44200000D01*
D11*
X28100000Y43979998D02*
X28079998Y44000000D01*
D10*
X5739999Y27639999D02*
X7850000Y29750000D01*
D11*
X12100000Y54550000D02*
X12100000Y55750000D01*
D10*
X9365001Y30413327D02*
X7150000Y32628328D01*
D11*
X13900000Y31750000D02*
X13900000Y30800000D01*
D11*
X19606669Y48413329D02*
X19606669Y47313329D01*
D10*
X14306669Y43824589D02*
X13942979Y43460899D01*
D11*
X23495000Y66430000D02*
X22975000Y66950000D01*
D11*
X34829998Y30000000D02*
X33300000Y30000000D01*
D10*
X3880001Y27530003D02*
X3880001Y27850000D01*
D10*
X13306669Y50368329D02*
X13306669Y50793329D01*
D11*
X24800000Y39750000D02*
X24700000Y39650000D01*
D11*
X32900000Y47579998D02*
X31829998Y48650000D01*
D11*
X34029998Y31900000D02*
X34029998Y33259998D01*
D10*
X34829998Y26329998D02*
X32155021Y23655021D01*
D11*
X17773495Y48563329D02*
X19300000Y50089834D01*
D11*
X27900000Y41350000D02*
X27000000Y42250000D01*
D10*
X7300000Y48350000D02*
X5800000Y48350000D01*
D11*
X35100000Y39780000D02*
X35070000Y39750000D01*
D11*
X4495001Y33023327D02*
X3880001Y33023327D01*
D11*
X18850000Y41700000D02*
X18650000Y41500000D01*
D11*
X36380000Y33650000D02*
X36380000Y32249998D01*
D10*
X36970000Y59800000D02*
X36300000Y59800000D01*
D11*
X14100000Y41650000D02*
X14700000Y41650000D01*
D11*
X15525000Y38550000D02*
X15525000Y37575000D01*
D10*
X24800000Y43150000D02*
X24600000Y43150000D01*
D11*
X8850000Y51900000D02*
X9050000Y52100000D01*
D11*
X23100000Y51000000D02*
X22150000Y51000000D01*
D10*
X13306669Y44326611D02*
X13306669Y45258329D01*
D11*
X3200000Y66950000D02*
X1890000Y66950000D01*
D10*
X10100000Y47900000D02*
X10136410Y47900000D01*
D11*
X3750000Y61300000D02*
X3750000Y61550000D01*
D11*
X14750000Y62570000D02*
X14770000Y62550000D01*
D11*
X9980001Y31063327D02*
X11336673Y31063327D01*
D11*
X23550000Y31850000D02*
X24329998Y31850000D01*
D11*
X35500000Y62550000D02*
X36100000Y62550000D01*
D11*
X24595000Y64400000D02*
X24595000Y66370000D01*
D10*
X11533059Y42746980D02*
X11203011Y42416932D01*
D11*
X27630000Y40880000D02*
X28100000Y41350000D01*
D11*
X13950000Y40800000D02*
X13300000Y40150000D01*
D10*
X14306669Y45258329D02*
X14306669Y43824589D01*
D10*
X12950000Y54500000D02*
X13350000Y54900000D01*
D11*
X3750000Y55900000D02*
X4382078Y55900000D01*
D10*
X28280000Y32370000D02*
X28280000Y33650000D01*
D11*
X19606669Y46213329D02*
X20336671Y46213329D01*
D11*
X6606669Y38213329D02*
X6606669Y37553161D01*
D10*
X11150000Y29750000D02*
X12050000Y30650000D01*
D11*
X15806669Y44343331D02*
X16000000Y44150000D01*
D10*
X37100000Y53450000D02*
X36750000Y53800000D01*
D11*
X36380000Y37500002D02*
X36380000Y39750000D01*
D10*
X7150000Y37873486D02*
X9450000Y40173486D01*
D11*
X13806669Y51843331D02*
X13650000Y52000000D01*
D11*
X13657030Y42092970D02*
X14100000Y41650000D01*
D11*
X10546989Y35540315D02*
X10546989Y37315165D01*
D11*
X27050000Y59800000D02*
X27000000Y59850000D01*
D11*
X34929998Y31900000D02*
X34929998Y33509998D01*
D11*
X26779998Y30000000D02*
X23450000Y30000000D01*
D11*
X34929998Y33509998D02*
X35070000Y33650000D01*
D10*
X9915475Y49183032D02*
X9652517Y49445990D01*
D10*
X18600000Y50700000D02*
X18900000Y51000000D01*
D11*
X34400000Y63500000D02*
X34400000Y62550000D01*
D11*
X4382078Y55900000D02*
X4386079Y55895999D01*
D10*
X14450000Y54900000D02*
X14450000Y55705706D01*
D10*
X22050000Y59800000D02*
X23800000Y59800000D01*
D11*
X25080002Y70644998D02*
X24675000Y71050000D01*
D11*
X3750000Y66400000D02*
X3200000Y66950000D01*
D11*
X14306669Y52756669D02*
X14400000Y52850000D01*
D10*
X28900000Y56550000D02*
X28150000Y56550000D01*
D11*
X24595000Y63500000D02*
X24595000Y62550000D01*
D11*
X2900000Y53550000D02*
X3700000Y53550000D01*
D11*
X17111669Y46063329D02*
X17686671Y46063329D01*
D10*
X11203011Y41753010D02*
X9900000Y40450000D01*
D11*
X39300000Y49733330D02*
X39300000Y48633330D01*
D11*
X14770000Y60855000D02*
X14770000Y61550000D01*
D11*
X4511659Y43463319D02*
X2013319Y43463319D01*
D10*
X11529671Y27852011D02*
X11957998Y27423684D01*
D11*
X4495001Y34323327D02*
X5100000Y34928326D01*
D11*
X22150000Y51000000D02*
X22100000Y50950000D01*
D10*
X7788340Y44200000D02*
X8650000Y44200000D01*
D10*
X13806669Y44256669D02*
X12296980Y42746980D01*
D10*
X28679998Y31900000D02*
X28679998Y31950000D01*
D11*
X13650000Y64400000D02*
X13650000Y66400000D01*
D11*
X35100000Y41350000D02*
X35100000Y39780000D01*
D10*
X10790027Y49183032D02*
X9915475Y49183032D01*
D11*
X7175090Y57200000D02*
X7262545Y57112545D01*
D11*
X30980000Y50870000D02*
X30950000Y50900000D01*
D11*
X3760001Y30943327D02*
X3880001Y31063327D01*
D11*
X3750000Y63500000D02*
X3750000Y62550000D01*
D11*
X26879998Y31900000D02*
X26879998Y31000000D01*
D11*
X4850000Y62550000D02*
X4850000Y63500000D01*
D10*
X1600000Y46450000D02*
X1600000Y48395989D01*
D10*
X28679998Y31950000D02*
X28595990Y32034008D01*
D11*
X6606669Y37553161D02*
X6495990Y37442482D01*
D10*
X12050000Y31568328D02*
X10595001Y33023327D01*
D11*
X18650000Y31850000D02*
X18520002Y31850000D01*
D10*
X5800000Y48350000D02*
X5094159Y47644159D01*
D10*
X37100000Y22550000D02*
X38400000Y22550000D01*
D11*
X14650000Y40800000D02*
X15500000Y39950000D01*
D10*
X16800000Y53508919D02*
X16841081Y53550000D01*
D11*
X16600000Y39950000D02*
X16600000Y40800000D01*
D10*
X24850000Y20600000D02*
X21600000Y20600000D01*
D10*
X7989886Y49250000D02*
X3195990Y49250000D01*
D11*
X20000000Y43750000D02*
X20450000Y43300000D01*
D10*
X24700000Y35550000D02*
X25779998Y35550000D01*
D11*
X16891671Y45258329D02*
X17000000Y45150000D01*
D11*
X27779998Y31000000D02*
X27879998Y30900000D01*
D11*
X21200000Y53550000D02*
X22000000Y53550000D01*
D11*
X8053011Y37318992D02*
X10556252Y39822233D01*
D10*
X16800000Y52850000D02*
X16800000Y53508919D01*
D10*
X1600000Y46450000D02*
X1600000Y46350000D01*
D11*
X9850000Y55900000D02*
X9850000Y54650000D01*
D11*
X26779998Y27079998D02*
X26550000Y26850000D01*
D10*
X23800000Y59800000D02*
X26050000Y57550000D01*
D11*
X34500000Y57800000D02*
X33500000Y57800000D01*
D11*
X18850000Y41700000D02*
X19350000Y41200000D01*
D11*
X19850000Y33250000D02*
X19850000Y33979998D01*
D11*
X18650000Y41500000D02*
X17700000Y41500000D01*
D11*
X15000000Y31750000D02*
X15000000Y32750000D01*
D11*
X2230001Y30943327D02*
X3760001Y30943327D01*
D11*
X35929998Y30000000D02*
X36750000Y30000000D01*
D11*
X10100000Y50100000D02*
X9250000Y50100000D01*
D11*
X10546989Y37315165D02*
X9795990Y38066164D01*
D10*
X3199999Y26850001D02*
X3880001Y27530003D01*
D10*
X8072990Y48377010D02*
X7650000Y48800000D01*
D10*
X7266669Y45261425D02*
X8999741Y46994497D01*
D10*
X9900000Y40450000D02*
X9900000Y39850000D01*
D10*
X5094159Y47644159D02*
X5094159Y45850839D01*
D11*
X6000000Y53450000D02*
X6000000Y52850000D01*
D12*
X8800000Y18800000D02*
X6600000Y18800000D01*
D11*
X28150000Y59150000D02*
X25800000Y59150000D01*
D11*
X13670000Y62550000D02*
X13670000Y61550000D01*
D11*
X28150000Y54650000D02*
X27800000Y54300000D01*
D11*
X8053011Y32966931D02*
X8053011Y37318992D01*
D10*
X8279999Y26850001D02*
X8679999Y27250001D01*
D11*
X34000000Y43150000D02*
X34000000Y42250000D01*
D10*
X9900000Y39850000D02*
X7650000Y37600000D01*
D10*
X8459865Y48780021D02*
X7989886Y49250000D01*
D11*
X4800000Y54300000D02*
X5950000Y54300000D01*
D11*
X32800000Y33750000D02*
X33539996Y33750000D01*
D11*
X9050000Y49900000D02*
X4057021Y49900000D01*
D11*
X9800000Y36250000D02*
X9800000Y36630001D01*
D11*
X10556252Y39822233D02*
X10556252Y40175786D01*
D11*
X35750000Y61050000D02*
X37650000Y61050000D01*
D10*
X12001669Y49563329D02*
X11269008Y50295990D01*
D11*
X12356843Y44256843D02*
X12181933Y44256843D01*
D11*
X7850000Y53400000D02*
X7800000Y53450000D01*
D11*
X35730000Y40880000D02*
X36200000Y41350000D01*
D11*
X3750000Y62550000D02*
X3750000Y61550000D01*
D11*
X19350000Y31850000D02*
X18650000Y31850000D01*
D10*
X7500000Y40150000D02*
X8800000Y41450000D01*
D11*
X24700000Y33750000D02*
X25539996Y33750000D01*
D11*
X15205002Y69979992D02*
X15205002Y70794998D01*
D11*
X14750000Y63500000D02*
X14750000Y62570000D01*
D11*
X23450000Y30000000D02*
X23400000Y30050000D01*
D10*
X5739999Y26850001D02*
X5739999Y27639999D01*
D11*
X32900000Y44050000D02*
X32900000Y47579998D01*
D11*
X21550000Y55400000D02*
X22050000Y55900000D01*
D11*
X16800000Y51450000D02*
X16800000Y51750000D01*
D11*
X17774998Y45975002D02*
X17774998Y44425002D01*
D10*
X38400000Y50833330D02*
X37922990Y51310340D01*
D12*
X6600000Y18800000D02*
X4500000Y18800000D01*
D11*
X16192071Y51481549D02*
X16192071Y54357929D01*
D10*
X13900000Y29365686D02*
X13900000Y29900000D01*
D11*
X2700001Y33673327D02*
X3880001Y33673327D01*
D10*
X14225000Y34150000D02*
X14225000Y35225000D01*
D11*
X39300000Y48633330D02*
X39300000Y47850000D01*
D11*
X15300000Y66950000D02*
X16610000Y66950000D01*
D10*
X25746000Y56546000D02*
X25161167Y56546000D01*
D11*
X10465000Y56550000D02*
X14770000Y60855000D01*
D10*
X36750000Y22900000D02*
X37100000Y22550000D01*
D11*
X20450000Y44700000D02*
X20450000Y46100000D01*
D13*
X10819999Y22150001D02*
X13359999Y22150001D01*
D11*
X21306660Y49200000D02*
X21343331Y49236671D01*
D11*
X28100000Y41350000D02*
X27900000Y41350000D01*
D11*
X25695000Y62550000D02*
X26375000Y62550000D01*
D11*
X24300000Y55925090D02*
X24480891Y56105981D01*
D10*
X26320000Y33650000D02*
X25979998Y33309998D01*
D11*
X2013319Y43463319D02*
X2000000Y43450000D01*
D11*
X28450000Y51000000D02*
X28500000Y50950000D01*
D11*
X23495000Y64400000D02*
X23495000Y66430000D01*
D11*
X17686671Y46063329D02*
X17774998Y45975002D01*
D11*
X4850000Y61550000D02*
X5200000Y61550000D01*
D11*
X16100000Y55550000D02*
X16800000Y55550000D01*
D10*
X13306669Y50793329D02*
X12950000Y51149998D01*
D11*
X3750000Y57850000D02*
X2250000Y57850000D01*
D12*
X4500000Y18800000D02*
X2400000Y18800000D01*
D11*
X9980001Y32363327D02*
X8656615Y32363327D01*
D10*
X900000Y45850000D02*
X1000000Y45850000D01*
D11*
X37250000Y41229998D02*
X37279998Y41200000D01*
D10*
X11950001Y26850001D02*
X12357989Y27257989D01*
D10*
X12944951Y27852011D02*
X12952011Y27852011D01*
D11*
X10100000Y47000000D02*
X10100000Y46347709D01*
D11*
X14750000Y66400000D02*
X15300000Y66950000D01*
D11*
X13650000Y63500000D02*
X13650000Y62570000D01*
D10*
X21600000Y20600000D02*
X10950000Y9950000D01*
D11*
X12442970Y42200000D02*
X12550000Y42092970D01*
D11*
X22975000Y66950000D02*
X21665000Y66950000D01*
D10*
X23495000Y60825000D02*
X25820000Y58500000D01*
D11*
X13100000Y66950000D02*
X11790000Y66950000D01*
D11*
X5950000Y62550000D02*
X6600000Y62550000D01*
D11*
X35829998Y31900000D02*
X35829998Y31000000D01*
D10*
X17111669Y50571182D02*
X16967292Y50715559D01*
D11*
X8000000Y51900000D02*
X8850000Y51900000D01*
D10*
X28150000Y57200000D02*
X28730058Y57200000D01*
D10*
X25979998Y33309998D02*
X25979998Y31900000D01*
D11*
X17111669Y48063329D02*
X18156669Y48063329D01*
D10*
X8736673Y31713327D02*
X9980001Y31713327D01*
D10*
X22686079Y55895999D02*
X22682078Y55900000D01*
D10*
X28280000Y38050002D02*
X28280000Y39750000D01*
D11*
X24329998Y31850000D02*
X24350000Y31829998D01*
D11*
X5200000Y61550000D02*
X7600000Y59150000D01*
D11*
X26150000Y52850000D02*
X27000000Y52850000D01*
D11*
X23495000Y62550000D02*
X23495000Y61550000D01*
D11*
X5150000Y52850000D02*
X4800000Y53200000D01*
D11*
X12806669Y45258329D02*
X12806669Y44706669D01*
D11*
X32750000Y66950000D02*
X31440000Y66950000D01*
D11*
X34500000Y55800000D02*
X33550000Y55800000D01*
D11*
X26150000Y52850000D02*
X26150000Y53400000D01*
D11*
X18506669Y47313329D02*
X18256669Y47063329D01*
D11*
X33300000Y64400000D02*
X33300000Y66400000D01*
D11*
X3880001Y34323327D02*
X4495001Y34323327D01*
D11*
X22050000Y58500000D02*
X20750000Y58500000D01*
D10*
X14182842Y29082842D02*
X15000000Y29900000D01*
D10*
X19178366Y54450000D02*
X19301638Y54326728D01*
D11*
X36729998Y31900000D02*
X37479998Y31900000D01*
D10*
X15943304Y55706696D02*
X16100000Y55550000D01*
D10*
X25779998Y35550000D02*
X28280000Y38050002D01*
D11*
X3700000Y53550000D02*
X3750000Y53500000D01*
D10*
X8679999Y27250001D02*
X9802941Y27250001D01*
D11*
X3750000Y54400000D02*
X4700000Y54400000D01*
D11*
X35050000Y33630000D02*
X35070000Y33650000D01*
D11*
X24700000Y37379998D02*
X24679998Y37400000D01*
D11*
X15806669Y51096147D02*
X16192071Y51481549D01*
D10*
X22682078Y55900000D02*
X22050000Y55900000D01*
D11*
X24679998Y38529998D02*
X24700000Y38550000D01*
D10*
X7650000Y37600000D02*
X7650000Y32800000D01*
D11*
X14350000Y40800000D02*
X14650000Y40800000D01*
D11*
X9980001Y34323327D02*
X9365001Y34323327D01*
D11*
X4700000Y56550000D02*
X3750000Y56550000D01*
D11*
X9050000Y51000000D02*
X9373325Y51000000D01*
D11*
X16192071Y54357929D02*
X16100000Y54450000D01*
D11*
X12400000Y38550000D02*
X12150000Y38800000D01*
D11*
X23100000Y52100000D02*
X23950000Y52100000D01*
D11*
X20400000Y57700000D02*
X19750000Y57700000D01*
D10*
X13806669Y45258329D02*
X13806669Y44256669D01*
D10*
X12296980Y42746980D02*
X11533059Y42746980D01*
D11*
X16306669Y50368329D02*
X16306669Y50956669D01*
D10*
X12250000Y52400000D02*
X11750000Y52400000D01*
D11*
X2180001Y34193327D02*
X2700001Y33673327D01*
D11*
X30980000Y50250000D02*
X30980000Y50870000D01*
D11*
X27630000Y32049998D02*
X27779998Y31900000D01*
D11*
X28150000Y59800000D02*
X27050000Y59800000D01*
D11*
X32800000Y35550000D02*
X34429998Y35550000D01*
D10*
X36300000Y55800000D02*
X37300000Y55800000D01*
D11*
X26950000Y43150000D02*
X27000000Y43200000D01*
D11*
X7850000Y54350000D02*
X7900000Y54300000D01*
D10*
X14650000Y35650000D02*
X16750000Y35650000D01*
D10*
X35929998Y26679998D02*
X35929998Y30000000D01*
D10*
X11269008Y50295990D02*
X11039963Y50295990D01*
D11*
X22600000Y52600000D02*
X23100000Y52100000D01*
D11*
X8700000Y36992979D02*
X8707021Y37000000D01*
D11*
X12001669Y45023271D02*
X10628398Y43650000D01*
D11*
X15306669Y45258329D02*
X15306669Y42217991D01*
D10*
X9850000Y57200000D02*
X10465000Y57200000D01*
D11*
X19300000Y50089834D02*
X19300000Y50300000D01*
D11*
X12001669Y46063329D02*
X12001669Y45023271D01*
D11*
X8926673Y33673327D02*
X8900000Y33700000D01*
D11*
X17000000Y57450000D02*
X12300000Y57450000D01*
D11*
X27630000Y39750000D02*
X27630000Y40880000D01*
D10*
X27879998Y28770002D02*
X27879998Y30000000D01*
D11*
X11500000Y56650000D02*
X11500000Y56050000D01*
D11*
X20400000Y56087077D02*
X20433067Y56054010D01*
D11*
X15550000Y40800000D02*
X16600000Y40800000D01*
D11*
X20336671Y46213329D02*
X20400000Y46150000D01*
D10*
X32155021Y23655021D02*
X22955021Y23655021D01*
D10*
X10950000Y9950000D02*
X10950000Y9700000D01*
D10*
X1333285Y29843327D02*
X1295990Y29880622D01*
D11*
X22050000Y52600000D02*
X22600000Y52600000D01*
D11*
X17774998Y44425002D02*
X18450000Y43750000D01*
D11*
X19606669Y46213329D02*
X19606669Y47313329D01*
D11*
X10100000Y51700000D02*
X9753462Y51353462D01*
D11*
X28150000Y57850000D02*
X27200000Y57850000D01*
D11*
X24595000Y66370000D02*
X25175000Y66950000D01*
D11*
X26500000Y52100000D02*
X26300000Y51900000D01*
D11*
X2000000Y43850000D02*
X900000Y44950000D01*
D11*
X3750000Y51101937D02*
X3837662Y51014275D01*
D11*
X29150000Y43150000D02*
X28150000Y43150000D01*
D11*
X9850000Y58500000D02*
X7550000Y58500000D01*
D11*
X35829998Y31900000D02*
X35829998Y33550002D01*
D11*
X27850000Y52600000D02*
X27350000Y52100000D01*
D11*
X11000000Y51750000D02*
X10900000Y51850000D01*
D11*
X28550000Y50900000D02*
X28500000Y50950000D01*
D11*
X14902010Y35152010D02*
X16847990Y35152010D01*
D11*
X11343311Y46563329D02*
X10301652Y45521670D01*
D11*
X19450000Y55400000D02*
X21550000Y55400000D01*
D11*
X9050000Y54300000D02*
X9500000Y54300000D01*
D11*
X10613957Y49586043D02*
X10100000Y50100000D01*
D11*
X22000000Y53550000D02*
X22050000Y53500000D01*
D11*
X9980001Y34973327D02*
X10546989Y35540315D01*
D11*
X5000000Y42681660D02*
X5000000Y40150000D01*
D11*
X14875000Y38550000D02*
X14875000Y37475000D01*
D11*
X15000000Y30800000D02*
X15000000Y31750000D01*
D11*
X3010001Y32363327D02*
X2230001Y33143327D01*
D11*
X34955002Y69979992D02*
X34955002Y70544998D01*
D11*
X2100000Y57700000D02*
X1450000Y57700000D01*
D11*
X37250000Y42050000D02*
X36400000Y42050000D01*
D11*
X9350000Y52100000D02*
X9050000Y52100000D01*
D11*
X26150000Y54350000D02*
X27300000Y54350000D01*
D11*
X12150000Y38800000D02*
X11407238Y38800000D01*
D11*
X20463329Y47313329D02*
X20500000Y47350000D01*
D11*
X20850000Y33150000D02*
X20950000Y33250000D01*
D11*
X5996669Y43678329D02*
X5000000Y42681660D01*
D10*
X9980001Y30413327D02*
X9365001Y30413327D01*
D11*
X34420000Y39750000D02*
X33579998Y39750000D01*
D11*
X5850000Y51000000D02*
X5850000Y50772117D01*
D10*
X22955021Y23655021D02*
X21550000Y22250000D01*
D10*
X12800000Y32750000D02*
X12004010Y32750000D01*
D10*
X14450990Y55706696D02*
X15943304Y55706696D01*
D11*
X10100000Y52600000D02*
X10100000Y53500000D01*
D11*
X27350000Y52100000D02*
X26500000Y52100000D01*
D10*
X10456164Y48377010D02*
X8072990Y48377010D01*
D12*
X8800000Y18800000D02*
X12000000Y18800000D01*
D10*
X7650000Y32800000D02*
X8736673Y31713327D01*
D11*
X12750000Y41300000D02*
X11850000Y41300000D01*
D11*
X16100000Y54450000D02*
X17050000Y54450000D01*
D11*
X14350000Y40800000D02*
X13950000Y40800000D01*
D11*
X5400000Y66950000D02*
X6710000Y66950000D01*
D11*
X7900000Y54300000D02*
X9050000Y54300000D01*
D10*
X14350000Y39900000D02*
X14225000Y39775000D01*
D11*
X20850000Y31850000D02*
X20850000Y33150000D01*
D11*
X12550000Y42092970D02*
X13657030Y42092970D01*
D12*
X12000000Y18800000D02*
X13359999Y20159999D01*
D10*
X4493331Y38213329D02*
X5000000Y38719998D01*
D10*
X8999741Y46994497D02*
X9154010Y46994497D01*
D10*
X2230001Y29843327D02*
X1333285Y29843327D01*
D11*
X2450000Y58500000D02*
X2400000Y58550000D01*
D11*
X34950000Y66950000D02*
X36260000Y66950000D01*
D11*
X25900000Y43150000D02*
X26950000Y43150000D01*
D11*
X7950000Y51850000D02*
X8000000Y51900000D01*
D10*
X17950000Y54450000D02*
X19178366Y54450000D01*
D11*
X3750000Y58500000D02*
X2450000Y58500000D01*
D10*
X10465000Y57200000D02*
X13670000Y60405000D01*
D10*
X4359179Y45315819D02*
X4726669Y44948329D01*
D10*
X9450000Y40569942D02*
X10800000Y41919942D01*
D11*
X14770000Y62550000D02*
X14770000Y61550000D01*
D11*
X13350000Y54900000D02*
X13350000Y55850000D01*
D10*
X26550000Y22250000D02*
X24850000Y20600000D01*
D11*
X4700000Y54400000D02*
X4800000Y54300000D01*
D11*
X26320000Y39750000D02*
X25479998Y39750000D01*
D11*
X4141448Y60908552D02*
X3750000Y61300000D01*
D10*
X24250000Y56800000D02*
X23345999Y55895999D01*
D10*
X12001669Y48063329D02*
X11339787Y48063329D01*
D11*
X16306669Y50956669D02*
X16800000Y51450000D01*
D11*
X28400000Y53500000D02*
X28400000Y52600000D01*
D11*
X4850000Y64400000D02*
X4850000Y66400000D01*
D11*
X32800000Y36450000D02*
X32800000Y37279998D01*
D10*
X34400000Y61550000D02*
X33750000Y60900000D01*
D11*
X11500000Y51750000D02*
X11000000Y51750000D01*
D11*
X33539996Y33750000D02*
X34029998Y33259998D01*
D11*
X19850000Y33979998D02*
X19800000Y34029998D01*
D11*
X4675090Y59150000D02*
X4737545Y59087545D01*
D11*
X15306669Y42217991D02*
X15499785Y42024875D01*
G75*
D14*
X13900000Y29900000D03*
D14*
X13900000Y30800000D03*
D14*
X25900000Y41350000D03*
D14*
X25900000Y42250000D03*
D15*
X14750000Y4700000D03*
D16*
X21550000Y22250000D03*
D16*
X29050000Y22250000D03*
D16*
X24050000Y22250000D03*
D17*
X26550000Y22250000D03*
D18*
X3199999Y22150001D03*
D19*
X13359999Y22150001D03*
D17*
X8279999Y22150001D03*
D20*
X15899999Y22150001D03*
D19*
X5739999Y22150001D03*
D17*
X10819999Y22150001D03*
D14*
X24700000Y35550000D03*
D14*
X24700000Y36450000D03*
D21*
X10100000Y52600000D03*
D21*
X10100000Y51700000D03*
D22*
X9050000Y53200000D03*
D22*
X9050000Y54300000D03*
D21*
X14750000Y64400000D03*
D21*
X14750000Y63500000D03*
D23*
X2400000Y18800000D03*
D23*
X2400000Y15800000D03*
D24*
X34000000Y15150000D03*
D25*
X19606669Y48413329D03*
D25*
X18506669Y48413329D03*
D21*
X3750000Y64400000D03*
D21*
X3750000Y63500000D03*
D25*
X28100000Y43200000D03*
D25*
X27000000Y43200000D03*
D25*
X13670000Y62550000D03*
D25*
X12570000Y62550000D03*
D26*
X23550000Y31850000D03*
D26*
X22050000Y31850000D03*
D27*
X38400000Y26150000D03*
D28*
X34029998Y31900000D03*
D28*
X34929998Y31900000D03*
D29*
X13670000Y61550000D03*
D29*
X14770000Y61550000D03*
D21*
X13350000Y56750000D03*
D21*
X13350000Y55850000D03*
D25*
X9800000Y36250000D03*
D25*
X8700000Y36250000D03*
D22*
X24700000Y38550000D03*
D22*
X24700000Y39650000D03*
D30*
X16100000Y55550000D03*
D30*
X16100000Y54450000D03*
D26*
X13300000Y40150000D03*
D26*
X11800000Y40150000D03*
D19*
X3199999Y26850001D03*
D18*
X13359999Y26850001D03*
D16*
X8279999Y26850001D03*
D18*
X15899999Y26850001D03*
D17*
X5739999Y26850001D03*
D17*
X10819999Y26850001D03*
D22*
X20400000Y56600000D03*
D22*
X20400000Y57700000D03*
D21*
X33300000Y64400000D03*
D21*
X33300000Y63500000D03*
D29*
X3750000Y61550000D03*
D29*
X4850000Y61550000D03*
D22*
X4800000Y51000000D03*
D22*
X4800000Y52100000D03*
D25*
X36200000Y43200000D03*
D25*
X35100000Y43200000D03*
D22*
X12150000Y37700000D03*
D22*
X12150000Y38800000D03*
D25*
X35500000Y62550000D03*
D25*
X34400000Y62550000D03*
D28*
X35829998Y31900000D03*
D28*
X36729998Y31900000D03*
D14*
X24150000Y51000000D03*
D14*
X24150000Y51900000D03*
D31*
X4726669Y43678329D03*
D31*
X5996669Y43678329D03*
D31*
X5996669Y44948329D03*
D31*
X4726669Y44948329D03*
D31*
X7266669Y43678329D03*
D31*
X7266669Y44948329D03*
D32*
X22050000Y59800000D03*
D33*
X28150000Y57200000D03*
D33*
X28150000Y55900000D03*
D32*
X22050000Y56550000D03*
D33*
X28150000Y59800000D03*
D32*
X22050000Y57850000D03*
D33*
X28150000Y56550000D03*
D32*
X22050000Y59150000D03*
D33*
X28150000Y59150000D03*
D32*
X22050000Y55900000D03*
D33*
X28150000Y57850000D03*
D33*
X28150000Y58500000D03*
D32*
X22050000Y58500000D03*
D32*
X22050000Y57200000D03*
D32*
X3880001Y30413327D03*
D32*
X3880001Y34323327D03*
D33*
X9980001Y34323327D03*
D33*
X9980001Y32363327D03*
D32*
X3880001Y34973327D03*
D33*
X9980001Y33023327D03*
D33*
X9980001Y31713327D03*
D32*
X3880001Y33023327D03*
D33*
X9980001Y33673327D03*
D32*
X3880001Y33673327D03*
D32*
X3880001Y31063327D03*
D33*
X9980001Y31063327D03*
D33*
X9980001Y34973327D03*
D33*
X9980001Y30413327D03*
D32*
X3880001Y31713327D03*
D32*
X3880001Y32363327D03*
D34*
X7850000Y54350000D03*
D34*
X7850000Y52850000D03*
D21*
X22050000Y52600000D03*
D21*
X22050000Y51700000D03*
D25*
X25695000Y62550000D03*
D25*
X24595000Y62550000D03*
D28*
X38400000Y50833330D03*
D28*
X39300000Y50833330D03*
D14*
X24700000Y33750000D03*
D14*
X24700000Y34650000D03*
D35*
X3400002Y74319992D03*
D36*
X2765002Y69979992D03*
D37*
X5305002Y69979992D03*
D25*
X5950000Y62550000D03*
D25*
X4850000Y62550000D03*
D14*
X34000000Y43150000D03*
D14*
X34000000Y44050000D03*
D35*
X23175002Y74319992D03*
D36*
X22540002Y69979992D03*
D37*
X25080002Y69979992D03*
D14*
X25900000Y43150000D03*
D14*
X25900000Y44050000D03*
D22*
X27350000Y51000000D03*
D22*
X27350000Y52100000D03*
D25*
X14450000Y54900000D03*
D25*
X13350000Y54900000D03*
D25*
X3750000Y62550000D03*
D25*
X2650000Y62550000D03*
D22*
X9050000Y51000000D03*
D22*
X9050000Y52100000D03*
D25*
X6606669Y38213329D03*
D25*
X5506669Y38213329D03*
D38*
X36300000Y55800000D03*
D39*
X34500000Y55800000D03*
D25*
X19606669Y47313329D03*
D25*
X18506669Y47313329D03*
D29*
X29850000Y50900000D03*
D29*
X30950000Y50900000D03*
D25*
X6200000Y36243327D03*
D25*
X5100000Y36243327D03*
D40*
X6710000Y66950000D03*
D41*
X1890000Y66950000D03*
D30*
X29150000Y43150000D03*
D30*
X29150000Y42050000D03*
D30*
X37250000Y43150000D03*
D30*
X37250000Y42050000D03*
D28*
X3506669Y38213329D03*
D28*
X4406669Y38213329D03*
D14*
X14350000Y39900000D03*
D14*
X14350000Y40800000D03*
D21*
X23495000Y64400000D03*
D21*
X23495000Y63500000D03*
D14*
X10100000Y53500000D03*
D14*
X10100000Y54400000D03*
D40*
X26485000Y66950000D03*
D41*
X21665000Y66950000D03*
D28*
X38400000Y51933330D03*
D28*
X39300000Y51933330D03*
D42*
X17950000Y54450000D03*
D42*
X17050000Y54450000D03*
D29*
X23495000Y61550000D03*
D29*
X24595000Y61550000D03*
D14*
X900000Y44950000D03*
D14*
X900000Y45850000D03*
D40*
X16610000Y66950000D03*
D41*
X11790000Y66950000D03*
D25*
X19606669Y46213329D03*
D25*
X18506669Y46213329D03*
D43*
X3349999Y81150001D03*
D17*
X13509999Y81150001D03*
D16*
X8429999Y81150001D03*
D18*
X16049999Y81150001D03*
D20*
X5889999Y81150001D03*
D17*
X10969999Y81150001D03*
D21*
X4850000Y64400000D03*
D21*
X4850000Y63500000D03*
D27*
X38400000Y22550000D03*
D18*
X21550000Y26850000D03*
D17*
X29050000Y26850000D03*
D19*
X24050000Y26850000D03*
D17*
X26550000Y26850000D03*
D44*
X24300000Y15150000D03*
D32*
X3750000Y59800000D03*
D33*
X9850000Y57200000D03*
D33*
X9850000Y55900000D03*
D32*
X3750000Y56550000D03*
D33*
X9850000Y59800000D03*
D32*
X3750000Y57850000D03*
D33*
X9850000Y56550000D03*
D32*
X3750000Y59150000D03*
D33*
X9850000Y59150000D03*
D32*
X3750000Y55900000D03*
D33*
X9850000Y57850000D03*
D33*
X9850000Y58500000D03*
D32*
X3750000Y58500000D03*
D32*
X3750000Y57200000D03*
D30*
X16800000Y52850000D03*
D30*
X16800000Y51750000D03*
D24*
X24300000Y4700000D03*
D45*
X36380000Y39750000D03*
D46*
X36380000Y33650000D03*
D45*
X35730000Y39750000D03*
D45*
X35070000Y39750000D03*
D46*
X35730000Y33650000D03*
D46*
X35070000Y33650000D03*
D46*
X34420000Y33650000D03*
D45*
X34420000Y39750000D03*
D14*
X35929998Y30000000D03*
D14*
X35929998Y30900000D03*
D21*
X34400000Y64400000D03*
D21*
X34400000Y63500000D03*
D21*
X10100000Y47900000D03*
D21*
X10100000Y47000000D03*
D14*
X34000000Y41350000D03*
D14*
X34000000Y42250000D03*
D21*
X24595000Y64400000D03*
D21*
X24595000Y63500000D03*
D21*
X3750000Y52600000D03*
D21*
X3750000Y51700000D03*
D21*
X28100000Y42250000D03*
D21*
X28100000Y41350000D03*
D14*
X8000000Y51000000D03*
D14*
X8000000Y51900000D03*
D35*
X13300002Y74319992D03*
D36*
X12665002Y69979992D03*
D37*
X15205002Y69979992D03*
D29*
X15000000Y32750000D03*
D29*
X16100000Y32750000D03*
D14*
X11850000Y41300000D03*
D14*
X11850000Y42200000D03*
D14*
X32800000Y33750000D03*
D14*
X32800000Y34650000D03*
D47*
X14875000Y34150000D03*
D47*
X15525000Y34150000D03*
D48*
X14225000Y38550000D03*
D47*
X13575000Y34150000D03*
D48*
X15525000Y38550000D03*
D48*
X14875000Y38550000D03*
D47*
X14225000Y34150000D03*
D48*
X13575000Y38550000D03*
D34*
X24300000Y54350000D03*
D34*
X24300000Y52850000D03*
D29*
X33300000Y61550000D03*
D29*
X34400000Y61550000D03*
D34*
X6000000Y54350000D03*
D34*
X6000000Y52850000D03*
D45*
X28280000Y39750000D03*
D46*
X28280000Y33650000D03*
D45*
X27630000Y39750000D03*
D45*
X26970000Y39750000D03*
D46*
X27630000Y33650000D03*
D46*
X26970000Y33650000D03*
D46*
X26320000Y33650000D03*
D45*
X26320000Y39750000D03*
D22*
X2230001Y32043327D03*
D22*
X2230001Y33143327D03*
D34*
X26150000Y54350000D03*
D34*
X26150000Y52850000D03*
D14*
X34829998Y30000000D03*
D14*
X34829998Y30900000D03*
D49*
X17111669Y47563329D03*
D49*
X17111669Y46563329D03*
D50*
X12001669Y48563329D03*
D51*
X15806669Y45258329D03*
D49*
X17111669Y47063329D03*
D52*
X12806669Y50368329D03*
D51*
X13306669Y45258329D03*
D51*
X12806669Y45258329D03*
D52*
X15306669Y50368329D03*
D50*
X12001669Y47563329D03*
D53*
X14556669Y47813329D03*
D50*
X12001669Y46563329D03*
D52*
X13806669Y50368329D03*
D52*
X16306669Y50368329D03*
D50*
X12001669Y48063329D03*
D52*
X14806669Y50368329D03*
D49*
X17111669Y48063329D03*
D50*
X12001669Y49063329D03*
D51*
X14306669Y45258329D03*
D52*
X14306669Y50368329D03*
D52*
X15806669Y50368329D03*
D51*
X15306669Y45258329D03*
D51*
X14806669Y45258329D03*
D49*
X17111669Y49063329D03*
D49*
X17111669Y46063329D03*
D50*
X12001669Y47063329D03*
D49*
X17111669Y49563329D03*
D51*
X13806669Y45258329D03*
D52*
X13306669Y50368329D03*
D50*
X12001669Y46063329D03*
D50*
X12001669Y49563329D03*
D49*
X17111669Y48563329D03*
D51*
X16306669Y45258329D03*
D14*
X35100000Y41350000D03*
D14*
X35100000Y42250000D03*
D28*
X38400000Y49733330D03*
D28*
X39300000Y49733330D03*
D28*
X25979998Y31900000D03*
D28*
X26879998Y31900000D03*
D54*
X20450000Y44700000D03*
D54*
X18850000Y42500000D03*
D54*
X18850000Y44700000D03*
D54*
X20450000Y42500000D03*
D25*
X16600000Y39950000D03*
D25*
X15500000Y39950000D03*
D40*
X36260000Y66950000D03*
D41*
X31440000Y66950000D03*
D21*
X17000000Y35900000D03*
D21*
X17000000Y35000000D03*
D21*
X28400000Y52600000D03*
D21*
X28400000Y51700000D03*
D19*
X21749999Y81150001D03*
D17*
X31909999Y81150001D03*
D43*
X26829999Y81150001D03*
D17*
X34449999Y81150001D03*
D43*
X24289999Y81150001D03*
D17*
X29369999Y81150001D03*
D22*
X23100000Y53200000D03*
D22*
X23100000Y54300000D03*
D29*
X1080001Y34193327D03*
D29*
X2180001Y34193327D03*
D14*
X26300000Y51000000D03*
D14*
X26300000Y51900000D03*
D25*
X15870000Y62550000D03*
D25*
X14770000Y62550000D03*
D30*
X12250000Y53500000D03*
D30*
X12250000Y52400000D03*
D29*
X19850000Y33250000D03*
D29*
X20950000Y33250000D03*
D22*
X4800000Y53200000D03*
D22*
X4800000Y54300000D03*
D14*
X22050000Y53500000D03*
D14*
X22050000Y54400000D03*
D25*
X23495000Y62550000D03*
D25*
X22395000Y62550000D03*
D25*
X33300000Y62550000D03*
D25*
X32200000Y62550000D03*
D14*
X15000000Y29900000D03*
D14*
X15000000Y30800000D03*
D22*
X2230001Y29843327D03*
D22*
X2230001Y30943327D03*
D22*
X2100000Y56600000D03*
D22*
X2100000Y57700000D03*
D29*
X19350000Y41000000D03*
D29*
X20450000Y41000000D03*
D14*
X28400000Y53500000D03*
D14*
X28400000Y54400000D03*
D55*
X34000000Y4700000D03*
D14*
X26779998Y30000000D03*
D14*
X26779998Y30900000D03*
D21*
X36200000Y42250000D03*
D21*
X36200000Y41350000D03*
D14*
X32800000Y35550000D03*
D14*
X32800000Y36450000D03*
D38*
X36300000Y53800000D03*
D39*
X34500000Y53800000D03*
D22*
X23100000Y51000000D03*
D22*
X23100000Y52100000D03*
D23*
X6600000Y18800000D03*
D23*
X6600000Y15800000D03*
D56*
X30950000Y49150000D03*
D57*
X27850000Y49150000D03*
D56*
X30950000Y49650000D03*
D56*
X30950000Y48150000D03*
D56*
X30950000Y48650000D03*
D57*
X27850000Y48150000D03*
D57*
X27850000Y48650000D03*
D57*
X27850000Y49650000D03*
D23*
X8800000Y18800000D03*
D23*
X8800000Y15800000D03*
D14*
X27879998Y30000000D03*
D14*
X27879998Y30900000D03*
D30*
X20700000Y49200000D03*
D22*
X19700000Y49200000D03*
D35*
X33050002Y74319992D03*
D36*
X32415002Y69979992D03*
D37*
X34955002Y69979992D03*
D26*
X20850000Y31850000D03*
D26*
X19350000Y31850000D03*
D14*
X27000000Y41350000D03*
D14*
X27000000Y42250000D03*
D28*
X38400000Y48633330D03*
D28*
X39300000Y48633330D03*
D21*
X32900000Y44050000D03*
D21*
X32900000Y43150000D03*
D27*
X38400000Y24350000D03*
D38*
X36300000Y57800000D03*
D39*
X34500000Y57800000D03*
D22*
X27350000Y53200000D03*
D22*
X27350000Y54300000D03*
D14*
X5850000Y51000000D03*
D14*
X5850000Y51900000D03*
D42*
X18650000Y51750000D03*
D42*
X17750000Y51750000D03*
D22*
X32800000Y38550000D03*
D22*
X32800000Y39650000D03*
D28*
X27779998Y31900000D03*
D28*
X28679998Y31900000D03*
D23*
X4500000Y18800000D03*
D23*
X4500000Y15800000D03*
D14*
X3750000Y53500000D03*
D14*
X3750000Y54400000D03*
D25*
X15000000Y31750000D03*
D25*
X13900000Y31750000D03*
D14*
X11500000Y51750000D03*
D14*
X11500000Y52650000D03*
D21*
X13650000Y64400000D03*
D21*
X13650000Y63500000D03*
D38*
X36300000Y59800000D03*
D39*
X34500000Y59800000D03*
D21*
X24800000Y44050000D03*
D21*
X24800000Y43150000D03*
D29*
X12800000Y32750000D03*
D29*
X13900000Y32750000D03*
D58*
X695990Y33237220D03*
D59*
X5637915Y50560032D03*
D60*
X6800000Y64850000D03*
D61*
X9154010Y46994497D03*
D60*
X26575000Y64150000D03*
D58*
X19300000Y50300000D03*
D61*
X25775000Y64150000D03*
D60*
X21343331Y49236671D03*
D61*
X12250000Y36800000D03*
D60*
X6050000Y13950000D03*
D59*
X6000000Y64150000D03*
D60*
X22000000Y38750000D03*
D60*
X12004010Y32750000D03*
D58*
X36100000Y62550000D03*
D60*
X25775000Y64850000D03*
D61*
X31900000Y51500000D03*
D61*
X27200000Y57850000D03*
D60*
X23100000Y59145990D03*
D58*
X11050000Y53450000D03*
D59*
X7600000Y64150000D03*
D59*
X37150000Y64150000D03*
D60*
X25479998Y39750000D03*
D60*
X28595990Y32034008D03*
D58*
X20700000Y58550000D03*
D59*
X36800000Y24350000D03*
D58*
X14800000Y71200000D03*
D60*
X23000000Y56550000D03*
D60*
X18900000Y51000000D03*
D61*
X29150000Y71200000D03*
D59*
X10950000Y9700000D03*
D61*
X11407021Y38800217D03*
D60*
X28079998Y44000000D03*
D58*
X18500000Y25200000D03*
D60*
X16800000Y55550000D03*
D61*
X3880001Y36230001D03*
D62*
X14556669Y47813329D03*
D58*
X36850000Y26150000D03*
D60*
X2100000Y55650000D03*
D61*
X25150000Y51000000D03*
D61*
X12100000Y54550000D03*
D58*
X3550000Y13650000D03*
D62*
X13700000Y48650000D03*
D60*
X2950000Y13650000D03*
D58*
X35550000Y64150000D03*
D61*
X20050000Y26750000D03*
D59*
X32250000Y31050000D03*
D61*
X34450000Y71050000D03*
D60*
X29050000Y40900000D03*
D58*
X25150000Y49000000D03*
D61*
X22250000Y40450000D03*
D58*
X7100000Y57900000D03*
D60*
X16967292Y50715559D03*
D60*
X8900000Y57850000D03*
D61*
X2400000Y58550000D03*
D60*
X10301652Y45521670D03*
D60*
X16700000Y64850000D03*
D60*
X36350000Y64850000D03*
D61*
X15900000Y64150000D03*
D60*
X10800000Y54700000D03*
D60*
X32779998Y37300000D03*
D58*
X27375000Y64850000D03*
D60*
X8707021Y37000000D03*
D61*
X22000000Y37550000D03*
D61*
X6600000Y62550000D03*
D60*
X30150000Y46450000D03*
D60*
X28600000Y30000000D03*
D58*
X24350000Y31829998D03*
D58*
X17600000Y26150000D03*
D61*
X17000000Y45150000D03*
D60*
X24800000Y42600000D03*
D60*
X15500000Y51750000D03*
D58*
X36750000Y22900000D03*
D58*
X15150000Y37200000D03*
D61*
X5100000Y1650000D03*
D59*
X11500000Y56050000D03*
D60*
X9350000Y71200000D03*
D58*
X6800000Y64150000D03*
D58*
X2000000Y62550000D03*
D60*
X11039963Y50295990D03*
D59*
X27375000Y64150000D03*
D60*
X37150000Y64850000D03*
D61*
X13942979Y43460899D03*
D61*
X1295990Y29880622D03*
D59*
X24300000Y53450000D03*
D61*
X6000000Y53450000D03*
D58*
X11904010Y62550000D03*
D60*
X9050000Y13950000D03*
D58*
X27000000Y59850000D03*
D60*
X37650000Y61050000D03*
D59*
X6032004Y70700000D03*
D59*
X29050000Y55050000D03*
D58*
X31900000Y50250000D03*
D60*
X14400000Y52850000D03*
D60*
X33579998Y39750000D03*
D60*
X2900000Y53550000D03*
D58*
X26200000Y50250000D03*
D61*
X20433067Y56054010D03*
D59*
X22300000Y35500000D03*
D61*
X22100000Y50950000D03*
D58*
X31200000Y42050000D03*
D58*
X31900000Y47450000D03*
D60*
X31550000Y62550000D03*
D59*
X900000Y21600000D03*
D59*
X4150000Y14250000D03*
D58*
X19450000Y55400000D03*
D59*
X3550000Y14250000D03*
D61*
X2350000Y13650000D03*
D58*
X3837662Y51014275D03*
D60*
X17500000Y64850000D03*
D61*
X30350000Y50200000D03*
D61*
X33550000Y57800000D03*
D58*
X4700000Y56550000D03*
D59*
X14236313Y42711224D03*
D58*
X33550000Y53800000D03*
D60*
X10900000Y51850000D03*
D61*
X8900000Y33700000D03*
D58*
X18520002Y31850000D03*
D60*
X4900000Y71050000D03*
D58*
X35550000Y64850000D03*
D61*
X6000000Y64850000D03*
D60*
X3500000Y37450000D03*
D58*
X10556252Y40175786D03*
D60*
X16700000Y64150000D03*
D58*
X10100000Y46347709D03*
D61*
X20800000Y52650000D03*
D60*
X20850000Y29100000D03*
D60*
X39000000Y71200000D03*
D60*
X16100000Y32000000D03*
D58*
X20400000Y46150000D03*
D60*
X20500000Y47350000D03*
D58*
X2950000Y14250000D03*
D61*
X2250000Y37200000D03*
D60*
X39300000Y47850000D03*
D61*
X3800000Y50157021D03*
D58*
X16841081Y53550000D03*
D58*
X11350000Y31050000D03*
D60*
X9800000Y13950000D03*
D60*
X36750000Y30000000D03*
D60*
X21675000Y62550000D03*
D59*
X7600000Y64850000D03*
D60*
X33550000Y55800000D03*
D60*
X16600000Y40800000D03*
D59*
X12750000Y41300000D03*
D60*
X33079998Y42400000D03*
D60*
X7826695Y50560032D03*
D61*
X26575000Y64850000D03*
D62*
X15500000Y48650000D03*
D60*
X17700000Y41500000D03*
D60*
X16000000Y44150000D03*
D60*
X11650000Y61100000D03*
D59*
X36350000Y64150000D03*
D60*
X8000000Y59850000D03*
D58*
X24675000Y71050000D03*
D60*
X8300000Y13950000D03*
D61*
X9652517Y49445990D03*
D61*
X37279998Y41200000D03*
D60*
X22000000Y38150000D03*
D60*
X6495990Y37442482D03*
D60*
X25395999Y57236079D03*
D60*
X37179998Y44000000D03*
D61*
X16600000Y62550000D03*
D60*
X7800000Y53450000D03*
D58*
X28750000Y49150000D03*
D58*
X26100000Y53450000D03*
D58*
X19800000Y34029998D03*
D59*
X2650000Y49795990D03*
D58*
X2000000Y43450000D03*
D60*
X4737545Y59087545D03*
D58*
X9795990Y38066164D03*
D61*
X2350000Y14250000D03*
D58*
X19150000Y27750000D03*
D60*
X12550000Y42092970D03*
D58*
X6800000Y13950000D03*
D60*
X34950000Y20500000D03*
D60*
X15900000Y64850000D03*
D61*
X1604010Y48399999D03*
D60*
X2050000Y49100000D03*
D61*
X1400000Y57750000D03*
D58*
X15499785Y42024875D03*
D59*
X23800000Y43950000D03*
D61*
X17500000Y64150000D03*
D58*
X31900000Y50850000D03*
D59*
X19301638Y54326728D03*
D60*
X9545990Y36884011D03*
D61*
X19250000Y71200000D03*
D61*
X10628398Y43650000D03*
D58*
X28500000Y50950000D03*
D61*
X37479998Y31900000D03*
D58*
X14450990Y55706696D03*
D61*
X9726787Y51353462D03*
D61*
X24480891Y56105981D03*
D60*
X13650000Y52000000D03*
D58*
X15100000Y52450000D03*
D60*
X26375000Y62550000D03*
D60*
X30100000Y49150000D03*
D58*
X23400000Y30050000D03*
D58*
X8800000Y41450000D03*
D61*
X7600000Y13950000D03*
D58*
X7262545Y57112545D03*
D58*
X6411312Y56013778D03*
D61*
X21200000Y53550000D03*
D60*
X4150000Y13650000D03*
D58*
X12181933Y44256843D03*
D59*
X19700000Y57750000D03*
D60*
X17000000Y57450000D03*
D60*
X24679998Y37400000D03*
D58*
X5250000Y13950000D03*
M02*
