M48
FMAT,2
METRIC,TZ
T5C0.254
T3C1.000
T2C1.100
T4C2.375
T1C5.250
%
G90
G05
M71
T5
X0.696Y33.237
X5.638Y50.560
X6.800Y64.850
X9.154Y46.994
X26.575Y64.150
X19.300Y50.300
X25.775Y64.150
X21.343Y49.237
X12.250Y36.800
X6.050Y13.950
X6.000Y64.150
X22.000Y38.750
X12.004Y32.750
X36.100Y62.550
X25.775Y64.850
X31.900Y51.500
X27.200Y57.850
X23.100Y59.146
X11.050Y53.450
X7.600Y64.150
X37.150Y64.150
X25.480Y39.750
X28.596Y32.034
X20.700Y58.550
X36.800Y24.350
X14.800Y71.200
X23.000Y56.550
X18.900Y51.000
X29.150Y71.200
X10.950Y9.700
X11.407Y38.800
X28.080Y44.000
X18.500Y25.200
X16.800Y55.550
X3.880Y36.230
X14.557Y47.813
X36.850Y26.150
X2.100Y55.650
X25.150Y51.000
X12.100Y54.550
X3.550Y13.650
X13.700Y48.650
X2.950Y13.650
X35.550Y64.150
X20.050Y26.750
X32.250Y31.050
X34.450Y71.050
X29.050Y40.900
X25.150Y49.000
X22.250Y40.450
X7.100Y57.900
X16.967Y50.716
X8.900Y57.850
X2.400Y58.550
X10.302Y45.522
X16.700Y64.850
X36.350Y64.850
X15.900Y64.150
X10.800Y54.700
X32.780Y37.300
X27.375Y64.850
X8.707Y37.000
X22.000Y37.550
X6.600Y62.550
X30.150Y46.450
X28.600Y30.000
X24.350Y31.830
X17.600Y26.150
X17.000Y45.150
X24.800Y42.600
X15.500Y51.750
X36.750Y22.900
X15.150Y37.200
X5.100Y1.650
X11.500Y56.050
X9.350Y71.200
X6.800Y64.150
X2.000Y62.550
X11.040Y50.296
X27.375Y64.150
X37.150Y64.850
X13.943Y43.461
X1.296Y29.881
X24.300Y53.450
X6.000Y53.450
X11.904Y62.550
X9.050Y13.950
X27.000Y59.850
X37.650Y61.050
X6.032Y70.700
X29.050Y55.050
X31.900Y50.250
X14.400Y52.850
X33.580Y39.750
X2.900Y53.550
X26.200Y50.250
X20.433Y56.054
X22.300Y35.500
X22.100Y50.950
X31.200Y42.050
X31.900Y47.450
X31.550Y62.550
X0.900Y21.600
X4.150Y14.250
X19.450Y55.400
X3.550Y14.250
X2.350Y13.650
X3.838Y51.014
X17.500Y64.850
X30.350Y50.200
X33.550Y57.800
X4.700Y56.550
X14.236Y42.711
X33.550Y53.800
X10.900Y51.850
X8.900Y33.700
X18.520Y31.850
X4.900Y71.050
X35.550Y64.850
X6.000Y64.850
X3.500Y37.450
X10.556Y40.176
X16.700Y64.150
X10.100Y46.348
X20.800Y52.650
X20.850Y29.100
X39.000Y71.200
X16.100Y32.000
X20.400Y46.150
X20.500Y47.350
X2.950Y14.250
X2.250Y37.200
X39.300Y47.850
X3.800Y50.157
X16.841Y53.550
X11.350Y31.050
X9.800Y13.950
X36.750Y30.000
X21.675Y62.550
X7.600Y64.850
X33.550Y55.800
X16.600Y40.800
X12.750Y41.300
X33.080Y42.400
X7.827Y50.560
X26.575Y64.850
X15.500Y48.650
X17.700Y41.500
X16.000Y44.150
X11.650Y61.100
X36.350Y64.150
X8.000Y59.850
X24.675Y71.050
X8.300Y13.950
X9.653Y49.446
X37.280Y41.200
X22.000Y38.150
X6.496Y37.442
X25.396Y57.236
X37.180Y44.000
X16.600Y62.550
X7.800Y53.450
X28.750Y49.150
X26.100Y53.450
X19.800Y34.030
X2.650Y49.796
X2.000Y43.450
X4.738Y59.088
X9.796Y38.066
X2.350Y14.250
X19.150Y27.750
X12.550Y42.093
X6.800Y13.950
X34.950Y20.500
X15.900Y64.850
X1.604Y48.400
X2.050Y49.100
X1.400Y57.750
X15.500Y42.025
X23.800Y43.950
X17.500Y64.150
X31.900Y50.850
X19.302Y54.327
X9.546Y36.884
X19.250Y71.200
X10.628Y43.650
X28.500Y50.950
X37.480Y31.900
X14.451Y55.707
X9.727Y51.353
X24.481Y56.106
X13.650Y52.000
X15.100Y52.450
X26.375Y62.550
X30.100Y49.150
X23.400Y30.050
X8.800Y41.450
X7.600Y13.950
X7.263Y57.113
X6.411Y56.014
X21.200Y53.550
X4.150Y13.650
X12.182Y44.257
X19.700Y57.750
X17.000Y57.450
X24.680Y37.400
X5.250Y13.950
T3
X8.537Y45.329
X8.537Y43.297
X3.457Y44.313
T2
X21.550Y22.250
X29.050Y22.250
X24.050Y22.250
X26.550Y22.250
X3.200Y22.150
X13.360Y22.150
X8.280Y22.150
X15.900Y22.150
X5.740Y22.150
X10.820Y22.150
X3.200Y26.850
X13.360Y26.850
X8.280Y26.850
X15.900Y26.850
X5.740Y26.850
X10.820Y26.850
X3.350Y81.150
X13.510Y81.150
X8.430Y81.150
X16.050Y81.150
X5.890Y81.150
X10.970Y81.150
X21.550Y26.850
X29.050Y26.850
X24.050Y26.850
X26.550Y26.850
X21.750Y81.150
X31.910Y81.150
X26.830Y81.150
X34.450Y81.150
X24.290Y81.150
X29.370Y81.150
T4
X6.632Y41.773
X3.457Y46.853
X3.457Y41.773
X6.632Y46.853
T1
X14.750Y4.700
X34.000Y15.150
X24.300Y15.150
X24.300Y4.700
X34.000Y4.700
M30
