%FSLAX46Y46*%
%MOMM*%
%AMPS10*
1,1,0.200000,-0.300000,-0.275000*
1,1,0.200000,-0.300000,0.275000*
21,1,0.800000,0.550000,0.000000,0.000000,0.000000*
21,1,0.600000,0.750000,0.000000,0.000000,0.000000*
1,1,0.200000,0.300000,-0.275000*
1,1,0.200000,0.300000,0.275000*
%
%ADD10PS10*%
%AMPS16*
1,1,0.200000,0.275000,-0.300000*
1,1,0.200000,-0.275000,-0.300000*
21,1,0.800000,0.550000,0.000000,0.000000,90.000000*
21,1,0.600000,0.750000,0.000000,0.000000,90.000000*
1,1,0.200000,0.275000,0.300000*
1,1,0.200000,-0.275000,0.300000*
%
%ADD16PS16*%
%AMPS19*
1,1,0.200000,0.300000,0.275000*
1,1,0.200000,0.300000,-0.275000*
21,1,0.800000,0.550000,0.000000,0.000000,180.000000*
21,1,0.600000,0.750000,0.000000,0.000000,180.000000*
1,1,0.200000,-0.300000,0.275000*
1,1,0.200000,-0.300000,-0.275000*
%
%ADD19PS19*%
%AMPS26*
1,1,0.200000,-0.275000,0.300000*
1,1,0.200000,0.275000,0.300000*
21,1,0.800000,0.550000,0.000000,0.000000,270.000000*
21,1,0.600000,0.750000,0.000000,0.000000,270.000000*
1,1,0.200000,-0.275000,-0.300000*
1,1,0.200000,0.275000,-0.300000*
%
%ADD26PS26*%
%AMPS43*
1,1,0.240000,-0.180000,-0.535000*
1,1,0.240000,-0.180000,0.535000*
21,1,0.600000,1.070000,0.000000,0.000000,0.000000*
21,1,0.360000,1.310000,0.000000,0.000000,0.000000*
1,1,0.240000,0.180000,-0.535000*
1,1,0.240000,0.180000,0.535000*
%
%ADD43PS43*%
%AMPS42*
1,1,0.240000,0.180000,0.535000*
1,1,0.240000,0.180000,-0.535000*
21,1,0.600000,1.070000,0.000000,0.000000,180.000000*
21,1,0.360000,1.310000,0.000000,0.000000,180.000000*
1,1,0.240000,-0.180000,0.535000*
1,1,0.240000,-0.180000,-0.535000*
%
%ADD42PS42*%
%AMPS23*
1,1,0.200000,-0.400000,-0.525000*
1,1,0.200000,-0.400000,0.525000*
21,1,1.000000,1.050000,0.000000,0.000000,0.000000*
21,1,0.800000,1.250000,0.000000,0.000000,0.000000*
1,1,0.200000,0.400000,-0.525000*
1,1,0.200000,0.400000,0.525000*
%
%ADD23PS23*%
%AMPS22*
1,1,0.200000,0.525000,-0.400000*
1,1,0.200000,-0.525000,-0.400000*
21,1,1.000000,1.050000,0.000000,0.000000,90.000000*
21,1,0.800000,1.250000,0.000000,0.000000,90.000000*
1,1,0.200000,0.525000,0.400000*
1,1,0.200000,-0.525000,0.400000*
%
%ADD22PS22*%
%AMPS13*
1,1,0.200000,0.400000,0.525000*
1,1,0.200000,0.400000,-0.525000*
21,1,1.000000,1.050000,0.000000,0.000000,180.000000*
21,1,0.800000,1.250000,0.000000,0.000000,180.000000*
1,1,0.200000,-0.400000,0.525000*
1,1,0.200000,-0.400000,-0.525000*
%
%ADD13PS13*%
%AMPS33*
1,1,0.200000,-0.525000,0.400000*
1,1,0.200000,0.525000,0.400000*
21,1,1.000000,1.050000,0.000000,0.000000,270.000000*
21,1,0.800000,1.250000,0.000000,0.000000,270.000000*
1,1,0.200000,-0.525000,-0.400000*
1,1,0.200000,0.525000,-0.400000*
%
%ADD33PS33*%
%AMPS14*
1,1,0.500000,-1.440000,-0.940000*
1,1,0.500000,-1.440000,0.940000*
21,1,3.380000,1.880000,0.000000,0.000000,0.000000*
21,1,2.880000,2.380000,0.000000,0.000000,0.000000*
1,1,0.500000,1.440000,-0.940000*
1,1,0.500000,1.440000,0.940000*
%
%ADD14PS14*%
%AMPS32*
1,1,0.500000,0.940000,-1.440000*
1,1,0.500000,-0.940000,-1.440000*
21,1,3.380000,1.880000,0.000000,0.000000,90.000000*
21,1,2.880000,2.380000,0.000000,0.000000,90.000000*
1,1,0.500000,0.940000,1.440000*
1,1,0.500000,-0.940000,1.440000*
%
%ADD32PS32*%
%AMPS15*
1,1,0.500000,1.440000,0.940000*
1,1,0.500000,1.440000,-0.940000*
21,1,3.380000,1.880000,0.000000,0.000000,180.000000*
21,1,2.880000,2.380000,0.000000,0.000000,180.000000*
1,1,0.500000,-1.440000,0.940000*
1,1,0.500000,-1.440000,-0.940000*
%
%ADD15PS15*%
%AMPS31*
1,1,0.500000,-0.940000,1.440000*
1,1,0.500000,0.940000,1.440000*
21,1,3.380000,1.880000,0.000000,0.000000,270.000000*
21,1,2.880000,2.380000,0.000000,0.000000,270.000000*
1,1,0.500000,-0.940000,-1.440000*
1,1,0.500000,0.940000,-1.440000*
%
%ADD31PS31*%
%AMPS41*
1,1,0.200000,2.110000,-1.640000*
1,1,0.200000,-2.110000,-1.640000*
21,1,3.480000,4.220000,0.000000,0.000000,90.000000*
21,1,3.280000,4.420000,0.000000,0.000000,90.000000*
1,1,0.200000,2.110000,1.640000*
1,1,0.200000,-2.110000,1.640000*
%
%ADD41PS41*%
%AMPS21*
1,1,0.240000,0.685000,-0.185000*
1,1,0.240000,-0.685000,-0.185000*
21,1,0.610000,1.370000,0.000000,0.000000,90.000000*
21,1,0.370000,1.610000,0.000000,0.000000,90.000000*
1,1,0.240000,0.685000,0.185000*
1,1,0.240000,-0.685000,0.185000*
%
%ADD21PS21*%
%AMPS20*
1,1,0.240000,-0.685000,0.185000*
1,1,0.240000,0.685000,0.185000*
21,1,0.610000,1.370000,0.000000,0.000000,270.000000*
21,1,0.370000,1.610000,0.000000,0.000000,270.000000*
1,1,0.240000,-0.685000,-0.185000*
1,1,0.240000,0.685000,-0.185000*
%
%ADD20PS20*%
%AMPS40*
1,1,0.200000,-0.050000,-0.675000*
1,1,0.200000,-0.050000,0.675000*
21,1,0.300000,1.350000,0.000000,0.000000,0.000000*
21,1,0.100000,1.550000,0.000000,0.000000,0.000000*
1,1,0.200000,0.050000,-0.675000*
1,1,0.200000,0.050000,0.675000*
%
%ADD40PS40*%
%AMPS39*
1,1,0.200000,0.050000,0.675000*
1,1,0.200000,0.050000,-0.675000*
21,1,0.300000,1.350000,0.000000,0.000000,180.000000*
21,1,0.100000,1.550000,0.000000,0.000000,180.000000*
1,1,0.200000,-0.050000,0.675000*
1,1,0.200000,-0.050000,-0.675000*
%
%ADD39PS39*%
%AMPS34*
1,1,0.520000,-0.380000,-0.410000*
1,1,0.520000,-0.380000,0.410000*
21,1,1.280000,0.820000,0.000000,0.000000,0.000000*
21,1,0.760000,1.340000,0.000000,0.000000,0.000000*
1,1,0.520000,0.380000,-0.410000*
1,1,0.520000,0.380000,0.410000*
%
%ADD34PS34*%
%AMPS29*
1,1,0.520000,0.410000,-0.380000*
1,1,0.520000,-0.410000,-0.380000*
21,1,1.280000,0.820000,0.000000,0.000000,90.000000*
21,1,0.760000,1.340000,0.000000,0.000000,90.000000*
1,1,0.520000,0.410000,0.380000*
1,1,0.520000,-0.410000,0.380000*
%
%ADD29PS29*%
%AMPS35*
1,1,0.520000,0.380000,0.410000*
1,1,0.520000,0.380000,-0.410000*
21,1,1.280000,0.820000,0.000000,0.000000,180.000000*
21,1,0.760000,1.340000,0.000000,0.000000,180.000000*
1,1,0.520000,-0.380000,0.410000*
1,1,0.520000,-0.380000,-0.410000*
%
%ADD35PS35*%
%AMPS30*
1,1,0.520000,-0.410000,0.380000*
1,1,0.520000,0.410000,0.380000*
21,1,1.280000,0.820000,0.000000,0.000000,270.000000*
21,1,0.760000,1.340000,0.000000,0.000000,270.000000*
1,1,0.520000,-0.410000,-0.380000*
1,1,0.520000,0.410000,-0.380000*
%
%ADD30PS30*%
%AMPS38*
1,1,0.100000,-0.100000,-0.700000*
1,1,0.100000,-0.100000,0.700000*
21,1,0.300000,1.400000,0.000000,0.000000,0.000000*
21,1,0.200000,1.500000,0.000000,0.000000,0.000000*
1,1,0.100000,0.100000,-0.700000*
1,1,0.100000,0.100000,0.700000*
%
%ADD38PS38*%
%AMPS18*
1,1,0.100000,0.700000,-0.100000*
1,1,0.100000,-0.700000,-0.100000*
21,1,0.300000,1.400000,0.000000,0.000000,90.000000*
21,1,0.200000,1.500000,0.000000,0.000000,90.000000*
1,1,0.100000,0.700000,0.100000*
1,1,0.100000,-0.700000,0.100000*
%
%ADD18PS18*%
%AMPS37*
1,1,0.100000,0.100000,0.700000*
1,1,0.100000,0.100000,-0.700000*
21,1,0.300000,1.400000,0.000000,0.000000,180.000000*
21,1,0.200000,1.500000,0.000000,0.000000,180.000000*
1,1,0.100000,-0.100000,0.700000*
1,1,0.100000,-0.100000,-0.700000*
%
%ADD37PS37*%
%AMPS17*
1,1,0.100000,-0.700000,0.100000*
1,1,0.100000,0.700000,0.100000*
21,1,0.300000,1.400000,0.000000,0.000000,270.000000*
21,1,0.200000,1.500000,0.000000,0.000000,270.000000*
1,1,0.100000,-0.700000,-0.100000*
1,1,0.100000,0.700000,-0.100000*
%
%ADD17PS17*%
%AMPS27*
1,1,0.200000,-0.400000,-0.700000*
1,1,0.200000,-0.400000,0.700000*
21,1,1.000000,1.400000,0.000000,0.000000,0.000000*
21,1,0.800000,1.600000,0.000000,0.000000,0.000000*
1,1,0.200000,0.400000,-0.700000*
1,1,0.200000,0.400000,0.700000*
%
%ADD27PS27*%
%AMPS44*
1,1,0.280000,-0.205000,-0.305000*
1,1,0.280000,-0.205000,0.305000*
21,1,0.690000,0.610000,0.000000,0.000000,0.000000*
21,1,0.410000,0.890000,0.000000,0.000000,0.000000*
1,1,0.280000,0.205000,-0.305000*
1,1,0.280000,0.205000,0.305000*
%
%ADD44PS44*%
%AMPS25*
1,1,0.280000,0.305000,-0.205000*
1,1,0.280000,-0.305000,-0.205000*
21,1,0.690000,0.610000,0.000000,0.000000,90.000000*
21,1,0.410000,0.890000,0.000000,0.000000,90.000000*
1,1,0.280000,0.305000,0.205000*
1,1,0.280000,-0.305000,0.205000*
%
%ADD25PS25*%
%AMPS45*
1,1,0.280000,0.205000,0.305000*
1,1,0.280000,0.205000,-0.305000*
21,1,0.690000,0.610000,0.000000,0.000000,180.000000*
21,1,0.410000,0.890000,0.000000,0.000000,180.000000*
1,1,0.280000,-0.205000,0.305000*
1,1,0.280000,-0.205000,-0.305000*
%
%ADD45PS45*%
%AMPS24*
1,1,0.280000,-0.305000,0.205000*
1,1,0.280000,0.305000,0.205000*
21,1,0.690000,0.610000,0.000000,0.000000,270.000000*
21,1,0.410000,0.890000,0.000000,0.000000,270.000000*
1,1,0.280000,-0.305000,-0.205000*
1,1,0.280000,0.305000,-0.205000*
%
%ADD24PS24*%
%AMPS28*
1,1,0.200000,-0.150000,-0.350000*
1,1,0.200000,-0.150000,0.350000*
21,1,0.500000,0.700000,0.000000,0.000000,0.000000*
21,1,0.300000,0.900000,0.000000,0.000000,0.000000*
1,1,0.200000,0.150000,-0.350000*
1,1,0.200000,0.150000,0.350000*
%
%ADD28PS28*%
%AMPS11*
1,1,0.200000,0.350000,-0.150000*
1,1,0.200000,-0.350000,-0.150000*
21,1,0.500000,0.700000,0.000000,0.000000,90.000000*
21,1,0.300000,0.900000,0.000000,0.000000,90.000000*
1,1,0.200000,0.350000,0.150000*
1,1,0.200000,-0.350000,0.150000*
%
%ADD11PS11*%
%AMPS36*
1,1,0.200000,0.150000,0.350000*
1,1,0.200000,0.150000,-0.350000*
21,1,0.500000,0.700000,0.000000,0.000000,180.000000*
21,1,0.300000,0.900000,0.000000,0.000000,180.000000*
1,1,0.200000,-0.150000,0.350000*
1,1,0.200000,-0.150000,-0.350000*
%
%ADD36PS36*%
%AMPS12*
1,1,0.200000,-0.350000,0.150000*
1,1,0.200000,0.350000,0.150000*
21,1,0.500000,0.700000,0.000000,0.000000,270.000000*
21,1,0.300000,0.900000,0.000000,0.000000,270.000000*
1,1,0.200000,-0.350000,-0.150000*
1,1,0.200000,0.350000,-0.150000*
%
%ADD12PS12*%
G01*
G01*
%LPD*%
G75*
D10*
X5950000Y-7225829D03*
D10*
X4450000Y-7225829D03*
D11*
X10970000Y4750000D03*
D11*
X10970000Y6250000D03*
D12*
X-900000Y-4050000D03*
D12*
X-900000Y-5550000D03*
D13*
X-1700056Y15900008D03*
D13*
X-3700056Y15900008D03*
D14*
X28900000Y-15110000D03*
D15*
X28900000Y-10290000D03*
D11*
X26400000Y5150000D03*
D11*
X26400000Y6650000D03*
D11*
X24900000Y5150000D03*
D11*
X24900000Y6650000D03*
D16*
X9400000Y18250000D03*
D16*
X9400000Y16750000D03*
D12*
X500000Y-10350000D03*
D12*
X500000Y-11850000D03*
D17*
X25100000Y17500000D03*
D18*
X29300000Y17500000D03*
D17*
X25100000Y16000000D03*
D18*
X29300000Y16000000D03*
D17*
X25100000Y15500000D03*
D17*
X25100000Y16500000D03*
D18*
X29300000Y16500000D03*
D18*
X29300000Y15500000D03*
D18*
X29300000Y17000000D03*
D17*
X25100000Y17000000D03*
D10*
X27850000Y7900000D03*
D10*
X26350000Y7900000D03*
D12*
X-900000Y-10350000D03*
D12*
X-900000Y-11850000D03*
D19*
X8050000Y8400000D03*
D19*
X9550000Y8400000D03*
D20*
X3240000Y10140000D03*
D21*
X8560000Y10140000D03*
D20*
X3240000Y13960000D03*
D20*
X3240000Y12690000D03*
D21*
X8560000Y11410000D03*
D21*
X8560000Y12690000D03*
D21*
X8560000Y13960000D03*
D20*
X3240000Y11410000D03*
D10*
X20700000Y7650000D03*
D10*
X19200000Y7650000D03*
D22*
X17000008Y16800056D03*
D22*
X17000008Y18800056D03*
D23*
X16000056Y-19400008D03*
D23*
X18000056Y-19400008D03*
D10*
X12420000Y7500000D03*
D10*
X10920000Y7500000D03*
D24*
X11890000Y14900000D03*
D25*
X13310000Y14900000D03*
D12*
X500000Y-4050000D03*
D12*
X500000Y-5550000D03*
D26*
X8500000Y-21050000D03*
D26*
X8500000Y-19550000D03*
D12*
X600000Y-17250000D03*
D12*
X600000Y-18750000D03*
D10*
X12850000Y-7375829D03*
D10*
X11350000Y-7375829D03*
D27*
X16500000Y-6300000D03*
D27*
X19500000Y-6300000D03*
D26*
X1500000Y11150000D03*
D26*
X1500000Y12650000D03*
D26*
X13500000Y11050000D03*
D26*
X13500000Y12550000D03*
D28*
X4850000Y-34500000D03*
D28*
X6350000Y-34500000D03*
D29*
X10800000Y-33000000D03*
D30*
X9000000Y-33000000D03*
D12*
X-4900000Y-20650000D03*
D12*
X-4900000Y-22150000D03*
D16*
X-2700000Y18950000D03*
D16*
X-2700000Y17450000D03*
D19*
X27850000Y19200000D03*
D19*
X29350000Y19200000D03*
D14*
X25000000Y-15110000D03*
D15*
X25000000Y-10290000D03*
D20*
X15140000Y10490000D03*
D21*
X20460000Y10490000D03*
D20*
X15140000Y14310000D03*
D20*
X15140000Y13040000D03*
D21*
X20460000Y11760000D03*
D21*
X20460000Y13040000D03*
D21*
X20460000Y14310000D03*
D20*
X15140000Y11760000D03*
D14*
X26700000Y-6860000D03*
D15*
X26700000Y-2040000D03*
D31*
X7300000Y-2720000D03*
D32*
X12120000Y-2720000D03*
D28*
X12350000Y-34500000D03*
D28*
X13850000Y-34500000D03*
D33*
X17999992Y-8750056D03*
D33*
X17999992Y-10750056D03*
D28*
X18470000Y16200000D03*
D28*
X19970000Y16200000D03*
D34*
X500000Y-15700000D03*
D35*
X500000Y-13900000D03*
D10*
X7957489Y-5725829D03*
D10*
X6457489Y-5725829D03*
D16*
X18600000Y19050000D03*
D16*
X18600000Y17550000D03*
D33*
X14299992Y-19200056D03*
D33*
X14299992Y-21200056D03*
D12*
X-3400000Y-10350000D03*
D12*
X-3400000Y-11850000D03*
D36*
X-3600000Y-23400000D03*
D36*
X-5100000Y-23400000D03*
D22*
X23300008Y17400056D03*
D22*
X23300008Y19400056D03*
D12*
X-4800000Y-10350000D03*
D12*
X-4800000Y-11850000D03*
D11*
X17600000Y6000000D03*
D11*
X17600000Y7500000D03*
D19*
X-650000Y1000000D03*
D19*
X850000Y1000000D03*
D18*
X15300000Y16600000D03*
D17*
X11100000Y16600000D03*
D18*
X15300000Y18100000D03*
D17*
X11100000Y18100000D03*
D18*
X15300000Y18600000D03*
D18*
X15300000Y17600000D03*
D17*
X11100000Y17600000D03*
D17*
X11100000Y18600000D03*
D17*
X11100000Y17100000D03*
D18*
X15300000Y17100000D03*
D26*
X22500000Y10550000D03*
D26*
X22500000Y12050000D03*
D29*
X3300000Y-33100000D03*
D30*
X1500000Y-33100000D03*
D12*
X-4900000Y-17150000D03*
D12*
X-4900000Y-18650000D03*
D37*
X-1700000Y14200000D03*
D38*
X-1700000Y10000000D03*
D37*
X-3200000Y14200000D03*
D38*
X-3200000Y10000000D03*
D37*
X-3700000Y14200000D03*
D37*
X-2700000Y14200000D03*
D38*
X-2700000Y10000000D03*
D38*
X-3700000Y10000000D03*
D38*
X-2200000Y10000000D03*
D37*
X-2200000Y14200000D03*
D14*
X21100000Y-15110000D03*
D15*
X21100000Y-10290000D03*
D34*
X500000Y-2500000D03*
D35*
X500000Y-700000D03*
D34*
X-3400000Y-2500000D03*
D35*
X-3400000Y-700000D03*
D19*
X9807490Y-19725830D03*
D19*
X11307490Y-19725830D03*
D39*
X15307489Y-9275829D03*
D39*
X11307489Y-9275829D03*
D39*
X9807489Y-9275829D03*
D40*
X14807489Y-17175829D03*
D40*
X15807489Y-17175829D03*
D39*
X6307489Y-9275829D03*
D40*
X12307489Y-17175829D03*
D39*
X9307489Y-9275829D03*
D40*
X13807489Y-17175829D03*
D40*
X6307489Y-17175829D03*
D40*
X6807489Y-17175829D03*
D39*
X4807489Y-9275829D03*
D40*
X4807489Y-17175829D03*
D39*
X11807489Y-9275829D03*
D40*
X9807489Y-17175829D03*
D39*
X10807489Y-9275829D03*
D40*
X11307489Y-17175829D03*
D40*
X16307489Y-17175829D03*
D39*
X6807489Y-9275829D03*
D39*
X7807489Y-9275829D03*
D39*
X5807489Y-9275829D03*
D40*
X7807489Y-17175829D03*
D40*
X11807489Y-17175829D03*
D39*
X12807489Y-9275829D03*
D40*
X10307489Y-17175829D03*
D41*
X10557489Y-13225829D03*
D39*
X13307489Y-9275829D03*
D39*
X5307489Y-9275829D03*
D40*
X15307489Y-17175829D03*
D40*
X5307489Y-17175829D03*
D39*
X13807489Y-9275829D03*
D40*
X5807489Y-17175829D03*
D39*
X7307489Y-9275829D03*
D40*
X7307489Y-17175829D03*
D40*
X8807489Y-17175829D03*
D40*
X9307489Y-17175829D03*
D40*
X10807489Y-17175829D03*
D39*
X16307489Y-9275829D03*
D39*
X12307489Y-9275829D03*
D39*
X15807489Y-9275829D03*
D39*
X14307489Y-9275829D03*
D40*
X14307489Y-17175829D03*
D39*
X10307489Y-9275829D03*
D40*
X13307489Y-17175829D03*
D40*
X8307489Y-17175829D03*
D40*
X12807489Y-17175829D03*
D39*
X14807489Y-9275829D03*
D39*
X8307489Y-9275829D03*
D39*
X8807489Y-9275829D03*
D20*
X24040000Y9690000D03*
D21*
X29360000Y9690000D03*
D20*
X24040000Y13510000D03*
D20*
X24040000Y12240000D03*
D21*
X29360000Y10960000D03*
D21*
X29360000Y12240000D03*
D21*
X29360000Y13510000D03*
D20*
X24040000Y10960000D03*
D25*
X26510000Y19200000D03*
D24*
X25090000Y19200000D03*
D34*
X500000Y-8800000D03*
D35*
X500000Y-7000000D03*
D12*
X5707489Y-18975829D03*
D12*
X5707489Y-20475829D03*
D16*
X21800000Y17650000D03*
D16*
X21800000Y16150000D03*
D34*
X-3400000Y-8800000D03*
D35*
X-3400000Y-7000000D03*
D12*
X-3400000Y-4050000D03*
D12*
X-3400000Y-5550000D03*
D12*
X7107489Y-18975829D03*
D12*
X7107489Y-20475829D03*
D12*
X-3500000Y-17150000D03*
D12*
X-3500000Y-18650000D03*
D11*
X19200000Y4950000D03*
D11*
X19200000Y6450000D03*
D12*
X-4800000Y-4050000D03*
D12*
X-4800000Y-5550000D03*
D19*
X-3550000Y8400000D03*
D19*
X-2050000Y8400000D03*
D28*
X12350000Y-33100000D03*
D28*
X13850000Y-33100000D03*
D10*
X450000Y6800000D03*
D10*
X-1050000Y6800000D03*
D19*
X23450000Y7900000D03*
D19*
X24950000Y7900000D03*
D42*
X0Y5100000D03*
D43*
X950000Y2500000D03*
D43*
X-950000Y2500000D03*
D42*
X950000Y5100000D03*
D42*
X-950000Y5100000D03*
D19*
X16100000Y8750000D03*
D19*
X17600000Y8750000D03*
D32*
X22410000Y-2600000D03*
D31*
X17590000Y-2600000D03*
D12*
X-800000Y-17250000D03*
D12*
X-800000Y-18750000D03*
D12*
X23500000Y16150000D03*
D12*
X23500000Y14650000D03*
D44*
X0Y12790000D03*
D45*
X0Y14210000D03*
D10*
X10157489Y-7175830D03*
D10*
X8657489Y-7175830D03*
D28*
X4850000Y-33100000D03*
D28*
X6350000Y-33100000D03*
D34*
X-3500000Y-15600000D03*
D35*
X-3500000Y-13800000D03*
D30*
X-3100000Y-21700000D03*
D29*
X-1300000Y-21700000D03*
D28*
X-1550000Y17500000D03*
D28*
X-50000Y17500000D03*
D11*
X9500000Y5650000D03*
D11*
X9500000Y7150000D03*
M02*
