M48
FMAT,2
METRIC,TZ
T4C0.254
T1C0.900
T3C2.200
T2C2.700
%
G90
G05
M71
T4
X4.600Y23.000
X23.400Y22.700
X21.700Y22.100
X21.900Y9.100
X26.300Y5.900
X11.506Y-15.969
X-1.546Y-6.296
X17.700Y-7.500
X15.000Y15.400
X24.300Y21.400
X9.100Y-11.000
X12.449Y18.070
X25.900Y22.700
X-3.600Y6.400
X3.000Y23.800
X21.100Y-8.400
X23.500Y21.400
X8.200Y21.000
X0.900Y9.000
X6.658Y-15.349
X2.797Y8.694
X2.100Y-6.800
X30.769Y16.000
X24.300Y23.300
X22.600Y23.900
X19.100Y-35.400
X16.000Y15.600
X9.900Y12.117
X-4.700Y-12.700
X22.500Y14.400
X30.700Y1.900
X-1.300Y-11.100
X23.300Y-35.400
X19.000Y5.700
X6.600Y23.400
X5.400Y23.000
X7.400Y20.200
X4.100Y-0.600
X18.400Y-35.400
X-2.600Y-19.600
X3.800Y-17.000
X-4.805Y-11.000
X24.300Y23.900
X2.300Y-1.600
X21.200Y-35.400
X7.400Y23.400
X-4.200Y18.200
X25.000Y23.900
X10.400Y-4.600
X-4.900Y-17.900
X8.200Y20.200
X5.000Y23.400
X22.600Y23.300
X30.700Y-25.700
X14.508Y-6.000
X9.900Y-10.755
X-1.196Y-19.604
X-2.187Y-10.397
X-4.800Y9.000
X21.700Y21.400
X23.300Y18.400
X2.200Y23.000
X0.400Y-21.500
X9.500Y6.300
X14.185Y-12.663
X3.900Y-18.800
X30.700Y-25.000
X-1.100Y-7.000
X8.200Y-0.400
X25.900Y22.100
X-5.300Y-29.200
X25.900Y21.400
X22.600Y-35.400
X3.800Y23.000
X-3.500Y7.400
X2.900Y-11.500
X27.900Y12.000
X7.800Y19.000
X23.900Y-8.300
X17.601Y-4.901
X29.700Y-22.600
X25.000Y22.700
X5.400Y23.800
X30.769Y16.804
X30.700Y-29.900
X-3.500Y-25.800
X25.100Y8.900
X7.800Y22.200
X9.000Y-13.400
X18.800Y-14.800
X22.300Y21.400
X1.500Y-34.500
X-4.800Y7.586
X4.600Y23.800
X9.148Y-6.200
X2.151Y-15.195
X25.000Y21.400
X25.900Y23.300
X2.900Y6.800
X15.720Y-13.280
X3.400Y23.400
X23.400Y23.900
X23.900Y-0.300
X21.700Y23.900
X29.000Y-35.300
X-5.300Y-28.500
X25.100Y5.900
X-3.600Y5.700
X12.400Y12.000
X-4.600Y9.900
X14.885Y-10.551
X27.000Y18.300
X2.200Y23.800
X16.104Y-23.000
X7.800Y19.800
X-0.400Y-20.700
X30.700Y3.100
X-4.800Y-2.400
X-0.800Y-18.000
X4.668Y-20.518
X8.309Y-10.691
X30.700Y-27.100
X15.100Y9.200
X-1.064Y14.849
X-4.800Y-4.690
X3.890Y-17.892
X7.300Y-10.600
X-4.900Y-8.600
X28.300Y-35.300
X27.000Y-8.600
X5.800Y23.400
X30.500Y-35.300
X9.600Y-13.400
X7.000Y23.800
X2.000Y2.100
X30.700Y-26.400
X-3.600Y5.000
X11.700Y-13.000
X12.049Y-21.300
X25.000Y23.300
X2.000Y1.500
X13.000Y18.800
X30.200Y6.900
X3.800Y23.800
X-0.900Y-4.800
X19.800Y-35.400
X21.700Y23.300
X20.500Y-35.400
X19.100Y11.900
X17.000Y-15.351
X10.900Y5.471
X6.200Y23.800
X21.900Y-35.400
X-1.600Y-13.800
X7.400Y18.600
X-5.300Y-29.900
X2.200Y-5.300
X9.200Y15.400
X23.100Y-29.100
X7.000Y-13.400
X30.700Y5.800
X22.600Y22.700
X21.700Y22.700
X7.800Y20.600
X25.100Y18.300
X8.200Y19.400
X10.807Y-11.000
X13.271Y-13.855
X30.700Y-29.200
X4.888Y-23.312
X2.864Y-16.982
X7.800Y21.400
X15.400Y-11.200
X6.200Y23.000
X18.600Y-4.900
X25.000Y22.100
X30.700Y-27.800
X14.500Y9.200
X17.151Y-17.000
X-2.700Y12.600
X7.800Y23.000
X18.700Y-15.600
X3.000Y23.000
X6.887Y-12.513
X17.100Y11.900
X18.600Y-13.300
X25.900Y23.900
X11.700Y-10.900
X30.700Y5.100
X4.200Y23.400
X24.300Y22.100
X1.900Y-17.000
X-1.400Y-0.700
X8.200Y21.800
X12.930Y-10.948
X8.200Y22.600
X24.300Y22.700
X-4.700Y19.300
X23.400Y23.300
X10.000Y9.400
X5.600Y-0.100
X30.700Y4.400
X24.000Y-5.000
X18.500Y-7.500
X7.000Y23.000
X-5.300Y-31.500
X3.000Y-12.900
X28.876Y-8.400
X2.600Y23.400
X-0.200Y15.400
X7.400Y22.600
X22.900Y21.400
X22.500Y9.100
X23.400Y22.100
X29.700Y-35.300
X7.400Y21.800
X30.700Y2.500
X9.100Y-34.500
X-5.300Y-30.700
X14.400Y-7.700
X7.400Y21.000
X30.700Y3.800
X17.600Y6.800
X30.700Y-28.500
X22.600Y22.100
X7.400Y19.400
X9.192Y-2.700
X15.300Y-4.400
T1
X3.780Y-27.440
X1.240Y-24.900
X-1.300Y-24.900
X13.940Y-24.900
X21.560Y-27.440
X3.780Y-24.900
X19.020Y-24.900
X8.860Y-24.900
X21.560Y-24.900
X13.940Y-27.440
X16.480Y-24.900
X11.400Y-24.900
X-1.300Y-27.440
X6.320Y-24.900
X8.860Y-27.440
X11.400Y-27.440
X16.480Y-27.440
X6.320Y-27.440
X19.020Y-27.440
X1.240Y-27.440
T3
X28.400Y-33.100
X28.400Y-21.200
X-3.000Y-33.100
T2
X16.000Y2.700
X-3.300Y22.300
X28.900Y22.300
X7.700Y2.700
X23.200Y2.700
M30
