%FSLAX46Y46*%
%MOMM*%
%ADD11C,0.150000*%
%ADD10C,0.153000*%
G01*
G01*
%LPD*%
D10*
X6716666Y14633333D02*
X6650000Y14666667D01*
D10*
X6783333Y14566667D02*
X6716666Y14633333D01*
D10*
X6816666Y14500000D02*
X6783333Y14566667D01*
D10*
X6816666Y14366667D02*
X6816666Y14500000D01*
D10*
X6783333Y14300000D02*
X6816666Y14366667D01*
D10*
X6716666Y14233333D02*
X6783333Y14300000D01*
D10*
X6650000Y14200000D02*
X6716666Y14233333D01*
D10*
X6550000Y14166667D02*
X6650000Y14200000D01*
D10*
X6383333Y14166667D02*
X6550000Y14166667D01*
D10*
X6283333Y14200000D02*
X6383333Y14166667D01*
D10*
X6216666Y14233333D02*
X6283333Y14200000D01*
D10*
X6150000Y14300000D02*
X6216666Y14233333D01*
D10*
X6116666Y14366667D02*
X6150000Y14300000D01*
D10*
X6116666Y14500000D02*
X6116666Y14366667D01*
D10*
X6150000Y14566667D02*
X6116666Y14500000D01*
D10*
X6216666Y14633333D02*
X6150000Y14566667D01*
D10*
X6283333Y14666667D02*
X6216666Y14633333D01*
D10*
X6683333Y14900000D02*
X6650000Y14900000D01*
D10*
X6750000Y14933333D02*
X6683333Y14900000D01*
D10*
X6783333Y14966667D02*
X6750000Y14933333D01*
D10*
X6816666Y15033333D02*
X6783333Y14966667D01*
D10*
X6816666Y15166667D02*
X6816666Y15033333D01*
D10*
X6783333Y15233333D02*
X6816666Y15166667D01*
D10*
X6750000Y15266667D02*
X6783333Y15233333D01*
D10*
X6683333Y15300000D02*
X6750000Y15266667D01*
D10*
X6616666Y15300000D02*
X6683333Y15300000D01*
D10*
X6550000Y15266667D02*
X6616666Y15300000D01*
D10*
X6450000Y15200000D02*
X6550000Y15266667D01*
D10*
X6116666Y14866667D02*
X6450000Y15200000D01*
D10*
X6116666Y15333333D02*
X6116666Y14866667D01*
D10*
X6116666Y15666667D02*
X6816666Y16000000D01*
D10*
X6816666Y16000000D02*
X6816666Y15533333D01*
D10*
X5066666Y9666667D02*
X5033333Y9600000D01*
D10*
X5133333Y9733333D02*
X5066666Y9666667D01*
D10*
X5200000Y9766667D02*
X5133333Y9733333D01*
D10*
X5333333Y9766667D02*
X5200000Y9766667D01*
D10*
X5400000Y9733333D02*
X5333333Y9766667D01*
D10*
X5466666Y9666667D02*
X5400000Y9733333D01*
D10*
X5500000Y9600000D02*
X5466666Y9666667D01*
D10*
X5533333Y9500000D02*
X5500000Y9600000D01*
D10*
X5533333Y9333333D02*
X5533333Y9500000D01*
D10*
X5500000Y9233333D02*
X5533333Y9333333D01*
D10*
X5466666Y9166667D02*
X5500000Y9233333D01*
D10*
X5400000Y9100000D02*
X5466666Y9166667D01*
D10*
X5333333Y9066667D02*
X5400000Y9100000D01*
D10*
X5200000Y9066667D02*
X5333333Y9066667D01*
D10*
X5133333Y9100000D02*
X5200000Y9066667D01*
D10*
X5066666Y9166667D02*
X5133333Y9100000D01*
D10*
X5033333Y9233333D02*
X5066666Y9166667D01*
D10*
X4400000Y9766667D02*
X4766666Y9766667D01*
D10*
X4600000Y9500000D02*
X4400000Y9766667D01*
D10*
X4500000Y9500000D02*
X4600000Y9500000D01*
D10*
X4433333Y9466667D02*
X4500000Y9500000D01*
D10*
X4400000Y9433333D02*
X4433333Y9466667D01*
D10*
X4366666Y9333333D02*
X4400000Y9433333D01*
D10*
X4366666Y9266667D02*
X4366666Y9333333D01*
D10*
X4400000Y9166667D02*
X4366666Y9266667D01*
D10*
X4466666Y9100000D02*
X4400000Y9166667D01*
D10*
X4566666Y9066667D02*
X4466666Y9100000D01*
D10*
X4666666Y9066667D02*
X4566666Y9066667D01*
D10*
X4766666Y9100000D02*
X4666666Y9066667D01*
D10*
X4800000Y9133333D02*
X4766666Y9100000D01*
D10*
X4833333Y9200000D02*
X4800000Y9133333D01*
D10*
X4166666Y9300000D02*
X3833333Y9766667D01*
D10*
X3666666Y9300000D02*
X4166666Y9300000D01*
D10*
X3833333Y9066667D02*
X3833333Y9766667D01*
D10*
X5066666Y11666667D02*
X5066666Y12366667D01*
D10*
X4766666Y12366667D02*
X5066666Y12366667D01*
D10*
X4666666Y12333333D02*
X4766666Y12366667D01*
D10*
X4633333Y12300000D02*
X4666666Y12333333D01*
D10*
X4600000Y12233333D02*
X4633333Y12300000D01*
D10*
X4600000Y12166667D02*
X4600000Y12233333D01*
D10*
X4633333Y12100000D02*
X4600000Y12166667D01*
D10*
X4666666Y12066667D02*
X4633333Y12100000D01*
D10*
X4766666Y12033333D02*
X4666666Y12066667D01*
D10*
X5066666Y12033333D02*
X4766666Y12033333D01*
D10*
X4600000Y11666667D02*
X4833333Y12033333D01*
D10*
X4233333Y12266667D02*
X4300000Y12233333D01*
D10*
X4133333Y12366667D02*
X4233333Y12266667D01*
D10*
X4133333Y11666667D02*
X4133333Y12366667D01*
D10*
X3333333Y12033333D02*
X3300000Y12133333D01*
D10*
X3400000Y11966667D02*
X3333333Y12033333D01*
D10*
X3500000Y11933333D02*
X3400000Y11966667D01*
D10*
X3533333Y11933333D02*
X3500000Y11933333D01*
D10*
X3633333Y11966667D02*
X3533333Y11933333D01*
D10*
X3700000Y12033333D02*
X3633333Y11966667D01*
D10*
X3733333Y12133333D02*
X3700000Y12033333D01*
D10*
X3733333Y12166667D02*
X3733333Y12133333D01*
D10*
X3700000Y12266667D02*
X3733333Y12166667D01*
D10*
X3633333Y12333333D02*
X3700000Y12266667D01*
D10*
X3533333Y12366667D02*
X3633333Y12333333D01*
D10*
X3500000Y12366667D02*
X3533333Y12366667D01*
D10*
X3400000Y12333333D02*
X3500000Y12366667D01*
D10*
X3333333Y12266667D02*
X3400000Y12333333D01*
D10*
X3300000Y12133333D02*
X3333333Y12266667D01*
D10*
X3300000Y11966667D02*
X3300000Y12133333D01*
D10*
X3333333Y11800000D02*
X3300000Y11966667D01*
D10*
X3400000Y11700000D02*
X3333333Y11800000D01*
D10*
X3500000Y11666667D02*
X3400000Y11700000D01*
D10*
X3566666Y11666667D02*
X3500000Y11666667D01*
D10*
X3666666Y11700000D02*
X3566666Y11666667D01*
D10*
X3700000Y11766667D02*
X3666666Y11700000D01*
D10*
X-2733333Y-10633333D02*
X-2733333Y-9933333D01*
D10*
X-3033333Y-9933333D02*
X-2733333Y-9933333D01*
D10*
X-3133333Y-9966667D02*
X-3033333Y-9933333D01*
D10*
X-3166666Y-10000000D02*
X-3133333Y-9966667D01*
D10*
X-3200000Y-10066667D02*
X-3166666Y-10000000D01*
D10*
X-3200000Y-10133333D02*
X-3200000Y-10066667D01*
D10*
X-3166666Y-10200000D02*
X-3200000Y-10133333D01*
D10*
X-3133333Y-10233333D02*
X-3166666Y-10200000D01*
D10*
X-3033333Y-10266667D02*
X-3133333Y-10233333D01*
D10*
X-2733333Y-10266667D02*
X-3033333Y-10266667D01*
D10*
X-3200000Y-10633333D02*
X-2966666Y-10266667D01*
D10*
X-3466666Y-9933333D02*
X-3800000Y-9933333D01*
D10*
X-3433333Y-10233333D02*
X-3466666Y-9933333D01*
D10*
X-3466666Y-10200000D02*
X-3433333Y-10233333D01*
D10*
X-3566666Y-10166667D02*
X-3466666Y-10200000D01*
D10*
X-3666666Y-10166667D02*
X-3566666Y-10166667D01*
D10*
X-3766666Y-10200000D02*
X-3666666Y-10166667D01*
D10*
X-3833333Y-10266667D02*
X-3766666Y-10200000D01*
D10*
X-3866666Y-10366667D02*
X-3833333Y-10266667D01*
D10*
X-3866666Y-10433333D02*
X-3866666Y-10366667D01*
D10*
X-3833333Y-10533333D02*
X-3866666Y-10433333D01*
D10*
X-3766666Y-10600000D02*
X-3833333Y-10533333D01*
D10*
X-3666666Y-10633333D02*
X-3766666Y-10600000D01*
D10*
X-3566666Y-10633333D02*
X-3666666Y-10633333D01*
D10*
X-3466666Y-10600000D02*
X-3566666Y-10633333D01*
D10*
X-3433333Y-10566667D02*
X-3466666Y-10600000D01*
D10*
X-3400000Y-10500000D02*
X-3433333Y-10566667D01*
D10*
X-4133333Y-9933333D02*
X-4466666Y-9933333D01*
D10*
X-4100000Y-10233333D02*
X-4133333Y-9933333D01*
D10*
X-4133333Y-10200000D02*
X-4100000Y-10233333D01*
D10*
X-4233333Y-10166667D02*
X-4133333Y-10200000D01*
D10*
X-4333333Y-10166667D02*
X-4233333Y-10166667D01*
D10*
X-4433333Y-10200000D02*
X-4333333Y-10166667D01*
D10*
X-4500000Y-10266667D02*
X-4433333Y-10200000D01*
D10*
X-4533333Y-10366667D02*
X-4500000Y-10266667D01*
D10*
X-4533333Y-10433333D02*
X-4533333Y-10366667D01*
D10*
X-4500000Y-10533333D02*
X-4533333Y-10433333D01*
D10*
X-4433333Y-10600000D02*
X-4500000Y-10533333D01*
D10*
X-4333333Y-10633333D02*
X-4433333Y-10600000D01*
D10*
X-4233333Y-10633333D02*
X-4333333Y-10633333D01*
D10*
X-4133333Y-10600000D02*
X-4233333Y-10633333D01*
D10*
X-4100000Y-10566667D02*
X-4133333Y-10600000D01*
D10*
X-4066666Y-10500000D02*
X-4100000Y-10566667D01*
D10*
X6966666Y-23400000D02*
X6900000Y-23366666D01*
D10*
X7033333Y-23466666D02*
X6966666Y-23400000D01*
D10*
X7066666Y-23533334D02*
X7033333Y-23466666D01*
D10*
X7066666Y-23666666D02*
X7066666Y-23533334D01*
D10*
X7033333Y-23733334D02*
X7066666Y-23666666D01*
D10*
X6966666Y-23800000D02*
X7033333Y-23733334D01*
D10*
X6900000Y-23833334D02*
X6966666Y-23800000D01*
D10*
X6800000Y-23866666D02*
X6900000Y-23833334D01*
D10*
X6633333Y-23866666D02*
X6800000Y-23866666D01*
D10*
X6533333Y-23833334D02*
X6633333Y-23866666D01*
D10*
X6466666Y-23800000D02*
X6533333Y-23833334D01*
D10*
X6400000Y-23733334D02*
X6466666Y-23800000D01*
D10*
X6366666Y-23666666D02*
X6400000Y-23733334D01*
D10*
X6366666Y-23533334D02*
X6366666Y-23666666D01*
D10*
X6400000Y-23466666D02*
X6366666Y-23533334D01*
D10*
X6466666Y-23400000D02*
X6400000Y-23466666D01*
D10*
X6533333Y-23366666D02*
X6466666Y-23400000D01*
D10*
X7033333Y-22766666D02*
X6966666Y-22700000D01*
D10*
X7066666Y-22866666D02*
X7033333Y-22766666D01*
D10*
X7066666Y-23000000D02*
X7066666Y-22866666D01*
D10*
X7033333Y-23100000D02*
X7066666Y-23000000D01*
D10*
X6966666Y-23166666D02*
X7033333Y-23100000D01*
D10*
X6900000Y-23166666D02*
X6966666Y-23166666D01*
D10*
X6833333Y-23133334D02*
X6900000Y-23166666D01*
D10*
X6800000Y-23100000D02*
X6833333Y-23133334D01*
D10*
X6766666Y-23033334D02*
X6800000Y-23100000D01*
D10*
X6700000Y-22833334D02*
X6766666Y-23033334D01*
D10*
X6666666Y-22766666D02*
X6700000Y-22833334D01*
D10*
X6633333Y-22733334D02*
X6666666Y-22766666D01*
D10*
X6566666Y-22700000D02*
X6633333Y-22733334D01*
D10*
X6466666Y-22700000D02*
X6566666Y-22700000D01*
D10*
X6400000Y-22766666D02*
X6466666Y-22700000D01*
D10*
X6366666Y-22866666D02*
X6400000Y-22766666D01*
D10*
X6366666Y-23000000D02*
X6366666Y-22866666D01*
D10*
X6400000Y-23100000D02*
X6366666Y-23000000D01*
D10*
X6466666Y-23166666D02*
X6400000Y-23100000D01*
D10*
X6666666Y-21600000D02*
X6666666Y-22200000D01*
D10*
X5268666Y-24133334D02*
X5968666Y-23866666D01*
D10*
X5268666Y-23600000D02*
X5968666Y-23866666D01*
D10*
X5502000Y-23700000D02*
X5502000Y-24033334D01*
D10*
X5268666Y-23433334D02*
X5968666Y-23433334D01*
D10*
X5968666Y-23200000D02*
X5968666Y-23433334D01*
D10*
X5935333Y-23100000D02*
X5968666Y-23200000D01*
D10*
X5868666Y-23033334D02*
X5935333Y-23100000D01*
D10*
X5802000Y-23000000D02*
X5868666Y-23033334D01*
D10*
X5702000Y-22966666D02*
X5802000Y-23000000D01*
D10*
X5535333Y-22966666D02*
X5702000Y-22966666D01*
D10*
X5435333Y-23000000D02*
X5535333Y-22966666D01*
D10*
X5368666Y-23033334D02*
X5435333Y-23000000D01*
D10*
X5302000Y-23100000D02*
X5368666Y-23033334D01*
D10*
X5268666Y-23200000D02*
X5302000Y-23100000D01*
D10*
X5268666Y-23433334D02*
X5268666Y-23200000D01*
D10*
X5868666Y-22300000D02*
X5802000Y-22266666D01*
D10*
X5935333Y-22366666D02*
X5868666Y-22300000D01*
D10*
X5968666Y-22433334D02*
X5935333Y-22366666D01*
D10*
X5968666Y-22566666D02*
X5968666Y-22433334D01*
D10*
X5935333Y-22633334D02*
X5968666Y-22566666D01*
D10*
X5868666Y-22700000D02*
X5935333Y-22633334D01*
D10*
X5802000Y-22733334D02*
X5868666Y-22700000D01*
D10*
X5702000Y-22766666D02*
X5802000Y-22733334D01*
D10*
X5535333Y-22766666D02*
X5702000Y-22766666D01*
D10*
X5435333Y-22733334D02*
X5535333Y-22766666D01*
D10*
X5368666Y-22700000D02*
X5435333Y-22733334D01*
D10*
X5302000Y-22633334D02*
X5368666Y-22700000D01*
D10*
X5268666Y-22566666D02*
X5302000Y-22633334D01*
D10*
X5268666Y-22433334D02*
X5268666Y-22566666D01*
D10*
X5302000Y-22366666D02*
X5268666Y-22433334D01*
D10*
X5368666Y-22300000D02*
X5302000Y-22366666D01*
D10*
X5435333Y-22266666D02*
X5368666Y-22300000D01*
D10*
X5868666Y-21333334D02*
X5802000Y-21300000D01*
D10*
X5935333Y-21400000D02*
X5868666Y-21333334D01*
D10*
X5968666Y-21466666D02*
X5935333Y-21400000D01*
D10*
X5968666Y-21600000D02*
X5968666Y-21466666D01*
D10*
X5935333Y-21666666D02*
X5968666Y-21600000D01*
D10*
X5868666Y-21733334D02*
X5935333Y-21666666D01*
D10*
X5802000Y-21766666D02*
X5868666Y-21733334D01*
D10*
X5702000Y-21800000D02*
X5802000Y-21766666D01*
D10*
X5535333Y-21800000D02*
X5702000Y-21800000D01*
D10*
X5435333Y-21766666D02*
X5535333Y-21800000D01*
D10*
X5368666Y-21733334D02*
X5435333Y-21766666D01*
D10*
X5302000Y-21666666D02*
X5368666Y-21733334D01*
D10*
X5268666Y-21600000D02*
X5302000Y-21666666D01*
D10*
X5268666Y-21466666D02*
X5268666Y-21600000D01*
D10*
X5302000Y-21400000D02*
X5268666Y-21466666D01*
D10*
X5368666Y-21333334D02*
X5302000Y-21400000D01*
D10*
X5435333Y-21300000D02*
X5368666Y-21333334D01*
D10*
X-4688333Y16988334D02*
X-3988333Y16988334D01*
D10*
X-3988333Y17221666D02*
X-3988333Y16988334D01*
D10*
X-4021666Y17321666D02*
X-3988333Y17221666D01*
D10*
X-4088333Y17388334D02*
X-4021666Y17321666D01*
D10*
X-4155000Y17421666D02*
X-4088333Y17388334D01*
D10*
X-4255000Y17455000D02*
X-4155000Y17421666D01*
D10*
X-4421666Y17455000D02*
X-4255000Y17455000D01*
D10*
X-4521666Y17421666D02*
X-4421666Y17455000D01*
D10*
X-4588333Y17388334D02*
X-4521666Y17421666D01*
D10*
X-4655000Y17321666D02*
X-4588333Y17388334D01*
D10*
X-4688333Y17221666D02*
X-4655000Y17321666D01*
D10*
X-4688333Y16988334D02*
X-4688333Y17221666D01*
D10*
X-4088333Y17821666D02*
X-4121666Y17755000D01*
D10*
X-3988333Y17921666D02*
X-4088333Y17821666D01*
D10*
X-4688333Y17921666D02*
X-3988333Y17921666D01*
D10*
X-4088333Y18488334D02*
X-4121666Y18421666D01*
D10*
X-3988333Y18588334D02*
X-4088333Y18488334D01*
D10*
X-4688333Y18588334D02*
X-3988333Y18588334D01*
D10*
X13566667Y-32966666D02*
X14033333Y-32966666D01*
D10*
X14000000Y-32866666D02*
X13900000Y-32966666D01*
D10*
X14033333Y-32800000D02*
X14000000Y-32866666D01*
D10*
X14033333Y-32700000D02*
X14033333Y-32800000D01*
D10*
X14000000Y-32633332D02*
X14033333Y-32700000D01*
D10*
X13900000Y-32600000D02*
X14000000Y-32633332D01*
D10*
X13566667Y-32600000D02*
X13900000Y-32600000D01*
D10*
X14233333Y-32233334D02*
X14266667Y-32166666D01*
D10*
X14166667Y-32300000D02*
X14233333Y-32233334D01*
D10*
X14100000Y-32333334D02*
X14166667Y-32300000D01*
D10*
X14000000Y-32366666D02*
X14100000Y-32333334D01*
D10*
X13833333Y-32366666D02*
X14000000Y-32366666D01*
D10*
X13733333Y-32333334D02*
X13833333Y-32366666D01*
D10*
X13666667Y-32300000D02*
X13733333Y-32333334D01*
D10*
X13600000Y-32233334D02*
X13666667Y-32300000D01*
D10*
X13566667Y-32166666D02*
X13600000Y-32233334D01*
D10*
X13566667Y-32033334D02*
X13566667Y-32166666D01*
D10*
X13600000Y-31966666D02*
X13566667Y-32033334D01*
D10*
X13666667Y-31900000D02*
X13600000Y-31966666D01*
D10*
X13733333Y-31866666D02*
X13666667Y-31900000D01*
D10*
X13833333Y-31833334D02*
X13733333Y-31866666D01*
D10*
X14000000Y-31833334D02*
X13833333Y-31833334D01*
D10*
X14100000Y-31866666D02*
X14000000Y-31833334D01*
D10*
X14166667Y-31900000D02*
X14100000Y-31866666D01*
D10*
X14233333Y-31966666D02*
X14166667Y-31900000D01*
D10*
X14266667Y-32033334D02*
X14233333Y-31966666D01*
D10*
X14266667Y-32166666D02*
X14266667Y-32033334D01*
D10*
X14166667Y-31166666D02*
X14100000Y-31133334D01*
D10*
X14233333Y-31233334D02*
X14166667Y-31166666D01*
D10*
X14266667Y-31300000D02*
X14233333Y-31233334D01*
D10*
X14266667Y-31433334D02*
X14266667Y-31300000D01*
D10*
X14233333Y-31500000D02*
X14266667Y-31433334D01*
D10*
X14166667Y-31566666D02*
X14233333Y-31500000D01*
D10*
X14100000Y-31600000D02*
X14166667Y-31566666D01*
D10*
X14000000Y-31633334D02*
X14100000Y-31600000D01*
D10*
X13833333Y-31633334D02*
X14000000Y-31633334D01*
D10*
X13733333Y-31600000D02*
X13833333Y-31633334D01*
D10*
X13666667Y-31566666D02*
X13733333Y-31600000D01*
D10*
X13600000Y-31500000D02*
X13666667Y-31566666D01*
D10*
X13566667Y-31433334D02*
X13600000Y-31500000D01*
D10*
X13566667Y-31300000D02*
X13566667Y-31433334D01*
D10*
X13600000Y-31233334D02*
X13566667Y-31300000D01*
D10*
X13666667Y-31166666D02*
X13600000Y-31233334D01*
D10*
X13733333Y-31133334D02*
X13666667Y-31166666D01*
D10*
X13566667Y-30766666D02*
X14266667Y-30766666D01*
D10*
X14266667Y-30533334D02*
X14266667Y-31000000D01*
D10*
X13566667Y-30266666D02*
X14266667Y-30433334D01*
D10*
X13566667Y-30266666D02*
X14266667Y-30100000D01*
D10*
X13566667Y-29933334D02*
X14266667Y-30100000D01*
D10*
X13566667Y-29933334D02*
X14266667Y-29766666D01*
D10*
X13866667Y-28700000D02*
X13866667Y-29300000D01*
D10*
X12468667Y-31133334D02*
X13168667Y-31133334D01*
D10*
X13168667Y-30900000D02*
X13168667Y-31133334D01*
D10*
X13135333Y-30800000D02*
X13168667Y-30900000D01*
D10*
X13068667Y-30733334D02*
X13135333Y-30800000D01*
D10*
X13002000Y-30700000D02*
X13068667Y-30733334D01*
D10*
X12902000Y-30666666D02*
X13002000Y-30700000D01*
D10*
X12735333Y-30666666D02*
X12902000Y-30666666D01*
D10*
X12635333Y-30700000D02*
X12735333Y-30666666D01*
D10*
X12568667Y-30733334D02*
X12635333Y-30700000D01*
D10*
X12502000Y-30800000D02*
X12568667Y-30733334D01*
D10*
X12468667Y-30900000D02*
X12502000Y-30800000D01*
D10*
X12468667Y-31133334D02*
X12468667Y-30900000D01*
D10*
X12468667Y-30433334D02*
X12935333Y-30433334D01*
D10*
X12835333Y-30400000D02*
X12735333Y-30433334D01*
D10*
X12902000Y-30333334D02*
X12835333Y-30400000D01*
D10*
X12935333Y-30266666D02*
X12902000Y-30333334D01*
D10*
X12935333Y-30166666D02*
X12935333Y-30266666D01*
D10*
X13135333Y-30000000D02*
X13168667Y-30033334D01*
D10*
X13168667Y-29966666D02*
X13135333Y-30000000D01*
D10*
X13202000Y-30000000D02*
X13168667Y-29966666D01*
D10*
X13168667Y-30033334D02*
X13202000Y-30000000D01*
D10*
X12468667Y-30000000D02*
X12935333Y-30000000D01*
D10*
X12468667Y-29600000D02*
X12935333Y-29800000D01*
D10*
X12468667Y-29600000D02*
X12935333Y-29400000D01*
D10*
X12735333Y-28833334D02*
X12735333Y-29233334D01*
D10*
X12802000Y-28833334D02*
X12735333Y-28833334D01*
D10*
X12868667Y-28866666D02*
X12802000Y-28833334D01*
D10*
X12902000Y-28900000D02*
X12868667Y-28866666D01*
D10*
X12935333Y-28966666D02*
X12902000Y-28900000D01*
D10*
X12935333Y-29066666D02*
X12935333Y-28966666D01*
D10*
X12902000Y-29133334D02*
X12935333Y-29066666D01*
D10*
X12835333Y-29200000D02*
X12902000Y-29133334D01*
D10*
X12735333Y-29233334D02*
X12835333Y-29200000D01*
D10*
X12668667Y-29233334D02*
X12735333Y-29233334D01*
D10*
X12568667Y-29200000D02*
X12668667Y-29233334D01*
D10*
X12502000Y-29133334D02*
X12568667Y-29200000D01*
D10*
X12468667Y-29066666D02*
X12502000Y-29133334D01*
D10*
X12468667Y-28966666D02*
X12468667Y-29066666D01*
D10*
X12502000Y-28900000D02*
X12468667Y-28966666D01*
D10*
X12568667Y-28833334D02*
X12502000Y-28900000D01*
D10*
X12468667Y-28600000D02*
X12935333Y-28600000D01*
D10*
X12835333Y-28566666D02*
X12735333Y-28600000D01*
D10*
X12902000Y-28500000D02*
X12835333Y-28566666D01*
D10*
X12935333Y-28433334D02*
X12902000Y-28500000D01*
D10*
X12935333Y-28333334D02*
X12935333Y-28433334D01*
D10*
X4466666Y-23400000D02*
X4400000Y-23366666D01*
D10*
X4533333Y-23466666D02*
X4466666Y-23400000D01*
D10*
X4566666Y-23533334D02*
X4533333Y-23466666D01*
D10*
X4566666Y-23666666D02*
X4566666Y-23533334D01*
D10*
X4533333Y-23733334D02*
X4566666Y-23666666D01*
D10*
X4466666Y-23800000D02*
X4533333Y-23733334D01*
D10*
X4400000Y-23833334D02*
X4466666Y-23800000D01*
D10*
X4300000Y-23866666D02*
X4400000Y-23833334D01*
D10*
X4133333Y-23866666D02*
X4300000Y-23866666D01*
D10*
X4033333Y-23833334D02*
X4133333Y-23866666D01*
D10*
X3966666Y-23800000D02*
X4033333Y-23833334D01*
D10*
X3900000Y-23733334D02*
X3966666Y-23800000D01*
D10*
X3866666Y-23666666D02*
X3900000Y-23733334D01*
D10*
X3866666Y-23533334D02*
X3866666Y-23666666D01*
D10*
X3900000Y-23466666D02*
X3866666Y-23533334D01*
D10*
X3966666Y-23400000D02*
X3900000Y-23466666D01*
D10*
X4033333Y-23366666D02*
X3966666Y-23400000D01*
D10*
X4533333Y-22766666D02*
X4466666Y-22700000D01*
D10*
X4566666Y-22866666D02*
X4533333Y-22766666D01*
D10*
X4566666Y-23000000D02*
X4566666Y-22866666D01*
D10*
X4533333Y-23100000D02*
X4566666Y-23000000D01*
D10*
X4466666Y-23166666D02*
X4533333Y-23100000D01*
D10*
X4400000Y-23166666D02*
X4466666Y-23166666D01*
D10*
X4333333Y-23133334D02*
X4400000Y-23166666D01*
D10*
X4300000Y-23100000D02*
X4333333Y-23133334D01*
D10*
X4266666Y-23033334D02*
X4300000Y-23100000D01*
D10*
X4200000Y-22833334D02*
X4266666Y-23033334D01*
D10*
X4166666Y-22766666D02*
X4200000Y-22833334D01*
D10*
X4133333Y-22733334D02*
X4166666Y-22766666D01*
D10*
X4066666Y-22700000D02*
X4133333Y-22733334D01*
D10*
X3966666Y-22700000D02*
X4066666Y-22700000D01*
D10*
X3900000Y-22766666D02*
X3966666Y-22700000D01*
D10*
X3866666Y-22866666D02*
X3900000Y-22766666D01*
D10*
X3866666Y-23000000D02*
X3866666Y-22866666D01*
D10*
X3900000Y-23100000D02*
X3866666Y-23000000D01*
D10*
X3966666Y-23166666D02*
X3900000Y-23100000D01*
D10*
X4166666Y-21600000D02*
X4166666Y-22200000D01*
D10*
X2768666Y-24133334D02*
X3468666Y-23866666D01*
D10*
X2768666Y-23600000D02*
X3468666Y-23866666D01*
D10*
X3002000Y-23700000D02*
X3002000Y-24033334D01*
D10*
X2768666Y-23433334D02*
X3468666Y-23433334D01*
D10*
X3468666Y-23200000D02*
X3468666Y-23433334D01*
D10*
X3435333Y-23100000D02*
X3468666Y-23200000D01*
D10*
X3368666Y-23033334D02*
X3435333Y-23100000D01*
D10*
X3302000Y-23000000D02*
X3368666Y-23033334D01*
D10*
X3202000Y-22966666D02*
X3302000Y-23000000D01*
D10*
X3035333Y-22966666D02*
X3202000Y-22966666D01*
D10*
X2935333Y-23000000D02*
X3035333Y-22966666D01*
D10*
X2868666Y-23033334D02*
X2935333Y-23000000D01*
D10*
X2802000Y-23100000D02*
X2868666Y-23033334D01*
D10*
X2768666Y-23200000D02*
X2802000Y-23100000D01*
D10*
X2768666Y-23433334D02*
X2768666Y-23200000D01*
D10*
X3368666Y-22300000D02*
X3302000Y-22266666D01*
D10*
X3435333Y-22366666D02*
X3368666Y-22300000D01*
D10*
X3468666Y-22433334D02*
X3435333Y-22366666D01*
D10*
X3468666Y-22566666D02*
X3468666Y-22433334D01*
D10*
X3435333Y-22633334D02*
X3468666Y-22566666D01*
D10*
X3368666Y-22700000D02*
X3435333Y-22633334D01*
D10*
X3302000Y-22733334D02*
X3368666Y-22700000D01*
D10*
X3202000Y-22766666D02*
X3302000Y-22733334D01*
D10*
X3035333Y-22766666D02*
X3202000Y-22766666D01*
D10*
X2935333Y-22733334D02*
X3035333Y-22766666D01*
D10*
X2868666Y-22700000D02*
X2935333Y-22733334D01*
D10*
X2802000Y-22633334D02*
X2868666Y-22700000D01*
D10*
X2768666Y-22566666D02*
X2802000Y-22633334D01*
D10*
X2768666Y-22433334D02*
X2768666Y-22566666D01*
D10*
X2802000Y-22366666D02*
X2768666Y-22433334D01*
D10*
X2868666Y-22300000D02*
X2802000Y-22366666D01*
D10*
X2935333Y-22266666D02*
X2868666Y-22300000D01*
D10*
X2768666Y-21766666D02*
X3468666Y-21766666D01*
D10*
X3468666Y-21466666D02*
X3468666Y-21766666D01*
D10*
X3435333Y-21366666D02*
X3468666Y-21466666D01*
D10*
X3402000Y-21333334D02*
X3435333Y-21366666D01*
D10*
X3335333Y-21300000D02*
X3402000Y-21333334D01*
D10*
X3268666Y-21300000D02*
X3335333Y-21300000D01*
D10*
X3202000Y-21333334D02*
X3268666Y-21300000D01*
D10*
X3168666Y-21366666D02*
X3202000Y-21333334D01*
D10*
X3135333Y-21466666D02*
X3168666Y-21366666D01*
D10*
X3135333Y-21466666D02*
X3135333Y-21766666D01*
D10*
X3102000Y-21366666D02*
X3135333Y-21466666D01*
D10*
X3068666Y-21333334D02*
X3102000Y-21366666D01*
D10*
X3002000Y-21300000D02*
X3068666Y-21333334D01*
D10*
X2902000Y-21300000D02*
X3002000Y-21300000D01*
D10*
X2835333Y-21333334D02*
X2902000Y-21300000D01*
D10*
X2802000Y-21366666D02*
X2835333Y-21333334D01*
D10*
X2768666Y-21466666D02*
X2802000Y-21366666D01*
D10*
X2768666Y-21766666D02*
X2768666Y-21466666D01*
D10*
X-2433333Y14433333D02*
X-2500000Y14466667D01*
D10*
X-2366666Y14366667D02*
X-2433333Y14433333D01*
D10*
X-2333333Y14300000D02*
X-2366666Y14366667D01*
D10*
X-2333333Y14166667D02*
X-2333333Y14300000D01*
D10*
X-2366666Y14100000D02*
X-2333333Y14166667D01*
D10*
X-2433333Y14033333D02*
X-2366666Y14100000D01*
D10*
X-2500000Y14000000D02*
X-2433333Y14033333D01*
D10*
X-2600000Y13966667D02*
X-2500000Y14000000D01*
D10*
X-2766666Y13966667D02*
X-2600000Y13966667D01*
D10*
X-2866666Y14000000D02*
X-2766666Y13966667D01*
D10*
X-2933333Y14033333D02*
X-2866666Y14000000D01*
D10*
X-3000000Y14100000D02*
X-2933333Y14033333D01*
D10*
X-3033333Y14166667D02*
X-3000000Y14100000D01*
D10*
X-3033333Y14300000D02*
X-3033333Y14166667D01*
D10*
X-3000000Y14366667D02*
X-3033333Y14300000D01*
D10*
X-2933333Y14433333D02*
X-3000000Y14366667D01*
D10*
X-2866666Y14466667D02*
X-2933333Y14433333D01*
D10*
X-2466666Y14700000D02*
X-2500000Y14700000D01*
D10*
X-2400000Y14733333D02*
X-2466666Y14700000D01*
D10*
X-2366666Y14766667D02*
X-2400000Y14733333D01*
D10*
X-2333333Y14833333D02*
X-2366666Y14766667D01*
D10*
X-2333333Y14966667D02*
X-2333333Y14833333D01*
D10*
X-2366666Y15033333D02*
X-2333333Y14966667D01*
D10*
X-2400000Y15066667D02*
X-2366666Y15033333D01*
D10*
X-2466666Y15100000D02*
X-2400000Y15066667D01*
D10*
X-2533333Y15100000D02*
X-2466666Y15100000D01*
D10*
X-2600000Y15066667D02*
X-2533333Y15100000D01*
D10*
X-2700000Y15000000D02*
X-2600000Y15066667D01*
D10*
X-3033333Y14666667D02*
X-2700000Y15000000D01*
D10*
X-3033333Y15133333D02*
X-3033333Y14666667D01*
D10*
X-2433333Y15500000D02*
X-2466666Y15433333D01*
D10*
X-2333333Y15600000D02*
X-2433333Y15500000D01*
D10*
X-3033333Y15600000D02*
X-2333333Y15600000D01*
D10*
X-966666Y-30433334D02*
X-1033333Y-30366666D01*
D10*
X-933333Y-30533334D02*
X-966666Y-30433334D01*
D10*
X-933333Y-30666666D02*
X-933333Y-30533334D01*
D10*
X-966666Y-30766666D02*
X-933333Y-30666666D01*
D10*
X-1033333Y-30833334D02*
X-966666Y-30766666D01*
D10*
X-1100000Y-30833334D02*
X-1033333Y-30833334D01*
D10*
X-1166666Y-30800000D02*
X-1100000Y-30833334D01*
D10*
X-1200000Y-30766666D02*
X-1166666Y-30800000D01*
D10*
X-1233333Y-30700000D02*
X-1200000Y-30766666D01*
D10*
X-1300000Y-30500000D02*
X-1233333Y-30700000D01*
D10*
X-1333333Y-30433334D02*
X-1300000Y-30500000D01*
D10*
X-1366666Y-30400000D02*
X-1333333Y-30433334D01*
D10*
X-1433333Y-30366666D02*
X-1366666Y-30400000D01*
D10*
X-1533333Y-30366666D02*
X-1433333Y-30366666D01*
D10*
X-1600000Y-30433334D02*
X-1533333Y-30366666D01*
D10*
X-1633333Y-30533334D02*
X-1600000Y-30433334D01*
D10*
X-1633333Y-30666666D02*
X-1633333Y-30533334D01*
D10*
X-1600000Y-30766666D02*
X-1633333Y-30666666D01*
D10*
X-1533333Y-30833334D02*
X-1600000Y-30766666D01*
D10*
X-1033333Y-29700000D02*
X-1100000Y-29666666D01*
D10*
X-966666Y-29766666D02*
X-1033333Y-29700000D01*
D10*
X-933333Y-29833334D02*
X-966666Y-29766666D01*
D10*
X-933333Y-29966666D02*
X-933333Y-29833334D01*
D10*
X-966666Y-30033334D02*
X-933333Y-29966666D01*
D10*
X-1033333Y-30100000D02*
X-966666Y-30033334D01*
D10*
X-1100000Y-30133334D02*
X-1033333Y-30100000D01*
D10*
X-1200000Y-30166666D02*
X-1100000Y-30133334D01*
D10*
X-1366666Y-30166666D02*
X-1200000Y-30166666D01*
D10*
X-1466666Y-30133334D02*
X-1366666Y-30166666D01*
D10*
X-1533333Y-30100000D02*
X-1466666Y-30133334D01*
D10*
X-1600000Y-30033334D02*
X-1533333Y-30100000D01*
D10*
X-1633333Y-29966666D02*
X-1600000Y-30033334D01*
D10*
X-1633333Y-29833334D02*
X-1633333Y-29966666D01*
D10*
X-1600000Y-29766666D02*
X-1633333Y-29833334D01*
D10*
X-1533333Y-29700000D02*
X-1600000Y-29766666D01*
D10*
X-1466666Y-29666666D02*
X-1533333Y-29700000D01*
D10*
X-1633333Y-29433334D02*
X-933333Y-29433334D01*
D10*
X-1633333Y-29033334D02*
X-1633333Y-29433334D01*
D10*
X-1633333Y-28866666D02*
X-933333Y-28866666D01*
D10*
X-1400000Y-28866666D02*
X-933333Y-28400000D01*
D10*
X-1633333Y-28400000D02*
X-1233333Y-28700000D01*
D10*
X-2133333Y11566667D02*
X-2133333Y12266667D01*
D10*
X-2433333Y12266667D02*
X-2133333Y12266667D01*
D10*
X-2533333Y12233333D02*
X-2433333Y12266667D01*
D10*
X-2566666Y12200000D02*
X-2533333Y12233333D01*
D10*
X-2600000Y12133333D02*
X-2566666Y12200000D01*
D10*
X-2600000Y12066667D02*
X-2600000Y12133333D01*
D10*
X-2566666Y12000000D02*
X-2600000Y12066667D01*
D10*
X-2533333Y11966667D02*
X-2566666Y12000000D01*
D10*
X-2433333Y11933333D02*
X-2533333Y11966667D01*
D10*
X-2133333Y11933333D02*
X-2433333Y11933333D01*
D10*
X-2600000Y11566667D02*
X-2366666Y11933333D01*
D10*
X-2833333Y12133333D02*
X-2833333Y12100000D01*
D10*
X-2866666Y12200000D02*
X-2833333Y12133333D01*
D10*
X-2900000Y12233333D02*
X-2866666Y12200000D01*
D10*
X-2966666Y12266667D02*
X-2900000Y12233333D01*
D10*
X-3100000Y12266667D02*
X-2966666Y12266667D01*
D10*
X-3166666Y12233333D02*
X-3100000Y12266667D01*
D10*
X-3200000Y12200000D02*
X-3166666Y12233333D01*
D10*
X-3233333Y12133333D02*
X-3200000Y12200000D01*
D10*
X-3233333Y12066667D02*
X-3233333Y12133333D01*
D10*
X-3200000Y12000000D02*
X-3233333Y12066667D01*
D10*
X-3133333Y11900000D02*
X-3200000Y12000000D01*
D10*
X-2800000Y11566667D02*
X-3133333Y11900000D01*
D10*
X-3266666Y11566667D02*
X-2800000Y11566667D01*
D10*
X-3566666Y12233333D02*
X-3666666Y12266667D01*
D10*
X-3500000Y12133333D02*
X-3566666Y12233333D01*
D10*
X-3466666Y11966667D02*
X-3500000Y12133333D01*
D10*
X-3466666Y11866667D02*
X-3466666Y11966667D01*
D10*
X-3500000Y11700000D02*
X-3466666Y11866667D01*
D10*
X-3566666Y11600000D02*
X-3500000Y11700000D01*
D10*
X-3666666Y11566667D02*
X-3566666Y11600000D01*
D10*
X-3733333Y11566667D02*
X-3666666Y11566667D01*
D10*
X-3833333Y11600000D02*
X-3733333Y11566667D01*
D10*
X-3900000Y11700000D02*
X-3833333Y11600000D01*
D10*
X-3933333Y11866667D02*
X-3900000Y11700000D01*
D10*
X-3933333Y11966667D02*
X-3933333Y11866667D01*
D10*
X-3900000Y12133333D02*
X-3933333Y11966667D01*
D10*
X-3833333Y12233333D02*
X-3900000Y12133333D01*
D10*
X-3733333Y12266667D02*
X-3833333Y12233333D01*
D10*
X-3666666Y12266667D02*
X-3733333Y12266667D01*
D10*
X-3725000Y-20041662D02*
X-3025000Y-20041662D01*
D10*
X-3025000Y-19808330D02*
X-3025000Y-20041662D01*
D10*
X-3058333Y-19708330D02*
X-3025000Y-19808330D01*
D10*
X-3125000Y-19641662D02*
X-3058333Y-19708330D01*
D10*
X-3191667Y-19608330D02*
X-3125000Y-19641662D01*
D10*
X-3291667Y-19574996D02*
X-3191667Y-19608330D01*
D10*
X-3458333Y-19574996D02*
X-3291667Y-19574996D01*
D10*
X-3558333Y-19608330D02*
X-3458333Y-19574996D01*
D10*
X-3625000Y-19641662D02*
X-3558333Y-19608330D01*
D10*
X-3691667Y-19708330D02*
X-3625000Y-19641662D01*
D10*
X-3725000Y-19808330D02*
X-3691667Y-19708330D01*
D10*
X-3725000Y-20041662D02*
X-3725000Y-19808330D01*
D10*
X-3725000Y-19241662D02*
X-3025000Y-18908330D01*
D10*
X-3025000Y-18908330D02*
X-3025000Y-19374996D01*
D10*
X29316666Y3916666D02*
X29316666Y4616666D01*
D10*
X29016666Y4616666D02*
X29316666Y4616666D01*
D10*
X28916666Y4583333D02*
X29016666Y4616666D01*
D10*
X28883334Y4550000D02*
X28916666Y4583333D01*
D10*
X28850000Y4483333D02*
X28883334Y4550000D01*
D10*
X28850000Y4416666D02*
X28850000Y4483333D01*
D10*
X28883334Y4350000D02*
X28850000Y4416666D01*
D10*
X28916666Y4316666D02*
X28883334Y4350000D01*
D10*
X29016666Y4283333D02*
X28916666Y4316666D01*
D10*
X29316666Y4283333D02*
X29016666Y4283333D01*
D10*
X28850000Y3916666D02*
X29083334Y4283333D01*
D10*
X28250000Y4583333D02*
X28216666Y4516666D01*
D10*
X28350000Y4616666D02*
X28250000Y4583333D01*
D10*
X28416666Y4616666D02*
X28350000Y4616666D01*
D10*
X28516666Y4583333D02*
X28416666Y4616666D01*
D10*
X28583334Y4483333D02*
X28516666Y4583333D01*
D10*
X28616666Y4316666D02*
X28583334Y4483333D01*
D10*
X28616666Y4150000D02*
X28616666Y4316666D01*
D10*
X28583334Y4016666D02*
X28616666Y4150000D01*
D10*
X28516666Y3950000D02*
X28583334Y4016666D01*
D10*
X28416666Y3916666D02*
X28516666Y3950000D01*
D10*
X28383334Y3916666D02*
X28416666Y3916666D01*
D10*
X28283334Y3950000D02*
X28383334Y3916666D01*
D10*
X28216666Y4016666D02*
X28283334Y3950000D01*
D10*
X28183334Y4116666D02*
X28216666Y4016666D01*
D10*
X28183334Y4150000D02*
X28183334Y4116666D01*
D10*
X28216666Y4250000D02*
X28183334Y4150000D01*
D10*
X28283334Y4316666D02*
X28216666Y4250000D01*
D10*
X28383334Y4350000D02*
X28283334Y4316666D01*
D10*
X28416666Y4350000D02*
X28383334Y4350000D01*
D10*
X28516666Y4316666D02*
X28416666Y4350000D01*
D10*
X28583334Y4250000D02*
X28516666Y4316666D01*
D10*
X28616666Y4150000D02*
X28583334Y4250000D01*
D10*
X27816666Y4516666D02*
X27883334Y4483333D01*
D10*
X27716666Y4616666D02*
X27816666Y4516666D01*
D10*
X27716666Y3916666D02*
X27716666Y4616666D01*
D10*
X-3433333Y-14166667D02*
X-3500000Y-14133333D01*
D10*
X-3366666Y-14233333D02*
X-3433333Y-14166667D01*
D10*
X-3333333Y-14300000D02*
X-3366666Y-14233333D01*
D10*
X-3333333Y-14433333D02*
X-3333333Y-14300000D01*
D10*
X-3366666Y-14500000D02*
X-3333333Y-14433333D01*
D10*
X-3433333Y-14566667D02*
X-3366666Y-14500000D01*
D10*
X-3500000Y-14600000D02*
X-3433333Y-14566667D01*
D10*
X-3600000Y-14633333D02*
X-3500000Y-14600000D01*
D10*
X-3766666Y-14633333D02*
X-3600000Y-14633333D01*
D10*
X-3866666Y-14600000D02*
X-3766666Y-14633333D01*
D10*
X-3933333Y-14566667D02*
X-3866666Y-14600000D01*
D10*
X-4000000Y-14500000D02*
X-3933333Y-14566667D01*
D10*
X-4033333Y-14433333D02*
X-4000000Y-14500000D01*
D10*
X-4033333Y-14300000D02*
X-4033333Y-14433333D01*
D10*
X-4000000Y-14233333D02*
X-4033333Y-14300000D01*
D10*
X-3933333Y-14166667D02*
X-4000000Y-14233333D01*
D10*
X-3866666Y-14133333D02*
X-3933333Y-14166667D01*
D10*
X-3800000Y-13933333D02*
X-3333333Y-13600000D01*
D10*
X-3800000Y-13433333D02*
X-3800000Y-13933333D01*
D10*
X-4033333Y-13600000D02*
X-3333333Y-13600000D01*
D10*
X-4033333Y-13133333D02*
X-3333333Y-12800000D01*
D10*
X-3333333Y-12800000D02*
X-3333333Y-13266667D01*
D10*
X10633333Y-9233333D02*
X10633333Y-8533333D01*
D10*
X10333333Y-8533333D02*
X10633333Y-8533333D01*
D10*
X10233333Y-8566667D02*
X10333333Y-8533333D01*
D10*
X10200000Y-8600000D02*
X10233333Y-8566667D01*
D10*
X10166667Y-8666667D02*
X10200000Y-8600000D01*
D10*
X10166667Y-8733333D02*
X10166667Y-8666667D01*
D10*
X10200000Y-8800000D02*
X10166667Y-8733333D01*
D10*
X10233333Y-8833333D02*
X10200000Y-8800000D01*
D10*
X10333333Y-8866667D02*
X10233333Y-8833333D01*
D10*
X10633333Y-8866667D02*
X10333333Y-8866667D01*
D10*
X10166667Y-9233333D02*
X10400000Y-8866667D01*
D10*
X9833333Y-9233333D02*
X9500000Y-8533333D01*
D10*
X9500000Y-8533333D02*
X9966667Y-8533333D01*
D10*
X-4133333Y4700000D02*
X-3433333Y4700000D01*
D10*
X-3433333Y5000000D02*
X-3433333Y4700000D01*
D10*
X-3466666Y5100000D02*
X-3433333Y5000000D01*
D10*
X-3500000Y5133333D02*
X-3466666Y5100000D01*
D10*
X-3566666Y5166667D02*
X-3500000Y5133333D01*
D10*
X-3633333Y5166667D02*
X-3566666Y5166667D01*
D10*
X-3700000Y5133333D02*
X-3633333Y5166667D01*
D10*
X-3733333Y5100000D02*
X-3700000Y5133333D01*
D10*
X-3766666Y5000000D02*
X-3733333Y5100000D01*
D10*
X-3766666Y4700000D02*
X-3766666Y5000000D01*
D10*
X-4133333Y5166667D02*
X-3766666Y4933333D01*
D10*
X-3900000Y5366667D02*
X-3433333Y5700000D01*
D10*
X-3900000Y5866666D02*
X-3900000Y5366667D01*
D10*
X-4133333Y5700000D02*
X-3433333Y5700000D01*
D10*
X-4133333Y6166666D02*
X-3433333Y6500000D01*
D10*
X-3433333Y6500000D02*
X-3433333Y6033333D01*
D10*
X3366666Y-11733333D02*
X3366666Y-11033333D01*
D10*
X3066666Y-11033333D02*
X3366666Y-11033333D01*
D10*
X2966666Y-11066667D02*
X3066666Y-11033333D01*
D10*
X2933333Y-11100000D02*
X2966666Y-11066667D01*
D10*
X2900000Y-11166667D02*
X2933333Y-11100000D01*
D10*
X2900000Y-11233333D02*
X2900000Y-11166667D01*
D10*
X2933333Y-11300000D02*
X2900000Y-11233333D01*
D10*
X2966666Y-11333333D02*
X2933333Y-11300000D01*
D10*
X3066666Y-11366667D02*
X2966666Y-11333333D01*
D10*
X3366666Y-11366667D02*
X3066666Y-11366667D01*
D10*
X2900000Y-11733333D02*
X3133333Y-11366667D01*
D10*
X2633333Y-11033333D02*
X2300000Y-11033333D01*
D10*
X2666666Y-11333333D02*
X2633333Y-11033333D01*
D10*
X2633333Y-11300000D02*
X2666666Y-11333333D01*
D10*
X2533333Y-11266667D02*
X2633333Y-11300000D01*
D10*
X2433333Y-11266667D02*
X2533333Y-11266667D01*
D10*
X2333333Y-11300000D02*
X2433333Y-11266667D01*
D10*
X2266666Y-11366667D02*
X2333333Y-11300000D01*
D10*
X2233333Y-11466667D02*
X2266666Y-11366667D01*
D10*
X2233333Y-11533333D02*
X2233333Y-11466667D01*
D10*
X2266666Y-11633333D02*
X2233333Y-11533333D01*
D10*
X2333333Y-11700000D02*
X2266666Y-11633333D01*
D10*
X2433333Y-11733333D02*
X2333333Y-11700000D01*
D10*
X2533333Y-11733333D02*
X2433333Y-11733333D01*
D10*
X2633333Y-11700000D02*
X2533333Y-11733333D01*
D10*
X2666666Y-11666667D02*
X2633333Y-11700000D01*
D10*
X2700000Y-11600000D02*
X2666666Y-11666667D01*
D10*
X2033333Y-11500000D02*
X1700000Y-11033333D01*
D10*
X1533333Y-11500000D02*
X2033333Y-11500000D01*
D10*
X1700000Y-11733333D02*
X1700000Y-11033333D01*
D10*
X11366667Y-32466666D02*
X11833333Y-32466666D01*
D10*
X11800000Y-32366666D02*
X11700000Y-32466666D01*
D10*
X11833333Y-32300000D02*
X11800000Y-32366666D01*
D10*
X11833333Y-32200000D02*
X11833333Y-32300000D01*
D10*
X11800000Y-32133334D02*
X11833333Y-32200000D01*
D10*
X11700000Y-32100000D02*
X11800000Y-32133334D01*
D10*
X11366667Y-32100000D02*
X11700000Y-32100000D01*
D10*
X11366667Y-31833334D02*
X12066667Y-31833334D01*
D10*
X12066667Y-31400000D02*
X12066667Y-31833334D01*
D10*
X11733333Y-31566666D02*
X11733333Y-31833334D01*
D10*
X11366667Y-30866666D02*
X11833333Y-30866666D01*
D10*
X11800000Y-30933334D02*
X11733333Y-30866666D01*
D10*
X11833333Y-31000000D02*
X11800000Y-30933334D01*
D10*
X11833333Y-31100000D02*
X11833333Y-31000000D01*
D10*
X11800000Y-31166666D02*
X11833333Y-31100000D01*
D10*
X11733333Y-31233334D02*
X11800000Y-31166666D01*
D10*
X11633333Y-31266666D02*
X11733333Y-31233334D01*
D10*
X11566667Y-31266666D02*
X11633333Y-31266666D01*
D10*
X11466667Y-31233334D02*
X11566667Y-31266666D01*
D10*
X11400000Y-31166666D02*
X11466667Y-31233334D01*
D10*
X11366667Y-31100000D02*
X11400000Y-31166666D01*
D10*
X11366667Y-31000000D02*
X11366667Y-31100000D01*
D10*
X11400000Y-30933334D02*
X11366667Y-31000000D01*
D10*
X11466667Y-30866666D02*
X11400000Y-30933334D01*
D10*
X11500000Y-30600000D02*
X11833333Y-30600000D01*
D10*
X11400000Y-30566666D02*
X11500000Y-30600000D01*
D10*
X11366667Y-30500000D02*
X11400000Y-30566666D01*
D10*
X11366667Y-30400000D02*
X11366667Y-30500000D01*
D10*
X11400000Y-30333334D02*
X11366667Y-30400000D01*
D10*
X11500000Y-30233334D02*
X11400000Y-30333334D01*
D10*
X11366667Y-30233334D02*
X11833333Y-30233334D01*
D10*
X11366667Y-29966666D02*
X12066667Y-29966666D01*
D10*
X11500000Y-29666666D02*
X12066667Y-29666666D01*
D10*
X11400000Y-29633334D02*
X11500000Y-29666666D01*
D10*
X11366667Y-29566666D02*
X11400000Y-29633334D01*
D10*
X11366667Y-29500000D02*
X11366667Y-29566666D01*
D10*
X11833333Y-29533334D02*
X11833333Y-29766666D01*
D10*
X11666667Y-28433334D02*
X11666667Y-29033334D01*
D10*
X10268667Y-31133334D02*
X10968667Y-31133334D01*
D10*
X10968667Y-30900000D02*
X10968667Y-31133334D01*
D10*
X10935333Y-30800000D02*
X10968667Y-30900000D01*
D10*
X10868667Y-30733334D02*
X10935333Y-30800000D01*
D10*
X10802000Y-30700000D02*
X10868667Y-30733334D01*
D10*
X10702000Y-30666666D02*
X10802000Y-30700000D01*
D10*
X10535333Y-30666666D02*
X10702000Y-30666666D01*
D10*
X10435333Y-30700000D02*
X10535333Y-30666666D01*
D10*
X10368667Y-30733334D02*
X10435333Y-30700000D01*
D10*
X10302000Y-30800000D02*
X10368667Y-30733334D01*
D10*
X10268667Y-30900000D02*
X10302000Y-30800000D01*
D10*
X10268667Y-31133334D02*
X10268667Y-30900000D01*
D10*
X10268667Y-30433334D02*
X10735333Y-30433334D01*
D10*
X10635333Y-30400000D02*
X10535333Y-30433334D01*
D10*
X10702000Y-30333334D02*
X10635333Y-30400000D01*
D10*
X10735333Y-30266666D02*
X10702000Y-30333334D01*
D10*
X10735333Y-30166666D02*
X10735333Y-30266666D01*
D10*
X10935333Y-30000000D02*
X10968667Y-30033334D01*
D10*
X10968667Y-29966666D02*
X10935333Y-30000000D01*
D10*
X11002000Y-30000000D02*
X10968667Y-29966666D01*
D10*
X10968667Y-30033334D02*
X11002000Y-30000000D01*
D10*
X10268667Y-30000000D02*
X10735333Y-30000000D01*
D10*
X10268667Y-29600000D02*
X10735333Y-29800000D01*
D10*
X10268667Y-29600000D02*
X10735333Y-29400000D01*
D10*
X10535333Y-28833334D02*
X10535333Y-29233334D01*
D10*
X10602000Y-28833334D02*
X10535333Y-28833334D01*
D10*
X10668667Y-28866666D02*
X10602000Y-28833334D01*
D10*
X10702000Y-28900000D02*
X10668667Y-28866666D01*
D10*
X10735333Y-28966666D02*
X10702000Y-28900000D01*
D10*
X10735333Y-29066666D02*
X10735333Y-28966666D01*
D10*
X10702000Y-29133334D02*
X10735333Y-29066666D01*
D10*
X10635333Y-29200000D02*
X10702000Y-29133334D01*
D10*
X10535333Y-29233334D02*
X10635333Y-29200000D01*
D10*
X10468667Y-29233334D02*
X10535333Y-29233334D01*
D10*
X10368667Y-29200000D02*
X10468667Y-29233334D01*
D10*
X10302000Y-29133334D02*
X10368667Y-29200000D01*
D10*
X10268667Y-29066666D02*
X10302000Y-29133334D01*
D10*
X10268667Y-28966666D02*
X10268667Y-29066666D01*
D10*
X10302000Y-28900000D02*
X10268667Y-28966666D01*
D10*
X10368667Y-28833334D02*
X10302000Y-28900000D01*
D10*
X10268667Y-28600000D02*
X10735333Y-28600000D01*
D10*
X10635333Y-28566666D02*
X10535333Y-28600000D01*
D10*
X10702000Y-28500000D02*
X10635333Y-28566666D01*
D10*
X10735333Y-28433334D02*
X10702000Y-28500000D01*
D10*
X10735333Y-28333334D02*
X10735333Y-28433334D01*
D10*
X7166666Y-12366667D02*
X7100000Y-12333333D01*
D10*
X7233333Y-12433333D02*
X7166666Y-12366667D01*
D10*
X7266666Y-12500000D02*
X7233333Y-12433333D01*
D10*
X7266666Y-12633333D02*
X7266666Y-12500000D01*
D10*
X7233333Y-12700000D02*
X7266666Y-12633333D01*
D10*
X7166666Y-12766667D02*
X7233333Y-12700000D01*
D10*
X7100000Y-12800000D02*
X7166666Y-12766667D01*
D10*
X7000000Y-12833333D02*
X7100000Y-12800000D01*
D10*
X6833333Y-12833333D02*
X7000000Y-12833333D01*
D10*
X6733333Y-12800000D02*
X6833333Y-12833333D01*
D10*
X6666666Y-12766667D02*
X6733333Y-12800000D01*
D10*
X6600000Y-12700000D02*
X6666666Y-12766667D01*
D10*
X6566666Y-12633333D02*
X6600000Y-12700000D01*
D10*
X6566666Y-12500000D02*
X6566666Y-12633333D01*
D10*
X6600000Y-12433333D02*
X6566666Y-12500000D01*
D10*
X6666666Y-12366667D02*
X6600000Y-12433333D01*
D10*
X6733333Y-12333333D02*
X6666666Y-12366667D01*
D10*
X6800000Y-12133333D02*
X7266666Y-11800000D01*
D10*
X6800000Y-11633333D02*
X6800000Y-12133333D01*
D10*
X6566666Y-11800000D02*
X7266666Y-11800000D01*
D10*
X7233333Y-11400000D02*
X7266666Y-11300000D01*
D10*
X7166666Y-11433333D02*
X7233333Y-11400000D01*
D10*
X7100000Y-11433333D02*
X7166666Y-11433333D01*
D10*
X7033333Y-11400000D02*
X7100000Y-11433333D01*
D10*
X7000000Y-11333333D02*
X7033333Y-11400000D01*
D10*
X6966666Y-11200000D02*
X7000000Y-11333333D01*
D10*
X6933333Y-11100000D02*
X6966666Y-11200000D01*
D10*
X6866666Y-11033333D02*
X6933333Y-11100000D01*
D10*
X6800000Y-11000000D02*
X6866666Y-11033333D01*
D10*
X6700000Y-11000000D02*
X6800000Y-11000000D01*
D10*
X6633333Y-11033333D02*
X6700000Y-11000000D01*
D10*
X6600000Y-11066667D02*
X6633333Y-11033333D01*
D10*
X6566666Y-11166667D02*
X6600000Y-11066667D01*
D10*
X6566666Y-11300000D02*
X6566666Y-11166667D01*
D10*
X6600000Y-11400000D02*
X6566666Y-11300000D01*
D10*
X6633333Y-11433333D02*
X6600000Y-11400000D01*
D10*
X6700000Y-11466667D02*
X6633333Y-11433333D01*
D10*
X6800000Y-11466667D02*
X6700000Y-11466667D01*
D10*
X6866666Y-11433333D02*
X6800000Y-11466667D01*
D10*
X6933333Y-11366667D02*
X6866666Y-11433333D01*
D10*
X6966666Y-11266667D02*
X6933333Y-11366667D01*
D10*
X7000000Y-11133333D02*
X6966666Y-11266667D01*
D10*
X7033333Y-11066667D02*
X7000000Y-11133333D01*
D10*
X7100000Y-11033333D02*
X7033333Y-11066667D01*
D10*
X7166666Y-11033333D02*
X7100000Y-11033333D01*
D10*
X7233333Y-11066667D02*
X7166666Y-11033333D01*
D10*
X7266666Y-11166667D02*
X7233333Y-11066667D01*
D10*
X7266666Y-11300000D02*
X7266666Y-11166667D01*
D10*
X3366666Y-30633334D02*
X4066666Y-30633334D01*
D10*
X3366666Y-30366666D02*
X4066666Y-30633334D01*
D10*
X3366666Y-30366666D02*
X4066666Y-30100000D01*
D10*
X3366666Y-30100000D02*
X4066666Y-30100000D01*
D10*
X4033333Y-29733334D02*
X4066666Y-29666666D01*
D10*
X3966666Y-29800000D02*
X4033333Y-29733334D01*
D10*
X3900000Y-29833334D02*
X3966666Y-29800000D01*
D10*
X3800000Y-29866666D02*
X3900000Y-29833334D01*
D10*
X3633333Y-29866666D02*
X3800000Y-29866666D01*
D10*
X3533333Y-29833334D02*
X3633333Y-29866666D01*
D10*
X3466666Y-29800000D02*
X3533333Y-29833334D01*
D10*
X3400000Y-29733334D02*
X3466666Y-29800000D01*
D10*
X3366666Y-29666666D02*
X3400000Y-29733334D01*
D10*
X3366666Y-29533334D02*
X3366666Y-29666666D01*
D10*
X3400000Y-29466666D02*
X3366666Y-29533334D01*
D10*
X3466666Y-29400000D02*
X3400000Y-29466666D01*
D10*
X3533333Y-29366666D02*
X3466666Y-29400000D01*
D10*
X3633333Y-29333334D02*
X3533333Y-29366666D01*
D10*
X3800000Y-29333334D02*
X3633333Y-29333334D01*
D10*
X3900000Y-29366666D02*
X3800000Y-29333334D01*
D10*
X3966666Y-29400000D02*
X3900000Y-29366666D01*
D10*
X4033333Y-29466666D02*
X3966666Y-29400000D01*
D10*
X4066666Y-29533334D02*
X4033333Y-29466666D01*
D10*
X4066666Y-29666666D02*
X4066666Y-29533334D01*
D10*
X4033333Y-28733334D02*
X3966666Y-28666666D01*
D10*
X4066666Y-28833334D02*
X4033333Y-28733334D01*
D10*
X4066666Y-28966666D02*
X4066666Y-28833334D01*
D10*
X4033333Y-29066666D02*
X4066666Y-28966666D01*
D10*
X3966666Y-29133334D02*
X4033333Y-29066666D01*
D10*
X3900000Y-29133334D02*
X3966666Y-29133334D01*
D10*
X3833333Y-29100000D02*
X3900000Y-29133334D01*
D10*
X3800000Y-29066666D02*
X3833333Y-29100000D01*
D10*
X3766666Y-29000000D02*
X3800000Y-29066666D01*
D10*
X3700000Y-28800000D02*
X3766666Y-29000000D01*
D10*
X3666666Y-28733334D02*
X3700000Y-28800000D01*
D10*
X3633333Y-28700000D02*
X3666666Y-28733334D01*
D10*
X3566666Y-28666666D02*
X3633333Y-28700000D01*
D10*
X3466666Y-28666666D02*
X3566666Y-28666666D01*
D10*
X3400000Y-28733334D02*
X3466666Y-28666666D01*
D10*
X3366666Y-28833334D02*
X3400000Y-28733334D01*
D10*
X3366666Y-28966666D02*
X3366666Y-28833334D01*
D10*
X3400000Y-29066666D02*
X3366666Y-28966666D01*
D10*
X3466666Y-29133334D02*
X3400000Y-29066666D01*
D10*
X3366666Y-28433334D02*
X4066666Y-28433334D01*
D10*
X9566667Y-23400000D02*
X9500000Y-23366666D01*
D10*
X9633333Y-23466666D02*
X9566667Y-23400000D01*
D10*
X9666667Y-23533334D02*
X9633333Y-23466666D01*
D10*
X9666667Y-23666666D02*
X9666667Y-23533334D01*
D10*
X9633333Y-23733334D02*
X9666667Y-23666666D01*
D10*
X9566667Y-23800000D02*
X9633333Y-23733334D01*
D10*
X9500000Y-23833334D02*
X9566667Y-23800000D01*
D10*
X9400000Y-23866666D02*
X9500000Y-23833334D01*
D10*
X9233333Y-23866666D02*
X9400000Y-23866666D01*
D10*
X9133333Y-23833334D02*
X9233333Y-23866666D01*
D10*
X9066667Y-23800000D02*
X9133333Y-23833334D01*
D10*
X9000000Y-23733334D02*
X9066667Y-23800000D01*
D10*
X8966667Y-23666666D02*
X9000000Y-23733334D01*
D10*
X8966667Y-23533334D02*
X8966667Y-23666666D01*
D10*
X9000000Y-23466666D02*
X8966667Y-23533334D01*
D10*
X9066667Y-23400000D02*
X9000000Y-23466666D01*
D10*
X9133333Y-23366666D02*
X9066667Y-23400000D01*
D10*
X9633333Y-22766666D02*
X9566667Y-22700000D01*
D10*
X9666667Y-22866666D02*
X9633333Y-22766666D01*
D10*
X9666667Y-23000000D02*
X9666667Y-22866666D01*
D10*
X9633333Y-23100000D02*
X9666667Y-23000000D01*
D10*
X9566667Y-23166666D02*
X9633333Y-23100000D01*
D10*
X9500000Y-23166666D02*
X9566667Y-23166666D01*
D10*
X9433333Y-23133334D02*
X9500000Y-23166666D01*
D10*
X9400000Y-23100000D02*
X9433333Y-23133334D01*
D10*
X9366667Y-23033334D02*
X9400000Y-23100000D01*
D10*
X9300000Y-22833334D02*
X9366667Y-23033334D01*
D10*
X9266667Y-22766666D02*
X9300000Y-22833334D01*
D10*
X9233333Y-22733334D02*
X9266667Y-22766666D01*
D10*
X9166667Y-22700000D02*
X9233333Y-22733334D01*
D10*
X9066667Y-22700000D02*
X9166667Y-22700000D01*
D10*
X9000000Y-22766666D02*
X9066667Y-22700000D01*
D10*
X8966667Y-22866666D02*
X9000000Y-22766666D01*
D10*
X8966667Y-23000000D02*
X8966667Y-22866666D01*
D10*
X9000000Y-23100000D02*
X8966667Y-23000000D01*
D10*
X9066667Y-23166666D02*
X9000000Y-23100000D01*
D10*
X9266667Y-21600000D02*
X9266667Y-22200000D01*
D10*
X7868666Y-24033334D02*
X8568667Y-24033334D01*
D10*
X7868666Y-23766666D02*
X8568667Y-24033334D01*
D10*
X7868666Y-23766666D02*
X8568667Y-23500000D01*
D10*
X7868666Y-23500000D02*
X8568667Y-23500000D01*
D10*
X7868666Y-22866666D02*
X8335333Y-22866666D01*
D10*
X8302000Y-22933334D02*
X8235333Y-22866666D01*
D10*
X8335333Y-23000000D02*
X8302000Y-22933334D01*
D10*
X8335333Y-23100000D02*
X8335333Y-23000000D01*
D10*
X8302000Y-23166666D02*
X8335333Y-23100000D01*
D10*
X8235333Y-23233334D02*
X8302000Y-23166666D01*
D10*
X8135333Y-23266666D02*
X8235333Y-23233334D01*
D10*
X8068666Y-23266666D02*
X8135333Y-23266666D01*
D10*
X7968666Y-23233334D02*
X8068666Y-23266666D01*
D10*
X7902000Y-23166666D02*
X7968666Y-23233334D01*
D10*
X7868666Y-23100000D02*
X7902000Y-23166666D01*
D10*
X7868666Y-23000000D02*
X7868666Y-23100000D01*
D10*
X7902000Y-22933334D02*
X7868666Y-23000000D01*
D10*
X7968666Y-22866666D02*
X7902000Y-22933334D01*
D10*
X7802000Y-22233334D02*
X8335333Y-22233334D01*
D10*
X7702000Y-22266666D02*
X7802000Y-22233334D01*
D10*
X7668666Y-22300000D02*
X7702000Y-22266666D01*
D10*
X7635333Y-22366666D02*
X7668666Y-22300000D01*
D10*
X7635333Y-22466666D02*
X7635333Y-22366666D01*
D10*
X7668666Y-22533334D02*
X7635333Y-22466666D01*
D10*
X8302000Y-22300000D02*
X8235333Y-22233334D01*
D10*
X8335333Y-22366666D02*
X8302000Y-22300000D01*
D10*
X8335333Y-22466666D02*
X8335333Y-22366666D01*
D10*
X8302000Y-22533334D02*
X8335333Y-22466666D01*
D10*
X8235333Y-22600000D02*
X8302000Y-22533334D01*
D10*
X8135333Y-22633334D02*
X8235333Y-22600000D01*
D10*
X8068666Y-22633334D02*
X8135333Y-22633334D01*
D10*
X7968666Y-22600000D02*
X8068666Y-22633334D01*
D10*
X7902000Y-22533334D02*
X7968666Y-22600000D01*
D10*
X7868666Y-22466666D02*
X7902000Y-22533334D01*
D10*
X7868666Y-22366666D02*
X7868666Y-22466666D01*
D10*
X7902000Y-22300000D02*
X7868666Y-22366666D01*
D10*
X7968666Y-22233334D02*
X7902000Y-22300000D01*
D10*
X7868666Y-21700000D02*
X8568667Y-21700000D01*
D10*
X8568667Y-21266666D02*
X8568667Y-21700000D01*
D10*
X8235333Y-21433334D02*
X8235333Y-21700000D01*
D10*
X7868666Y-21266666D02*
X7868666Y-21700000D01*
D10*
X21266666Y-31033334D02*
X21966666Y-31033334D01*
D10*
X21266666Y-30766666D02*
X21966666Y-30766666D01*
D10*
X21266666Y-30300000D02*
X21966666Y-30766666D01*
D10*
X21266666Y-30300000D02*
X21966666Y-30300000D01*
D10*
X21266666Y-30033334D02*
X21966666Y-30033334D01*
D10*
X21266666Y-29633334D02*
X21266666Y-30033334D01*
D10*
X21266666Y-29033334D02*
X21266666Y-29566666D01*
D10*
X21866666Y-28433334D02*
X21800000Y-28400000D01*
D10*
X21933334Y-28500000D02*
X21866666Y-28433334D01*
D10*
X21966666Y-28566666D02*
X21933334Y-28500000D01*
D10*
X21966666Y-28700000D02*
X21966666Y-28566666D01*
D10*
X21933334Y-28766666D02*
X21966666Y-28700000D01*
D10*
X21866666Y-28833334D02*
X21933334Y-28766666D01*
D10*
X21800000Y-28866666D02*
X21866666Y-28833334D01*
D10*
X21700000Y-28900000D02*
X21800000Y-28866666D01*
D10*
X21533334Y-28900000D02*
X21700000Y-28900000D01*
D10*
X21433334Y-28866666D02*
X21533334Y-28900000D01*
D10*
X21366666Y-28833334D02*
X21433334Y-28866666D01*
D10*
X21300000Y-28766666D02*
X21366666Y-28833334D01*
D10*
X21266666Y-28700000D02*
X21300000Y-28766666D01*
D10*
X21266666Y-28566666D02*
X21266666Y-28700000D01*
D10*
X21300000Y-28500000D02*
X21266666Y-28566666D01*
D10*
X21366666Y-28433334D02*
X21300000Y-28500000D01*
D10*
X21433334Y-28400000D02*
X21366666Y-28433334D01*
D10*
X10716667Y18833334D02*
X10650000Y18866666D01*
D10*
X10783333Y18766666D02*
X10716667Y18833334D01*
D10*
X10816667Y18700000D02*
X10783333Y18766666D01*
D10*
X10850000Y18600000D02*
X10816667Y18700000D01*
D10*
X10850000Y18433334D02*
X10850000Y18600000D01*
D10*
X10816667Y18333334D02*
X10850000Y18433334D01*
D10*
X10783333Y18266666D02*
X10816667Y18333334D01*
D10*
X10716667Y18200000D02*
X10783333Y18266666D01*
D10*
X10650000Y18166666D02*
X10716667Y18200000D01*
D10*
X10516667Y18166666D02*
X10650000Y18166666D01*
D10*
X10450000Y18200000D02*
X10516667Y18166666D01*
D10*
X10383333Y18266666D02*
X10450000Y18200000D01*
D10*
X10350000Y18333334D02*
X10383333Y18266666D01*
D10*
X10316667Y18433334D02*
X10350000Y18333334D01*
D10*
X10316667Y18600000D02*
X10316667Y18433334D01*
D10*
X10350000Y18700000D02*
X10316667Y18600000D01*
D10*
X10383333Y18766666D02*
X10350000Y18700000D01*
D10*
X10450000Y18833334D02*
X10383333Y18766666D01*
D10*
X10516667Y18866666D02*
X10450000Y18833334D01*
D10*
X10650000Y18866666D02*
X10516667Y18866666D01*
D10*
X10350000Y18100000D02*
X10550000Y18300000D01*
D10*
X9950000Y18766666D02*
X10016667Y18733334D01*
D10*
X9850000Y18866666D02*
X9950000Y18766666D01*
D10*
X9850000Y18166666D02*
X9850000Y18866666D01*
D10*
X-1033333Y-23466666D02*
X-1100000Y-23433334D01*
D10*
X-966666Y-23533334D02*
X-1033333Y-23466666D01*
D10*
X-933333Y-23600000D02*
X-966666Y-23533334D01*
D10*
X-933333Y-23733332D02*
X-933333Y-23600000D01*
D10*
X-966666Y-23800000D02*
X-933333Y-23733332D01*
D10*
X-1033333Y-23866666D02*
X-966666Y-23800000D01*
D10*
X-1100000Y-23900000D02*
X-1033333Y-23866666D01*
D10*
X-1200000Y-23933332D02*
X-1100000Y-23900000D01*
D10*
X-1366666Y-23933332D02*
X-1200000Y-23933332D01*
D10*
X-1466666Y-23900000D02*
X-1366666Y-23933332D01*
D10*
X-1533333Y-23866666D02*
X-1466666Y-23900000D01*
D10*
X-1600000Y-23800000D02*
X-1533333Y-23866666D01*
D10*
X-1633333Y-23733332D02*
X-1600000Y-23800000D01*
D10*
X-1633333Y-23600000D02*
X-1633333Y-23733332D01*
D10*
X-1600000Y-23533334D02*
X-1633333Y-23600000D01*
D10*
X-1533333Y-23466666D02*
X-1600000Y-23533334D01*
D10*
X-1466666Y-23433334D02*
X-1533333Y-23466666D01*
D10*
X-966666Y-22833334D02*
X-1033333Y-22766666D01*
D10*
X-933333Y-22933334D02*
X-966666Y-22833334D01*
D10*
X-933333Y-23066666D02*
X-933333Y-22933334D01*
D10*
X-966666Y-23166666D02*
X-933333Y-23066666D01*
D10*
X-1033333Y-23233334D02*
X-966666Y-23166666D01*
D10*
X-1100000Y-23233334D02*
X-1033333Y-23233334D01*
D10*
X-1166666Y-23200000D02*
X-1100000Y-23233334D01*
D10*
X-1200000Y-23166666D02*
X-1166666Y-23200000D01*
D10*
X-1233333Y-23100000D02*
X-1200000Y-23166666D01*
D10*
X-1300000Y-22900000D02*
X-1233333Y-23100000D01*
D10*
X-1333333Y-22833334D02*
X-1300000Y-22900000D01*
D10*
X-1366666Y-22800000D02*
X-1333333Y-22833334D01*
D10*
X-1433333Y-22766666D02*
X-1366666Y-22800000D01*
D10*
X-1533333Y-22766666D02*
X-1433333Y-22766666D01*
D10*
X-1600000Y-22833334D02*
X-1533333Y-22766666D01*
D10*
X-1633333Y-22933334D02*
X-1600000Y-22833334D01*
D10*
X-1633333Y-23066666D02*
X-1633333Y-22933334D01*
D10*
X-1600000Y-23166666D02*
X-1633333Y-23066666D01*
D10*
X-1533333Y-23233334D02*
X-1600000Y-23166666D01*
D10*
X-1333333Y-21666666D02*
X-1333333Y-22266666D01*
D10*
X-1633333Y-21133334D02*
X-933333Y-21133334D01*
D10*
X-933333Y-20700000D02*
X-933333Y-21133334D01*
D10*
X-1266666Y-20866666D02*
X-1266666Y-21133334D01*
D10*
X-1633333Y-20533334D02*
X-933333Y-20533334D01*
D10*
X-933333Y-20100000D02*
X-933333Y-20533334D01*
D10*
X-1266666Y-20266666D02*
X-1266666Y-20533334D01*
D10*
X-1633333Y-20100000D02*
X-1633333Y-20533334D01*
D10*
X-1633333Y-19766666D02*
X-933333Y-19766666D01*
D10*
X-933333Y-19533334D02*
X-933333Y-20000000D01*
D10*
X21166666Y-23833334D02*
X21866666Y-23833334D01*
D10*
X21166666Y-23566666D02*
X21866666Y-23566666D01*
D10*
X21166666Y-23100000D02*
X21866666Y-23566666D01*
D10*
X21166666Y-23100000D02*
X21866666Y-23100000D01*
D10*
X21166666Y-22833334D02*
X21866666Y-22833334D01*
D10*
X21166666Y-22433334D02*
X21166666Y-22833334D01*
D10*
X21166666Y-21833334D02*
X21166666Y-22366666D01*
D10*
X21166666Y-21666666D02*
X21866666Y-21666666D01*
D10*
X21866666Y-21366666D02*
X21866666Y-21666666D01*
D10*
X21833334Y-21266666D02*
X21866666Y-21366666D01*
D10*
X21800000Y-21233334D02*
X21833334Y-21266666D01*
D10*
X21733334Y-21200000D02*
X21800000Y-21233334D01*
D10*
X21666666Y-21200000D02*
X21733334Y-21200000D01*
D10*
X21600000Y-21233334D02*
X21666666Y-21200000D01*
D10*
X21566666Y-21266666D02*
X21600000Y-21233334D01*
D10*
X21533334Y-21366666D02*
X21566666Y-21266666D01*
D10*
X21533334Y-21366666D02*
X21533334Y-21666666D01*
D10*
X21500000Y-21266666D02*
X21533334Y-21366666D01*
D10*
X21466666Y-21233334D02*
X21500000Y-21266666D01*
D10*
X21400000Y-21200000D02*
X21466666Y-21233334D01*
D10*
X21300000Y-21200000D02*
X21400000Y-21200000D01*
D10*
X21233334Y-21233334D02*
X21300000Y-21200000D01*
D10*
X21200000Y-21266666D02*
X21233334Y-21233334D01*
D10*
X21166666Y-21366666D02*
X21200000Y-21266666D01*
D10*
X21166666Y-21666666D02*
X21166666Y-21366666D01*
D10*
X5066666Y17366666D02*
X5066666Y18066666D01*
D10*
X4766666Y18066666D02*
X5066666Y18066666D01*
D10*
X4666666Y18033334D02*
X4766666Y18066666D01*
D10*
X4633333Y18000000D02*
X4666666Y18033334D01*
D10*
X4600000Y17933334D02*
X4633333Y18000000D01*
D10*
X4600000Y17866666D02*
X4600000Y17933334D01*
D10*
X4633333Y17800000D02*
X4600000Y17866666D01*
D10*
X4666666Y17766666D02*
X4633333Y17800000D01*
D10*
X4766666Y17733334D02*
X4666666Y17766666D01*
D10*
X5066666Y17733334D02*
X4766666Y17733334D01*
D10*
X4600000Y17366666D02*
X4833333Y17733334D01*
D10*
X4366666Y17933334D02*
X4366666Y17900000D01*
D10*
X4333333Y18000000D02*
X4366666Y17933334D01*
D10*
X4300000Y18033334D02*
X4333333Y18000000D01*
D10*
X4233333Y18066666D02*
X4300000Y18033334D01*
D10*
X4100000Y18066666D02*
X4233333Y18066666D01*
D10*
X4033333Y18033334D02*
X4100000Y18066666D01*
D10*
X4000000Y18000000D02*
X4033333Y18033334D01*
D10*
X3966666Y17933334D02*
X4000000Y18000000D01*
D10*
X3966666Y17866666D02*
X3966666Y17933334D01*
D10*
X4000000Y17800000D02*
X3966666Y17866666D01*
D10*
X4066666Y17700000D02*
X4000000Y17800000D01*
D10*
X4400000Y17366666D02*
X4066666Y17700000D01*
D10*
X3933333Y17366666D02*
X4400000Y17366666D01*
D10*
X3566666Y17966666D02*
X3633333Y17933334D01*
D10*
X3466666Y18066666D02*
X3566666Y17966666D01*
D10*
X3466666Y17366666D02*
X3466666Y18066666D01*
D10*
X3400000Y-1933333D02*
X3400000Y-1233333D01*
D10*
X3100000Y-1233333D02*
X3400000Y-1233333D01*
D10*
X3000000Y-1266666D02*
X3100000Y-1233333D01*
D10*
X2966666Y-1300000D02*
X3000000Y-1266666D01*
D10*
X2933333Y-1366666D02*
X2966666Y-1300000D01*
D10*
X2933333Y-1433333D02*
X2933333Y-1366666D01*
D10*
X2966666Y-1500000D02*
X2933333Y-1433333D01*
D10*
X3000000Y-1533333D02*
X2966666Y-1500000D01*
D10*
X3100000Y-1566666D02*
X3000000Y-1533333D01*
D10*
X3400000Y-1566666D02*
X3100000Y-1566666D01*
D10*
X2933333Y-1933333D02*
X3166666Y-1566666D01*
D10*
X2666666Y-1233333D02*
X2333333Y-1233333D01*
D10*
X2700000Y-1533333D02*
X2666666Y-1233333D01*
D10*
X2666666Y-1500000D02*
X2700000Y-1533333D01*
D10*
X2566666Y-1466666D02*
X2666666Y-1500000D01*
D10*
X2466666Y-1466666D02*
X2566666Y-1466666D01*
D10*
X2366666Y-1500000D02*
X2466666Y-1466666D01*
D10*
X2300000Y-1566666D02*
X2366666Y-1500000D01*
D10*
X2266666Y-1666666D02*
X2300000Y-1566666D01*
D10*
X2266666Y-1733333D02*
X2266666Y-1666666D01*
D10*
X2300000Y-1833333D02*
X2266666Y-1733333D01*
D10*
X2366666Y-1900000D02*
X2300000Y-1833333D01*
D10*
X2466666Y-1933333D02*
X2366666Y-1900000D01*
D10*
X2566666Y-1933333D02*
X2466666Y-1933333D01*
D10*
X2666666Y-1900000D02*
X2566666Y-1933333D01*
D10*
X2700000Y-1866666D02*
X2666666Y-1900000D01*
D10*
X2733333Y-1800000D02*
X2700000Y-1866666D01*
D10*
X2033333Y-1366666D02*
X2033333Y-1400000D01*
D10*
X2000000Y-1300000D02*
X2033333Y-1366666D01*
D10*
X1966666Y-1266666D02*
X2000000Y-1300000D01*
D10*
X1900000Y-1233333D02*
X1966666Y-1266666D01*
D10*
X1766666Y-1233333D02*
X1900000Y-1233333D01*
D10*
X1700000Y-1266666D02*
X1766666Y-1233333D01*
D10*
X1666666Y-1300000D02*
X1700000Y-1266666D01*
D10*
X1633333Y-1366666D02*
X1666666Y-1300000D01*
D10*
X1633333Y-1433333D02*
X1633333Y-1366666D01*
D10*
X1666666Y-1500000D02*
X1633333Y-1433333D01*
D10*
X1733333Y-1600000D02*
X1666666Y-1500000D01*
D10*
X2066666Y-1933333D02*
X1733333Y-1600000D01*
D10*
X1600000Y-1933333D02*
X2066666Y-1933333D01*
D10*
X14800000Y-8033333D02*
X14800000Y-7333333D01*
D10*
X14500000Y-7333333D02*
X14800000Y-7333333D01*
D10*
X14400000Y-7366666D02*
X14500000Y-7333333D01*
D10*
X14366667Y-7400000D02*
X14400000Y-7366666D01*
D10*
X14333333Y-7466666D02*
X14366667Y-7400000D01*
D10*
X14333333Y-7533333D02*
X14333333Y-7466666D01*
D10*
X14366667Y-7600000D02*
X14333333Y-7533333D01*
D10*
X14400000Y-7633333D02*
X14366667Y-7600000D01*
D10*
X14500000Y-7666666D02*
X14400000Y-7633333D01*
D10*
X14800000Y-7666666D02*
X14500000Y-7666666D01*
D10*
X14333333Y-8033333D02*
X14566667Y-7666666D01*
D10*
X13966667Y-7433333D02*
X14033333Y-7466666D01*
D10*
X13866667Y-7333333D02*
X13966667Y-7433333D01*
D10*
X13866667Y-8033333D02*
X13866667Y-7333333D01*
D10*
X13433333Y-7466666D02*
X13433333Y-7500000D01*
D10*
X13400000Y-7400000D02*
X13433333Y-7466666D01*
D10*
X13366667Y-7366666D02*
X13400000Y-7400000D01*
D10*
X13300000Y-7333333D02*
X13366667Y-7366666D01*
D10*
X13166667Y-7333333D02*
X13300000Y-7333333D01*
D10*
X13100000Y-7366666D02*
X13166667Y-7333333D01*
D10*
X13066667Y-7400000D02*
X13100000Y-7366666D01*
D10*
X13033333Y-7466666D02*
X13066667Y-7400000D01*
D10*
X13033333Y-7533333D02*
X13033333Y-7466666D01*
D10*
X13066667Y-7600000D02*
X13033333Y-7533333D01*
D10*
X13133333Y-7700000D02*
X13066667Y-7600000D01*
D10*
X13466667Y-8033333D02*
X13133333Y-7700000D01*
D10*
X13000000Y-8033333D02*
X13466667Y-8033333D01*
D10*
X7966666Y-1433333D02*
X7933333Y-1500000D01*
D10*
X8033333Y-1366666D02*
X7966666Y-1433333D01*
D10*
X8100000Y-1333333D02*
X8033333Y-1366666D01*
D10*
X8233333Y-1333333D02*
X8100000Y-1333333D01*
D10*
X8300000Y-1366666D02*
X8233333Y-1333333D01*
D10*
X8366666Y-1433333D02*
X8300000Y-1366666D01*
D10*
X8400000Y-1500000D02*
X8366666Y-1433333D01*
D10*
X8433333Y-1600000D02*
X8400000Y-1500000D01*
D10*
X8433333Y-1766666D02*
X8433333Y-1600000D01*
D10*
X8400000Y-1866666D02*
X8433333Y-1766666D01*
D10*
X8366666Y-1933333D02*
X8400000Y-1866666D01*
D10*
X8300000Y-2000000D02*
X8366666Y-1933333D01*
D10*
X8233333Y-2033333D02*
X8300000Y-2000000D01*
D10*
X8100000Y-2033333D02*
X8233333Y-2033333D01*
D10*
X8033333Y-2000000D02*
X8100000Y-2033333D01*
D10*
X7966666Y-1933333D02*
X8033333Y-2000000D01*
D10*
X7933333Y-1866666D02*
X7966666Y-1933333D01*
D10*
X7733333Y-1800000D02*
X7400000Y-1333333D01*
D10*
X7233333Y-1800000D02*
X7733333Y-1800000D01*
D10*
X7400000Y-2033333D02*
X7400000Y-1333333D01*
D10*
X6633333Y-1333333D02*
X7000000Y-1333333D01*
D10*
X6833333Y-1600000D02*
X6633333Y-1333333D01*
D10*
X6733333Y-1600000D02*
X6833333Y-1600000D01*
D10*
X6666666Y-1633333D02*
X6733333Y-1600000D01*
D10*
X6633333Y-1666666D02*
X6666666Y-1633333D01*
D10*
X6600000Y-1766666D02*
X6633333Y-1666666D01*
D10*
X6600000Y-1833333D02*
X6600000Y-1766666D01*
D10*
X6633333Y-1933333D02*
X6600000Y-1833333D01*
D10*
X6700000Y-2000000D02*
X6633333Y-1933333D01*
D10*
X6800000Y-2033333D02*
X6700000Y-2000000D01*
D10*
X6900000Y-2033333D02*
X6800000Y-2033333D01*
D10*
X7000000Y-2000000D02*
X6900000Y-2033333D01*
D10*
X7033333Y-1966666D02*
X7000000Y-2000000D01*
D10*
X7066666Y-1900000D02*
X7033333Y-1966666D01*
D10*
X-2508333Y-8733333D02*
X-2008333Y-8733333D01*
D10*
X-2608333Y-8700000D02*
X-2508333Y-8733333D01*
D10*
X-2675000Y-8633333D02*
X-2608333Y-8700000D01*
D10*
X-2708333Y-8533333D02*
X-2675000Y-8633333D01*
D10*
X-2708333Y-8466667D02*
X-2708333Y-8533333D01*
D10*
X-2675000Y-8366666D02*
X-2708333Y-8466667D01*
D10*
X-2608333Y-8300000D02*
X-2675000Y-8366666D01*
D10*
X-2508333Y-8266666D02*
X-2608333Y-8300000D01*
D10*
X-2008333Y-8266666D02*
X-2508333Y-8266666D01*
D10*
X-2108333Y-7866666D02*
X-2141666Y-7933333D01*
D10*
X-2008333Y-7766666D02*
X-2108333Y-7866666D01*
D10*
X-2708333Y-7766666D02*
X-2008333Y-7766666D01*
D10*
X-2141666Y-7333333D02*
X-2175000Y-7333333D01*
D10*
X-2075000Y-7300000D02*
X-2141666Y-7333333D01*
D10*
X-2041666Y-7266666D02*
X-2075000Y-7300000D01*
D10*
X-2008333Y-7200000D02*
X-2041666Y-7266666D01*
D10*
X-2008333Y-7066666D02*
X-2008333Y-7200000D01*
D10*
X-2041666Y-7000000D02*
X-2008333Y-7066666D01*
D10*
X-2075000Y-6966666D02*
X-2041666Y-7000000D01*
D10*
X-2141666Y-6933333D02*
X-2075000Y-6966666D01*
D10*
X-2208333Y-6933333D02*
X-2141666Y-6933333D01*
D10*
X-2275000Y-6966666D02*
X-2208333Y-6933333D01*
D10*
X-2375000Y-7033333D02*
X-2275000Y-6966666D01*
D10*
X-2708333Y-7366666D02*
X-2375000Y-7033333D01*
D10*
X-2708333Y-6900000D02*
X-2708333Y-7366666D01*
D10*
X16166667Y-32600000D02*
X16866666Y-32600000D01*
D10*
X16866666Y-32166666D02*
X16866666Y-32600000D01*
D10*
X16533333Y-32333334D02*
X16533333Y-32600000D01*
D10*
X16166667Y-32166666D02*
X16166667Y-32600000D01*
D10*
X16166667Y-31966666D02*
X16866666Y-31966666D01*
D10*
X16166667Y-31500000D02*
X16866666Y-31966666D01*
D10*
X16166667Y-31500000D02*
X16866666Y-31500000D01*
D10*
X16166667Y-30800000D02*
X16166667Y-31333334D01*
D10*
X16766667Y-30200000D02*
X16700000Y-30166666D01*
D10*
X16833334Y-30266666D02*
X16766667Y-30200000D01*
D10*
X16866666Y-30333334D02*
X16833334Y-30266666D01*
D10*
X16866666Y-30466666D02*
X16866666Y-30333334D01*
D10*
X16833334Y-30533334D02*
X16866666Y-30466666D01*
D10*
X16766667Y-30600000D02*
X16833334Y-30533334D01*
D10*
X16700000Y-30633334D02*
X16766667Y-30600000D01*
D10*
X16600000Y-30666666D02*
X16700000Y-30633334D01*
D10*
X16433333Y-30666666D02*
X16600000Y-30666666D01*
D10*
X16333333Y-30633334D02*
X16433333Y-30666666D01*
D10*
X16266667Y-30600000D02*
X16333333Y-30633334D01*
D10*
X16200000Y-30533334D02*
X16266667Y-30600000D01*
D10*
X16166667Y-30466666D02*
X16200000Y-30533334D01*
D10*
X16166667Y-30333334D02*
X16166667Y-30466666D01*
D10*
X16200000Y-30266666D02*
X16166667Y-30333334D01*
D10*
X16266667Y-30200000D02*
X16200000Y-30266666D01*
D10*
X16333333Y-30166666D02*
X16266667Y-30200000D01*
D10*
X16433333Y-30166666D02*
X16333333Y-30166666D01*
D10*
X16433333Y-30166666D02*
X16433333Y-30333334D01*
D10*
X16166667Y-30033334D02*
X16866666Y-29766666D01*
D10*
X16166667Y-29500000D02*
X16866666Y-29766666D01*
D10*
X16400000Y-29600000D02*
X16400000Y-29933334D01*
D10*
X16166667Y-29200000D02*
X16866666Y-29200000D01*
D10*
X16866666Y-28966666D02*
X16866666Y-29433334D01*
D10*
X16166667Y-28800000D02*
X16866666Y-28800000D01*
D10*
X16866666Y-28366666D02*
X16866666Y-28800000D01*
D10*
X16533333Y-28533334D02*
X16533333Y-28800000D01*
D10*
X16166667Y-28366666D02*
X16166667Y-28800000D01*
D10*
X-3433333Y-4366666D02*
X-3500000Y-4333333D01*
D10*
X-3366666Y-4433333D02*
X-3433333Y-4366666D01*
D10*
X-3333333Y-4500000D02*
X-3366666Y-4433333D01*
D10*
X-3333333Y-4633333D02*
X-3333333Y-4500000D01*
D10*
X-3366666Y-4700000D02*
X-3333333Y-4633333D01*
D10*
X-3433333Y-4766666D02*
X-3366666Y-4700000D01*
D10*
X-3500000Y-4800000D02*
X-3433333Y-4766666D01*
D10*
X-3600000Y-4833333D02*
X-3500000Y-4800000D01*
D10*
X-3766666Y-4833333D02*
X-3600000Y-4833333D01*
D10*
X-3866666Y-4800000D02*
X-3766666Y-4833333D01*
D10*
X-3933333Y-4766666D02*
X-3866666Y-4800000D01*
D10*
X-4000000Y-4700000D02*
X-3933333Y-4766666D01*
D10*
X-4033333Y-4633333D02*
X-4000000Y-4700000D01*
D10*
X-4033333Y-4500000D02*
X-4033333Y-4633333D01*
D10*
X-4000000Y-4433333D02*
X-4033333Y-4500000D01*
D10*
X-3933333Y-4366666D02*
X-4000000Y-4433333D01*
D10*
X-3866666Y-4333333D02*
X-3933333Y-4366666D01*
D10*
X-3800000Y-4133333D02*
X-3333333Y-3800000D01*
D10*
X-3800000Y-3633333D02*
X-3800000Y-4133333D01*
D10*
X-4033333Y-3800000D02*
X-3333333Y-3800000D01*
D10*
X-3800000Y-3466666D02*
X-3333333Y-3133333D01*
D10*
X-3800000Y-2966666D02*
X-3800000Y-3466666D01*
D10*
X-4033333Y-3133333D02*
X-3333333Y-3133333D01*
D10*
X5466666Y-9933333D02*
X5433333Y-10000000D01*
D10*
X5533333Y-9866667D02*
X5466666Y-9933333D01*
D10*
X5600000Y-9833333D02*
X5533333Y-9866667D01*
D10*
X5733333Y-9833333D02*
X5600000Y-9833333D01*
D10*
X5800000Y-9866667D02*
X5733333Y-9833333D01*
D10*
X5866666Y-9933333D02*
X5800000Y-9866667D01*
D10*
X5900000Y-10000000D02*
X5866666Y-9933333D01*
D10*
X5933333Y-10100000D02*
X5900000Y-10000000D01*
D10*
X5933333Y-10266667D02*
X5933333Y-10100000D01*
D10*
X5900000Y-10366667D02*
X5933333Y-10266667D01*
D10*
X5866666Y-10433333D02*
X5900000Y-10366667D01*
D10*
X5800000Y-10500000D02*
X5866666Y-10433333D01*
D10*
X5733333Y-10533333D02*
X5800000Y-10500000D01*
D10*
X5600000Y-10533333D02*
X5733333Y-10533333D01*
D10*
X5533333Y-10500000D02*
X5600000Y-10533333D01*
D10*
X5466666Y-10433333D02*
X5533333Y-10500000D01*
D10*
X5433333Y-10366667D02*
X5466666Y-10433333D01*
D10*
X5233333Y-10300000D02*
X4900000Y-9833333D01*
D10*
X4733333Y-10300000D02*
X5233333Y-10300000D01*
D10*
X4900000Y-10533333D02*
X4900000Y-9833333D01*
D10*
X4166666Y-9866667D02*
X4133333Y-9933333D01*
D10*
X4266666Y-9833333D02*
X4166666Y-9866667D01*
D10*
X4333333Y-9833333D02*
X4266666Y-9833333D01*
D10*
X4433333Y-9866667D02*
X4333333Y-9833333D01*
D10*
X4500000Y-9966667D02*
X4433333Y-9866667D01*
D10*
X4533333Y-10133333D02*
X4500000Y-9966667D01*
D10*
X4533333Y-10300000D02*
X4533333Y-10133333D01*
D10*
X4500000Y-10433333D02*
X4533333Y-10300000D01*
D10*
X4433333Y-10500000D02*
X4500000Y-10433333D01*
D10*
X4333333Y-10533333D02*
X4433333Y-10500000D01*
D10*
X4300000Y-10533333D02*
X4333333Y-10533333D01*
D10*
X4200000Y-10500000D02*
X4300000Y-10533333D01*
D10*
X4133333Y-10433333D02*
X4200000Y-10500000D01*
D10*
X4100000Y-10333333D02*
X4133333Y-10433333D01*
D10*
X4100000Y-10300000D02*
X4100000Y-10333333D01*
D10*
X4133333Y-10200000D02*
X4100000Y-10300000D01*
D10*
X4200000Y-10133333D02*
X4133333Y-10200000D01*
D10*
X4300000Y-10100000D02*
X4200000Y-10133333D01*
D10*
X4333333Y-10100000D02*
X4300000Y-10100000D01*
D10*
X4433333Y-10133333D02*
X4333333Y-10100000D01*
D10*
X4500000Y-10200000D02*
X4433333Y-10133333D01*
D10*
X4533333Y-10300000D02*
X4500000Y-10200000D01*
D10*
X-4900000Y-26766662D02*
X-4200000Y-26766662D01*
D10*
X-4200000Y-26466662D02*
X-4200000Y-26766662D01*
D10*
X-4233333Y-26366662D02*
X-4200000Y-26466662D01*
D10*
X-4266667Y-26333330D02*
X-4233333Y-26366662D01*
D10*
X-4333333Y-26299996D02*
X-4266667Y-26333330D01*
D10*
X-4400000Y-26299996D02*
X-4333333Y-26299996D01*
D10*
X-4466667Y-26333330D02*
X-4400000Y-26299996D01*
D10*
X-4500000Y-26366662D02*
X-4466667Y-26333330D01*
D10*
X-4533333Y-26466662D02*
X-4500000Y-26366662D01*
D10*
X-4533333Y-26766662D02*
X-4533333Y-26466662D01*
D10*
X-4900000Y-26299996D02*
X-4533333Y-26533330D01*
D10*
X-4200000Y-25666662D02*
X-4200000Y-26033330D01*
D10*
X-4466667Y-25866662D02*
X-4200000Y-25666662D01*
D10*
X-4466667Y-25766662D02*
X-4466667Y-25866662D01*
D10*
X-4500000Y-25699996D02*
X-4466667Y-25766662D01*
D10*
X-4533333Y-25666662D02*
X-4500000Y-25699996D01*
D10*
X-4633333Y-25633330D02*
X-4533333Y-25666662D01*
D10*
X-4700000Y-25633330D02*
X-4633333Y-25633330D01*
D10*
X-4800000Y-25666662D02*
X-4700000Y-25633330D01*
D10*
X-4866667Y-25733330D02*
X-4800000Y-25666662D01*
D10*
X-4900000Y-25833330D02*
X-4866667Y-25733330D01*
D10*
X-4900000Y-25933330D02*
X-4900000Y-25833330D01*
D10*
X-4866667Y-26033330D02*
X-4900000Y-25933330D01*
D10*
X-4833333Y-26066662D02*
X-4866667Y-26033330D01*
D10*
X-4766667Y-26099996D02*
X-4833333Y-26066662D01*
D10*
X-4900000Y-25299996D02*
X-4200000Y-24966662D01*
D10*
X-4200000Y-24966662D02*
X-4200000Y-25433330D01*
D10*
X25466666Y18833334D02*
X25400000Y18866666D01*
D10*
X25533334Y18766666D02*
X25466666Y18833334D01*
D10*
X25566666Y18700000D02*
X25533334Y18766666D01*
D10*
X25600000Y18600000D02*
X25566666Y18700000D01*
D10*
X25600000Y18433334D02*
X25600000Y18600000D01*
D10*
X25566666Y18333334D02*
X25600000Y18433334D01*
D10*
X25533334Y18266666D02*
X25566666Y18333334D01*
D10*
X25466666Y18200000D02*
X25533334Y18266666D01*
D10*
X25400000Y18166666D02*
X25466666Y18200000D01*
D10*
X25266666Y18166666D02*
X25400000Y18166666D01*
D10*
X25200000Y18200000D02*
X25266666Y18166666D01*
D10*
X25133334Y18266666D02*
X25200000Y18200000D01*
D10*
X25100000Y18333334D02*
X25133334Y18266666D01*
D10*
X25066666Y18433334D02*
X25100000Y18333334D01*
D10*
X25066666Y18600000D02*
X25066666Y18433334D01*
D10*
X25100000Y18700000D02*
X25066666Y18600000D01*
D10*
X25133334Y18766666D02*
X25100000Y18700000D01*
D10*
X25200000Y18833334D02*
X25133334Y18766666D01*
D10*
X25266666Y18866666D02*
X25200000Y18833334D01*
D10*
X25400000Y18866666D02*
X25266666Y18866666D01*
D10*
X25100000Y18100000D02*
X25300000Y18300000D01*
D10*
X24800000Y18866666D02*
X24466666Y18866666D01*
D10*
X24833334Y18566666D02*
X24800000Y18866666D01*
D10*
X24800000Y18600000D02*
X24833334Y18566666D01*
D10*
X24700000Y18633334D02*
X24800000Y18600000D01*
D10*
X24600000Y18633334D02*
X24700000Y18633334D01*
D10*
X24500000Y18600000D02*
X24600000Y18633334D01*
D10*
X24433334Y18533334D02*
X24500000Y18600000D01*
D10*
X24400000Y18433334D02*
X24433334Y18533334D01*
D10*
X24400000Y18366666D02*
X24400000Y18433334D01*
D10*
X24433334Y18266666D02*
X24400000Y18366666D01*
D10*
X24500000Y18200000D02*
X24433334Y18266666D01*
D10*
X24600000Y18166666D02*
X24500000Y18200000D01*
D10*
X24700000Y18166666D02*
X24600000Y18166666D01*
D10*
X24800000Y18200000D02*
X24700000Y18166666D01*
D10*
X24833334Y18233334D02*
X24800000Y18200000D01*
D10*
X24866666Y18300000D02*
X24833334Y18233334D01*
D10*
X16166667Y-24000000D02*
X16866666Y-24000000D01*
D10*
X16166667Y-23733334D02*
X16866666Y-23733334D01*
D10*
X16166667Y-23266666D02*
X16866666Y-23733334D01*
D10*
X16166667Y-23266666D02*
X16866666Y-23266666D01*
D10*
X16166667Y-23000000D02*
X16866666Y-23000000D01*
D10*
X16166667Y-22533334D02*
X16866666Y-22533334D01*
D10*
X16533333Y-22533334D02*
X16533333Y-23000000D01*
D10*
X16166667Y-21833334D02*
X16166667Y-22366666D01*
D10*
X16766667Y-21233334D02*
X16700000Y-21200000D01*
D10*
X16833334Y-21300000D02*
X16766667Y-21233334D01*
D10*
X16866666Y-21366666D02*
X16833334Y-21300000D01*
D10*
X16866666Y-21500000D02*
X16866666Y-21366666D01*
D10*
X16833334Y-21566666D02*
X16866666Y-21500000D01*
D10*
X16766667Y-21633334D02*
X16833334Y-21566666D01*
D10*
X16700000Y-21666666D02*
X16766667Y-21633334D01*
D10*
X16600000Y-21700000D02*
X16700000Y-21666666D01*
D10*
X16433333Y-21700000D02*
X16600000Y-21700000D01*
D10*
X16333333Y-21666666D02*
X16433333Y-21700000D01*
D10*
X16266667Y-21633334D02*
X16333333Y-21666666D01*
D10*
X16200000Y-21566666D02*
X16266667Y-21633334D01*
D10*
X16166667Y-21500000D02*
X16200000Y-21566666D01*
D10*
X16166667Y-21366666D02*
X16166667Y-21500000D01*
D10*
X16200000Y-21300000D02*
X16166667Y-21366666D01*
D10*
X16266667Y-21233334D02*
X16200000Y-21300000D01*
D10*
X16333333Y-21200000D02*
X16266667Y-21233334D01*
D10*
X2830000Y7966666D02*
X2830000Y8666667D01*
D10*
X2530000Y8666667D02*
X2830000Y8666667D01*
D10*
X2430000Y8633333D02*
X2530000Y8666667D01*
D10*
X2396666Y8600000D02*
X2430000Y8633333D01*
D10*
X2363333Y8533333D02*
X2396666Y8600000D01*
D10*
X2363333Y8466667D02*
X2363333Y8533333D01*
D10*
X2396666Y8400000D02*
X2363333Y8466667D01*
D10*
X2430000Y8366666D02*
X2396666Y8400000D01*
D10*
X2530000Y8333333D02*
X2430000Y8366666D01*
D10*
X2830000Y8333333D02*
X2530000Y8333333D01*
D10*
X2363333Y7966666D02*
X2596666Y8333333D01*
D10*
X2163333Y8200000D02*
X1830000Y8666667D01*
D10*
X1663333Y8200000D02*
X2163333Y8200000D01*
D10*
X1830000Y7966666D02*
X1830000Y8666667D01*
D10*
X1096666Y8633333D02*
X1063333Y8566667D01*
D10*
X1196666Y8666667D02*
X1096666Y8633333D01*
D10*
X1263333Y8666667D02*
X1196666Y8666667D01*
D10*
X1363333Y8633333D02*
X1263333Y8666667D01*
D10*
X1430000Y8533333D02*
X1363333Y8633333D01*
D10*
X1463333Y8366666D02*
X1430000Y8533333D01*
D10*
X1463333Y8200000D02*
X1463333Y8366666D01*
D10*
X1430000Y8066666D02*
X1463333Y8200000D01*
D10*
X1363333Y8000000D02*
X1430000Y8066666D01*
D10*
X1263333Y7966666D02*
X1363333Y8000000D01*
D10*
X1230000Y7966666D02*
X1263333Y7966666D01*
D10*
X1130000Y8000000D02*
X1230000Y7966666D01*
D10*
X1063333Y8066666D02*
X1130000Y8000000D01*
D10*
X1030000Y8166666D02*
X1063333Y8066666D01*
D10*
X1030000Y8200000D02*
X1030000Y8166666D01*
D10*
X1063333Y8300000D02*
X1030000Y8200000D01*
D10*
X1130000Y8366666D02*
X1063333Y8300000D01*
D10*
X1230000Y8400000D02*
X1130000Y8366666D01*
D10*
X1263333Y8400000D02*
X1230000Y8400000D01*
D10*
X1363333Y8366666D02*
X1263333Y8400000D01*
D10*
X1430000Y8300000D02*
X1363333Y8366666D01*
D10*
X1463333Y8200000D02*
X1430000Y8300000D01*
D10*
X-2533333Y10766667D02*
X-2566666Y10700000D01*
D10*
X-2466666Y10833333D02*
X-2533333Y10766667D01*
D10*
X-2400000Y10866667D02*
X-2466666Y10833333D01*
D10*
X-2266666Y10866667D02*
X-2400000Y10866667D01*
D10*
X-2200000Y10833333D02*
X-2266666Y10866667D01*
D10*
X-2133333Y10766667D02*
X-2200000Y10833333D01*
D10*
X-2100000Y10700000D02*
X-2133333Y10766667D01*
D10*
X-2066666Y10600000D02*
X-2100000Y10700000D01*
D10*
X-2066666Y10433333D02*
X-2066666Y10600000D01*
D10*
X-2100000Y10333333D02*
X-2066666Y10433333D01*
D10*
X-2133333Y10266667D02*
X-2100000Y10333333D01*
D10*
X-2200000Y10200000D02*
X-2133333Y10266667D01*
D10*
X-2266666Y10166667D02*
X-2200000Y10200000D01*
D10*
X-2400000Y10166667D02*
X-2266666Y10166667D01*
D10*
X-2466666Y10200000D02*
X-2400000Y10166667D01*
D10*
X-2533333Y10266667D02*
X-2466666Y10200000D01*
D10*
X-2566666Y10333333D02*
X-2533333Y10266667D01*
D10*
X-2800000Y10733333D02*
X-2800000Y10700000D01*
D10*
X-2833333Y10800000D02*
X-2800000Y10733333D01*
D10*
X-2866666Y10833333D02*
X-2833333Y10800000D01*
D10*
X-2933333Y10866667D02*
X-2866666Y10833333D01*
D10*
X-3066666Y10866667D02*
X-2933333Y10866667D01*
D10*
X-3133333Y10833333D02*
X-3066666Y10866667D01*
D10*
X-3166666Y10800000D02*
X-3133333Y10833333D01*
D10*
X-3200000Y10733333D02*
X-3166666Y10800000D01*
D10*
X-3200000Y10666667D02*
X-3200000Y10733333D01*
D10*
X-3166666Y10600000D02*
X-3200000Y10666667D01*
D10*
X-3100000Y10500000D02*
X-3166666Y10600000D01*
D10*
X-2766666Y10166667D02*
X-3100000Y10500000D01*
D10*
X-3233333Y10166667D02*
X-2766666Y10166667D01*
D10*
X-3466666Y10733333D02*
X-3466666Y10700000D01*
D10*
X-3500000Y10800000D02*
X-3466666Y10733333D01*
D10*
X-3533333Y10833333D02*
X-3500000Y10800000D01*
D10*
X-3600000Y10866667D02*
X-3533333Y10833333D01*
D10*
X-3733333Y10866667D02*
X-3600000Y10866667D01*
D10*
X-3800000Y10833333D02*
X-3733333Y10866667D01*
D10*
X-3833333Y10800000D02*
X-3800000Y10833333D01*
D10*
X-3866666Y10733333D02*
X-3833333Y10800000D01*
D10*
X-3866666Y10666667D02*
X-3866666Y10733333D01*
D10*
X-3833333Y10600000D02*
X-3866666Y10666667D01*
D10*
X-3766666Y10500000D02*
X-3833333Y10600000D01*
D10*
X-3433333Y10166667D02*
X-3766666Y10500000D01*
D10*
X-3900000Y10166667D02*
X-3433333Y10166667D01*
D10*
X766666Y-30633334D02*
X1466666Y-30633334D01*
D10*
X766666Y-30366666D02*
X1466666Y-30633334D01*
D10*
X766666Y-30366666D02*
X1466666Y-30100000D01*
D10*
X766666Y-30100000D02*
X1466666Y-30100000D01*
D10*
X766666Y-29833334D02*
X1466666Y-29833334D01*
D10*
X1433333Y-29200000D02*
X1366666Y-29133334D01*
D10*
X1466666Y-29300000D02*
X1433333Y-29200000D01*
D10*
X1466666Y-29433334D02*
X1466666Y-29300000D01*
D10*
X1433333Y-29533334D02*
X1466666Y-29433334D01*
D10*
X1366666Y-29600000D02*
X1433333Y-29533334D01*
D10*
X1300000Y-29600000D02*
X1366666Y-29600000D01*
D10*
X1233333Y-29566666D02*
X1300000Y-29600000D01*
D10*
X1200000Y-29533334D02*
X1233333Y-29566666D01*
D10*
X1166666Y-29466666D02*
X1200000Y-29533334D01*
D10*
X1100000Y-29266666D02*
X1166666Y-29466666D01*
D10*
X1066666Y-29200000D02*
X1100000Y-29266666D01*
D10*
X1033333Y-29166666D02*
X1066666Y-29200000D01*
D10*
X966666Y-29133334D02*
X1033333Y-29166666D01*
D10*
X866666Y-29133334D02*
X966666Y-29133334D01*
D10*
X800000Y-29200000D02*
X866666Y-29133334D01*
D10*
X766666Y-29300000D02*
X800000Y-29200000D01*
D10*
X766666Y-29433334D02*
X766666Y-29300000D01*
D10*
X800000Y-29533334D02*
X766666Y-29433334D01*
D10*
X866666Y-29600000D02*
X800000Y-29533334D01*
D10*
X1433333Y-28800000D02*
X1466666Y-28733334D01*
D10*
X1366666Y-28866666D02*
X1433333Y-28800000D01*
D10*
X1300000Y-28900000D02*
X1366666Y-28866666D01*
D10*
X1200000Y-28933334D02*
X1300000Y-28900000D01*
D10*
X1033333Y-28933334D02*
X1200000Y-28933334D01*
D10*
X933333Y-28900000D02*
X1033333Y-28933334D01*
D10*
X866666Y-28866666D02*
X933333Y-28900000D01*
D10*
X800000Y-28800000D02*
X866666Y-28866666D01*
D10*
X766666Y-28733334D02*
X800000Y-28800000D01*
D10*
X766666Y-28600000D02*
X766666Y-28733334D01*
D10*
X800000Y-28533334D02*
X766666Y-28600000D01*
D10*
X866666Y-28466666D02*
X800000Y-28533334D01*
D10*
X933333Y-28433334D02*
X866666Y-28466666D01*
D10*
X1033333Y-28400000D02*
X933333Y-28433334D01*
D10*
X1200000Y-28400000D02*
X1033333Y-28400000D01*
D10*
X1300000Y-28433334D02*
X1200000Y-28400000D01*
D10*
X1366666Y-28466666D02*
X1300000Y-28433334D01*
D10*
X1433333Y-28533334D02*
X1366666Y-28466666D01*
D10*
X1466666Y-28600000D02*
X1433333Y-28533334D01*
D10*
X1466666Y-28733334D02*
X1466666Y-28600000D01*
D10*
X30166666Y15333333D02*
X30100000Y15366667D01*
D10*
X30233334Y15266667D02*
X30166666Y15333333D01*
D10*
X30266666Y15200000D02*
X30233334Y15266667D01*
D10*
X30266666Y15066667D02*
X30266666Y15200000D01*
D10*
X30233334Y15000000D02*
X30266666Y15066667D01*
D10*
X30166666Y14933333D02*
X30233334Y15000000D01*
D10*
X30100000Y14900000D02*
X30166666Y14933333D01*
D10*
X30000000Y14866667D02*
X30100000Y14900000D01*
D10*
X29833334Y14866667D02*
X30000000Y14866667D01*
D10*
X29733334Y14900000D02*
X29833334Y14866667D01*
D10*
X29666666Y14933333D02*
X29733334Y14900000D01*
D10*
X29600000Y15000000D02*
X29666666Y14933333D01*
D10*
X29566666Y15066667D02*
X29600000Y15000000D01*
D10*
X29566666Y15200000D02*
X29566666Y15066667D01*
D10*
X29600000Y15266667D02*
X29566666Y15200000D01*
D10*
X29666666Y15333333D02*
X29600000Y15266667D01*
D10*
X29733334Y15366667D02*
X29666666Y15333333D01*
D10*
X30266666Y16000000D02*
X30266666Y15633333D01*
D10*
X30000000Y15800000D02*
X30266666Y16000000D01*
D10*
X30000000Y15900000D02*
X30000000Y15800000D01*
D10*
X29966666Y15966667D02*
X30000000Y15900000D01*
D10*
X29933334Y16000000D02*
X29966666Y15966667D01*
D10*
X29833334Y16033333D02*
X29933334Y16000000D01*
D10*
X29766666Y16033333D02*
X29833334Y16033333D01*
D10*
X29666666Y16000000D02*
X29766666Y16033333D01*
D10*
X29600000Y15933333D02*
X29666666Y16000000D01*
D10*
X29566666Y15833333D02*
X29600000Y15933333D01*
D10*
X29566666Y15733333D02*
X29566666Y15833333D01*
D10*
X29600000Y15633333D02*
X29566666Y15733333D01*
D10*
X29633334Y15600000D02*
X29600000Y15633333D01*
D10*
X29700000Y15566667D02*
X29633334Y15600000D01*
D10*
X30166666Y16400000D02*
X30133334Y16333333D01*
D10*
X30266666Y16500000D02*
X30166666Y16400000D01*
D10*
X29566666Y16500000D02*
X30266666Y16500000D01*
D10*
X5033333Y21066666D02*
X5000000Y21000000D01*
D10*
X5100000Y21133334D02*
X5033333Y21066666D01*
D10*
X5166666Y21166666D02*
X5100000Y21133334D01*
D10*
X5300000Y21166666D02*
X5166666Y21166666D01*
D10*
X5366666Y21133334D02*
X5300000Y21166666D01*
D10*
X5433333Y21066666D02*
X5366666Y21133334D01*
D10*
X5466666Y21000000D02*
X5433333Y21066666D01*
D10*
X5500000Y20900000D02*
X5466666Y21000000D01*
D10*
X5500000Y20733334D02*
X5500000Y20900000D01*
D10*
X5466666Y20633334D02*
X5500000Y20733334D01*
D10*
X5433333Y20566666D02*
X5466666Y20633334D01*
D10*
X5366666Y20500000D02*
X5433333Y20566666D01*
D10*
X5300000Y20466666D02*
X5366666Y20500000D01*
D10*
X5166666Y20466666D02*
X5300000Y20466666D01*
D10*
X5100000Y20500000D02*
X5166666Y20466666D01*
D10*
X5033333Y20566666D02*
X5100000Y20500000D01*
D10*
X5000000Y20633334D02*
X5033333Y20566666D01*
D10*
X4766666Y21033334D02*
X4766666Y21000000D01*
D10*
X4733333Y21100000D02*
X4766666Y21033334D01*
D10*
X4700000Y21133334D02*
X4733333Y21100000D01*
D10*
X4633333Y21166666D02*
X4700000Y21133334D01*
D10*
X4500000Y21166666D02*
X4633333Y21166666D01*
D10*
X4433333Y21133334D02*
X4500000Y21166666D01*
D10*
X4400000Y21100000D02*
X4433333Y21133334D01*
D10*
X4366667Y21033334D02*
X4400000Y21100000D01*
D10*
X4366667Y20966666D02*
X4366667Y21033334D01*
D10*
X4400000Y20900000D02*
X4366667Y20966666D01*
D10*
X4466667Y20800000D02*
X4400000Y20900000D01*
D10*
X4800000Y20466666D02*
X4466667Y20800000D01*
D10*
X4333333Y20466666D02*
X4800000Y20466666D01*
D10*
X4066666Y21133334D02*
X3966666Y21166666D01*
D10*
X4100000Y21066666D02*
X4066666Y21133334D01*
D10*
X4100000Y21000000D02*
X4100000Y21066666D01*
D10*
X4066666Y20933334D02*
X4100000Y21000000D01*
D10*
X4000000Y20900000D02*
X4066666Y20933334D01*
D10*
X3866666Y20866666D02*
X4000000Y20900000D01*
D10*
X3766666Y20833334D02*
X3866666Y20866666D01*
D10*
X3700000Y20766666D02*
X3766666Y20833334D01*
D10*
X3666666Y20700000D02*
X3700000Y20766666D01*
D10*
X3666666Y20600000D02*
X3666666Y20700000D01*
D10*
X3700000Y20533334D02*
X3666666Y20600000D01*
D10*
X3733333Y20500000D02*
X3700000Y20533334D01*
D10*
X3833333Y20466666D02*
X3733333Y20500000D01*
D10*
X3966666Y20466666D02*
X3833333Y20466666D01*
D10*
X4066666Y20500000D02*
X3966666Y20466666D01*
D10*
X4100000Y20533334D02*
X4066666Y20500000D01*
D10*
X4133333Y20600000D02*
X4100000Y20533334D01*
D10*
X4133333Y20700000D02*
X4133333Y20600000D01*
D10*
X4100000Y20766666D02*
X4133333Y20700000D01*
D10*
X4033333Y20833334D02*
X4100000Y20766666D01*
D10*
X3933333Y20866666D02*
X4033333Y20833334D01*
D10*
X3800000Y20900000D02*
X3933333Y20866666D01*
D10*
X3733333Y20933334D02*
X3800000Y20900000D01*
D10*
X3700000Y21000000D02*
X3733333Y20933334D01*
D10*
X3700000Y21066666D02*
X3700000Y21000000D01*
D10*
X3733333Y21133334D02*
X3700000Y21066666D01*
D10*
X3833333Y21166666D02*
X3733333Y21133334D01*
D10*
X3966666Y21166666D02*
X3833333Y21166666D01*
D10*
X14166667Y18833334D02*
X14100000Y18866666D01*
D10*
X14233333Y18766666D02*
X14166667Y18833334D01*
D10*
X14266667Y18700000D02*
X14233333Y18766666D01*
D10*
X14300000Y18600000D02*
X14266667Y18700000D01*
D10*
X14300000Y18433334D02*
X14300000Y18600000D01*
D10*
X14266667Y18333334D02*
X14300000Y18433334D01*
D10*
X14233333Y18266666D02*
X14266667Y18333334D01*
D10*
X14166667Y18200000D02*
X14233333Y18266666D01*
D10*
X14100000Y18166666D02*
X14166667Y18200000D01*
D10*
X13966667Y18166666D02*
X14100000Y18166666D01*
D10*
X13900000Y18200000D02*
X13966667Y18166666D01*
D10*
X13833333Y18266666D02*
X13900000Y18200000D01*
D10*
X13800000Y18333334D02*
X13833333Y18266666D01*
D10*
X13766667Y18433334D02*
X13800000Y18333334D01*
D10*
X13766667Y18600000D02*
X13766667Y18433334D01*
D10*
X13800000Y18700000D02*
X13766667Y18600000D01*
D10*
X13833333Y18766666D02*
X13800000Y18700000D01*
D10*
X13900000Y18833334D02*
X13833333Y18766666D01*
D10*
X13966667Y18866666D02*
X13900000Y18833334D01*
D10*
X14100000Y18866666D02*
X13966667Y18866666D01*
D10*
X13800000Y18100000D02*
X14000000Y18300000D01*
D10*
X13533333Y18733334D02*
X13533333Y18700000D01*
D10*
X13500000Y18800000D02*
X13533333Y18733334D01*
D10*
X13466667Y18833334D02*
X13500000Y18800000D01*
D10*
X13400000Y18866666D02*
X13466667Y18833334D01*
D10*
X13266667Y18866666D02*
X13400000Y18866666D01*
D10*
X13200000Y18833334D02*
X13266667Y18866666D01*
D10*
X13166667Y18800000D02*
X13200000Y18833334D01*
D10*
X13133333Y18733334D02*
X13166667Y18800000D01*
D10*
X13133333Y18666666D02*
X13133333Y18733334D01*
D10*
X13166667Y18600000D02*
X13133333Y18666666D01*
D10*
X13233333Y18500000D02*
X13166667Y18600000D01*
D10*
X13566667Y18166666D02*
X13233333Y18500000D01*
D10*
X13100000Y18166666D02*
X13566667Y18166666D01*
D10*
X20250000Y3916666D02*
X20250000Y4616666D01*
D10*
X19950000Y4616666D02*
X20250000Y4616666D01*
D10*
X19850000Y4583333D02*
X19950000Y4616666D01*
D10*
X19816666Y4550000D02*
X19850000Y4583333D01*
D10*
X19783334Y4483333D02*
X19816666Y4550000D01*
D10*
X19783334Y4416666D02*
X19783334Y4483333D01*
D10*
X19816666Y4350000D02*
X19783334Y4416666D01*
D10*
X19850000Y4316666D02*
X19816666Y4350000D01*
D10*
X19950000Y4283333D02*
X19850000Y4316666D01*
D10*
X20250000Y4283333D02*
X19950000Y4283333D01*
D10*
X19783334Y3916666D02*
X20016666Y4283333D01*
D10*
X19516666Y4616666D02*
X19183334Y4616666D01*
D10*
X19550000Y4316666D02*
X19516666Y4616666D01*
D10*
X19516666Y4350000D02*
X19550000Y4316666D01*
D10*
X19416666Y4383333D02*
X19516666Y4350000D01*
D10*
X19316666Y4383333D02*
X19416666Y4383333D01*
D10*
X19216666Y4350000D02*
X19316666Y4383333D01*
D10*
X19150000Y4283333D02*
X19216666Y4350000D01*
D10*
X19116666Y4183333D02*
X19150000Y4283333D01*
D10*
X19116666Y4116666D02*
X19116666Y4183333D01*
D10*
X19150000Y4016666D02*
X19116666Y4116666D01*
D10*
X19216666Y3950000D02*
X19150000Y4016666D01*
D10*
X19316666Y3916666D02*
X19216666Y3950000D01*
D10*
X19416666Y3916666D02*
X19316666Y3916666D01*
D10*
X19516666Y3950000D02*
X19416666Y3916666D01*
D10*
X19550000Y3983333D02*
X19516666Y3950000D01*
D10*
X19583334Y4050000D02*
X19550000Y3983333D01*
D10*
X18850000Y4583333D02*
X18750000Y4616666D01*
D10*
X18883334Y4516666D02*
X18850000Y4583333D01*
D10*
X18883334Y4450000D02*
X18883334Y4516666D01*
D10*
X18850000Y4383333D02*
X18883334Y4450000D01*
D10*
X18783334Y4350000D02*
X18850000Y4383333D01*
D10*
X18650000Y4316666D02*
X18783334Y4350000D01*
D10*
X18550000Y4283333D02*
X18650000Y4316666D01*
D10*
X18483334Y4216666D02*
X18550000Y4283333D01*
D10*
X18450000Y4150000D02*
X18483334Y4216666D01*
D10*
X18450000Y4050000D02*
X18450000Y4150000D01*
D10*
X18483334Y3983333D02*
X18450000Y4050000D01*
D10*
X18516666Y3950000D02*
X18483334Y3983333D01*
D10*
X18616666Y3916666D02*
X18516666Y3950000D01*
D10*
X18750000Y3916666D02*
X18616666Y3916666D01*
D10*
X18850000Y3950000D02*
X18750000Y3916666D01*
D10*
X18883334Y3983333D02*
X18850000Y3950000D01*
D10*
X18916666Y4050000D02*
X18883334Y3983333D01*
D10*
X18916666Y4150000D02*
X18916666Y4050000D01*
D10*
X18883334Y4216666D02*
X18916666Y4150000D01*
D10*
X18816666Y4283333D02*
X18883334Y4216666D01*
D10*
X18716666Y4316666D02*
X18816666Y4283333D01*
D10*
X18583334Y4350000D02*
X18716666Y4316666D01*
D10*
X18516666Y4383333D02*
X18583334Y4350000D01*
D10*
X18483334Y4450000D02*
X18516666Y4383333D01*
D10*
X18483334Y4516666D02*
X18483334Y4450000D01*
D10*
X18516666Y4583333D02*
X18483334Y4516666D01*
D10*
X18616666Y4616666D02*
X18516666Y4583333D01*
D10*
X18750000Y4616666D02*
X18616666Y4616666D01*
D10*
X8566667Y14733333D02*
X8500000Y14766667D01*
D10*
X8633333Y14666667D02*
X8566667Y14733333D01*
D10*
X8666667Y14600000D02*
X8633333Y14666667D01*
D10*
X8666667Y14466667D02*
X8666667Y14600000D01*
D10*
X8633333Y14400000D02*
X8666667Y14466667D01*
D10*
X8566667Y14333333D02*
X8633333Y14400000D01*
D10*
X8500000Y14300000D02*
X8566667Y14333333D01*
D10*
X8400000Y14266667D02*
X8500000Y14300000D01*
D10*
X8233333Y14266667D02*
X8400000Y14266667D01*
D10*
X8133333Y14300000D02*
X8233333Y14266667D01*
D10*
X8066666Y14333333D02*
X8133333Y14300000D01*
D10*
X8000000Y14400000D02*
X8066666Y14333333D01*
D10*
X7966666Y14466667D02*
X8000000Y14400000D01*
D10*
X7966666Y14600000D02*
X7966666Y14466667D01*
D10*
X8000000Y14666667D02*
X7966666Y14600000D01*
D10*
X8066666Y14733333D02*
X8000000Y14666667D01*
D10*
X8133333Y14766667D02*
X8066666Y14733333D01*
D10*
X8533333Y15000000D02*
X8500000Y15000000D01*
D10*
X8600000Y15033333D02*
X8533333Y15000000D01*
D10*
X8633333Y15066667D02*
X8600000Y15033333D01*
D10*
X8666667Y15133333D02*
X8633333Y15066667D01*
D10*
X8666667Y15266667D02*
X8666667Y15133333D01*
D10*
X8633333Y15333333D02*
X8666667Y15266667D01*
D10*
X8600000Y15366667D02*
X8633333Y15333333D01*
D10*
X8533333Y15400000D02*
X8600000Y15366667D01*
D10*
X8466667Y15400000D02*
X8533333Y15400000D01*
D10*
X8400000Y15366667D02*
X8466667Y15400000D01*
D10*
X8300000Y15300000D02*
X8400000Y15366667D01*
D10*
X7966666Y14966667D02*
X8300000Y15300000D01*
D10*
X7966666Y15433333D02*
X7966666Y14966667D01*
D10*
X8633333Y16033333D02*
X8566667Y16066667D01*
D10*
X8666667Y15933333D02*
X8633333Y16033333D01*
D10*
X8666667Y15866667D02*
X8666667Y15933333D01*
D10*
X8633333Y15766667D02*
X8666667Y15866667D01*
D10*
X8533333Y15700000D02*
X8633333Y15766667D01*
D10*
X8366666Y15666667D02*
X8533333Y15700000D01*
D10*
X8200000Y15666667D02*
X8366666Y15666667D01*
D10*
X8066666Y15700000D02*
X8200000Y15666667D01*
D10*
X8000000Y15766667D02*
X8066666Y15700000D01*
D10*
X7966666Y15866667D02*
X8000000Y15766667D01*
D10*
X7966666Y15900000D02*
X7966666Y15866667D01*
D10*
X8000000Y16000000D02*
X7966666Y15900000D01*
D10*
X8066666Y16066667D02*
X8000000Y16000000D01*
D10*
X8166666Y16100000D02*
X8066666Y16066667D01*
D10*
X8200000Y16100000D02*
X8166666Y16100000D01*
D10*
X8300000Y16066667D02*
X8200000Y16100000D01*
D10*
X8366666Y16000000D02*
X8300000Y16066667D01*
D10*
X8400000Y15900000D02*
X8366666Y16000000D01*
D10*
X8400000Y15866667D02*
X8400000Y15900000D01*
D10*
X8366666Y15766667D02*
X8400000Y15866667D01*
D10*
X8300000Y15700000D02*
X8366666Y15766667D01*
D10*
X8200000Y15666667D02*
X8300000Y15700000D01*
D10*
X-5233333Y-2166666D02*
X-4533333Y-2166666D01*
D10*
X-4533333Y-1866666D02*
X-4533333Y-2166666D01*
D10*
X-4566666Y-1766666D02*
X-4533333Y-1866666D01*
D10*
X-4600000Y-1733333D02*
X-4566666Y-1766666D01*
D10*
X-4666666Y-1700000D02*
X-4600000Y-1733333D01*
D10*
X-4733333Y-1700000D02*
X-4666666Y-1700000D01*
D10*
X-4800000Y-1733333D02*
X-4733333Y-1700000D01*
D10*
X-4833333Y-1766666D02*
X-4800000Y-1733333D01*
D10*
X-4866666Y-1866666D02*
X-4833333Y-1766666D01*
D10*
X-4866666Y-2166666D02*
X-4866666Y-1866666D01*
D10*
X-5233333Y-1700000D02*
X-4866666Y-1933333D01*
D10*
X-4533333Y-1433333D02*
X-4533333Y-1100000D01*
D10*
X-4833333Y-1466666D02*
X-4533333Y-1433333D01*
D10*
X-4800000Y-1433333D02*
X-4833333Y-1466666D01*
D10*
X-4766666Y-1333333D02*
X-4800000Y-1433333D01*
D10*
X-4766666Y-1233333D02*
X-4766666Y-1333333D01*
D10*
X-4800000Y-1133333D02*
X-4766666Y-1233333D01*
D10*
X-4866666Y-1066666D02*
X-4800000Y-1133333D01*
D10*
X-4966666Y-1033333D02*
X-4866666Y-1066666D01*
D10*
X-5033333Y-1033333D02*
X-4966666Y-1033333D01*
D10*
X-5133333Y-1066666D02*
X-5033333Y-1033333D01*
D10*
X-5200000Y-1133333D02*
X-5133333Y-1066666D01*
D10*
X-5233333Y-1233333D02*
X-5200000Y-1133333D01*
D10*
X-5233333Y-1333333D02*
X-5233333Y-1233333D01*
D10*
X-5200000Y-1433333D02*
X-5233333Y-1333333D01*
D10*
X-5166666Y-1466666D02*
X-5200000Y-1433333D01*
D10*
X-5100000Y-1500000D02*
X-5166666Y-1466666D01*
D10*
X-4533333Y-400000D02*
X-4533333Y-766666D01*
D10*
X-4800000Y-600000D02*
X-4533333Y-400000D01*
D10*
X-4800000Y-500000D02*
X-4800000Y-600000D01*
D10*
X-4833333Y-433333D02*
X-4800000Y-500000D01*
D10*
X-4866666Y-400000D02*
X-4833333Y-433333D01*
D10*
X-4966666Y-366666D02*
X-4866666Y-400000D01*
D10*
X-5033333Y-366666D02*
X-4966666Y-366666D01*
D10*
X-5133333Y-400000D02*
X-5033333Y-366666D01*
D10*
X-5200000Y-466666D02*
X-5133333Y-400000D01*
D10*
X-5233333Y-566666D02*
X-5200000Y-466666D01*
D10*
X-5233333Y-666666D02*
X-5233333Y-566666D01*
D10*
X-5200000Y-766666D02*
X-5233333Y-666666D01*
D10*
X-5166666Y-800000D02*
X-5200000Y-766666D01*
D10*
X-5100000Y-833333D02*
X-5166666Y-800000D01*
D10*
X5966666Y-32600000D02*
X6666666Y-32600000D01*
D10*
X6666666Y-32166666D02*
X6666666Y-32600000D01*
D10*
X6333333Y-32333334D02*
X6333333Y-32600000D01*
D10*
X5966666Y-32166666D02*
X5966666Y-32600000D01*
D10*
X5966666Y-31966666D02*
X6433333Y-31966666D01*
D10*
X6400000Y-31866666D02*
X6300000Y-31966666D01*
D10*
X6433333Y-31800000D02*
X6400000Y-31866666D01*
D10*
X6433333Y-31700000D02*
X6433333Y-31800000D01*
D10*
X6400000Y-31633334D02*
X6433333Y-31700000D01*
D10*
X6300000Y-31600000D02*
X6400000Y-31633334D01*
D10*
X5966666Y-31600000D02*
X6300000Y-31600000D01*
D10*
X6400000Y-31033334D02*
X6333333Y-30966666D01*
D10*
X6433333Y-31100000D02*
X6400000Y-31033334D01*
D10*
X6433333Y-31200000D02*
X6433333Y-31100000D01*
D10*
X6400000Y-31266666D02*
X6433333Y-31200000D01*
D10*
X6333333Y-31333334D02*
X6400000Y-31266666D01*
D10*
X6233333Y-31366666D02*
X6333333Y-31333334D01*
D10*
X6166666Y-31366666D02*
X6233333Y-31366666D01*
D10*
X6066666Y-31333334D02*
X6166666Y-31366666D01*
D10*
X6000000Y-31266666D02*
X6066666Y-31333334D01*
D10*
X5966666Y-31200000D02*
X6000000Y-31266666D01*
D10*
X5966666Y-31100000D02*
X5966666Y-31200000D01*
D10*
X6000000Y-31033334D02*
X5966666Y-31100000D01*
D10*
X6066666Y-30966666D02*
X6000000Y-31033334D01*
D10*
X5966666Y-30466666D02*
X6666666Y-30466666D01*
D10*
X6666666Y-30166666D02*
X6666666Y-30466666D01*
D10*
X6633333Y-30066666D02*
X6666666Y-30166666D01*
D10*
X6600000Y-30033334D02*
X6633333Y-30066666D01*
D10*
X6533333Y-30000000D02*
X6600000Y-30033334D01*
D10*
X6433333Y-30000000D02*
X6533333Y-30000000D01*
D10*
X6366666Y-30033334D02*
X6433333Y-30000000D01*
D10*
X6333333Y-30066666D02*
X6366666Y-30033334D01*
D10*
X6300000Y-30166666D02*
X6333333Y-30066666D01*
D10*
X6300000Y-30466666D02*
X6300000Y-30166666D01*
D10*
X5966666Y-29666666D02*
X6666666Y-29833334D01*
D10*
X5966666Y-29666666D02*
X6666666Y-29500000D01*
D10*
X5966666Y-29333334D02*
X6666666Y-29500000D01*
D10*
X5966666Y-29333334D02*
X6666666Y-29166666D01*
D10*
X5966666Y-28966666D02*
X6666666Y-28966666D01*
D10*
X5966666Y-28700000D02*
X6666666Y-28966666D01*
D10*
X5966666Y-28700000D02*
X6666666Y-28433334D01*
D10*
X5966666Y-28433334D02*
X6666666Y-28433334D01*
D10*
X-3500000Y-26766662D02*
X-2800000Y-26766662D01*
D10*
X-2800000Y-26466662D02*
X-2800000Y-26766662D01*
D10*
X-2833333Y-26366662D02*
X-2800000Y-26466662D01*
D10*
X-2866667Y-26333330D02*
X-2833333Y-26366662D01*
D10*
X-2933333Y-26299996D02*
X-2866667Y-26333330D01*
D10*
X-3000000Y-26299996D02*
X-2933333Y-26299996D01*
D10*
X-3066667Y-26333330D02*
X-3000000Y-26299996D01*
D10*
X-3100000Y-26366662D02*
X-3066667Y-26333330D01*
D10*
X-3133333Y-26466662D02*
X-3100000Y-26366662D01*
D10*
X-3133333Y-26766662D02*
X-3133333Y-26466662D01*
D10*
X-3500000Y-26299996D02*
X-3133333Y-26533330D01*
D10*
X-2800000Y-25666662D02*
X-2800000Y-26033330D01*
D10*
X-3066667Y-25866662D02*
X-2800000Y-25666662D01*
D10*
X-3066667Y-25766662D02*
X-3066667Y-25866662D01*
D10*
X-3100000Y-25699996D02*
X-3066667Y-25766662D01*
D10*
X-3133333Y-25666662D02*
X-3100000Y-25699996D01*
D10*
X-3233333Y-25633330D02*
X-3133333Y-25666662D01*
D10*
X-3300000Y-25633330D02*
X-3233333Y-25633330D01*
D10*
X-3400000Y-25666662D02*
X-3300000Y-25633330D01*
D10*
X-3466667Y-25733330D02*
X-3400000Y-25666662D01*
D10*
X-3500000Y-25833330D02*
X-3466667Y-25733330D01*
D10*
X-3500000Y-25933330D02*
X-3500000Y-25833330D01*
D10*
X-3466667Y-26033330D02*
X-3500000Y-25933330D01*
D10*
X-3433333Y-26066662D02*
X-3466667Y-26033330D01*
D10*
X-3366667Y-26099996D02*
X-3433333Y-26066662D01*
D10*
X-2833333Y-25033330D02*
X-2900000Y-24999996D01*
D10*
X-2800000Y-25133330D02*
X-2833333Y-25033330D01*
D10*
X-2800000Y-25199996D02*
X-2800000Y-25133330D01*
D10*
X-2833333Y-25299996D02*
X-2800000Y-25199996D01*
D10*
X-2933333Y-25366662D02*
X-2833333Y-25299996D01*
D10*
X-3100000Y-25399996D02*
X-2933333Y-25366662D01*
D10*
X-3266667Y-25399996D02*
X-3100000Y-25399996D01*
D10*
X-3400000Y-25366662D02*
X-3266667Y-25399996D01*
D10*
X-3466667Y-25299996D02*
X-3400000Y-25366662D01*
D10*
X-3500000Y-25199996D02*
X-3466667Y-25299996D01*
D10*
X-3500000Y-25166662D02*
X-3500000Y-25199996D01*
D10*
X-3466667Y-25066662D02*
X-3500000Y-25166662D01*
D10*
X-3400000Y-24999996D02*
X-3466667Y-25066662D01*
D10*
X-3300000Y-24966662D02*
X-3400000Y-24999996D01*
D10*
X-3266667Y-24966662D02*
X-3300000Y-24966662D01*
D10*
X-3166667Y-24999996D02*
X-3266667Y-24966662D01*
D10*
X-3100000Y-25066662D02*
X-3166667Y-24999996D01*
D10*
X-3066667Y-25166662D02*
X-3100000Y-25066662D01*
D10*
X-3066667Y-25199996D02*
X-3066667Y-25166662D01*
D10*
X-3100000Y-25299996D02*
X-3066667Y-25199996D01*
D10*
X-3166667Y-25366662D02*
X-3100000Y-25299996D01*
D10*
X-3266667Y-25399996D02*
X-3166667Y-25366662D01*
D10*
X-2566666Y2466666D02*
X-2600000Y2400000D01*
D10*
X-2500000Y2533333D02*
X-2566666Y2466666D01*
D10*
X-2433333Y2566666D02*
X-2500000Y2533333D01*
D10*
X-2300000Y2566666D02*
X-2433333Y2566666D01*
D10*
X-2233333Y2533333D02*
X-2300000Y2566666D01*
D10*
X-2166666Y2466666D02*
X-2233333Y2533333D01*
D10*
X-2133333Y2400000D02*
X-2166666Y2466666D01*
D10*
X-2100000Y2300000D02*
X-2133333Y2400000D01*
D10*
X-2100000Y2133333D02*
X-2100000Y2300000D01*
D10*
X-2133333Y2033333D02*
X-2100000Y2133333D01*
D10*
X-2166666Y1966666D02*
X-2133333Y2033333D01*
D10*
X-2233333Y1900000D02*
X-2166666Y1966666D01*
D10*
X-2300000Y1866666D02*
X-2233333Y1900000D01*
D10*
X-2433333Y1866666D02*
X-2300000Y1866666D01*
D10*
X-2500000Y1900000D02*
X-2433333Y1866666D01*
D10*
X-2566666Y1966666D02*
X-2500000Y1900000D01*
D10*
X-2600000Y2033333D02*
X-2566666Y1966666D01*
D10*
X-3233333Y2566666D02*
X-2866666Y2566666D01*
D10*
X-3033333Y2300000D02*
X-3233333Y2566666D01*
D10*
X-3133333Y2300000D02*
X-3033333Y2300000D01*
D10*
X-3200000Y2266666D02*
X-3133333Y2300000D01*
D10*
X-3233333Y2233333D02*
X-3200000Y2266666D01*
D10*
X-3266666Y2133333D02*
X-3233333Y2233333D01*
D10*
X-3266666Y2066666D02*
X-3266666Y2133333D01*
D10*
X-3233333Y1966666D02*
X-3266666Y2066666D01*
D10*
X-3166666Y1900000D02*
X-3233333Y1966666D01*
D10*
X-3066666Y1866666D02*
X-3166666Y1900000D01*
D10*
X-2966666Y1866666D02*
X-3066666Y1866666D01*
D10*
X-2866666Y1900000D02*
X-2966666Y1866666D01*
D10*
X-2833333Y1933333D02*
X-2866666Y1900000D01*
D10*
X-2800000Y2000000D02*
X-2833333Y1933333D01*
D10*
X-3866666Y2533333D02*
X-3900000Y2466666D01*
D10*
X-3766666Y2566666D02*
X-3866666Y2533333D01*
D10*
X-3700000Y2566666D02*
X-3766666Y2566666D01*
D10*
X-3600000Y2533333D02*
X-3700000Y2566666D01*
D10*
X-3533333Y2433333D02*
X-3600000Y2533333D01*
D10*
X-3500000Y2266666D02*
X-3533333Y2433333D01*
D10*
X-3500000Y2100000D02*
X-3500000Y2266666D01*
D10*
X-3533333Y1966666D02*
X-3500000Y2100000D01*
D10*
X-3600000Y1900000D02*
X-3533333Y1966666D01*
D10*
X-3700000Y1866666D02*
X-3600000Y1900000D01*
D10*
X-3733333Y1866666D02*
X-3700000Y1866666D01*
D10*
X-3833333Y1900000D02*
X-3733333Y1866666D01*
D10*
X-3900000Y1966666D02*
X-3833333Y1900000D01*
D10*
X-3933333Y2066666D02*
X-3900000Y1966666D01*
D10*
X-3933333Y2100000D02*
X-3933333Y2066666D01*
D10*
X-3900000Y2200000D02*
X-3933333Y2100000D01*
D10*
X-3833333Y2266666D02*
X-3900000Y2200000D01*
D10*
X-3733333Y2300000D02*
X-3833333Y2266666D01*
D10*
X-3700000Y2300000D02*
X-3733333Y2300000D01*
D10*
X-3600000Y2266666D02*
X-3700000Y2300000D01*
D10*
X-3533333Y2200000D02*
X-3600000Y2266666D01*
D10*
X-3500000Y2100000D02*
X-3533333Y2200000D01*
D10*
X9566667Y-31633334D02*
X9533333Y-31700000D01*
D10*
X9666667Y-31533334D02*
X9566667Y-31633334D01*
D10*
X8966667Y-31533334D02*
X9666667Y-31533334D01*
D10*
X9533333Y-31100000D02*
X9500000Y-31100000D01*
D10*
X9600000Y-31066666D02*
X9533333Y-31100000D01*
D10*
X9633333Y-31033334D02*
X9600000Y-31066666D01*
D10*
X9666667Y-30966666D02*
X9633333Y-31033334D01*
D10*
X9666667Y-30833334D02*
X9666667Y-30966666D01*
D10*
X9633333Y-30766666D02*
X9666667Y-30833334D01*
D10*
X9600000Y-30733334D02*
X9633333Y-30766666D01*
D10*
X9533333Y-30700000D02*
X9600000Y-30733334D01*
D10*
X9466667Y-30700000D02*
X9533333Y-30700000D01*
D10*
X9400000Y-30733334D02*
X9466667Y-30700000D01*
D10*
X9300000Y-30800000D02*
X9400000Y-30733334D01*
D10*
X8966667Y-31133334D02*
X9300000Y-30800000D01*
D10*
X8966667Y-30666666D02*
X8966667Y-31133334D01*
D10*
X8966667Y-30000000D02*
X9666667Y-30266666D01*
D10*
X8966667Y-30000000D02*
X9666667Y-29733334D01*
D10*
X9266667Y-28700000D02*
X9266667Y-29300000D01*
D10*
X7868666Y-31566666D02*
X8568667Y-31566666D01*
D10*
X8568667Y-31133334D02*
X8568667Y-31566666D01*
D10*
X8235333Y-31300000D02*
X8235333Y-31566666D01*
D10*
X7868666Y-31133334D02*
X7868666Y-31566666D01*
D10*
X7868666Y-30933334D02*
X8335333Y-30933334D01*
D10*
X8302000Y-30833334D02*
X8202000Y-30933334D01*
D10*
X8335333Y-30766666D02*
X8302000Y-30833334D01*
D10*
X8335333Y-30666666D02*
X8335333Y-30766666D01*
D10*
X8302000Y-30600000D02*
X8335333Y-30666666D01*
D10*
X8202000Y-30566666D02*
X8302000Y-30600000D01*
D10*
X7868666Y-30566666D02*
X8202000Y-30566666D01*
D10*
X7868666Y-29933334D02*
X8335333Y-29933334D01*
D10*
X8302000Y-30000000D02*
X8235333Y-29933334D01*
D10*
X8335333Y-30066666D02*
X8302000Y-30000000D01*
D10*
X8335333Y-30166666D02*
X8335333Y-30066666D01*
D10*
X8302000Y-30233334D02*
X8335333Y-30166666D01*
D10*
X8235333Y-30300000D02*
X8302000Y-30233334D01*
D10*
X8135333Y-30333334D02*
X8235333Y-30300000D01*
D10*
X8068666Y-30333334D02*
X8135333Y-30333334D01*
D10*
X7968666Y-30300000D02*
X8068666Y-30333334D01*
D10*
X7902000Y-30233334D02*
X7968666Y-30300000D01*
D10*
X7868666Y-30166666D02*
X7902000Y-30233334D01*
D10*
X7868666Y-30066666D02*
X7868666Y-30166666D01*
D10*
X7902000Y-30000000D02*
X7868666Y-30066666D01*
D10*
X7968666Y-29933334D02*
X7902000Y-30000000D01*
D10*
X7868666Y-29666666D02*
X8568667Y-29666666D01*
D10*
X8302000Y-29600000D02*
X8235333Y-29666666D01*
D10*
X8335333Y-29533334D02*
X8302000Y-29600000D01*
D10*
X8335333Y-29433334D02*
X8335333Y-29533334D01*
D10*
X8302000Y-29366666D02*
X8335333Y-29433334D01*
D10*
X8235333Y-29300000D02*
X8302000Y-29366666D01*
D10*
X8135333Y-29266666D02*
X8235333Y-29300000D01*
D10*
X8068666Y-29266666D02*
X8135333Y-29266666D01*
D10*
X7968666Y-29300000D02*
X8068666Y-29266666D01*
D10*
X7902000Y-29366666D02*
X7968666Y-29300000D01*
D10*
X7868666Y-29433334D02*
X7902000Y-29366666D01*
D10*
X7868666Y-29533334D02*
X7868666Y-29433334D01*
D10*
X7902000Y-29600000D02*
X7868666Y-29533334D01*
D10*
X7968666Y-29666666D02*
X7902000Y-29600000D01*
D10*
X7868666Y-29033334D02*
X8568667Y-29033334D01*
D10*
X8135333Y-28400000D02*
X8135333Y-28800000D01*
D10*
X8202000Y-28400000D02*
X8135333Y-28400000D01*
D10*
X8268666Y-28433334D02*
X8202000Y-28400000D01*
D10*
X8302000Y-28466666D02*
X8268666Y-28433334D01*
D10*
X8335333Y-28533334D02*
X8302000Y-28466666D01*
D10*
X8335333Y-28633334D02*
X8335333Y-28533334D01*
D10*
X8302000Y-28700000D02*
X8335333Y-28633334D01*
D10*
X8235333Y-28766666D02*
X8302000Y-28700000D01*
D10*
X8135333Y-28800000D02*
X8235333Y-28766666D01*
D10*
X8068666Y-28800000D02*
X8135333Y-28800000D01*
D10*
X7968666Y-28766666D02*
X8068666Y-28800000D01*
D10*
X7902000Y-28700000D02*
X7968666Y-28766666D01*
D10*
X7868666Y-28633334D02*
X7902000Y-28700000D01*
D10*
X7868666Y-28533334D02*
X7868666Y-28633334D01*
D10*
X7902000Y-28466666D02*
X7868666Y-28533334D01*
D10*
X7968666Y-28400000D02*
X7902000Y-28466666D01*
D10*
X2066666Y-23600000D02*
X2000000Y-23566666D01*
D10*
X2133333Y-23666666D02*
X2066666Y-23600000D01*
D10*
X2166666Y-23733334D02*
X2133333Y-23666666D01*
D10*
X2166666Y-23866666D02*
X2166666Y-23733334D01*
D10*
X2133333Y-23933334D02*
X2166666Y-23866666D01*
D10*
X2066666Y-24000000D02*
X2133333Y-23933334D01*
D10*
X2000000Y-24033334D02*
X2066666Y-24000000D01*
D10*
X1900000Y-24066666D02*
X2000000Y-24033334D01*
D10*
X1733333Y-24066666D02*
X1900000Y-24066666D01*
D10*
X1633333Y-24033334D02*
X1733333Y-24066666D01*
D10*
X1566666Y-24000000D02*
X1633333Y-24033334D01*
D10*
X1500000Y-23933334D02*
X1566666Y-24000000D01*
D10*
X1466666Y-23866666D02*
X1500000Y-23933334D01*
D10*
X1466666Y-23733334D02*
X1466666Y-23866666D01*
D10*
X1500000Y-23666666D02*
X1466666Y-23733334D01*
D10*
X1566666Y-23600000D02*
X1500000Y-23666666D01*
D10*
X1633333Y-23566666D02*
X1566666Y-23600000D01*
D10*
X2133333Y-22966666D02*
X2066666Y-22900000D01*
D10*
X2166666Y-23066666D02*
X2133333Y-22966666D01*
D10*
X2166666Y-23200000D02*
X2166666Y-23066666D01*
D10*
X2133333Y-23300000D02*
X2166666Y-23200000D01*
D10*
X2066666Y-23366666D02*
X2133333Y-23300000D01*
D10*
X2000000Y-23366666D02*
X2066666Y-23366666D01*
D10*
X1933333Y-23333334D02*
X2000000Y-23366666D01*
D10*
X1900000Y-23300000D02*
X1933333Y-23333334D01*
D10*
X1866666Y-23233334D02*
X1900000Y-23300000D01*
D10*
X1800000Y-23033334D02*
X1866666Y-23233334D01*
D10*
X1766666Y-22966666D02*
X1800000Y-23033334D01*
D10*
X1733333Y-22933334D02*
X1766666Y-22966666D01*
D10*
X1666666Y-22900000D02*
X1733333Y-22933334D01*
D10*
X1566666Y-22900000D02*
X1666666Y-22900000D01*
D10*
X1500000Y-22966666D02*
X1566666Y-22900000D01*
D10*
X1466666Y-23066666D02*
X1500000Y-22966666D01*
D10*
X1466666Y-23200000D02*
X1466666Y-23066666D01*
D10*
X1500000Y-23300000D02*
X1466666Y-23200000D01*
D10*
X1566666Y-23366666D02*
X1500000Y-23300000D01*
D10*
X1766666Y-21800000D02*
X1766666Y-22400000D01*
D10*
X368666Y-24233334D02*
X1068666Y-23966666D01*
D10*
X368666Y-23700000D02*
X1068666Y-23966666D01*
D10*
X602000Y-23800000D02*
X602000Y-24133334D01*
D10*
X368666Y-23533334D02*
X1068666Y-23533334D01*
D10*
X1068666Y-23300000D02*
X1068666Y-23533334D01*
D10*
X1035333Y-23200000D02*
X1068666Y-23300000D01*
D10*
X968666Y-23133334D02*
X1035333Y-23200000D01*
D10*
X902000Y-23100000D02*
X968666Y-23133334D01*
D10*
X802000Y-23066666D02*
X902000Y-23100000D01*
D10*
X635333Y-23066666D02*
X802000Y-23066666D01*
D10*
X535333Y-23100000D02*
X635333Y-23066666D01*
D10*
X468666Y-23133334D02*
X535333Y-23100000D01*
D10*
X402000Y-23200000D02*
X468666Y-23133334D01*
D10*
X368666Y-23300000D02*
X402000Y-23200000D01*
D10*
X368666Y-23533334D02*
X368666Y-23300000D01*
D10*
X968666Y-22400000D02*
X902000Y-22366666D01*
D10*
X1035333Y-22466666D02*
X968666Y-22400000D01*
D10*
X1068666Y-22533334D02*
X1035333Y-22466666D01*
D10*
X1068666Y-22666666D02*
X1068666Y-22533334D01*
D10*
X1035333Y-22733334D02*
X1068666Y-22666666D01*
D10*
X968666Y-22800000D02*
X1035333Y-22733334D01*
D10*
X902000Y-22833334D02*
X968666Y-22800000D01*
D10*
X802000Y-22866666D02*
X902000Y-22833334D01*
D10*
X635333Y-22866666D02*
X802000Y-22866666D01*
D10*
X535333Y-22833334D02*
X635333Y-22866666D01*
D10*
X468666Y-22800000D02*
X535333Y-22833334D01*
D10*
X402000Y-22733334D02*
X468666Y-22800000D01*
D10*
X368666Y-22666666D02*
X402000Y-22733334D01*
D10*
X368666Y-22533334D02*
X368666Y-22666666D01*
D10*
X402000Y-22466666D02*
X368666Y-22533334D01*
D10*
X468666Y-22400000D02*
X402000Y-22466666D01*
D10*
X535333Y-22366666D02*
X468666Y-22400000D01*
D10*
X368666Y-21966666D02*
X1068666Y-21700000D01*
D10*
X368666Y-21433334D02*
X1068666Y-21700000D01*
D10*
X602000Y-21533334D02*
X602000Y-21866666D01*
D10*
X4876666Y13913333D02*
X5376666Y13913333D01*
D10*
X4776666Y13946667D02*
X4876666Y13913333D01*
D10*
X4710000Y14013333D02*
X4776666Y13946667D01*
D10*
X4676666Y14113333D02*
X4710000Y14013333D01*
D10*
X4676666Y14180000D02*
X4676666Y14113333D01*
D10*
X4710000Y14280000D02*
X4676666Y14180000D01*
D10*
X4776666Y14346667D02*
X4710000Y14280000D01*
D10*
X4876666Y14380000D02*
X4776666Y14346667D01*
D10*
X5376666Y14380000D02*
X4876666Y14380000D01*
D10*
X5343333Y14680000D02*
X5376666Y14780000D01*
D10*
X5276666Y14646667D02*
X5343333Y14680000D01*
D10*
X5210000Y14646667D02*
X5276666Y14646667D01*
D10*
X5143333Y14680000D02*
X5210000Y14646667D01*
D10*
X5110000Y14746667D02*
X5143333Y14680000D01*
D10*
X5076666Y14880000D02*
X5110000Y14746667D01*
D10*
X5043333Y14980000D02*
X5076666Y14880000D01*
D10*
X4976666Y15046667D02*
X5043333Y14980000D01*
D10*
X4910000Y15080000D02*
X4976666Y15046667D01*
D10*
X4810000Y15080000D02*
X4910000Y15080000D01*
D10*
X4743333Y15046667D02*
X4810000Y15080000D01*
D10*
X4710000Y15013333D02*
X4743333Y15046667D01*
D10*
X4676666Y14913333D02*
X4710000Y15013333D01*
D10*
X4676666Y14780000D02*
X4676666Y14913333D01*
D10*
X4710000Y14680000D02*
X4676666Y14780000D01*
D10*
X4743333Y14646667D02*
X4710000Y14680000D01*
D10*
X4810000Y14613333D02*
X4743333Y14646667D01*
D10*
X4910000Y14613333D02*
X4810000Y14613333D01*
D10*
X4976666Y14646667D02*
X4910000Y14613333D01*
D10*
X5043333Y14713333D02*
X4976666Y14646667D01*
D10*
X5076666Y14813333D02*
X5043333Y14713333D01*
D10*
X5110000Y14946667D02*
X5076666Y14813333D01*
D10*
X5143333Y15013333D02*
X5110000Y14946667D01*
D10*
X5210000Y15046667D02*
X5143333Y15013333D01*
D10*
X5276666Y15046667D02*
X5210000Y15046667D01*
D10*
X5343333Y15013333D02*
X5276666Y15046667D01*
D10*
X5376666Y14913333D02*
X5343333Y15013333D01*
D10*
X5376666Y14780000D02*
X5376666Y14913333D01*
D10*
X23189178Y-9290838D02*
X23889178Y-9290838D01*
D10*
X23889178Y-8990838D02*
X23889178Y-9290838D01*
D10*
X23855846Y-8890838D02*
X23889178Y-8990838D01*
D10*
X23822512Y-8857504D02*
X23855846Y-8890838D01*
D10*
X23755846Y-8824171D02*
X23822512Y-8857504D01*
D10*
X23689178Y-8824171D02*
X23755846Y-8824171D01*
D10*
X23622512Y-8857504D02*
X23689178Y-8824171D01*
D10*
X23589178Y-8890838D02*
X23622512Y-8857504D01*
D10*
X23555846Y-8990838D02*
X23589178Y-8890838D01*
D10*
X23555846Y-9290838D02*
X23555846Y-8990838D01*
D10*
X23189178Y-8824171D02*
X23555846Y-9057504D01*
D10*
X23789178Y-8457504D02*
X23755846Y-8524171D01*
D10*
X23889178Y-8357504D02*
X23789178Y-8457504D01*
D10*
X23189178Y-8357504D02*
X23889178Y-8357504D01*
D10*
X23189178Y-7824171D02*
X23889178Y-7490838D01*
D10*
X23889178Y-7490838D02*
X23889178Y-7957504D01*
D10*
X18666666Y-32033334D02*
X19366666Y-32033334D01*
D10*
X19366666Y-31800000D02*
X19366666Y-32033334D01*
D10*
X19333334Y-31700000D02*
X19366666Y-31800000D01*
D10*
X19266666Y-31633334D02*
X19333334Y-31700000D01*
D10*
X19200000Y-31600000D02*
X19266666Y-31633334D01*
D10*
X19100000Y-31566666D02*
X19200000Y-31600000D01*
D10*
X18933334Y-31566666D02*
X19100000Y-31566666D01*
D10*
X18833334Y-31600000D02*
X18933334Y-31566666D01*
D10*
X18766666Y-31633334D02*
X18833334Y-31600000D01*
D10*
X18700000Y-31700000D02*
X18766666Y-31633334D01*
D10*
X18666666Y-31800000D02*
X18700000Y-31700000D01*
D10*
X18666666Y-32033334D02*
X18666666Y-31800000D01*
D10*
X19266666Y-30900000D02*
X19200000Y-30866666D01*
D10*
X19333334Y-30966666D02*
X19266666Y-30900000D01*
D10*
X19366666Y-31033334D02*
X19333334Y-30966666D01*
D10*
X19366666Y-31166666D02*
X19366666Y-31033334D01*
D10*
X19333334Y-31233334D02*
X19366666Y-31166666D01*
D10*
X19266666Y-31300000D02*
X19333334Y-31233334D01*
D10*
X19200000Y-31333334D02*
X19266666Y-31300000D01*
D10*
X19100000Y-31366666D02*
X19200000Y-31333334D01*
D10*
X18933334Y-31366666D02*
X19100000Y-31366666D01*
D10*
X18833334Y-31333334D02*
X18933334Y-31366666D01*
D10*
X18766666Y-31300000D02*
X18833334Y-31333334D01*
D10*
X18700000Y-31233334D02*
X18766666Y-31300000D01*
D10*
X18666666Y-31166666D02*
X18700000Y-31233334D01*
D10*
X18666666Y-31033334D02*
X18666666Y-31166666D01*
D10*
X18700000Y-30966666D02*
X18666666Y-31033334D01*
D10*
X18766666Y-30900000D02*
X18700000Y-30966666D01*
D10*
X18833334Y-30866666D02*
X18766666Y-30900000D01*
D10*
X18666666Y-30200000D02*
X18666666Y-30733334D01*
D10*
X19266666Y-29600000D02*
X19200000Y-29566666D01*
D10*
X19333334Y-29666666D02*
X19266666Y-29600000D01*
D10*
X19366666Y-29733334D02*
X19333334Y-29666666D01*
D10*
X19366666Y-29866666D02*
X19366666Y-29733334D01*
D10*
X19333334Y-29933334D02*
X19366666Y-29866666D01*
D10*
X19266666Y-30000000D02*
X19333334Y-29933334D01*
D10*
X19200000Y-30033334D02*
X19266666Y-30000000D01*
D10*
X19100000Y-30066666D02*
X19200000Y-30033334D01*
D10*
X18933334Y-30066666D02*
X19100000Y-30066666D01*
D10*
X18833334Y-30033334D02*
X18933334Y-30066666D01*
D10*
X18766666Y-30000000D02*
X18833334Y-30033334D01*
D10*
X18700000Y-29933334D02*
X18766666Y-30000000D01*
D10*
X18666666Y-29866666D02*
X18700000Y-29933334D01*
D10*
X18666666Y-29733334D02*
X18666666Y-29866666D01*
D10*
X18700000Y-29666666D02*
X18666666Y-29733334D01*
D10*
X18766666Y-29600000D02*
X18700000Y-29666666D01*
D10*
X18833334Y-29566666D02*
X18766666Y-29600000D01*
D10*
X18666666Y-29433334D02*
X19366666Y-29166666D01*
D10*
X18666666Y-28900000D02*
X19366666Y-29166666D01*
D10*
X18900000Y-29000000D02*
X18900000Y-29333334D01*
D10*
X18666666Y-28733334D02*
X19366666Y-28733334D01*
D10*
X18666666Y-28333334D02*
X18666666Y-28733334D01*
D10*
X8266666Y-12133333D02*
X8200000Y-12100000D01*
D10*
X8333333Y-12200000D02*
X8266666Y-12133333D01*
D10*
X8366666Y-12266667D02*
X8333333Y-12200000D01*
D10*
X8366666Y-12400000D02*
X8366666Y-12266667D01*
D10*
X8333333Y-12466667D02*
X8366666Y-12400000D01*
D10*
X8266666Y-12533333D02*
X8333333Y-12466667D01*
D10*
X8200000Y-12566667D02*
X8266666Y-12533333D01*
D10*
X8100000Y-12600000D02*
X8200000Y-12566667D01*
D10*
X7933333Y-12600000D02*
X8100000Y-12600000D01*
D10*
X7833333Y-12566667D02*
X7933333Y-12600000D01*
D10*
X7766666Y-12533333D02*
X7833333Y-12566667D01*
D10*
X7700000Y-12466667D02*
X7766666Y-12533333D01*
D10*
X7666666Y-12400000D02*
X7700000Y-12466667D01*
D10*
X7666666Y-12266667D02*
X7666666Y-12400000D01*
D10*
X7700000Y-12200000D02*
X7666666Y-12266667D01*
D10*
X7766666Y-12133333D02*
X7700000Y-12200000D01*
D10*
X7833333Y-12100000D02*
X7766666Y-12133333D01*
D10*
X8233333Y-11866667D02*
X8200000Y-11866667D01*
D10*
X8300000Y-11833333D02*
X8233333Y-11866667D01*
D10*
X8333333Y-11800000D02*
X8300000Y-11833333D01*
D10*
X8366666Y-11733333D02*
X8333333Y-11800000D01*
D10*
X8366666Y-11600000D02*
X8366666Y-11733333D01*
D10*
X8333333Y-11533333D02*
X8366666Y-11600000D01*
D10*
X8300000Y-11500000D02*
X8333333Y-11533333D01*
D10*
X8233333Y-11466667D02*
X8300000Y-11500000D01*
D10*
X8166666Y-11466667D02*
X8233333Y-11466667D01*
D10*
X8100000Y-11500000D02*
X8166666Y-11466667D01*
D10*
X8000000Y-11566667D02*
X8100000Y-11500000D01*
D10*
X7666666Y-11900000D02*
X8000000Y-11566667D01*
D10*
X7666666Y-11433333D02*
X7666666Y-11900000D01*
D10*
X8333333Y-11133333D02*
X8366666Y-11033333D01*
D10*
X8233333Y-11200000D02*
X8333333Y-11133333D01*
D10*
X8066666Y-11233333D02*
X8233333Y-11200000D01*
D10*
X7966666Y-11233333D02*
X8066666Y-11233333D01*
D10*
X7800000Y-11200000D02*
X7966666Y-11233333D01*
D10*
X7700000Y-11133333D02*
X7800000Y-11200000D01*
D10*
X7666666Y-11033333D02*
X7700000Y-11133333D01*
D10*
X7666666Y-10966667D02*
X7666666Y-11033333D01*
D10*
X7700000Y-10866667D02*
X7666666Y-10966667D01*
D10*
X7800000Y-10800000D02*
X7700000Y-10866667D01*
D10*
X7966666Y-10766667D02*
X7800000Y-10800000D01*
D10*
X8066666Y-10766667D02*
X7966666Y-10766667D01*
D10*
X8233333Y-10800000D02*
X8066666Y-10766667D01*
D10*
X8333333Y-10866667D02*
X8233333Y-10800000D01*
D10*
X8366666Y-10966667D02*
X8333333Y-10866667D01*
D10*
X8366666Y-11033333D02*
X8366666Y-10966667D01*
D10*
X15766667Y14733333D02*
X15700000Y14766667D01*
D10*
X15833333Y14666667D02*
X15766667Y14733333D01*
D10*
X15866667Y14600000D02*
X15833333Y14666667D01*
D10*
X15866667Y14466667D02*
X15866667Y14600000D01*
D10*
X15833333Y14400000D02*
X15866667Y14466667D01*
D10*
X15766667Y14333333D02*
X15833333Y14400000D01*
D10*
X15700000Y14300000D02*
X15766667Y14333333D01*
D10*
X15600000Y14266667D02*
X15700000Y14300000D01*
D10*
X15433333Y14266667D02*
X15600000Y14266667D01*
D10*
X15333333Y14300000D02*
X15433333Y14266667D01*
D10*
X15266667Y14333333D02*
X15333333Y14300000D01*
D10*
X15200000Y14400000D02*
X15266667Y14333333D01*
D10*
X15166667Y14466667D02*
X15200000Y14400000D01*
D10*
X15166667Y14600000D02*
X15166667Y14466667D01*
D10*
X15200000Y14666667D02*
X15166667Y14600000D01*
D10*
X15266667Y14733333D02*
X15200000Y14666667D01*
D10*
X15333333Y14766667D02*
X15266667Y14733333D01*
D10*
X15733333Y15000000D02*
X15700000Y15000000D01*
D10*
X15800000Y15033333D02*
X15733333Y15000000D01*
D10*
X15833333Y15066667D02*
X15800000Y15033333D01*
D10*
X15866667Y15133333D02*
X15833333Y15066667D01*
D10*
X15866667Y15266667D02*
X15866667Y15133333D01*
D10*
X15833333Y15333333D02*
X15866667Y15266667D01*
D10*
X15800000Y15366667D02*
X15833333Y15333333D01*
D10*
X15733333Y15400000D02*
X15800000Y15366667D01*
D10*
X15666667Y15400000D02*
X15733333Y15400000D01*
D10*
X15600000Y15366667D02*
X15666667Y15400000D01*
D10*
X15500000Y15300000D02*
X15600000Y15366667D01*
D10*
X15166667Y14966667D02*
X15500000Y15300000D01*
D10*
X15166667Y15433333D02*
X15166667Y14966667D01*
D10*
X15533333Y16033333D02*
X15633333Y16066667D01*
D10*
X15466667Y15966667D02*
X15533333Y16033333D01*
D10*
X15433333Y15866667D02*
X15466667Y15966667D01*
D10*
X15433333Y15833333D02*
X15433333Y15866667D01*
D10*
X15466667Y15733333D02*
X15433333Y15833333D01*
D10*
X15533333Y15666667D02*
X15466667Y15733333D01*
D10*
X15633333Y15633333D02*
X15533333Y15666667D01*
D10*
X15666667Y15633333D02*
X15633333Y15633333D01*
D10*
X15766667Y15666667D02*
X15666667Y15633333D01*
D10*
X15833333Y15733333D02*
X15766667Y15666667D01*
D10*
X15866667Y15833333D02*
X15833333Y15733333D01*
D10*
X15866667Y15866667D02*
X15866667Y15833333D01*
D10*
X15833333Y15966667D02*
X15866667Y15866667D01*
D10*
X15766667Y16033333D02*
X15833333Y15966667D01*
D10*
X15633333Y16066667D02*
X15766667Y16033333D01*
D10*
X15466667Y16066667D02*
X15633333Y16066667D01*
D10*
X15300000Y16033333D02*
X15466667Y16066667D01*
D10*
X15200000Y15966667D02*
X15300000Y16033333D01*
D10*
X15166667Y15866667D02*
X15200000Y15966667D01*
D10*
X15166667Y15800000D02*
X15166667Y15866667D01*
D10*
X15200000Y15700000D02*
X15166667Y15800000D01*
D10*
X15266667Y15666667D02*
X15200000Y15700000D01*
D10*
X11066667Y-23900000D02*
X11766667Y-23900000D01*
D10*
X11066667Y-23633334D02*
X11766667Y-23633334D01*
D10*
X11066667Y-23166666D02*
X11766667Y-23633334D01*
D10*
X11066667Y-23166666D02*
X11766667Y-23166666D01*
D10*
X11066667Y-22900000D02*
X11766667Y-22900000D01*
D10*
X11066667Y-22433334D02*
X11766667Y-22433334D01*
D10*
X11433333Y-22433334D02*
X11433333Y-22900000D01*
D10*
X11066667Y-21733334D02*
X11066667Y-22266666D01*
D10*
X11066667Y-21666666D02*
X11766667Y-21400000D01*
D10*
X11066667Y-21133334D02*
X11766667Y-21400000D01*
D10*
X11300000Y-21233334D02*
X11300000Y-21566666D01*
D10*
X-2608333Y-17133334D02*
X-2108333Y-17133334D01*
D10*
X-2708333Y-17100000D02*
X-2608333Y-17133334D01*
D10*
X-2775000Y-17033334D02*
X-2708333Y-17100000D01*
D10*
X-2808333Y-16933334D02*
X-2775000Y-17033334D01*
D10*
X-2808333Y-16866666D02*
X-2808333Y-16933334D01*
D10*
X-2775000Y-16766667D02*
X-2808333Y-16866666D01*
D10*
X-2708333Y-16700000D02*
X-2775000Y-16766667D01*
D10*
X-2608333Y-16666667D02*
X-2708333Y-16700000D01*
D10*
X-2108333Y-16666667D02*
X-2608333Y-16666667D01*
D10*
X-2208333Y-16266667D02*
X-2241666Y-16333333D01*
D10*
X-2108333Y-16166667D02*
X-2208333Y-16266667D01*
D10*
X-2808333Y-16166667D02*
X-2108333Y-16166667D01*
D10*
X-2108333Y-15333333D02*
X-2108333Y-15700000D01*
D10*
X-2375000Y-15533333D02*
X-2108333Y-15333333D01*
D10*
X-2375000Y-15433333D02*
X-2375000Y-15533333D01*
D10*
X-2408333Y-15366667D02*
X-2375000Y-15433333D01*
D10*
X-2441666Y-15333333D02*
X-2408333Y-15366667D01*
D10*
X-2541666Y-15300000D02*
X-2441666Y-15333333D01*
D10*
X-2608333Y-15300000D02*
X-2541666Y-15300000D01*
D10*
X-2708333Y-15333333D02*
X-2608333Y-15300000D01*
D10*
X-2775000Y-15400000D02*
X-2708333Y-15333333D01*
D10*
X-2808333Y-15500000D02*
X-2775000Y-15400000D01*
D10*
X-2808333Y-15600000D02*
X-2808333Y-15500000D01*
D10*
X-2775000Y-15700000D02*
X-2808333Y-15600000D01*
D10*
X-2741666Y-15733333D02*
X-2775000Y-15700000D01*
D10*
X-2675000Y-15766667D02*
X-2741666Y-15733333D01*
D10*
X18166666Y18833334D02*
X18100000Y18866666D01*
D10*
X18233334Y18766666D02*
X18166666Y18833334D01*
D10*
X18266666Y18700000D02*
X18233334Y18766666D01*
D10*
X18300000Y18600000D02*
X18266666Y18700000D01*
D10*
X18300000Y18433334D02*
X18300000Y18600000D01*
D10*
X18266666Y18333334D02*
X18300000Y18433334D01*
D10*
X18233334Y18266666D02*
X18266666Y18333334D01*
D10*
X18166666Y18200000D02*
X18233334Y18266666D01*
D10*
X18100000Y18166666D02*
X18166666Y18200000D01*
D10*
X17966666Y18166666D02*
X18100000Y18166666D01*
D10*
X17900000Y18200000D02*
X17966666Y18166666D01*
D10*
X17833334Y18266666D02*
X17900000Y18200000D01*
D10*
X17800000Y18333334D02*
X17833334Y18266666D01*
D10*
X17766666Y18433334D02*
X17800000Y18333334D01*
D10*
X17766666Y18600000D02*
X17766666Y18433334D01*
D10*
X17800000Y18700000D02*
X17766666Y18600000D01*
D10*
X17833334Y18766666D02*
X17800000Y18700000D01*
D10*
X17900000Y18833334D02*
X17833334Y18766666D01*
D10*
X17966666Y18866666D02*
X17900000Y18833334D01*
D10*
X18100000Y18866666D02*
X17966666Y18866666D01*
D10*
X17800000Y18100000D02*
X18000000Y18300000D01*
D10*
X17133334Y18866666D02*
X17500000Y18866666D01*
D10*
X17333334Y18600000D02*
X17133334Y18866666D01*
D10*
X17233334Y18600000D02*
X17333334Y18600000D01*
D10*
X17166666Y18566666D02*
X17233334Y18600000D01*
D10*
X17133334Y18533334D02*
X17166666Y18566666D01*
D10*
X17100000Y18433334D02*
X17133334Y18533334D01*
D10*
X17100000Y18366666D02*
X17100000Y18433334D01*
D10*
X17133334Y18266666D02*
X17100000Y18366666D01*
D10*
X17200000Y18200000D02*
X17133334Y18266666D01*
D10*
X17300000Y18166666D02*
X17200000Y18200000D01*
D10*
X17400000Y18166666D02*
X17300000Y18166666D01*
D10*
X17500000Y18200000D02*
X17400000Y18166666D01*
D10*
X17533334Y18233334D02*
X17500000Y18200000D01*
D10*
X17566666Y18300000D02*
X17533334Y18233334D01*
D10*
X18666666Y-23733334D02*
X19366666Y-23733334D01*
D10*
X18666666Y-23466666D02*
X19366666Y-23466666D01*
D10*
X18666666Y-23000000D02*
X19366666Y-23466666D01*
D10*
X18666666Y-23000000D02*
X19366666Y-23000000D01*
D10*
X18666666Y-22733334D02*
X19366666Y-22733334D01*
D10*
X18666666Y-22333334D02*
X18666666Y-22733334D01*
D10*
X18666666Y-21733334D02*
X18666666Y-22266666D01*
D10*
X18666666Y-21666666D02*
X19366666Y-21400000D01*
D10*
X18666666Y-21133334D02*
X19366666Y-21400000D01*
D10*
X18900000Y-21233334D02*
X18900000Y-21566666D01*
D10*
X28666666Y18833334D02*
X28600000Y18866666D01*
D10*
X28733334Y18766666D02*
X28666666Y18833334D01*
D10*
X28766666Y18700000D02*
X28733334Y18766666D01*
D10*
X28800000Y18600000D02*
X28766666Y18700000D01*
D10*
X28800000Y18433334D02*
X28800000Y18600000D01*
D10*
X28766666Y18333334D02*
X28800000Y18433334D01*
D10*
X28733334Y18266666D02*
X28766666Y18333334D01*
D10*
X28666666Y18200000D02*
X28733334Y18266666D01*
D10*
X28600000Y18166666D02*
X28666666Y18200000D01*
D10*
X28466666Y18166666D02*
X28600000Y18166666D01*
D10*
X28400000Y18200000D02*
X28466666Y18166666D01*
D10*
X28333334Y18266666D02*
X28400000Y18200000D01*
D10*
X28300000Y18333334D02*
X28333334Y18266666D01*
D10*
X28266666Y18433334D02*
X28300000Y18333334D01*
D10*
X28266666Y18600000D02*
X28266666Y18433334D01*
D10*
X28300000Y18700000D02*
X28266666Y18600000D01*
D10*
X28333334Y18766666D02*
X28300000Y18700000D01*
D10*
X28400000Y18833334D02*
X28333334Y18766666D01*
D10*
X28466666Y18866666D02*
X28400000Y18833334D01*
D10*
X28600000Y18866666D02*
X28466666Y18866666D01*
D10*
X28300000Y18100000D02*
X28500000Y18300000D01*
D10*
X27666666Y18833334D02*
X27633334Y18766666D01*
D10*
X27766666Y18866666D02*
X27666666Y18833334D01*
D10*
X27833334Y18866666D02*
X27766666Y18866666D01*
D10*
X27933334Y18833334D02*
X27833334Y18866666D01*
D10*
X28000000Y18733334D02*
X27933334Y18833334D01*
D10*
X28033334Y18566666D02*
X28000000Y18733334D01*
D10*
X28033334Y18400000D02*
X28033334Y18566666D01*
D10*
X28000000Y18266666D02*
X28033334Y18400000D01*
D10*
X27933334Y18200000D02*
X28000000Y18266666D01*
D10*
X27833334Y18166666D02*
X27933334Y18200000D01*
D10*
X27800000Y18166666D02*
X27833334Y18166666D01*
D10*
X27700000Y18200000D02*
X27800000Y18166666D01*
D10*
X27633334Y18266666D02*
X27700000Y18200000D01*
D10*
X27600000Y18366666D02*
X27633334Y18266666D01*
D10*
X27600000Y18400000D02*
X27600000Y18366666D01*
D10*
X27633334Y18500000D02*
X27600000Y18400000D01*
D10*
X27700000Y18566666D02*
X27633334Y18500000D01*
D10*
X27800000Y18600000D02*
X27700000Y18566666D01*
D10*
X27833334Y18600000D02*
X27800000Y18600000D01*
D10*
X27933334Y18566666D02*
X27833334Y18600000D01*
D10*
X28000000Y18500000D02*
X27933334Y18566666D01*
D10*
X28033334Y18400000D02*
X28000000Y18500000D01*
D10*
X23166666Y14733333D02*
X23100000Y14766667D01*
D10*
X23233334Y14666667D02*
X23166666Y14733333D01*
D10*
X23266666Y14600000D02*
X23233334Y14666667D01*
D10*
X23266666Y14466667D02*
X23266666Y14600000D01*
D10*
X23233334Y14400000D02*
X23266666Y14466667D01*
D10*
X23166666Y14333333D02*
X23233334Y14400000D01*
D10*
X23100000Y14300000D02*
X23166666Y14333333D01*
D10*
X23000000Y14266667D02*
X23100000Y14300000D01*
D10*
X22833334Y14266667D02*
X23000000Y14266667D01*
D10*
X22733334Y14300000D02*
X22833334Y14266667D01*
D10*
X22666666Y14333333D02*
X22733334Y14300000D01*
D10*
X22600000Y14400000D02*
X22666666Y14333333D01*
D10*
X22566666Y14466667D02*
X22600000Y14400000D01*
D10*
X22566666Y14600000D02*
X22566666Y14466667D01*
D10*
X22600000Y14666667D02*
X22566666Y14600000D01*
D10*
X22666666Y14733333D02*
X22600000Y14666667D01*
D10*
X22733334Y14766667D02*
X22666666Y14733333D01*
D10*
X23266666Y15400000D02*
X23266666Y15033333D01*
D10*
X23000000Y15200000D02*
X23266666Y15400000D01*
D10*
X23000000Y15300000D02*
X23000000Y15200000D01*
D10*
X22966666Y15366667D02*
X23000000Y15300000D01*
D10*
X22933334Y15400000D02*
X22966666Y15366667D01*
D10*
X22833334Y15433333D02*
X22933334Y15400000D01*
D10*
X22766666Y15433333D02*
X22833334Y15433333D01*
D10*
X22666666Y15400000D02*
X22766666Y15433333D01*
D10*
X22600000Y15333333D02*
X22666666Y15400000D01*
D10*
X22566666Y15233333D02*
X22600000Y15333333D01*
D10*
X22566666Y15133333D02*
X22566666Y15233333D01*
D10*
X22600000Y15033333D02*
X22566666Y15133333D01*
D10*
X22633334Y15000000D02*
X22600000Y15033333D01*
D10*
X22700000Y14966667D02*
X22633334Y15000000D01*
D10*
X23233334Y15733333D02*
X23266666Y15833333D01*
D10*
X23133334Y15666667D02*
X23233334Y15733333D01*
D10*
X22966666Y15633333D02*
X23133334Y15666667D01*
D10*
X22866666Y15633333D02*
X22966666Y15633333D01*
D10*
X22700000Y15666667D02*
X22866666Y15633333D01*
D10*
X22600000Y15733333D02*
X22700000Y15666667D01*
D10*
X22566666Y15833333D02*
X22600000Y15733333D01*
D10*
X22566666Y15900000D02*
X22566666Y15833333D01*
D10*
X22600000Y16000000D02*
X22566666Y15900000D01*
D10*
X22700000Y16066667D02*
X22600000Y16000000D01*
D10*
X22866666Y16100000D02*
X22700000Y16066667D01*
D10*
X22966666Y16100000D02*
X22866666Y16100000D01*
D10*
X23133334Y16066667D02*
X22966666Y16100000D01*
D10*
X23233334Y16000000D02*
X23133334Y16066667D01*
D10*
X23266666Y15900000D02*
X23233334Y16000000D01*
D10*
X23266666Y15833333D02*
X23266666Y15900000D01*
D10*
X13566667Y-24000000D02*
X14266667Y-24000000D01*
D10*
X13566667Y-23733334D02*
X14266667Y-23733334D01*
D10*
X13566667Y-23266666D02*
X14266667Y-23733334D01*
D10*
X13566667Y-23266666D02*
X14266667Y-23266666D01*
D10*
X13566667Y-23000000D02*
X14266667Y-23000000D01*
D10*
X13566667Y-22533334D02*
X14266667Y-22533334D01*
D10*
X13933333Y-22533334D02*
X13933333Y-23000000D01*
D10*
X13566667Y-21833334D02*
X13566667Y-22366666D01*
D10*
X13566667Y-21666666D02*
X14266667Y-21666666D01*
D10*
X14266667Y-21366666D02*
X14266667Y-21666666D01*
D10*
X14233333Y-21266666D02*
X14266667Y-21366666D01*
D10*
X14200000Y-21233334D02*
X14233333Y-21266666D01*
D10*
X14133333Y-21200000D02*
X14200000Y-21233334D01*
D10*
X14066667Y-21200000D02*
X14133333Y-21200000D01*
D10*
X14000000Y-21233334D02*
X14066667Y-21200000D01*
D10*
X13966667Y-21266666D02*
X14000000Y-21233334D01*
D10*
X13933333Y-21366666D02*
X13966667Y-21266666D01*
D10*
X13933333Y-21366666D02*
X13933333Y-21666666D01*
D10*
X13900000Y-21266666D02*
X13933333Y-21366666D01*
D10*
X13866667Y-21233334D02*
X13900000Y-21266666D01*
D10*
X13800000Y-21200000D02*
X13866667Y-21233334D01*
D10*
X13700000Y-21200000D02*
X13800000Y-21200000D01*
D10*
X13633333Y-21233334D02*
X13700000Y-21200000D01*
D10*
X13600000Y-21266666D02*
X13633333Y-21233334D01*
D10*
X13566667Y-21366666D02*
X13600000Y-21266666D01*
D10*
X13566667Y-21666666D02*
X13566667Y-21366666D01*
D10*
X13616667Y3716666D02*
X13616667Y4416666D01*
D10*
X13316667Y4416666D02*
X13616667Y4416666D01*
D10*
X13216667Y4383333D02*
X13316667Y4416666D01*
D10*
X13183333Y4350000D02*
X13216667Y4383333D01*
D10*
X13150000Y4283333D02*
X13183333Y4350000D01*
D10*
X13150000Y4216666D02*
X13150000Y4283333D01*
D10*
X13183333Y4150000D02*
X13150000Y4216666D01*
D10*
X13216667Y4116666D02*
X13183333Y4150000D01*
D10*
X13316667Y4083333D02*
X13216667Y4116666D01*
D10*
X13616667Y4083333D02*
X13316667Y4083333D01*
D10*
X13150000Y3716666D02*
X13383333Y4083333D01*
D10*
X12883333Y4416666D02*
X12550000Y4416666D01*
D10*
X12916667Y4116666D02*
X12883333Y4416666D01*
D10*
X12883333Y4150000D02*
X12916667Y4116666D01*
D10*
X12783333Y4183333D02*
X12883333Y4150000D01*
D10*
X12683333Y4183333D02*
X12783333Y4183333D01*
D10*
X12583333Y4150000D02*
X12683333Y4183333D01*
D10*
X12516667Y4083333D02*
X12583333Y4150000D01*
D10*
X12483333Y3983333D02*
X12516667Y4083333D01*
D10*
X12483333Y3916666D02*
X12483333Y3983333D01*
D10*
X12516667Y3816666D02*
X12483333Y3916666D01*
D10*
X12583333Y3750000D02*
X12516667Y3816666D01*
D10*
X12683333Y3716666D02*
X12583333Y3750000D01*
D10*
X12783333Y3716666D02*
X12683333Y3716666D01*
D10*
X12883333Y3750000D02*
X12783333Y3716666D01*
D10*
X12916667Y3783333D02*
X12883333Y3750000D01*
D10*
X12950000Y3850000D02*
X12916667Y3783333D01*
D10*
X12116667Y4316666D02*
X12183333Y4283333D01*
D10*
X12016667Y4416666D02*
X12116667Y4316666D01*
D10*
X12016667Y3716666D02*
X12016667Y4416666D01*
D10*
X21366666Y18833338D02*
X21300000Y18866670D01*
D10*
X21433334Y18766670D02*
X21366666Y18833338D01*
D10*
X21466666Y18700004D02*
X21433334Y18766670D01*
D10*
X21500000Y18600004D02*
X21466666Y18700004D01*
D10*
X21500000Y18433338D02*
X21500000Y18600004D01*
D10*
X21466666Y18333338D02*
X21500000Y18433338D01*
D10*
X21433334Y18266670D02*
X21466666Y18333338D01*
D10*
X21366666Y18200004D02*
X21433334Y18266670D01*
D10*
X21300000Y18166670D02*
X21366666Y18200004D01*
D10*
X21166666Y18166670D02*
X21300000Y18166670D01*
D10*
X21100000Y18200004D02*
X21166666Y18166670D01*
D10*
X21033334Y18266670D02*
X21100000Y18200004D01*
D10*
X21000000Y18333338D02*
X21033334Y18266670D01*
D10*
X20966666Y18433338D02*
X21000000Y18333338D01*
D10*
X20966666Y18600004D02*
X20966666Y18433338D01*
D10*
X21000000Y18700004D02*
X20966666Y18600004D01*
D10*
X21033334Y18766670D02*
X21000000Y18700004D01*
D10*
X21100000Y18833338D02*
X21033334Y18766670D01*
D10*
X21166666Y18866670D02*
X21100000Y18833338D01*
D10*
X21300000Y18866670D02*
X21166666Y18866670D01*
D10*
X21000000Y18100004D02*
X21200000Y18300004D01*
D10*
X20766666Y18400004D02*
X20433334Y18866670D01*
D10*
X20266666Y18400004D02*
X20766666Y18400004D01*
D10*
X20433334Y18166670D02*
X20433334Y18866670D01*
D10*
X-4933333Y-6833333D02*
X-5000000Y-6800000D01*
D10*
X-4866666Y-6900000D02*
X-4933333Y-6833333D01*
D10*
X-4833333Y-6966666D02*
X-4866666Y-6900000D01*
D10*
X-4833333Y-7100000D02*
X-4833333Y-6966666D01*
D10*
X-4866666Y-7166666D02*
X-4833333Y-7100000D01*
D10*
X-4933333Y-7233333D02*
X-4866666Y-7166666D01*
D10*
X-5000000Y-7266666D02*
X-4933333Y-7233333D01*
D10*
X-5100000Y-7300000D02*
X-5000000Y-7266666D01*
D10*
X-5266666Y-7300000D02*
X-5100000Y-7300000D01*
D10*
X-5366666Y-7266666D02*
X-5266666Y-7300000D01*
D10*
X-5433333Y-7233333D02*
X-5366666Y-7266666D01*
D10*
X-5500000Y-7166666D02*
X-5433333Y-7233333D01*
D10*
X-5533333Y-7100000D02*
X-5500000Y-7166666D01*
D10*
X-5533333Y-6966666D02*
X-5533333Y-7100000D01*
D10*
X-5500000Y-6900000D02*
X-5533333Y-6966666D01*
D10*
X-5433333Y-6833333D02*
X-5500000Y-6900000D01*
D10*
X-5366666Y-6800000D02*
X-5433333Y-6833333D01*
D10*
X-5300000Y-6600000D02*
X-4833333Y-6266667D01*
D10*
X-5300000Y-6100000D02*
X-5300000Y-6600000D01*
D10*
X-5533333Y-6266667D02*
X-4833333Y-6266667D01*
D10*
X-4833333Y-5866667D02*
X-4833333Y-5533333D01*
D10*
X-5133333Y-5900000D02*
X-4833333Y-5866667D01*
D10*
X-5100000Y-5866667D02*
X-5133333Y-5900000D01*
D10*
X-5066666Y-5766667D02*
X-5100000Y-5866667D01*
D10*
X-5066666Y-5666667D02*
X-5066666Y-5766667D01*
D10*
X-5100000Y-5566667D02*
X-5066666Y-5666667D01*
D10*
X-5166666Y-5500000D02*
X-5100000Y-5566667D01*
D10*
X-5266666Y-5466667D02*
X-5166666Y-5500000D01*
D10*
X-5333333Y-5466667D02*
X-5266666Y-5466667D01*
D10*
X-5433333Y-5500000D02*
X-5333333Y-5466667D01*
D10*
X-5500000Y-5566667D02*
X-5433333Y-5500000D01*
D10*
X-5533333Y-5666667D02*
X-5500000Y-5566667D01*
D10*
X-5533333Y-5766667D02*
X-5533333Y-5666667D01*
D10*
X-5500000Y-5866667D02*
X-5533333Y-5766667D01*
D10*
X-5466666Y-5900000D02*
X-5500000Y-5866667D01*
D10*
X-5400000Y-5933333D02*
X-5466666Y-5900000D01*
D10*
X-3663333Y7466666D02*
X-3730000Y7500000D01*
D10*
X-3596666Y7400000D02*
X-3663333Y7466666D01*
D10*
X-3563333Y7333333D02*
X-3596666Y7400000D01*
D10*
X-3563333Y7200000D02*
X-3563333Y7333333D01*
D10*
X-3596666Y7133333D02*
X-3563333Y7200000D01*
D10*
X-3663333Y7066666D02*
X-3596666Y7133333D01*
D10*
X-3730000Y7033333D02*
X-3663333Y7066666D01*
D10*
X-3830000Y7000000D02*
X-3730000Y7033333D01*
D10*
X-3996666Y7000000D02*
X-3830000Y7000000D01*
D10*
X-4096666Y7033333D02*
X-3996666Y7000000D01*
D10*
X-4163333Y7066666D02*
X-4096666Y7033333D01*
D10*
X-4230000Y7133333D02*
X-4163333Y7066666D01*
D10*
X-4263333Y7200000D02*
X-4230000Y7133333D01*
D10*
X-4263333Y7333333D02*
X-4263333Y7200000D01*
D10*
X-4230000Y7400000D02*
X-4263333Y7333333D01*
D10*
X-4163333Y7466666D02*
X-4230000Y7400000D01*
D10*
X-4096666Y7500000D02*
X-4163333Y7466666D01*
D10*
X-3563333Y8133333D02*
X-3563333Y7766666D01*
D10*
X-3830000Y7933333D02*
X-3563333Y8133333D01*
D10*
X-3830000Y8033333D02*
X-3830000Y7933333D01*
D10*
X-3863333Y8100000D02*
X-3830000Y8033333D01*
D10*
X-3896666Y8133333D02*
X-3863333Y8100000D01*
D10*
X-3996666Y8166666D02*
X-3896666Y8133333D01*
D10*
X-4063333Y8166666D02*
X-3996666Y8166666D01*
D10*
X-4163333Y8133333D02*
X-4063333Y8166666D01*
D10*
X-4230000Y8066666D02*
X-4163333Y8133333D01*
D10*
X-4263333Y7966666D02*
X-4230000Y8066666D01*
D10*
X-4263333Y7866666D02*
X-4263333Y7966666D01*
D10*
X-4230000Y7766666D02*
X-4263333Y7866666D01*
D10*
X-4196666Y7733333D02*
X-4230000Y7766666D01*
D10*
X-4130000Y7700000D02*
X-4196666Y7733333D01*
D10*
X-3563333Y8433333D02*
X-3563333Y8766667D01*
D10*
X-3863333Y8400000D02*
X-3563333Y8433333D01*
D10*
X-3830000Y8433333D02*
X-3863333Y8400000D01*
D10*
X-3796666Y8533333D02*
X-3830000Y8433333D01*
D10*
X-3796666Y8633333D02*
X-3796666Y8533333D01*
D10*
X-3830000Y8733333D02*
X-3796666Y8633333D01*
D10*
X-3896666Y8800000D02*
X-3830000Y8733333D01*
D10*
X-3996666Y8833333D02*
X-3896666Y8800000D01*
D10*
X-4063333Y8833333D02*
X-3996666Y8833333D01*
D10*
X-4163333Y8800000D02*
X-4063333Y8833333D01*
D10*
X-4230000Y8733333D02*
X-4163333Y8800000D01*
D10*
X-4263333Y8633333D02*
X-4230000Y8733333D01*
D10*
X-4263333Y8533333D02*
X-4263333Y8633333D01*
D10*
X-4230000Y8433333D02*
X-4263333Y8533333D01*
D10*
X-4196666Y8400000D02*
X-4230000Y8433333D01*
D10*
X-4130000Y8366666D02*
X-4196666Y8400000D01*
D10*
X-2808333Y33333D02*
X-2308333Y33333D01*
D10*
X-2908333Y66666D02*
X-2808333Y33333D01*
D10*
X-2975000Y133333D02*
X-2908333Y66666D01*
D10*
X-3008333Y233333D02*
X-2975000Y133333D01*
D10*
X-3008333Y300000D02*
X-3008333Y233333D01*
D10*
X-2975000Y400000D02*
X-3008333Y300000D01*
D10*
X-2908333Y466666D02*
X-2975000Y400000D01*
D10*
X-2808333Y500000D02*
X-2908333Y466666D01*
D10*
X-2308333Y500000D02*
X-2808333Y500000D01*
D10*
X-2641666Y1133333D02*
X-2541666Y1166666D01*
D10*
X-2708333Y1066666D02*
X-2641666Y1133333D01*
D10*
X-2741666Y966666D02*
X-2708333Y1066666D01*
D10*
X-2741666Y933333D02*
X-2741666Y966666D01*
D10*
X-2708333Y833333D02*
X-2741666Y933333D01*
D10*
X-2641666Y766666D02*
X-2708333Y833333D01*
D10*
X-2541666Y733333D02*
X-2641666Y766666D01*
D10*
X-2508333Y733333D02*
X-2541666Y733333D01*
D10*
X-2408333Y766666D02*
X-2508333Y733333D01*
D10*
X-2341666Y833333D02*
X-2408333Y766666D01*
D10*
X-2308333Y933333D02*
X-2341666Y833333D01*
D10*
X-2308333Y966666D02*
X-2308333Y933333D01*
D10*
X-2341666Y1066666D02*
X-2308333Y966666D01*
D10*
X-2408333Y1133333D02*
X-2341666Y1066666D01*
D10*
X-2541666Y1166666D02*
X-2408333Y1133333D01*
D10*
X-2708333Y1166666D02*
X-2541666Y1166666D01*
D10*
X-2875000Y1133333D02*
X-2708333Y1166666D01*
D10*
X-2975000Y1066666D02*
X-2875000Y1133333D01*
D10*
X-3008333Y966666D02*
X-2975000Y1066666D01*
D10*
X-3008333Y900000D02*
X-3008333Y966666D01*
D10*
X-2975000Y800000D02*
X-3008333Y900000D01*
D10*
X-2908333Y766666D02*
X-2975000Y800000D01*
D11*
X-300000Y15600000D02*
X-300000Y14000000D01*
D11*
X-2100000Y15600000D02*
X-2100000Y14000000D01*
D11*
X400000Y11000000D02*
X2000000Y11000000D01*
D11*
X400000Y9200000D02*
X2000000Y9200000D01*
D11*
X1900000Y18300000D02*
X2500000Y18300000D01*
D11*
X2500000Y17100000D02*
X1900000Y17100000D01*
D11*
X100000Y-10800000D02*
X700000Y-10800000D01*
D11*
X700000Y-12000000D02*
X100000Y-12000000D01*
D11*
X7350000Y12700000D02*
X7350000Y11100000D01*
D11*
X5550000Y12700000D02*
X5550000Y11100000D01*
D11*
X-3400000Y-1100000D02*
X-2800000Y-1100000D01*
D11*
X-2800000Y-2300000D02*
X-3400000Y-2300000D01*
D11*
X-3200000Y5500000D02*
X-3200000Y6100000D01*
D11*
X-2000000Y6100000D02*
X-2000000Y5500000D01*
D11*
X-3771667Y-20762362D02*
X-3771667Y-22274997D01*
D11*
X-5561667Y-22274997D02*
X-5561667Y-20762362D01*
D11*
X-3771667Y-20762362D02*
X-3771667Y-20399997D01*
D11*
X-5561667Y-20762362D02*
X-5561667Y-20399997D01*
D11*
X-3771667Y-22274997D02*
X-5561667Y-22274997D01*
D11*
X4500000Y-10800000D02*
X5300000Y-10800000D01*
D11*
X4500000Y-12000000D02*
X5300000Y-12000000D01*
D11*
X8715000Y-15550000D02*
X8715000Y-17400000D01*
D11*
X7400000Y-15550000D02*
X8715000Y-15550000D01*
D11*
X7400000Y-15550000D02*
X7275000Y-15540000D01*
D11*
X7275000Y-15540000D02*
X7275000Y-17340000D01*
D11*
X6830952Y-17665238D02*
X6735714Y-17617620D01*
D11*
X6926190Y-17760476D02*
X6830952Y-17665238D01*
D11*
X6973809Y-17855714D02*
X6926190Y-17760476D01*
D11*
X6973809Y-18046190D02*
X6973809Y-17855714D01*
D11*
X6926190Y-18141428D02*
X6973809Y-18046190D01*
D11*
X6830952Y-18236666D02*
X6926190Y-18141428D01*
D11*
X6735714Y-18284286D02*
X6830952Y-18236666D01*
D11*
X6592857Y-18331904D02*
X6735714Y-18284286D01*
D11*
X6354762Y-18331904D02*
X6592857Y-18331904D01*
D11*
X6211905Y-18284286D02*
X6354762Y-18331904D01*
D11*
X6116666Y-18236666D02*
X6211905Y-18284286D01*
D11*
X6021428Y-18141428D02*
X6116666Y-18236666D01*
D11*
X5973809Y-18046190D02*
X6021428Y-18141428D01*
D11*
X5973809Y-17855714D02*
X5973809Y-18046190D01*
D11*
X6021428Y-17760476D02*
X5973809Y-17855714D01*
D11*
X6116666Y-17665238D02*
X6021428Y-17760476D01*
D11*
X6211905Y-17617620D02*
X6116666Y-17665238D01*
D11*
X6830952Y-17093810D02*
X6783333Y-17189048D01*
D11*
X6973809Y-16950952D02*
X6830952Y-17093810D01*
D11*
X5973809Y-16950952D02*
X6973809Y-16950952D01*
D11*
X6497619Y-15808095D02*
X6640476Y-15760476D01*
D11*
X6402381Y-15903333D02*
X6497619Y-15808095D01*
D11*
X6354762Y-16046190D02*
X6402381Y-15903333D01*
D11*
X6354762Y-16093810D02*
X6354762Y-16046190D01*
D11*
X6402381Y-16236667D02*
X6354762Y-16093810D01*
D11*
X6497619Y-16331905D02*
X6402381Y-16236667D01*
D11*
X6640476Y-16379524D02*
X6497619Y-16331905D01*
D11*
X6688095Y-16379524D02*
X6640476Y-16379524D01*
D11*
X6830952Y-16331905D02*
X6688095Y-16379524D01*
D11*
X6926190Y-16236667D02*
X6830952Y-16331905D01*
D11*
X6973809Y-16093810D02*
X6926190Y-16236667D01*
D11*
X6973809Y-16046190D02*
X6973809Y-16093810D01*
D11*
X6926190Y-15903333D02*
X6973809Y-16046190D01*
D11*
X6830952Y-15808095D02*
X6926190Y-15903333D01*
D11*
X6640476Y-15760476D02*
X6830952Y-15808095D01*
D11*
X6402381Y-15760476D02*
X6640476Y-15760476D01*
D11*
X6164285Y-15808095D02*
X6402381Y-15760476D01*
D11*
X6021428Y-15903333D02*
X6164285Y-15808095D01*
D11*
X5973809Y-16046190D02*
X6021428Y-15903333D01*
D11*
X5973809Y-16141429D02*
X5973809Y-16046190D01*
D11*
X6021428Y-16284286D02*
X5973809Y-16141429D01*
D11*
X6116666Y-16331905D02*
X6021428Y-16284286D01*
D11*
X-5166667Y-23899997D02*
X-5166667Y-23299997D01*
D11*
X-3966667Y-23299997D02*
X-3966667Y-23899997D01*
D11*
X6500000Y-13100000D02*
X6500000Y-13900000D01*
D11*
X5300000Y-13100000D02*
X5300000Y-13900000D01*
D11*
X16425000Y17775000D02*
X16425000Y15020000D01*
D11*
X21575000Y15020000D02*
X21575000Y9900000D01*
D11*
X21575000Y17775000D02*
X21575000Y15020000D01*
D11*
X16425000Y17775000D02*
X21575000Y17775000D01*
D11*
X23800000Y12200000D02*
X23800000Y10600000D01*
D11*
X22000000Y12200000D02*
X22000000Y10600000D01*
D11*
X9275000Y974996D02*
X9275000Y-1780004D01*
D11*
X14425000Y-1780004D02*
X14425000Y-6900004D01*
D11*
X14425000Y974996D02*
X14425000Y-1780004D01*
D11*
X9275000Y974996D02*
X14425000Y974996D01*
D11*
X9300000Y12700000D02*
X9300000Y11100000D01*
D11*
X7500000Y12700000D02*
X7500000Y11100000D01*
D11*
X100000Y-1000000D02*
X700000Y-1000000D01*
D11*
X700000Y-2200000D02*
X100000Y-2200000D01*
D11*
X10400000Y-8300000D02*
X9800000Y-8300000D01*
D11*
X9800000Y-7100000D02*
X10400000Y-7100000D01*
D11*
X23925000Y975000D02*
X23925000Y-1780000D01*
D11*
X29075000Y-1780000D02*
X29075000Y-6900000D01*
D11*
X29075000Y975000D02*
X29075000Y-1780000D01*
D11*
X23925000Y975000D02*
X29075000Y975000D01*
D11*
X-3130000Y8100000D02*
X-3130000Y8900000D01*
D11*
X-1930000Y8100000D02*
X-1930000Y8900000D01*
D11*
X17115306Y8775000D02*
X19484694Y8775000D01*
D11*
X19484694Y5025000D02*
X17115306Y5025000D01*
D11*
X9015306Y8475000D02*
X11384694Y8475000D01*
D11*
X11384694Y4725000D02*
X9015306Y4725000D01*
D11*
X-900000Y12500000D02*
X-300000Y12500000D01*
D11*
X-300000Y11300000D02*
X-900000Y11300000D01*
D11*
X-2700000Y2900000D02*
X-3500000Y2900000D01*
D11*
X-2700000Y4100000D02*
X-3500000Y4100000D01*
D11*
X700000Y19420000D02*
X700000Y17200000D01*
D11*
X-700000Y17180000D02*
X-2300000Y17180000D01*
D11*
X-700000Y17180000D02*
X700000Y17180000D01*
D11*
X-700000Y19420000D02*
X700000Y19420000D01*
D11*
X-700000Y19420000D02*
X-2300000Y19420000D01*
D11*
X-1725000Y-18325000D02*
X-1725000Y-14275000D01*
D11*
X5325000Y-14275000D02*
X5325000Y-18325000D01*
D11*
X-1725000Y-14275000D02*
X-1725000Y-11300000D01*
D11*
X-700000Y8900000D02*
X-100000Y8900000D01*
D11*
X-100000Y7700000D02*
X-700000Y7700000D01*
D11*
X30900000Y13400000D02*
X30900000Y11800000D01*
D11*
X29100000Y13400000D02*
X29100000Y11800000D01*
D11*
X4000000Y8900000D02*
X4800000Y8900000D01*
D11*
X4000000Y7700000D02*
X4800000Y7700000D01*
D11*
X-1900000Y-3500000D02*
X-1900000Y-4300000D01*
D11*
X-3100000Y-3500000D02*
X-3100000Y-4300000D01*
D11*
X5400000Y18400000D02*
X3800000Y18400000D01*
D11*
X5400000Y20200000D02*
X3800000Y20200000D01*
D11*
X22922511Y-8124171D02*
X22922511Y-8724171D01*
D11*
X21722511Y-8724171D02*
X21722511Y-8124171D01*
D11*
X-3400000Y-10900000D02*
X-2800000Y-10900000D01*
D11*
X-2800000Y-12100000D02*
X-3400000Y-12100000D01*
D11*
X-1725000Y-8525000D02*
X-1725000Y-4475000D01*
D11*
X5325000Y-4475000D02*
X5325000Y-8525000D01*
D11*
X-1725000Y-4475000D02*
X-1725000Y-1500000D01*
D11*
X1600000Y12500000D02*
X2200000Y12500000D01*
D11*
X2200000Y11300000D02*
X1600000Y11300000D01*
D11*
X16425000Y975000D02*
X16425000Y-1780000D01*
D11*
X21575000Y-1780000D02*
X21575000Y-6900000D01*
D11*
X21575000Y975000D02*
X21575000Y-1780000D01*
D11*
X16425000Y975000D02*
X21575000Y975000D01*
D11*
X-3766667Y-23899997D02*
X-3766667Y-23299997D01*
D11*
X-2566667Y-23299997D02*
X-2566667Y-23899997D01*
D11*
X-90000Y13940000D02*
X-90000Y15660000D01*
D11*
X4475000Y15600000D02*
X4475000Y12725000D01*
D11*
X-1900000Y-13300000D02*
X-1900000Y-14100000D01*
D11*
X-3100000Y-13300000D02*
X-3100000Y-14100000D01*
D11*
X7400000Y-14500000D02*
X7400000Y-13700000D01*
D11*
X8600000Y-14500000D02*
X8600000Y-13700000D01*
D11*
X-1825000Y1375000D02*
X-1825000Y5425000D01*
D11*
X5225000Y5425000D02*
X5225000Y1375000D01*
D11*
X-1825000Y5425000D02*
X-1825000Y8400000D01*
D11*
X16400000Y-8300000D02*
X15800000Y-8300000D01*
D11*
X15800000Y-7100000D02*
X16400000Y-7100000D01*
D11*
X9275000Y17774996D02*
X9275000Y15019996D01*
D11*
X14425000Y15019996D02*
X14425000Y9899996D01*
D11*
X14425000Y17774996D02*
X14425000Y15019996D01*
D11*
X9275000Y17774996D02*
X14425000Y17774996D01*
D11*
X16500000Y12300000D02*
X16500000Y10700000D01*
D11*
X14700000Y12300000D02*
X14700000Y10700000D01*
D11*
X24615306Y8775000D02*
X26984694Y8775000D01*
D11*
X26984694Y5025000D02*
X24615306Y5025000D01*
D11*
X23725000Y17775000D02*
X23725000Y15020000D01*
D11*
X28875000Y15020000D02*
X28875000Y9900000D01*
D11*
X28875000Y17775000D02*
X28875000Y15020000D01*
D11*
X23725000Y17775000D02*
X28875000Y17775000D01*
D11*
X4500000Y-1100000D02*
X5300000Y-1100000D01*
D11*
X4500000Y-2300000D02*
X5300000Y-2300000D01*
D11*
X-2900000Y-6600000D02*
X-3700000Y-6600000D01*
D11*
X-2900000Y-5400000D02*
X-3700000Y-5400000D01*
D11*
X15275000Y-13649999D02*
X16360000Y-13650000D01*
D11*
X15275000Y-13325000D02*
X15275000Y-13649999D01*
D11*
X10325000Y-13325000D02*
X15275000Y-13325000D01*
D11*
X15275000Y-18875000D02*
X10325000Y-18875000D01*
D11*
X16359524Y-12540476D02*
X16359524Y-11826190D01*
D11*
X16311905Y-12683333D02*
X16359524Y-12540476D01*
D11*
X16216667Y-12778571D02*
X16311905Y-12683333D01*
D11*
X16073810Y-12826190D02*
X16216667Y-12778571D01*
D11*
X15978571Y-12826190D02*
X16073810Y-12826190D01*
D11*
X15835714Y-12778571D02*
X15978571Y-12826190D01*
D11*
X15740476Y-12683333D02*
X15835714Y-12778571D01*
D11*
X15692857Y-12540476D02*
X15740476Y-12683333D01*
D11*
X15692857Y-11826190D02*
X15692857Y-12540476D01*
D11*
X15169048Y-12826190D02*
X14692857Y-11826190D01*
D11*
X14692857Y-11826190D02*
X15359524Y-11826190D01*
G75*
M02*
