%FSLAX46Y46*%
%MOMM*%
%AMPS14*
1,1,1.300000,0.000000,0.000000*
%
%ADD14PS14*%
%AMPS18*
1,1,1.300000,0.000000,0.000000*
%
%ADD18PS18*%
%AMPS42*
1,1,1.300000,0.000000,0.000000*
%
%ADD42PS42*%
%AMPS27*
1,1,1.300000,0.000000,0.000000*
%
%ADD27PS27*%
%AMPS55*
1,1,3.700000,0.000000,0.000000*
%
%ADD55PS55*%
%AMPS36*
1,1,2.800000,0.000000,0.000000*
%
%ADD36PS36*%
%AMPS22*
1,1,3.700000,0.000000,0.000000*
%
%ADD22PS22*%
%AMPS45*
1,1,3.700000,0.000000,0.000000*
%
%ADD45PS45*%
%AMPS34*
1,1,1.300000,0.000000,0.000000*
%
%ADD34PS34*%
%AMPS56*
1,1,1.300000,0.000000,0.000000*
%
%ADD56PS56*%
%AMPS30*
1,1,1.300000,0.000000,0.000000*
%
%ADD30PS30*%
%AMPS24*
1,1,1.300000,0.000000,0.000000*
%
%ADD24PS24*%
%AMPS29*
1,1,1.300000,0.000000,0.000000*
%
%ADD29PS29*%
%AMPS13*
1,1,1.300000,0.000000,0.000000*
%
%ADD13PS13*%
%AMPS50*
1,1,1.300000,0.000000,0.000000*
%
%ADD50PS50*%
%AMPS46*
1,1,3.700000,0.000000,0.000000*
%
%ADD46PS46*%
%AMPS16*
1,1,3.700000,0.000000,0.000000*
%
%ADD16PS16*%
%AMPS15*
1,1,1.300000,0.000000,0.000000*
%
%ADD15PS15*%
%AMPS51*
1,1,1.300000,0.000000,0.000000*
%
%ADD51PS51*%
%AMPS49*
1,1,1.300000,0.000000,0.000000*
%
%ADD49PS49*%
%AMPS17*
1,1,2.800000,0.000000,0.000000*
%
%ADD17PS17*%
%AMPS32*
21,1,3.340000,1.700000,0.000000,0.000000,180.000000*
%
%ADD32PS32*%
%AMPS31*
21,1,5.100000,4.610000,0.000000,0.000000,90.000000*
%
%ADD31PS31*%
%AMPS33*
21,1,1.700000,0.800000,0.000000,0.000000,90.000000*
%
%ADD33PS33*%
%AMPS57*
1,1,0.400000,0.650000,-0.125000*
1,1,0.400000,-0.650000,0.125000*
1,1,0.400000,0.650000,0.125000*
1,1,0.400000,-0.650000,-0.125000*
21,1,0.650000,1.300000,0.000000,0.000000,270.000000*
21,1,0.250000,1.700000,0.000000,0.000000,270.000000*
%
%ADD57PS57*%
%AMPS58*
1,1,0.400000,-0.650000,0.125000*
1,1,0.400000,0.650000,-0.125000*
1,1,0.400000,-0.650000,-0.125000*
1,1,0.400000,0.650000,0.125000*
21,1,0.650000,1.300000,0.000000,0.000000,90.000000*
21,1,0.250000,1.700000,0.000000,0.000000,90.000000*
%
%ADD58PS58*%
%AMPS40*
1,1,0.400000,0.300000,0.275000*
1,1,0.400000,-0.300000,-0.275000*
1,1,0.400000,-0.300000,0.275000*
1,1,0.400000,0.300000,-0.275000*
21,1,1.000000,0.550000,0.000000,0.000000,360.000000*
21,1,0.600000,0.950000,0.000000,0.000000,360.000000*
%
%ADD40PS40*%
%AMPS37*
1,1,0.400000,0.275000,-0.300000*
1,1,0.400000,-0.275000,0.300000*
1,1,0.400000,0.275000,0.300000*
1,1,0.400000,-0.275000,-0.300000*
21,1,1.000000,0.550000,0.000000,0.000000,270.000000*
21,1,0.600000,0.950000,0.000000,0.000000,270.000000*
%
%ADD37PS37*%
%AMPS23*
1,1,0.400000,-0.300000,-0.275000*
1,1,0.400000,0.300000,0.275000*
1,1,0.400000,0.300000,-0.275000*
1,1,0.400000,-0.300000,0.275000*
21,1,1.000000,0.550000,0.000000,0.000000,180.000000*
21,1,0.600000,0.950000,0.000000,0.000000,180.000000*
%
%ADD23PS23*%
%AMPS28*
1,1,0.400000,-0.275000,0.300000*
1,1,0.400000,0.275000,-0.300000*
1,1,0.400000,-0.275000,-0.300000*
1,1,0.400000,0.275000,0.300000*
21,1,1.000000,0.550000,0.000000,0.000000,90.000000*
21,1,0.600000,0.950000,0.000000,0.000000,90.000000*
%
%ADD28PS28*%
%AMPS44*
1,1,0.600000,-0.275000,-0.425000*
1,1,0.600000,0.275000,0.425000*
1,1,0.600000,0.275000,-0.425000*
1,1,0.600000,-0.275000,0.425000*
21,1,1.150000,0.850000,0.000000,0.000000,180.000000*
21,1,0.550000,1.450000,0.000000,0.000000,180.000000*
%
%ADD44PS44*%
%AMPS54*
1,1,0.400000,1.550000,-0.750000*
1,1,0.400000,-1.550000,0.750000*
1,1,0.400000,1.550000,0.750000*
1,1,0.400000,-1.550000,-0.750000*
21,1,1.900000,3.100000,0.000000,0.000000,270.000000*
21,1,1.500000,3.500000,0.000000,0.000000,270.000000*
%
%ADD54PS54*%
%AMPS47*
1,1,0.400000,0.400000,0.700000*
1,1,0.400000,-0.400000,-0.700000*
1,1,0.400000,-0.400000,0.700000*
1,1,0.400000,0.400000,-0.700000*
21,1,1.200000,1.400000,0.000000,0.000000,360.000000*
21,1,0.800000,1.800000,0.000000,0.000000,360.000000*
%
%ADD47PS47*%
%AMPS11*
1,1,0.400000,-0.400000,-0.700000*
1,1,0.400000,0.400000,0.700000*
1,1,0.400000,0.400000,-0.700000*
1,1,0.400000,-0.400000,0.700000*
21,1,1.200000,1.400000,0.000000,0.000000,180.000000*
21,1,0.800000,1.800000,0.000000,0.000000,180.000000*
%
%ADD11PS11*%
%AMPS10*
1,1,0.400000,-0.700000,0.400000*
1,1,0.400000,0.700000,-0.400000*
1,1,0.400000,-0.700000,-0.400000*
1,1,0.400000,0.700000,0.400000*
21,1,1.200000,1.400000,0.000000,0.000000,90.000000*
21,1,0.800000,1.800000,0.000000,0.000000,90.000000*
%
%ADD10PS10*%
%AMPS43*
1,1,0.700000,1.350000,0.375000*
1,1,0.700000,-1.350000,-0.375000*
1,1,0.700000,-1.350000,0.375000*
1,1,0.700000,1.350000,-0.375000*
21,1,3.400000,0.750000,0.000000,0.000000,360.000000*
21,1,2.700000,1.450000,0.000000,0.000000,360.000000*
%
%ADD43PS43*%
%AMPS20*
1,1,0.720000,0.380000,0.410000*
1,1,0.720000,-0.380000,-0.410000*
1,1,0.720000,-0.380000,0.410000*
1,1,0.720000,0.380000,-0.410000*
21,1,1.480000,0.820000,0.000000,0.000000,360.000000*
21,1,0.760000,1.540000,0.000000,0.000000,360.000000*
%
%ADD20PS20*%
%AMPS21*
1,1,0.720000,-0.380000,-0.410000*
1,1,0.720000,0.380000,0.410000*
1,1,0.720000,0.380000,-0.410000*
1,1,0.720000,-0.380000,0.410000*
21,1,1.480000,0.820000,0.000000,0.000000,180.000000*
21,1,0.760000,1.540000,0.000000,0.000000,180.000000*
%
%ADD21PS21*%
%AMPS53*
1,1,0.300000,0.075000,0.500000*
1,1,0.300000,-0.075000,-0.500000*
1,1,0.300000,-0.075000,0.500000*
1,1,0.300000,0.075000,-0.500000*
21,1,0.450000,1.000000,0.000000,0.000000,360.000000*
21,1,0.150000,1.300000,0.000000,0.000000,360.000000*
%
%ADD53PS53*%
%AMPS52*
1,1,0.300000,-0.075000,-0.500000*
1,1,0.300000,0.075000,0.500000*
1,1,0.300000,0.075000,-0.500000*
1,1,0.300000,-0.075000,0.500000*
21,1,0.450000,1.000000,0.000000,0.000000,180.000000*
21,1,0.150000,1.300000,0.000000,0.000000,180.000000*
%
%ADD52PS52*%
%AMPS41*
1,1,0.400000,0.600000,0.700000*
1,1,0.400000,-0.600000,-0.700000*
1,1,0.400000,-0.600000,0.700000*
1,1,0.400000,0.600000,-0.700000*
21,1,1.600000,1.400000,0.000000,0.000000,360.000000*
21,1,1.200000,1.800000,0.000000,0.000000,360.000000*
%
%ADD41PS41*%
%AMPS12*
1,1,0.400000,0.150000,0.350000*
1,1,0.400000,-0.150000,-0.350000*
1,1,0.400000,-0.150000,0.350000*
1,1,0.400000,0.150000,-0.350000*
21,1,0.700000,0.700000,0.000000,0.000000,360.000000*
21,1,0.300000,1.100000,0.000000,0.000000,360.000000*
%
%ADD12PS12*%
%AMPS48*
1,1,0.400000,0.350000,-0.150000*
1,1,0.400000,-0.350000,0.150000*
1,1,0.400000,0.350000,0.150000*
1,1,0.400000,-0.350000,-0.150000*
21,1,0.700000,0.700000,0.000000,0.000000,270.000000*
21,1,0.300000,1.100000,0.000000,0.000000,270.000000*
%
%ADD48PS48*%
%AMPS35*
1,1,0.400000,-0.150000,-0.350000*
1,1,0.400000,0.150000,0.350000*
1,1,0.400000,0.150000,-0.350000*
1,1,0.400000,-0.150000,0.350000*
21,1,0.700000,0.700000,0.000000,0.000000,180.000000*
21,1,0.300000,1.100000,0.000000,0.000000,180.000000*
%
%ADD35PS35*%
%AMPS19*
1,1,0.400000,-0.350000,0.150000*
1,1,0.400000,0.350000,-0.150000*
1,1,0.400000,-0.350000,-0.150000*
1,1,0.400000,0.350000,0.150000*
21,1,0.700000,0.700000,0.000000,0.000000,90.000000*
21,1,0.300000,1.100000,0.000000,0.000000,90.000000*
%
%ADD19PS19*%
%AMPS39*
1,1,0.700000,0.940000,-1.440000*
1,1,0.700000,-0.940000,1.440000*
1,1,0.700000,0.940000,1.440000*
1,1,0.700000,-0.940000,-1.440000*
21,1,3.580000,1.880000,0.000000,0.000000,270.000000*
21,1,2.880000,2.580000,0.000000,0.000000,270.000000*
%
%ADD39PS39*%
%AMPS38*
1,1,0.700000,-0.940000,1.440000*
1,1,0.700000,0.940000,-1.440000*
1,1,0.700000,-0.940000,-1.440000*
1,1,0.700000,0.940000,1.440000*
21,1,3.580000,1.880000,0.000000,0.000000,90.000000*
21,1,2.880000,2.580000,0.000000,0.000000,90.000000*
%
%ADD38PS38*%
%AMPS25*
1,1,0.480000,0.205000,0.305000*
1,1,0.480000,-0.205000,-0.305000*
1,1,0.480000,-0.205000,0.305000*
1,1,0.480000,0.205000,-0.305000*
21,1,0.890000,0.610000,0.000000,0.000000,360.000000*
21,1,0.410000,1.090000,0.000000,0.000000,360.000000*
%
%ADD25PS25*%
%AMPS26*
1,1,0.480000,-0.205000,-0.305000*
1,1,0.480000,0.205000,0.305000*
1,1,0.480000,0.205000,-0.305000*
1,1,0.480000,-0.205000,0.305000*
21,1,0.890000,0.610000,0.000000,0.000000,180.000000*
21,1,0.410000,1.090000,0.000000,0.000000,180.000000*
%
%ADD26PS26*%
G01*
G01*
%LPD*%
G75*
D10*
X-1200000Y16300000D03*
D10*
X-1200000Y13300000D03*
D11*
X-300000Y10100000D03*
D11*
X2700000Y10100000D03*
D12*
X2950000Y17700000D03*
D12*
X1450000Y17700000D03*
D13*
X3780000Y-27440000D03*
D14*
X1240000Y-24900000D03*
D15*
X-1300000Y-24900000D03*
D16*
X16000000Y2700000D03*
D12*
X1150000Y-11400000D03*
D12*
X-350000Y-11400000D03*
D17*
X28400000Y-33100000D03*
D18*
X13940000Y-24900000D03*
D10*
X6450000Y13400000D03*
D10*
X6450000Y10400000D03*
D12*
X-2350000Y-1700000D03*
D12*
X-3850000Y-1700000D03*
D19*
X-2600000Y6550000D03*
D19*
X-2600000Y5050000D03*
D20*
X-4666667Y-21299997D03*
D21*
X-4666667Y-19499997D03*
D22*
X-3300000Y22300000D03*
D23*
X5650000Y-11400000D03*
D23*
X4150000Y-11400000D03*
D24*
X21560000Y-27440000D03*
D15*
X3780000Y-24900000D03*
D25*
X8000000Y-17710000D03*
D26*
X8000000Y-16290000D03*
D27*
X19020000Y-24900000D03*
D19*
X-4566667Y-22849997D03*
D19*
X-4566667Y-24349997D03*
D28*
X5900000Y-14250000D03*
D28*
X5900000Y-12750000D03*
D29*
X8860000Y-24900000D03*
D18*
X21560000Y-24900000D03*
D30*
X13940000Y-27440000D03*
D31*
X19000000Y15020000D03*
D32*
X19635000Y10680000D03*
D33*
X17095000Y10680000D03*
D10*
X22900000Y12900000D03*
D10*
X22900000Y9900000D03*
D31*
X11850000Y-1780004D03*
D32*
X12485000Y-6120004D03*
D33*
X9945000Y-6120004D03*
D34*
X16480000Y-24900000D03*
D10*
X8400000Y13400000D03*
D10*
X8400000Y10400000D03*
D12*
X1150000Y-1600000D03*
D12*
X-350000Y-1600000D03*
D35*
X9350000Y-7700000D03*
D35*
X10850000Y-7700000D03*
D31*
X26500000Y-1780000D03*
D32*
X27135000Y-6120000D03*
D33*
X24595000Y-6120000D03*
D36*
X28400000Y-21200000D03*
D37*
X-2530000Y9250000D03*
D37*
X-2530000Y7750000D03*
D38*
X20710000Y6900000D03*
D39*
X15890000Y6900000D03*
D38*
X12610000Y6600000D03*
D39*
X7790000Y6600000D03*
D15*
X11400000Y-24900000D03*
D12*
X150000Y11900000D03*
D12*
X-1350000Y11900000D03*
D17*
X-3000000Y-33100000D03*
D40*
X-3850000Y3500000D03*
D40*
X-2350000Y3500000D03*
D41*
X-200000Y18300000D03*
D41*
X-2800000Y18300000D03*
D42*
X-1300000Y-27440000D03*
D43*
X1800000Y-19700000D03*
D44*
X4100000Y-12900000D03*
D44*
X-500000Y-12900000D03*
D44*
X1800000Y-12900000D03*
D45*
X28900000Y22300000D03*
D12*
X350000Y8300000D03*
D12*
X-1150000Y8300000D03*
D10*
X30000000Y14100000D03*
D10*
X30000000Y11100000D03*
D46*
X7700000Y2700000D03*
D23*
X5150000Y8300000D03*
D23*
X3650000Y8300000D03*
D28*
X-2500000Y-4650000D03*
D28*
X-2500000Y-3150000D03*
D47*
X6100000Y19300000D03*
D47*
X3100000Y19300000D03*
D48*
X22322511Y-9174171D03*
D48*
X22322511Y-7674171D03*
D27*
X6320000Y-24900000D03*
D49*
X8860000Y-27440000D03*
D50*
X11400000Y-27440000D03*
D51*
X16480000Y-27440000D03*
D12*
X-2350000Y-11500000D03*
D12*
X-3850000Y-11500000D03*
D43*
X1800000Y-9900000D03*
D44*
X4100000Y-3100000D03*
D44*
X-500000Y-3100000D03*
D44*
X1800000Y-3100000D03*
D12*
X2650000Y11900000D03*
D12*
X1150000Y11900000D03*
D31*
X19000000Y-1780000D03*
D32*
X19635000Y-6120000D03*
D33*
X17095000Y-6120000D03*
D19*
X-3166667Y-22849997D03*
D19*
X-3166667Y-24349997D03*
D34*
X6320000Y-27440000D03*
D52*
X3450000Y16400000D03*
D53*
X2950000Y13200000D03*
D52*
X1450000Y16400000D03*
D53*
X1950000Y13200000D03*
D53*
X1450000Y13200000D03*
D52*
X1950000Y16400000D03*
D54*
X2200000Y14800000D03*
D53*
X950000Y13200000D03*
D53*
X2450000Y13200000D03*
D52*
X950000Y16400000D03*
D52*
X2950000Y16400000D03*
D52*
X2450000Y16400000D03*
D53*
X3450000Y13200000D03*
D28*
X-2500000Y-14450000D03*
D28*
X-2500000Y-12950000D03*
D37*
X8000000Y-13350000D03*
D37*
X8000000Y-14850000D03*
D43*
X1700000Y0D03*
D44*
X4000000Y6800000D03*
D44*
X-600000Y6800000D03*
D44*
X1700000Y6800000D03*
D35*
X15350000Y-7700000D03*
D35*
X16850000Y-7700000D03*
D31*
X11850000Y15019996D03*
D32*
X12485000Y10679996D03*
D33*
X9945000Y10679996D03*
D55*
X23200000Y2700000D03*
D10*
X15600000Y13000000D03*
D10*
X15600000Y10000000D03*
D38*
X28210000Y6900000D03*
D39*
X23390000Y6900000D03*
D56*
X19020000Y-27440000D03*
D31*
X26300000Y15020000D03*
D32*
X26935000Y10680000D03*
D33*
X24395000Y10680000D03*
D23*
X5650000Y-1700000D03*
D23*
X4150000Y-1700000D03*
D40*
X-4050000Y-6000000D03*
D40*
X-2550000Y-6000000D03*
D57*
X9900000Y-18050000D03*
D57*
X9900000Y-16100000D03*
D58*
X15700000Y-15450000D03*
D58*
X15700000Y-18050000D03*
D58*
X15700000Y-14150000D03*
D57*
X9900000Y-16750000D03*
D58*
X15700000Y-16100000D03*
D58*
X15700000Y-14800000D03*
D58*
X15700000Y-17400000D03*
D57*
X9900000Y-14150000D03*
D57*
X9900000Y-14800000D03*
D57*
X9900000Y-17400000D03*
D58*
X15700000Y-16750000D03*
D57*
X9900000Y-15450000D03*
D13*
X1240000Y-27440000D03*
M02*
